<?xml version="1.0" encoding="utf-8"?>
<!-- Generator: Adobe Illustrator 23.0.1, SVG Export Plug-In . SVG Version: 6.00 Build 0)  -->
<svg version="1.1" id="图层_1" xmlns="http://www.w3.org/2000/svg" xmlns:xlink="http://www.w3.org/1999/xlink" x="0px" y="0px"
	 viewBox="0 0 100 100" style="enable-background:new 0 0 100 100;" xml:space="preserve">
<style type="text/css">
	.st0{fill:#3388FF;}
	.st1{fill-rule:evenodd;clip-rule:evenodd;fill:#FFFFFF;}
</style>
<circle class="st0" cx="50" cy="50" r="50"/>
<g id="搜索_熊掌_66icon">
	<g id="logo" transform="translate(121.212121, 90.909091)">
		<path id="Fill-1" class="st1" d="M-79.7-55.4c4.5,0,8.5-5.4,8.5-11.9c0-6.5-3.7-11.9-8.5-11.9c-4.5,0-8.5,5.4-8.5,11.9
			C-87.9-60.7-84.2-55.4-79.7-55.4"/>
		<path id="Fill-3" class="st1" d="M-59.9-54.5c6.2,0.8,10.2-5.7,11-10.8c0.8-4.8-3.1-10.8-7.6-11.6c-4.2-1.1-9.9,5.9-10.2,10.5
			C-67.2-61-66.1-55.4-59.9-54.5"/>
		<path id="Fill-5" class="st1" d="M-95.3-38.6c8.5-1.7,7.1-11.6,7.1-13.9c-0.3-3.4-4.2-9.3-9.9-8.8c-6.8,0.6-7.6,10.2-7.6,10.2
			C-106.9-46.6-103.8-36.9-95.3-38.6"/>
		<path id="Fill-7" class="st1" d="M-35.2-46.3c0-2.5-2-9.6-9.3-9.6c-7.4,0-8.5,6.8-8.5,11.6c0,4.5,0.3,11,9.6,10.8
			C-34.4-33.8-35.2-44-35.2-46.3"/>
		<path id="Fill-9" class="st1" d="M-86.5-21.4c-0.3,0.6-0.8,2.5-0.3,4c0.8,3.4,4,3.7,4,3.7h4.2v-10.8h-4.8
			C-85.1-23.6-86.2-21.9-86.5-21.4"/>
		<path id="Fill-11" class="st1" d="M-53.1-9.5h-12.7c-4.8-1.1-5.1-4.8-5.1-4.8v-13.9h5.1v12.5c0.3,1.4,2,1.7,2,1.7h5.4v-13.9h5.4
			V-9.5z M-73.2-9.2H-84c-4.8-0.8-6.8-4.2-6.8-4.8c-0.3-0.6-1.7-3.1-0.8-7.6c2-6.5,7.9-7.1,7.9-7.1h5.7v-7.1h4.8
			C-73.2-35.8-73.2-9.2-73.2-9.2z M-44.6-25.3c0,0-9.6-7.4-15.3-15.3c-7.6-11.6-18.4-7.1-21.8-1.1c-3.4,5.9-9.1,9.9-9.9,10.8
			c-0.8,0.8-11.6,6.8-9.1,17.3C-98.1-3.2-89.9-3.5-89.9-3.5s6.2,0.6,13.3-1.1c7.1-1.7,13.3,0.3,13.3,0.3S-46.6,1.3-42-9.7
			C-37.5-19.7-44.6-25.3-44.6-25.3L-44.6-25.3z"/>
	</g>
</g>
</svg>
