<!DOCTYPE svg PUBLIC "-//W3C//DTD SVG 20010904//EN" "http://www.w3.org/TR/2001/REC-SVG-20010904/DTD/svg10.dtd">
<svg version="1.0" xmlns="http://www.w3.org/2000/svg" width="1280px" height="1280px" viewBox="0 0 12000 12000" preserveAspectRatio="xMidYMid meet">
<g id="layer101" fill="#d80026" stroke="none">
<path d="M5610 11843 c-25 -2 -51 -6 -59 -9 -8 -3 -58 -6 -110 -8 -98 -4 -149 -8 -301 -27 -138 -17 -151 -20 -145 -30 4 -5 11 -6 17 -3 6 4 8 2 5 -4 -4 -6 -23 -8 -45 -5 -40 5 -238 -31 -258 -48 -7 -5 -16 -9 -20 -8 -5 1 -16 0 -24 -4 -8 -3 -37 -8 -65 -11 -99 -12 -124 -18 -127 -33 -2 -10 -18 -16 -48 -18 -66 -5 -208 -42 -175 -45 11 -1 24 -2 28 -1 5 1 6 -3 2 -9 -8 -13 -42 -13 -50 0 -4 6 -11 8 -16 4 -5 -3 -7 -9 -4 -14 3 -4 -4 -6 -16 -3 -11 3 -30 1 -42 -4 -49 -23 -79 -33 -100 -34 -21 -1 -20 -1 3 -9 21 -7 19 -8 -15 -8 -52 1 -126 -21 -143 -41 -7 -9 -14 -14 -15 -12 -1 2 -26 -4 -55 -13 -28 -10 -50 -21 -47 -26 3 -4 -5 -6 -17 -3 -17 3 -19 2 -10 -5 11 -7 8 -11 -10 -15 -12 -4 -34 -7 -47 -7 -13 0 -44 -11 -70 -24 -25 -14 -71 -35 -101 -47 -30 -12 -59 -27 -65 -32 -7 -7 -5 -7 4 -2 9 5 12 4 7 -3 -4 -7 -16 -12 -27 -12 -10 0 -29 -5 -42 -12 -12 -6 -29 -14 -37 -19 -8 -4 -14 -12 -12 -19 1 -6 -2 -9 -8 -5 -17 10 -129 -45 -123 -61 3 -10 0 -12 -10 -8 -8 3 -33 -4 -56 -16 -42 -21 -55 -35 -23 -23 9 3 14 3 10 -2 -4 -4 -19 -9 -34 -11 -41 -4 -95 -36 -89 -53 4 -11 3 -12 -10 -1 -12 10 -15 9 -15 -5 0 -10 -3 -16 -6 -12 -4 3 -24 -3 -45 -13 -26 -14 -37 -25 -33 -35 5 -11 2 -13 -12 -8 -13 5 -15 3 -9 -7 5 -8 4 -11 -3 -6 -13 8 -63 -14 -57 -25 3 -4 0 -11 -6 -15 -8 -4 -9 -3 -5 4 11 18 0 15 -54 -19 -31 -19 -49 -37 -46 -45 3 -8 0 -11 -10 -7 -8 3 -22 -1 -32 -9 -9 -8 -24 -18 -32 -21 -33 -15 -105 -75 -102 -87 1 -6 -2 -9 -8 -5 -12 7 -71 -27 -105 -61 -13 -13 -29 -24 -35 -24 -5 0 -10 -5 -10 -11 0 -5 5 -7 12 -3 7 4 8 3 4 -5 -4 -6 -11 -9 -15 -6 -14 8 -76 -40 -75 -57 1 -11 -4 -14 -14 -11 -10 4 -13 2 -8 -5 4 -7 2 -10 -7 -7 -13 6 -55 -31 -49 -43 2 -4 -2 -8 -10 -10 -9 -2 -8 0 2 7 8 6 11 11 5 11 -13 0 -142 -112 -162 -140 -8 -11 -19 -20 -26 -20 -10 0 -54 -40 -227 -211 -165 -163 -315 -330 -312 -348 2 -10 -3 -23 -9 -27 -9 -5 -10 -2 -5 12 4 12 -3 7 -18 -11 -14 -16 -23 -35 -21 -42 2 -7 -1 -15 -7 -19 -7 -4 -8 -3 -4 4 13 22 -10 12 -34 -13 -13 -14 -24 -35 -25 -47 -1 -13 -8 -23 -16 -23 -8 0 -13 -8 -13 -18 1 -9 -2 -15 -6 -12 -4 2 -22 -14 -41 -36 -19 -21 -49 -56 -66 -77 -18 -20 -33 -48 -33 -62 0 -16 -3 -21 -8 -12 -6 8 -16 -1 -32 -30 -13 -24 -32 -49 -42 -56 -22 -16 -49 -66 -45 -84 2 -7 2 -9 -1 -5 -5 9 -52 -56 -52 -71 0 -6 -7 -12 -15 -15 -19 -8 -56 -82 -49 -100 2 -8 -3 -20 -13 -28 -16 -13 -17 -12 -4 4 8 9 11 20 9 23 -9 8 -48 -47 -48 -66 0 -10 -7 -20 -15 -24 -8 -3 -15 -10 -15 -16 0 -6 5 -8 12 -4 7 4 8 3 4 -5 -4 -6 -11 -9 -16 -6 -4 3 -15 -13 -24 -34 -8 -22 -20 -42 -26 -46 -17 -11 -51 -85 -44 -97 5 -7 3 -8 -6 -3 -10 6 -12 4 -7 -8 4 -10 2 -16 -6 -14 -7 1 -12 -8 -11 -20 0 -12 -3 -20 -8 -17 -12 7 -28 -40 -21 -64 2 -11 0 -23 -6 -27 -6 -3 -11 -3 -10 2 5 31 -4 32 -17 3 -9 -19 -20 -44 -26 -56 -5 -11 -8 -26 -6 -34 2 -8 -3 -14 -10 -15 -16 0 -41 -42 -42 -69 0 -11 -16 -51 -36 -89 -19 -38 -33 -76 -30 -84 4 -10 2 -13 -8 -10 -9 4 -19 -8 -29 -36 -23 -62 -34 -110 -29 -125 2 -7 -2 -11 -8 -10 -16 4 -51 -99 -44 -128 4 -15 2 -24 -5 -24 -6 0 -11 8 -11 18 -1 23 -30 -58 -30 -83 0 -12 -5 -26 -11 -32 -6 -6 -11 -37 -11 -69 -1 -41 -4 -51 -8 -34 -8 27 -6 30 -31 -40 -5 -14 -13 -60 -18 -103 -5 -43 -12 -82 -16 -85 -4 -4 -4 11 -1 33 5 37 5 38 -4 10 -6 -16 -8 -38 -6 -48 2 -9 0 -15 -4 -12 -11 7 -29 -83 -24 -120 4 -25 3 -27 -6 -10 -7 16 -9 10 -6 -25 2 -25 1 -35 -1 -22 -2 12 -8 22 -11 22 -13 0 -53 -233 -47 -275 3 -26 2 -32 -3 -16 -13 42 -45 -160 -44 -274 2 -112 -5 -166 -19 -144 -4 7 -11 10 -15 6 -28 -28 -40 -957 -15 -1232 7 -82 15 -180 18 -217 7 -95 26 -88 21 6 -2 41 0 69 4 63 4 -6 6 -70 6 -142 -1 -71 4 -155 10 -185 6 -30 14 -73 18 -95 5 -32 8 -36 14 -20 4 12 7 -5 7 -45 0 -69 31 -240 44 -240 4 0 10 10 12 23 2 12 3 2 1 -23 -3 -35 -1 -41 6 -25 9 17 10 16 5 -7 -6 -32 13 -130 24 -123 5 2 6 -6 4 -19 -3 -14 0 -32 6 -43 8 -14 9 -11 4 17 -3 19 -3 32 0 29 4 -3 11 -41 17 -85 10 -73 14 -91 35 -149 7 -19 8 -18 15 5 5 19 7 15 7 -20 0 -25 5 -61 11 -80 7 -19 18 -55 26 -80 8 -25 15 -37 16 -27 0 17 20 25 20 8 0 -5 3 -18 6 -28 5 -15 4 -15 -5 -3 -17 24 -13 -3 10 -64 12 -31 26 -53 31 -50 5 3 8 0 7 -7 -5 -25 13 -103 29 -132 10 -16 22 -25 30 -22 11 4 13 -1 9 -16 -7 -25 19 -98 40 -116 8 -6 14 -14 13 -17 -3 -28 31 -116 46 -116 6 0 11 -6 11 -14 0 -8 7 -29 16 -48 8 -18 20 -46 26 -61 6 -15 15 -27 21 -27 5 0 10 -6 10 -14 0 -25 41 -86 53 -79 7 4 8 0 4 -11 -7 -18 27 -96 42 -96 4 0 15 -18 24 -40 8 -22 21 -39 28 -38 6 2 14 -4 16 -12 4 -13 3 -13 -6 0 -7 9 -11 11 -11 3 0 -7 7 -16 16 -21 8 -5 16 -15 18 -23 6 -33 20 -64 38 -83 11 -12 28 -38 39 -58 11 -21 22 -38 25 -38 3 0 3 4 -1 9 -3 5 -2 12 3 15 4 2 9 -7 10 -20 2 -30 27 -69 45 -69 6 -1 11 -6 9 -13 -3 -16 24 -69 41 -79 7 -4 25 -28 38 -53 14 -25 30 -44 36 -43 6 1 13 -10 16 -25 8 -39 113 -156 130 -145 6 3 7 1 3 -5 -9 -15 23 -64 37 -55 6 3 7 1 3 -5 -8 -13 40 -82 56 -82 5 0 6 5 2 12 -5 7 -3 8 5 4 7 -5 10 -10 7 -13 -8 -8 28 -61 86 -126 100 -114 542 -551 543 -537 0 3 18 -14 39 -37 21 -24 44 -43 50 -43 6 0 23 -12 37 -27 14 -16 37 -36 50 -45 35 -26 66 -49 103 -80 19 -16 37 -28 42 -28 4 0 -1 7 -12 16 -18 14 -18 15 3 4 13 -6 22 -16 20 -22 -1 -6 8 -17 20 -23 13 -7 21 -14 18 -17 -3 -3 17 -17 45 -32 27 -15 50 -31 50 -35 0 -4 16 -16 35 -27 19 -10 35 -22 35 -26 0 -9 62 -43 73 -40 4 1 7 -2 7 -8 0 -5 7 -7 15 -4 11 5 13 2 9 -10 -3 -9 -2 -16 4 -16 5 0 27 -12 48 -26 65 -45 106 -65 119 -60 7 2 12 -3 11 -11 -1 -20 52 -53 91 -57 15 -2 28 -9 28 -17 0 -7 19 -21 43 -29 23 -9 40 -19 36 -22 -3 -4 23 -21 57 -38 35 -17 78 -39 94 -50 17 -10 43 -19 58 -19 16 -1 26 -5 23 -10 -8 -12 22 -23 37 -14 7 3 9 3 5 -2 -13 -14 52 -47 81 -40 19 4 22 3 11 -4 -17 -12 -17 -12 40 -35 25 -10 59 -24 75 -32 17 -7 50 -20 75 -30 25 -10 49 -24 53 -31 4 -7 16 -13 27 -13 10 0 40 -9 66 -21 29 -12 58 -18 74 -14 18 4 21 3 11 -4 -15 -10 -15 -10 64 -41 29 -12 76 -21 105 -21 17 1 21 -2 12 -7 -18 -12 126 -54 156 -46 17 5 21 3 16 -9 -4 -12 8 -19 51 -32 31 -9 69 -17 86 -18 16 -1 29 -5 29 -8 0 -3 26 -12 58 -18 31 -7 70 -18 85 -24 16 -5 62 -10 103 -10 41 0 74 -3 74 -8 0 -5 -15 -10 -32 -10 -32 -1 -32 -1 7 -10 44 -10 140 -26 222 -38 29 -4 50 -4 47 1 -3 4 2 8 10 8 9 0 16 -7 16 -15 0 -16 3 -17 125 -37 115 -19 1622 -19 1745 0 124 19 130 21 130 37 0 8 7 15 16 15 8 0 13 -4 10 -8 -3 -5 21 -5 52 0 114 17 178 27 217 36 40 10 40 10 8 11 -18 0 -33 5 -33 10 0 5 33 8 74 8 41 0 87 5 103 10 15 6 54 17 86 24 31 6 57 15 57 18 0 3 13 7 29 8 17 1 55 9 86 18 43 13 55 20 51 32 -5 12 -1 14 16 9 27 -7 140 23 132 35 -3 5 3 6 12 2 11 -4 15 -2 11 4 -4 6 3 9 18 7 14 -1 27 2 31 7 3 5 16 9 30 9 13 0 32 4 42 9 9 5 30 14 46 21 24 9 27 13 15 21 -10 8 -8 9 8 4 22 -6 88 11 108 27 5 4 19 8 32 8 12 0 26 6 30 13 4 7 28 21 53 31 25 10 59 23 75 30 17 8 50 22 75 32 57 23 57 23 40 35 -11 7 -8 8 11 4 29 -7 94 26 81 40 -4 5 -2 5 5 2 15 -9 45 2 37 14 -3 5 7 9 23 10 15 0 42 9 58 19 17 11 59 33 94 50 34 17 60 34 57 38 -4 3 13 13 36 22 24 8 43 22 43 29 0 8 13 15 28 17 39 4 92 37 91 57 -1 8 4 13 11 11 12 -5 73 24 105 50 8 7 28 18 43 26 16 8 26 19 23 27 -3 7 0 14 7 14 7 1 17 2 22 3 16 2 73 35 77 44 1 4 20 18 41 31 20 12 35 26 32 31 -3 4 2 11 11 14 10 4 13 2 8 -7 -4 -6 12 5 37 25 24 21 73 58 109 82 36 25 72 53 81 63 9 10 27 25 40 33 13 8 34 27 48 43 14 15 31 27 37 27 6 0 27 17 46 38 18 20 37 38 41 39 22 8 445 426 545 540 51 58 93 117 91 129 0 3 3 9 7 12 4 4 4 1 0 -6 -4 -6 -3 -12 2 -12 16 0 64 69 56 82 -4 6 -3 8 3 5 14 -9 46 40 37 55 -4 6 -3 8 3 5 19 -12 133 123 133 158 0 8 5 14 12 13 6 -2 21 15 34 37 12 22 28 47 36 55 17 19 58 80 58 86 0 3 -5 2 -12 -2 -7 -4 -8 -3 -4 5 4 6 11 9 16 6 10 -6 40 39 40 60 0 8 4 15 10 15 18 0 61 76 54 96 -4 14 -3 15 4 6 7 -11 14 -7 31 17 12 17 20 35 16 41 -3 5 3 17 15 27 11 10 20 22 20 28 0 5 -5 3 -11 -5 -9 -13 -10 -13 -6 0 2 8 10 14 16 12 7 -1 20 16 28 38 9 22 20 40 25 40 11 0 41 69 40 93 0 9 3 15 8 12 13 -8 43 54 35 73 -3 9 -3 14 0 10 8 -8 45 22 46 37 0 5 11 32 24 60 13 27 21 53 19 57 -3 5 1 8 9 8 15 0 54 103 48 129 -1 8 2 10 10 5 9 -5 10 -2 6 10 -4 9 -3 15 2 12 14 -9 41 68 34 95 -6 21 -4 22 9 12 13 -11 17 -7 31 25 18 40 33 109 28 131 -1 7 2 10 7 7 5 -3 19 19 31 50 23 61 27 88 10 64 -9 -12 -10 -12 -5 3 3 10 6 23 6 28 0 17 20 9 20 -8 1 -10 8 2 16 27 8 25 19 61 26 80 6 19 11 55 11 80 0 35 2 39 7 20 7 -23 8 -24 15 -5 4 11 11 31 16 45 5 14 13 60 18 103 5 43 12 81 16 85 4 4 5 -9 1 -28 -5 -31 -5 -32 5 -10 5 14 8 33 5 42 -2 10 0 16 4 13 12 -7 33 100 25 127 -5 18 -4 20 4 8 9 -11 10 -6 7 25 -2 22 -1 30 1 18 2 -13 8 -23 12 -23 12 0 45 180 44 245 0 38 2 53 7 40 6 -16 9 -12 14 20 4 22 12 65 18 95 6 30 11 107 10 170 -1 63 1 128 4 143 5 26 7 27 19 10 15 -20 17 -6 32 197 19 254 3 1163 -21 1187 -4 4 -11 1 -15 -6 -14 -22 -21 32 -19 149 0 58 -4 130 -10 160 -6 30 -14 73 -18 95 -5 34 -8 37 -15 20 -6 -14 -7 -8 -4 20 3 22 -3 82 -14 135 -10 52 -22 112 -25 133 -7 37 -19 48 -30 25 -4 -7 -4 -2 -1 12 5 25 -37 210 -43 191 -2 -5 1 -27 7 -47 6 -23 7 -34 1 -28 -6 6 -15 48 -20 95 -6 46 -17 100 -24 119 -7 19 -11 41 -9 47 3 7 -2 16 -11 19 -9 3 -16 13 -16 22 0 9 -4 29 -9 46 -6 17 -17 54 -25 81 -8 28 -15 42 -15 33 -1 -10 -6 -18 -12 -18 -7 0 -9 9 -5 23 7 29 -29 133 -44 129 -6 -1 -10 3 -8 10 4 21 -12 85 -31 128 -14 32 -20 37 -30 27 -11 -10 -12 -8 -7 10 5 15 -4 43 -28 91 -20 37 -36 77 -36 88 -1 27 -26 69 -42 69 -7 1 -12 7 -10 15 2 8 -1 23 -6 34 -6 12 -17 37 -26 56 -13 29 -22 28 -17 -3 1 -5 -4 -5 -10 -2 -6 4 -8 16 -6 27 7 24 -9 71 -21 64 -5 -3 -8 5 -8 17 1 12 -4 21 -11 20 -8 -2 -10 4 -6 14 5 12 3 14 -7 8 -8 -5 -11 -4 -6 3 10 17 -36 103 -52 97 -7 -2 -11 -1 -7 4 6 11 -42 111 -54 111 -5 0 -11 12 -14 28 -3 15 -15 38 -27 52 -12 14 -31 42 -41 63 -11 21 -26 40 -34 44 -8 3 -15 11 -15 17 0 17 -47 79 -52 69 -3 -4 -3 -2 -1 5 4 18 -23 68 -45 84 -10 7 -29 32 -42 56 -16 29 -26 38 -32 30 -5 -9 -8 -8 -8 5 0 18 -22 57 -51 92 -48 57 -82 90 -91 87 -5 -1 -7 2 -4 7 8 12 -3 41 -16 41 -5 0 -6 -5 -2 -12 4 -7 3 -8 -4 -4 -6 4 -9 13 -6 20 5 14 -41 76 -57 76 -6 0 -7 -5 -3 -12 4 -7 3 -8 -4 -4 -6 4 -9 12 -7 19 2 7 -7 26 -21 42 -15 18 -22 23 -18 11 5 -14 4 -17 -5 -12 -6 4 -11 17 -9 27 3 20 -177 218 -336 369 -43 41 -106 103 -139 138 -33 34 -64 62 -68 62 -5 0 -30 21 -56 46 -69 66 -123 108 -123 94 0 -6 -5 -8 -10 -5 -6 4 -8 10 -5 14 7 13 -32 44 -46 35 -8 -5 -10 -3 -4 6 6 10 4 12 -7 7 -10 -3 -15 0 -14 11 1 17 -61 65 -75 57 -4 -3 -11 0 -15 6 -4 8 -3 9 4 5 7 -4 12 -3 12 2 0 5 -11 14 -25 20 -14 6 -25 16 -25 21 0 14 -89 63 -100 56 -6 -4 -9 -1 -8 5 5 22 -153 127 -173 115 -5 -3 -6 0 -3 8 3 10 -12 25 -46 46 -54 34 -65 37 -54 19 4 -7 3 -8 -5 -4 -6 4 -9 11 -6 16 6 10 -22 24 -50 24 -12 1 -20 8 -20 19 0 18 -77 61 -89 49 -3 -3 -6 2 -6 11 0 18 -72 57 -115 61 -14 2 -29 7 -33 11 -4 5 1 5 11 2 31 -12 18 2 -24 23 -23 12 -48 19 -56 16 -10 -4 -13 -2 -10 8 7 17 -106 71 -125 60 -6 -4 -8 -3 -5 4 7 11 -68 52 -96 52 -9 0 -19 5 -23 12 -5 7 -2 8 7 3 9 -5 11 -5 4 2 -5 5 -37 21 -70 34 -33 13 -78 33 -100 46 -22 13 -51 23 -65 23 -14 0 -36 3 -48 7 -18 4 -21 8 -10 15 9 7 7 8 -10 5 -12 -3 -20 -2 -17 3 2 4 -20 16 -50 28 -30 11 -55 16 -55 11 0 -5 -4 -9 -10 -9 -5 0 -7 6 -4 14 7 18 -81 48 -140 48 -31 0 -36 2 -21 8 19 8 19 9 -2 9 -12 1 -25 6 -28 11 -3 6 -17 10 -30 10 -13 0 -27 5 -31 11 -3 6 -19 9 -35 7 -15 -3 -26 -1 -23 3 2 4 0 10 -5 13 -5 4 -12 2 -16 -4 -8 -13 -42 -13 -50 0 -4 6 -3 10 2 9 4 -1 17 0 28 1 20 2 15 4 -90 32 -22 6 -60 12 -85 13 -31 2 -46 7 -48 18 -3 15 -21 20 -122 33 -25 3 -52 8 -60 11 -8 4 -19 5 -24 4 -4 -1 -13 3 -20 8 -6 5 -29 12 -51 16 -22 3 -71 13 -108 22 -38 8 -86 13 -108 10 -22 -3 -42 -1 -46 5 -3 6 -1 8 5 4 6 -3 13 -2 17 3 6 10 -7 13 -145 30 -185 23 -230 26 -365 25 -77 0 -122 2 -100 6 37 5 35 6 -30 13 -69 7 -667 7 -755 0z m18 -20 c-16 -2 -40 -2 -55 0 -16 2 -3 4 27 4 30 0 43 -2 28 -4z m6139 -4550 c-3 -10 -5 -2 -5 17 0 19 2 27 5 18 2 -10 2 -26 0 -35z m-11620 -460 c-2 -16 -4 -3 -4 27 0 30 2 43 4 28 2 -16 2 -40 0 -55z m11710 0 c-2 -16 -4 -3 -4 27 0 30 2 43 4 28 2 -16 2 -40 0 -55z m-11710 -1860 c-2 -16 -4 -5 -4 22 0 28 2 40 4 28 2 -13 2 -35 0 -50z m11710 0 c-2 -16 -4 -5 -4 22 0 28 2 40 4 28 2 -13 2 -35 0 -50z m-8097 -4533 c0 -5 -9 -10 -20 -10 -11 0 -20 5 -20 10 0 6 9 10 20 10 11 0 20 -4 20 -10z m4520 0 c0 -5 -9 -10 -20 -10 -11 0 -20 5 -20 10 0 6 9 10 20 10 11 0 20 -4 20 -10z m-3662 -277 c-10 -2 -26 -2 -35 0 -10 3 -2 5 17 5 19 0 27 -2 18 -5z m2800 0 c-10 -2 -26 -2 -35 0 -10 3 -2 5 17 5 19 0 27 -2 18 -5z m-2335 -90 c-13 -2 -35 -2 -50 0 -16 2 -5 4 22 4 28 0 40 -2 28 -4z m1890 0 c-13 -2 -35 -2 -50 0 -16 2 -5 4 22 4 28 0 40 -2 28 -4z"/>
<path d="M11881 5153 c-1 -36 3 -63 9 -63 12 0 12 77 0 105 -6 14 -9 2 -9 -42z"/>
</g>
<g id="layer102" fill="#f8b345" stroke="none">
<path d="M5556 8768 c3 -18 12 -46 19 -63 7 -16 22 -59 33 -95 11 -36 43 -137 72 -225 l53 -159 -24 -16 c-13 -8 -68 -48 -124 -87 -243 -176 -325 -238 -325 -245 0 -4 128 -8 284 -8 242 0 287 -2 300 -15 8 -9 23 -43 32 -76 9 -33 21 -62 25 -65 5 -3 9 -14 9 -25 0 -10 28 -102 62 -204 48 -146 64 -183 73 -173 7 7 25 54 40 103 15 50 33 106 40 125 7 19 30 89 51 155 20 66 44 132 51 148 l14 27 294 0 c190 0 295 4 295 10 0 6 -4 10 -8 10 -5 0 -71 46 -148 101 -137 100 -168 123 -271 196 -57 40 -58 41 -44 75 5 13 30 91 56 173 25 83 50 158 55 167 6 10 10 25 10 33 0 8 4 23 9 33 11 23 32 81 38 110 7 30 -6 28 -58 -12 -174 -132 -419 -306 -431 -306 -10 0 -141 93 -393 281 -33 24 -68 47 -78 51 -17 7 -18 4 -11 -24z"/>
<path d="M2007 7684 c-6 -6 -2 -23 13 -59 5 -11 25 -74 45 -140 20 -66 43 -134 51 -152 8 -17 14 -34 14 -38 0 -12 88 -290 122 -385 16 -47 34 -98 38 -115 9 -34 64 -206 151 -468 35 -104 56 -184 52 -192 -5 -7 -42 -37 -83 -67 -41 -30 -118 -85 -170 -123 -52 -37 -135 -98 -185 -134 -49 -37 -125 -93 -167 -124 -43 -31 -80 -57 -84 -57 -3 0 -21 -12 -39 -27 -17 -16 -57 -46 -89 -68 -31 -22 -114 -83 -184 -135 -71 -52 -167 -122 -215 -155 -48 -33 -87 -63 -87 -67 0 -5 364 -8 810 -8 l809 0 16 -30 c8 -16 15 -36 15 -44 0 -9 7 -30 15 -48 8 -18 24 -67 35 -108 12 -41 25 -82 29 -90 4 -8 24 -69 45 -135 21 -66 41 -129 46 -140 8 -21 57 -170 136 -420 26 -82 51 -154 56 -160 4 -5 8 -16 8 -25 0 -28 100 -324 115 -339 12 -12 15 -10 21 15 3 16 42 139 86 274 87 265 142 434 159 490 6 19 14 44 18 55 5 11 17 47 26 80 10 33 26 83 36 110 9 28 45 138 79 245 34 107 68 211 75 230 l13 35 808 2 c477 1 809 6 809 11 0 9 -54 53 -115 94 -14 10 -48 34 -77 55 -29 21 -129 94 -223 163 -95 69 -182 132 -194 140 -22 15 -77 54 -235 171 -42 30 -125 91 -186 136 -60 44 -145 105 -187 137 -47 33 -78 63 -78 74 0 10 29 105 64 212 73 224 241 743 293 905 19 61 39 118 44 127 5 10 9 25 9 33 0 8 4 23 9 33 10 19 55 162 65 205 6 25 5 27 -13 18 -11 -6 -64 -44 -118 -84 -54 -40 -120 -88 -147 -107 -84 -60 -99 -71 -351 -255 -136 -99 -257 -187 -268 -195 -12 -8 -61 -44 -109 -80 -48 -36 -137 -100 -197 -143 -108 -77 -110 -78 -138 -63 -23 12 -144 100 -252 183 -13 10 -34 25 -46 33 -12 8 -69 49 -125 90 -56 41 -128 93 -159 115 -104 74 -395 287 -453 331 -31 24 -59 44 -63 44 -3 0 -36 24 -73 53 -85 68 -117 89 -125 81z"/>
<path d="M7020 7568 c0 -8 -31 -109 -68 -224 -38 -115 -75 -228 -82 -252 -24 -76 -4 -71 -323 -73 -158 -1 -290 -5 -292 -9 -3 -5 28 -32 67 -61 40 -29 92 -66 115 -83 23 -17 86 -62 139 -101 53 -38 109 -80 123 -91 l25 -21 -18 -64 c-10 -35 -26 -86 -36 -114 -10 -27 -31 -90 -46 -140 -15 -49 -31 -99 -35 -110 -16 -38 -39 -110 -39 -122 0 -25 30 -10 105 50 18 15 151 111 209 152 32 22 79 57 106 78 26 20 56 37 65 37 10 0 36 -14 59 -30 23 -17 86 -63 141 -104 55 -40 137 -101 183 -135 85 -63 102 -71 102 -48 0 13 -41 141 -131 415 -22 68 -38 130 -35 137 3 8 24 27 48 42 23 15 82 57 130 93 125 94 208 153 250 181 72 46 61 48 -253 48 -160 -1 -295 3 -299 7 -8 8 -81 226 -110 324 -7 25 -23 72 -35 105 -13 33 -27 73 -32 89 -10 31 -33 48 -33 24z"/>
<path d="M6550 5717 c0 -13 24 -93 40 -132 20 -51 130 -402 130 -416 0 -9 -30 -38 -67 -63 -38 -26 -111 -79 -163 -117 -52 -39 -128 -94 -167 -122 -40 -28 -73 -55 -73 -59 0 -4 133 -8 295 -8 l295 0 10 -27 c6 -16 14 -37 19 -48 8 -19 97 -295 137 -427 10 -32 23 -58 30 -58 6 0 16 17 22 38 13 45 50 159 61 187 5 11 20 61 35 110 15 50 31 99 36 110 5 11 16 40 23 65 l15 45 296 3 c166 1 296 6 296 11 0 5 -28 28 -62 52 -55 37 -177 125 -273 196 -16 13 -54 40 -83 60 -45 33 -52 42 -47 63 6 25 107 345 150 473 12 37 19 70 14 72 -4 3 -79 -47 -166 -110 -151 -111 -232 -168 -295 -208 l-28 -19 -92 69 c-50 37 -102 75 -114 83 -12 8 -73 51 -136 96 -138 99 -138 99 -138 81z"/>
<path d="M6026 4509 c-2 -8 -9 -34 -16 -59 -7 -25 -21 -70 -32 -100 -25 -72 -59 -179 -65 -210 -3 -14 -9 -29 -13 -35 -4 -5 -15 -37 -25 -70 -9 -33 -22 -66 -27 -72 -8 -10 -80 -13 -299 -13 -181 0 -289 -4 -289 -10 0 -5 37 -36 83 -69 45 -33 89 -66 97 -74 8 -8 33 -26 55 -41 22 -14 65 -44 95 -66 30 -23 71 -52 92 -65 20 -13 39 -29 43 -35 6 -9 -7 -53 -35 -125 -4 -11 -29 -87 -55 -170 -27 -82 -58 -180 -70 -217 -28 -82 -28 -82 120 27 261 193 337 245 356 245 10 0 37 -15 61 -33 24 -18 75 -55 113 -82 39 -27 120 -86 182 -132 108 -80 138 -97 131 -70 -6 23 -51 162 -58 182 -10 25 -36 104 -86 259 -26 82 -35 121 -27 123 13 5 16 7 189 133 64 47 153 111 197 143 45 32 83 62 85 67 2 6 -115 11 -293 12 l-296 3 -14 25 c-16 31 -165 484 -165 504 0 7 -7 19 -15 26 -12 10 -16 10 -19 -1z"/>
</g>
<g id="layer103" fill="#fdda44" stroke="none">
<path d="M5610 11843 c-25 -2 -52 -6 -60 -9 -8 -3 -52 -5 -97 -4 -46 0 -83 -2 -83 -7 0 -4 -33 -9 -73 -10 -63 -3 -171 -14 -275 -29 -18 -3 -30 -9 -27 -15 4 -5 11 -6 17 -3 6 4 8 2 5 -4 -4 -6 -23 -8 -45 -5 -41 6 -238 -32 -259 -49 -8 -6 -16 -8 -20 -5 -3 4 -11 3 -17 -2 -7 -6 -34 -12 -61 -15 -96 -9 -134 -18 -137 -33 -2 -10 -18 -16 -48 -18 -25 -2 -65 -9 -90 -15 -25 -6 -58 -14 -75 -18 l-30 -6 30 -6 c26 -6 27 -8 11 -15 -11 -5 -26 -4 -37 3 -11 7 -20 8 -24 2 -3 -6 -16 -10 -29 -10 -12 0 -26 -3 -30 -7 -9 -10 -77 -32 -101 -34 -17 -1 -16 -2 5 -9 20 -6 16 -8 -21 -8 -25 0 -55 -5 -67 -11 -11 -6 -30 -11 -41 -11 -11 0 -24 -7 -29 -16 -5 -9 -11 -15 -13 -13 -9 5 -109 -33 -104 -41 3 -4 -5 -6 -17 -3 -19 4 -20 3 -8 -7 12 -10 11 -11 -8 -7 -12 3 -20 1 -16 -4 3 -5 -7 -9 -23 -9 -37 -1 -116 -37 -108 -50 3 -5 0 -7 -9 -4 -14 5 -113 -31 -131 -49 -7 -7 -5 -7 4 -2 9 5 12 4 7 -3 -4 -7 -16 -12 -27 -12 -10 0 -29 -5 -42 -12 -12 -6 -29 -14 -37 -19 -8 -4 -14 -12 -12 -19 1 -6 -2 -9 -8 -5 -17 10 -129 -45 -123 -61 3 -10 0 -12 -10 -8 -14 5 -97 -30 -97 -42 0 -2 9 0 19 6 27 14 41 12 16 -2 -11 -7 -27 -12 -37 -13 -34 -2 -99 -38 -94 -52 3 -7 1 -13 -3 -13 -5 0 -12 6 -14 13 -3 6 -6 3 -6 -7 -1 -11 -4 -16 -7 -13 -12 11 -83 -35 -77 -49 4 -10 0 -12 -13 -7 -13 5 -15 3 -9 -7 5 -8 4 -11 -3 -6 -13 8 -63 -14 -57 -25 3 -4 0 -11 -6 -15 -8 -4 -9 -3 -5 4 11 18 2 15 -54 -20 -28 -17 -49 -37 -46 -44 3 -7 -2 -10 -13 -7 -10 2 -23 -3 -30 -11 -8 -9 -19 -16 -25 -16 -7 0 -23 -11 -36 -25 -13 -14 -29 -25 -35 -25 -17 0 -46 -35 -38 -45 5 -4 2 -5 -5 -1 -15 9 -66 -21 -118 -71 -22 -20 -33 -32 -25 -28 10 5 12 4 7 -4 -4 -6 -11 -9 -15 -6 -14 8 -76 -40 -75 -57 1 -11 -4 -14 -14 -11 -9 4 -13 2 -9 -4 4 -6 -1 -10 -11 -9 -9 0 -16 -5 -14 -12 1 -8 -1 -11 -5 -9 -5 3 -17 -2 -28 -10 -20 -15 -20 -16 0 -9 11 4 16 4 12 -1 -5 -4 -21 -12 -38 -18 -28 -10 -66 -42 -257 -220 -219 -204 -448 -449 -444 -474 2 -10 -3 -23 -9 -27 -9 -5 -10 -2 -5 12 4 11 -3 7 -18 -11 -13 -16 -22 -35 -19 -41 2 -7 -1 -15 -8 -20 -8 -4 -10 -3 -5 4 4 7 3 12 -3 12 -16 0 -62 -62 -57 -76 3 -7 0 -16 -6 -20 -7 -5 -8 -2 -3 7 8 12 6 12 -9 0 -9 -8 -15 -20 -12 -27 3 -8 1 -13 -3 -11 -8 2 -46 -35 -84 -82 -10 -12 -15 -27 -11 -33 4 -6 3 -8 -4 -4 -13 8 -42 -31 -42 -59 0 -14 -3 -16 -8 -7 -6 8 -16 -1 -32 -30 -13 -24 -32 -49 -41 -56 -15 -11 -57 -78 -93 -149 -6 -13 -14 -23 -18 -23 -13 0 -58 -87 -53 -102 3 -8 -2 -21 -12 -29 -16 -13 -17 -12 -4 4 8 9 11 20 9 23 -9 8 -48 -47 -48 -66 0 -10 -7 -20 -15 -24 -8 -3 -15 -10 -15 -16 0 -6 5 -8 12 -4 7 4 8 3 4 -5 -4 -6 -11 -9 -16 -6 -4 3 -15 -13 -24 -34 -8 -22 -20 -42 -26 -46 -17 -10 -48 -79 -42 -94 3 -9 0 -11 -8 -6 -10 6 -12 4 -7 -8 4 -10 2 -16 -6 -14 -7 1 -12 -8 -11 -20 0 -12 -3 -20 -8 -17 -12 7 -28 -40 -21 -64 2 -11 0 -23 -6 -27 -6 -3 -11 -3 -10 2 5 31 -4 32 -17 3 -9 -19 -20 -44 -26 -56 -5 -11 -8 -24 -6 -30 2 -5 -1 -10 -6 -11 -14 -2 -46 -56 -46 -77 0 -11 -16 -51 -36 -89 -19 -38 -33 -76 -30 -84 4 -10 2 -13 -8 -10 -9 4 -19 -8 -29 -36 -23 -62 -34 -110 -29 -125 2 -7 -2 -11 -8 -10 -16 4 -51 -99 -44 -128 4 -15 2 -24 -5 -24 -6 0 -11 8 -11 18 -1 24 -30 -58 -30 -85 0 -12 -4 -25 -10 -28 -5 -3 -10 -16 -10 -28 0 -23 -19 -83 -34 -105 -9 -14 -10 -20 -25 -131 -6 -41 -15 -79 -21 -85 -6 -6 -5 5 1 28 6 20 9 42 7 47 -7 20 -47 -166 -42 -196 4 -25 3 -27 -6 -10 -7 16 -9 10 -6 -25 2 -25 1 -35 -1 -22 -5 26 -25 30 -22 5 1 -10 -1 -26 -6 -36 -4 -9 -5 -26 -2 -37 3 -11 1 -20 -3 -20 -12 0 -23 -74 -23 -145 0 -37 -2 -51 -6 -36 -12 43 -43 -166 -45 -297 -1 -85 -5 -125 -14 -134 -11 -11 -12 -10 -7 5 4 9 3 17 -3 17 -24 0 -37 -249 -37 -705 0 -234 5 -438 14 -530 7 -82 15 -180 18 -217 2 -38 9 -68 14 -68 13 0 11 117 -2 143 -10 19 -9 20 2 9 15 -14 30 -164 15 -155 -9 6 -1 -111 14 -192 5 -27 12 -68 16 -90 5 -33 8 -36 14 -20 6 13 8 -3 9 -45 0 -64 29 -230 41 -240 4 -3 17 -48 29 -100 28 -117 32 -132 36 -128 2 2 0 21 -5 42 -5 21 -5 35 0 30 5 -5 13 -38 19 -74 13 -84 21 -120 31 -145 11 -27 25 -71 40 -125 22 -77 41 -129 37 -97 -4 24 -2 26 8 15 7 -7 16 -24 20 -38 5 -19 4 -21 -4 -10 -17 24 -13 -4 10 -64 12 -31 25 -54 29 -51 4 2 7 -8 8 -23 2 -54 27 -117 50 -127 16 -7 21 -16 18 -29 -6 -22 21 -96 41 -113 8 -6 14 -15 14 -20 -1 -26 23 -87 42 -106 12 -12 21 -26 19 -31 -2 -5 4 -23 12 -40 8 -17 19 -44 25 -59 6 -15 15 -27 21 -27 5 0 10 -6 10 -14 0 -25 41 -86 53 -79 7 4 8 0 4 -11 -10 -25 30 -99 49 -92 8 3 12 2 9 -4 -8 -14 22 -81 36 -78 6 2 14 -4 16 -12 4 -13 3 -13 -6 0 -6 8 -11 10 -11 4 0 -6 11 -20 25 -30 13 -10 20 -21 15 -24 -6 -3 5 -28 23 -55 17 -27 40 -63 50 -82 9 -18 20 -33 23 -33 3 0 3 4 -1 9 -3 5 -2 12 3 15 4 2 9 -7 10 -20 2 -30 27 -69 45 -69 6 -1 11 -6 9 -13 -3 -16 24 -69 41 -79 7 -4 25 -28 38 -53 14 -25 30 -44 36 -43 6 1 13 -10 16 -25 8 -39 113 -156 130 -145 6 3 7 1 3 -5 -9 -15 23 -64 37 -55 6 3 7 1 3 -5 -7 -12 42 -82 57 -82 5 0 5 5 1 12 -5 7 -3 8 5 4 7 -5 10 -10 7 -13 -15 -16 75 -121 311 -360 110 -112 176 -172 184 -167 7 4 9 3 6 -3 -5 -8 119 -137 126 -130 1 1 20 -17 41 -40 21 -24 44 -43 52 -43 7 0 19 -9 27 -20 7 -11 30 -31 49 -44 20 -13 44 -31 55 -40 50 -44 91 -76 99 -76 4 0 -1 7 -12 16 -18 14 -18 15 4 4 12 -6 20 -15 17 -19 -7 -12 20 -32 36 -29 7 2 13 -4 14 -12 0 -8 17 -24 39 -36 21 -12 41 -26 45 -31 3 -5 21 -18 38 -28 18 -11 33 -23 33 -27 0 -9 62 -43 73 -40 4 1 7 -2 7 -8 0 -5 7 -7 15 -4 11 5 13 2 9 -10 -3 -9 -2 -16 4 -16 5 0 32 -15 59 -34 50 -34 89 -52 109 -48 7 1 11 -5 10 -14 -1 -21 56 -56 90 -56 13 0 27 -5 31 -11 4 -6 1 -7 -8 -2 -12 8 -12 6 0 -8 7 -9 31 -22 52 -28 21 -7 36 -16 33 -20 -2 -5 24 -22 58 -39 35 -17 79 -40 98 -50 19 -11 46 -19 59 -20 13 0 21 -3 18 -7 -13 -12 96 -64 123 -58 18 4 21 3 10 -4 -17 -12 -17 -12 40 -35 25 -10 59 -24 75 -32 17 -7 50 -20 75 -30 25 -10 49 -24 53 -31 4 -7 16 -13 27 -13 10 0 40 -9 66 -21 29 -12 58 -18 74 -14 17 4 21 3 11 -4 -11 -7 -10 -11 8 -20 11 -7 21 -9 21 -5 0 3 12 -1 26 -10 14 -10 31 -15 37 -13 7 2 24 -2 40 -10 15 -7 27 -9 27 -4 0 6 7 8 16 4 11 -4 12 -8 4 -13 -16 -10 131 -51 158 -44 17 5 21 3 16 -9 -4 -11 7 -19 48 -30 29 -9 67 -17 83 -19 17 -2 32 -6 35 -9 3 -3 18 -9 33 -13 22 -5 27 -4 22 6 -4 7 -1 6 7 -3 7 -9 27 -19 43 -22 106 -21 135 -25 173 -20 28 4 42 2 42 -6 0 -6 -15 -11 -32 -12 -31 -1 -30 -2 12 -12 25 -6 66 -11 92 -11 25 -1 44 -4 42 -7 -6 -11 70 -19 115 -13 33 5 41 3 41 -10 0 -12 11 -16 49 -16 28 0 51 -5 53 -11 5 -14 66 -18 408 -25 168 -4 242 -2 235 5 -6 5 -71 13 -145 16 -175 7 -414 35 -610 72 -47 8 -110 19 -140 24 -89 14 -291 62 -425 101 -55 17 -115 34 -132 39 -76 21 -105 30 -238 77 -143 50 -206 73 -262 98 -17 8 -34 14 -37 14 -4 0 -46 18 -94 41 -48 22 -105 48 -127 57 -110 44 -413 204 -542 285 -24 15 -45 27 -48 27 -9 0 -294 188 -383 253 -101 74 -316 244 -435 345 -86 72 -412 392 -497 487 -145 162 -302 356 -405 500 -77 108 -256 379 -288 437 -14 25 -36 63 -50 85 -53 84 -183 338 -247 478 -12 28 -35 77 -50 110 -15 33 -37 87 -50 120 -12 33 -38 101 -57 150 -47 121 -55 144 -93 260 -43 130 -112 383 -139 505 -7 30 -16 73 -21 95 -5 22 -16 81 -25 130 -8 50 -19 113 -24 140 -6 28 -15 91 -21 140 -6 50 -16 122 -21 160 -14 98 -39 497 -39 635 0 232 31 644 66 875 18 124 52 305 73 400 14 62 32 146 41 191 5 22 13 51 18 65 6 13 15 42 20 64 22 82 122 400 142 450 4 11 20 52 35 90 15 39 31 80 36 93 5 12 13 32 18 45 5 12 19 45 31 72 13 28 34 75 47 105 48 108 168 346 210 418 24 40 43 75 43 77 0 9 91 157 151 247 22 31 39 60 39 63 0 9 182 265 252 355 33 41 71 91 86 110 177 226 498 558 746 770 272 233 572 447 876 625 117 69 458 246 540 280 25 10 78 33 118 52 39 18 75 33 79 33 6 0 104 38 208 80 51 21 298 101 370 121 44 11 94 25 110 29 58 17 191 49 305 75 63 14 134 30 158 35 23 6 55 10 71 10 15 0 41 4 57 9 54 16 409 55 644 71 394 25 894 -5 1325 -80 28 -5 75 -13 105 -19 30 -5 93 -18 140 -29 47 -11 110 -26 140 -32 30 -6 91 -22 135 -35 44 -12 107 -31 140 -40 87 -24 391 -129 482 -165 43 -18 87 -35 98 -39 11 -5 45 -19 75 -33 30 -14 75 -33 100 -44 71 -29 417 -206 503 -258 43 -25 81 -46 83 -46 3 0 51 -30 107 -67 56 -37 112 -73 124 -79 31 -17 280 -194 330 -235 22 -19 70 -56 104 -84 317 -250 676 -609 930 -930 122 -154 298 -397 319 -440 3 -5 23 -37 44 -70 60 -92 82 -126 109 -175 14 -25 43 -74 63 -110 52 -91 167 -316 208 -408 19 -42 50 -112 70 -155 20 -42 36 -82 36 -87 0 -6 4 -18 9 -28 5 -9 17 -37 26 -62 17 -44 29 -75 46 -115 14 -34 108 -327 123 -385 8 -30 16 -62 19 -70 23 -72 49 -174 67 -260 6 -30 15 -73 20 -95 5 -22 16 -80 25 -130 9 -49 20 -110 25 -135 27 -135 57 -437 71 -697 11 -212 10 -313 -7 -638 -11 -225 -64 -610 -115 -845 -41 -182 -48 -213 -76 -310 -13 -47 -29 -103 -35 -125 -6 -22 -35 -114 -65 -205 -46 -140 -74 -216 -123 -335 -4 -11 -15 -38 -23 -60 -63 -164 -229 -503 -321 -654 -31 -52 -56 -96 -56 -98 0 -18 -308 -473 -380 -563 -20 -25 -66 -81 -101 -126 -129 -163 -247 -293 -434 -479 -242 -242 -436 -406 -732 -620 -113 -82 -358 -245 -368 -245 -2 0 -46 -26 -97 -57 -97 -59 -423 -228 -493 -256 -22 -8 -74 -31 -115 -50 -77 -36 -302 -125 -387 -153 -27 -8 -77 -26 -113 -38 -36 -13 -83 -28 -105 -35 -22 -6 -62 -17 -90 -25 -157 -46 -200 -58 -300 -81 -173 -40 -188 -44 -225 -49 -19 -3 -73 -12 -120 -20 -200 -36 -432 -63 -602 -71 -64 -3 -127 -9 -140 -15 -15 -7 57 -8 227 -5 305 5 398 10 403 24 2 6 26 11 53 11 38 0 49 3 49 16 0 13 7 15 35 10 39 -8 127 2 121 13 -2 3 19 7 47 7 29 1 70 6 92 12 40 10 40 10 8 11 -18 0 -33 6 -33 12 0 8 14 10 43 6 37 -5 66 -1 172 20 16 3 36 13 43 22 8 9 11 10 7 3 -5 -10 0 -11 22 -6 15 4 30 10 33 13 3 3 19 7 35 9 17 2 54 10 83 19 40 11 52 19 48 30 -5 12 -1 14 18 9 27 -7 159 31 152 43 -3 4 5 7 17 6 12 -1 30 4 41 11 10 7 24 10 31 7 8 -2 25 3 39 12 14 10 26 14 26 11 0 -4 10 -2 21 5 18 9 19 13 8 21 -10 7 -8 7 8 3 22 -6 88 11 108 27 5 4 19 8 32 8 12 0 26 6 30 13 4 7 28 21 53 31 25 10 59 23 75 30 17 8 50 22 75 32 57 23 57 23 40 35 -11 7 -8 8 10 4 27 -6 136 46 123 58 -3 4 5 7 18 7 13 1 40 9 59 20 19 10 63 33 98 50 34 17 60 34 58 39 -3 4 12 13 33 20 21 6 45 19 52 28 12 14 12 16 0 8 -9 -5 -12 -4 -8 2 4 6 18 11 31 11 34 0 91 35 90 56 -1 9 3 15 10 14 20 -4 59 14 109 48 27 19 54 34 59 34 6 0 8 7 4 15 -3 8 0 16 7 16 27 3 33 5 65 22 17 10 32 21 32 25 0 5 18 18 40 31 22 12 38 26 35 31 -3 4 2 11 11 14 10 4 13 2 7 -7 -4 -6 12 4 36 23 24 19 69 54 100 77 31 23 67 51 81 62 14 12 36 29 49 39 13 9 36 29 50 45 14 15 31 27 37 27 6 0 27 17 46 38 18 20 37 38 41 40 20 7 135 127 130 135 -3 6 -1 7 6 3 12 -8 289 264 409 401 51 58 93 117 91 129 0 3 3 9 7 12 4 4 4 1 0 -6 -4 -6 -4 -12 1 -12 15 0 64 70 57 82 -4 6 -3 8 3 5 14 -9 46 40 37 55 -4 6 -3 8 4 4 12 -7 89 80 84 96 -1 5 2 7 7 4 10 -7 41 37 41 59 0 8 5 14 12 13 6 -2 21 15 34 37 12 22 29 47 37 55 20 21 42 63 39 77 -1 6 3 15 9 19 8 5 10 2 5 -7 -4 -8 4 0 18 16 14 17 26 38 26 48 0 9 4 17 10 17 14 0 61 75 57 91 -2 8 -2 10 1 6 6 -12 53 47 47 61 -2 7 4 20 15 29 11 10 20 22 20 28 0 5 -5 3 -11 -5 -9 -13 -10 -13 -6 0 2 8 10 14 16 12 14 -3 44 64 36 78 -3 6 1 7 10 4 11 -4 20 5 32 32 9 22 16 47 15 57 0 9 3 15 8 12 13 -8 43 54 35 73 -3 9 -3 14 0 10 7 -7 45 22 45 34 0 5 9 28 21 53 11 24 18 49 15 54 -4 6 2 15 13 20 19 11 57 104 52 130 -1 7 2 10 7 7 14 -8 52 86 45 112 -3 13 -1 22 6 22 6 0 11 -6 11 -12 0 -20 28 39 41 85 6 23 11 52 11 64 0 13 4 21 8 18 4 -2 17 20 29 51 23 60 27 88 10 64 -8 -11 -9 -9 -4 10 4 14 13 31 20 38 10 11 12 9 8 -15 -4 -32 15 20 37 97 20 71 31 103 45 130 7 14 18 65 24 114 6 50 15 94 21 100 6 6 5 -5 -1 -28 -6 -21 -9 -40 -6 -42 4 -4 29 85 47 171 6 27 14 52 18 55 14 10 53 235 47 270 -4 26 -3 30 4 15 7 -17 10 -14 15 20 4 22 11 63 16 90 15 82 23 198 13 192 -13 -8 2 142 16 156 10 9 11 8 6 -4 -4 -10 -2 -20 4 -23 39 -25 51 1050 15 1352 -3 23 -10 42 -16 42 -6 0 -7 -8 -3 -17 5 -15 4 -16 -7 -5 -9 9 -13 50 -15 140 0 69 -6 151 -12 182 -6 30 -13 73 -17 95 -5 34 -8 37 -15 20 -7 -15 -8 -11 -4 14 6 40 -13 161 -26 161 -4 0 -6 6 -3 14 6 15 -12 125 -22 135 -3 3 -10 -1 -15 -9 -8 -12 -9 -9 -5 10 5 25 -35 211 -42 191 -2 -5 1 -27 7 -47 6 -23 7 -34 1 -28 -6 6 -15 44 -20 85 -6 40 -12 84 -14 97 -2 13 -8 28 -15 35 -6 6 -11 24 -11 39 0 15 -4 28 -10 28 -5 0 -10 8 -10 17 0 9 -4 30 -9 47 -6 17 -17 54 -25 81 -8 28 -15 42 -15 33 -1 -10 -6 -18 -12 -18 -7 0 -9 9 -5 23 7 29 -29 133 -44 129 -6 -1 -10 3 -8 10 4 22 -12 86 -32 130 -11 24 -20 37 -20 31 0 -7 -5 -13 -11 -13 -6 0 -8 8 -4 20 4 12 -7 44 -29 88 -20 37 -36 77 -36 88 0 21 -32 75 -46 77 -5 1 -8 6 -6 11 2 6 -1 19 -6 30 -6 12 -17 37 -26 56 -13 29 -22 28 -17 -3 1 -5 -4 -5 -10 -2 -6 4 -8 16 -6 27 7 24 -9 71 -21 64 -5 -3 -8 5 -8 17 1 12 -4 21 -11 20 -8 -2 -10 4 -6 14 4 11 3 14 -6 9 -8 -5 -11 -3 -9 6 5 23 -34 99 -48 94 -8 -3 -11 0 -7 10 4 10 0 13 -13 8 -13 -4 -15 -3 -6 3 9 7 8 18 -8 51 -11 23 -24 42 -29 42 -5 0 -11 13 -14 29 -3 16 -13 35 -21 43 -8 8 -28 38 -46 66 -17 29 -36 52 -41 52 -5 0 -9 6 -9 14 0 8 -12 28 -26 43 -14 15 -22 22 -18 14 5 -10 3 -12 -5 -7 -7 5 -10 14 -7 21 6 18 -20 71 -43 87 -9 7 -28 32 -41 56 -16 29 -26 38 -32 30 -5 -9 -8 -8 -8 5 0 18 -22 57 -51 92 -45 53 -82 90 -89 88 -4 -1 -7 5 -6 15 0 9 -5 17 -13 17 -8 0 -15 10 -16 23 -1 12 -12 33 -25 47 -24 25 -47 35 -34 13 5 -7 3 -8 -5 -4 -7 5 -10 13 -8 20 3 6 -6 25 -19 41 -15 18 -22 22 -18 11 5 -14 4 -17 -5 -12 -6 4 -11 17 -9 27 3 20 -177 218 -336 369 -44 41 -106 103 -139 138 -33 34 -66 62 -73 62 -7 0 -17 6 -21 14 -4 8 -35 37 -68 65 -89 76 -85 73 -85 60 0 -15 -15 -1 -15 14 -1 7 -6 11 -13 10 -7 -2 -11 3 -9 10 1 6 -6 11 -15 11 -10 -1 -15 3 -11 9 4 6 0 8 -10 4 -11 -4 -14 -2 -11 7 5 14 -45 56 -71 60 -8 1 -18 6 -22 11 -5 4 -1 5 7 0 8 -5 -1 7 -20 26 -47 47 -107 82 -122 73 -7 -4 -10 -3 -5 1 8 10 -21 45 -38 45 -7 0 -20 9 -30 20 -24 26 -75 51 -88 43 -6 -4 -7 -1 -2 7 6 10 4 12 -8 7 -10 -4 -14 -2 -11 7 3 7 -16 26 -46 44 -56 35 -65 38 -54 20 4 -7 4 -10 0 -6 -4 3 -7 10 -6 13 2 9 -51 45 -65 45 -5 0 -3 -5 5 -11 13 -9 13 -10 0 -6 -8 2 -15 11 -15 21 0 17 -78 60 -89 48 -3 -3 -6 2 -6 12 0 17 -74 55 -118 61 -12 1 -26 6 -30 10 -4 5 1 5 11 2 31 -12 18 2 -24 23 -23 12 -48 19 -56 16 -10 -4 -13 -2 -10 8 7 17 -106 71 -125 60 -6 -4 -8 -3 -5 4 7 11 -68 52 -96 52 -9 0 -19 5 -23 12 -5 7 -2 8 7 3 9 -5 11 -5 4 2 -18 18 -124 55 -136 47 -8 -4 -9 -3 -5 5 9 14 -67 50 -107 51 -16 0 -26 4 -23 9 4 5 -4 7 -16 4 -19 -4 -20 -3 -8 7 12 10 11 11 -8 7 -12 -3 -20 -2 -17 3 2 4 -20 16 -50 28 -30 11 -55 16 -55 11 0 -5 -5 -9 -11 -9 -6 0 -9 6 -6 14 7 18 -80 48 -138 48 -26 0 -33 2 -22 7 14 5 6 10 -33 21 -28 8 -53 18 -56 22 -3 4 -16 8 -29 8 -13 0 -27 4 -30 10 -4 6 -13 5 -24 -2 -11 -7 -26 -8 -37 -3 -16 7 -15 9 11 15 l30 6 -30 6 c-16 4 -50 12 -75 18 -25 7 -59 13 -76 14 -17 2 -37 7 -44 11 -9 6 -11 4 -5 -5 5 -9 4 -11 -3 -6 -7 4 -12 14 -12 22 0 9 -6 14 -12 11 -7 -2 -30 2 -52 9 -21 8 -56 14 -77 14 -21 0 -41 5 -44 10 -4 6 -11 8 -16 4 -5 -3 -15 -1 -22 4 -7 6 -30 13 -52 17 -22 3 -71 13 -108 22 -38 8 -86 13 -108 10 -22 -3 -42 -1 -46 5 -3 6 -1 8 5 4 6 -3 13 -2 17 3 3 6 -9 12 -27 15 -104 15 -212 26 -275 29 -40 1 -73 6 -73 11 0 5 -63 7 -147 4 -82 -3 -125 -2 -98 1 l50 6 -70 8 c-68 7 -666 7 -755 0z m18 -20 c-16 -2 -40 -2 -55 0 -16 2 -3 4 27 4 30 0 43 -2 28 -4z m6139 -4550 c-3 -10 -5 -2 -5 17 0 19 2 27 5 18 2 -10 2 -26 0 -35z m-11620 -460 c-2 -16 -4 -3 -4 27 0 30 2 43 4 28 2 -16 2 -40 0 -55z m11710 0 c-2 -16 -4 -3 -4 27 0 30 2 43 4 28 2 -16 2 -40 0 -55z m-11709 -1844 l-3 -44 -5 52 c-3 29 -1 48 3 44 5 -5 7 -28 5 -52z m11712 9 c-4 -49 -5 -50 -8 -14 -3 34 2 66 10 66 2 0 1 -24 -2 -52z m-11612 -503 c0 -16 -2 -15 -8 5 -4 14 -8 36 -8 50 0 22 1 22 8 -5 4 -16 8 -39 8 -50z m11512 15 l-11 -25 6 25 c2 14 5 34 6 45 2 19 2 19 6 0 2 -12 -1 -32 -7 -45z m-11030 -1285 c0 -8 -4 -15 -10 -15 -5 0 -10 7 -10 15 0 8 5 15 10 15 6 0 10 -7 10 -15z m10560 0 c0 -8 -4 -15 -10 -15 -5 0 -10 7 -10 15 0 8 5 15 10 15 6 0 10 -7 10 -15z m-7530 -2785 c0 -5 -9 -10 -20 -10 -11 0 -20 5 -20 10 0 6 9 10 20 10 11 0 20 -4 20 -10z m4520 0 c0 -5 -9 -10 -20 -10 -11 0 -20 5 -20 10 0 6 9 10 20 10 11 0 20 -4 20 -10z m-3662 -277 c-10 -2 -26 -2 -35 0 -10 3 -2 5 17 5 19 0 27 -2 18 -5z m2800 0 c-10 -2 -26 -2 -35 0 -10 3 -2 5 17 5 19 0 27 -2 18 -5z m-2335 -90 c-13 -2 -35 -2 -50 0 -16 2 -5 4 22 4 28 0 40 -2 28 -4z m1890 0 c-13 -2 -35 -2 -50 0 -16 2 -5 4 22 4 28 0 40 -2 28 -4z"/>
<path d="M5570 8762 c0 -11 5 -24 11 -27 6 -4 8 -14 5 -22 -4 -8 3 -30 15 -49 11 -18 18 -38 14 -44 -3 -5 1 -21 10 -34 9 -14 14 -30 10 -36 -4 -6 -1 -19 7 -28 19 -23 70 -181 62 -193 -3 -6 2 -19 12 -30 9 -10 14 -22 11 -26 -4 -3 -2 -12 4 -20 9 -10 4 -21 -24 -48 -20 -19 -42 -35 -50 -35 -8 0 -32 -17 -54 -37 -22 -21 -56 -47 -76 -57 -20 -10 -34 -22 -32 -26 3 -4 -23 -27 -58 -51 -34 -23 -75 -53 -90 -66 -16 -13 -32 -22 -35 -20 -4 2 -14 -4 -23 -14 -16 -16 -9 -17 137 -24 85 -4 211 -5 281 -2 132 5 169 -2 159 -30 -4 -9 1 -24 9 -33 9 -10 17 -33 19 -53 2 -19 13 -54 24 -76 12 -23 21 -45 20 -49 0 -4 2 -15 7 -25 4 -10 5 -21 1 -24 -3 -3 3 -21 14 -39 12 -18 20 -36 18 -41 -1 -4 6 -25 15 -47 9 -21 15 -42 12 -46 -3 -4 2 -13 11 -20 10 -9 13 -22 9 -42 -4 -16 -2 -28 3 -28 13 0 44 59 37 71 -3 4 3 23 14 42 11 19 17 37 14 40 -2 3 3 17 12 31 9 14 14 30 10 36 -4 6 1 20 10 30 9 10 14 23 11 28 -6 10 30 117 50 146 7 10 10 24 8 31 -3 7 -1 16 4 19 6 3 8 14 6 24 -3 9 1 25 8 35 13 17 37 19 298 22 157 2 286 3 288 4 1 1 -2 10 -8 21 -6 11 -14 19 -18 17 -13 -4 -82 45 -76 54 3 5 -3 9 -12 9 -16 0 -114 68 -139 95 -5 6 -19 14 -29 18 -10 4 -16 10 -12 14 7 7 -77 63 -94 63 -5 0 -14 9 -20 20 -6 11 -20 20 -30 20 -24 0 -25 6 -4 45 8 16 13 37 11 47 -5 19 28 121 49 152 7 10 10 24 8 31 -3 7 -1 16 5 19 6 4 7 14 4 23 -4 9 1 21 10 28 10 7 18 25 19 41 1 16 7 37 14 48 7 10 10 25 7 32 -3 8 1 22 8 31 8 8 14 28 15 43 2 27 1 27 -29 12 -16 -8 -47 -32 -68 -53 -22 -22 -48 -39 -59 -39 -11 0 -19 -6 -18 -12 2 -7 -5 -13 -15 -13 -9 0 -35 -17 -57 -38 -22 -20 -44 -37 -50 -37 -5 0 -10 -4 -10 -9 0 -16 -163 -126 -168 -113 -2 7 -10 12 -17 12 -8 0 -22 11 -33 25 -11 14 -26 25 -32 25 -7 0 -28 15 -45 33 -18 19 -48 41 -68 50 -19 9 -37 24 -41 32 -3 8 -12 15 -21 15 -17 0 -94 51 -95 63 0 13 -43 46 -59 47 -8 0 -23 7 -33 17 -17 15 -18 15 -18 -5z"/>
<path d="M4620 7671 c0 -11 -157 -131 -171 -131 -16 0 -79 -46 -95 -69 -9 -12 -19 -21 -24 -21 -5 0 -21 -11 -36 -25 -15 -14 -31 -25 -35 -25 -4 0 -19 -10 -32 -22 -38 -36 -141 -109 -151 -107 -5 0 -13 -6 -18 -15 -5 -9 -13 -16 -18 -16 -5 0 -22 -12 -37 -26 -47 -44 -180 -134 -198 -134 -9 0 -13 -5 -10 -10 3 -6 -5 -14 -19 -19 -13 -6 -28 -16 -33 -24 -10 -17 -125 -96 -177 -123 -21 -10 -45 -29 -54 -42 -19 -29 -125 -102 -147 -102 -8 0 -18 -7 -21 -15 -7 -18 -44 -20 -44 -2 0 14 -65 62 -104 77 -15 5 -24 14 -21 20 3 5 -3 10 -14 10 -11 0 -43 22 -72 49 -29 27 -56 48 -60 46 -3 -3 -14 4 -24 15 -10 11 -22 20 -27 20 -13 0 -93 61 -91 70 2 7 -25 23 -60 34 -10 3 -16 10 -13 15 3 5 -8 14 -26 20 -17 6 -28 14 -25 18 9 8 -44 44 -54 37 -4 -2 -14 4 -21 14 -7 10 -29 27 -49 36 -20 9 -54 33 -75 53 -21 21 -43 37 -47 38 -5 0 -14 8 -21 18 -7 9 -18 17 -25 17 -16 0 -110 69 -121 90 -5 9 -34 30 -64 45 -30 15 -67 41 -82 56 -15 16 -33 29 -38 29 -6 0 -40 23 -76 50 -50 37 -67 45 -73 35 -4 -8 1 -29 13 -50 11 -19 19 -39 18 -43 -4 -18 16 -82 28 -93 8 -7 12 -20 9 -29 -3 -11 1 -20 11 -24 10 -4 14 -13 11 -26 -3 -11 -1 -23 4 -26 5 -3 9 -15 9 -26 0 -11 9 -36 21 -55 12 -18 19 -42 16 -53 -3 -11 1 -25 9 -31 8 -6 13 -17 12 -23 -1 -6 4 -22 11 -34 7 -13 10 -26 7 -29 -3 -4 -1 -12 4 -18 14 -17 40 -107 34 -117 -3 -5 4 -24 16 -43 12 -19 19 -39 16 -44 -4 -5 -1 -13 5 -16 5 -4 8 -13 6 -19 -3 -7 6 -34 19 -61 14 -26 22 -50 19 -53 -2 -3 0 -11 6 -19 7 -7 13 -28 14 -47 2 -18 15 -58 29 -88 14 -30 26 -62 26 -71 0 -9 5 -19 11 -22 6 -4 8 -14 5 -22 -4 -9 -1 -22 5 -30 7 -7 9 -16 6 -19 -3 -3 6 -28 20 -55 13 -28 22 -56 19 -64 -5 -14 30 -123 45 -140 20 -21 6 -45 -46 -81 -31 -21 -63 -39 -72 -40 -9 -2 -30 -18 -47 -36 -35 -37 -90 -78 -106 -78 -5 0 -27 -17 -49 -38 -21 -20 -52 -44 -67 -52 -16 -8 -35 -23 -43 -33 -7 -10 -19 -16 -27 -13 -7 3 -22 -7 -34 -21 -27 -35 -222 -173 -234 -166 -5 3 -6 2 -3 -4 6 -9 -103 -93 -121 -93 -6 0 -13 -7 -16 -16 -3 -9 -13 -14 -21 -10 -8 3 -24 -7 -37 -24 -21 -26 -101 -90 -112 -90 -3 0 -17 -11 -32 -25 -15 -14 -33 -25 -39 -25 -7 0 -15 -6 -18 -13 -3 -8 -25 -23 -50 -35 -24 -11 -61 -36 -81 -55 -35 -34 -36 -35 -14 -40 13 -3 376 -6 807 -6 432 -1 787 -3 789 -6 3 -2 6 -19 8 -36 2 -18 9 -39 16 -47 7 -8 14 -30 15 -49 1 -20 8 -43 16 -52 8 -9 20 -34 27 -56 7 -22 17 -50 21 -63 5 -13 7 -28 3 -33 -3 -6 0 -17 7 -26 8 -8 15 -31 16 -50 1 -20 8 -43 16 -52 21 -25 37 -69 31 -85 -3 -8 -1 -17 5 -21 6 -3 11 -14 11 -23 0 -10 9 -36 20 -57 12 -22 19 -48 16 -57 -2 -9 3 -19 11 -22 9 -4 12 -13 8 -27 -4 -13 -1 -27 10 -39 9 -10 14 -24 10 -30 -4 -6 0 -19 9 -29 9 -10 16 -22 15 -27 -1 -5 3 -22 9 -37 7 -16 10 -33 6 -38 -3 -5 4 -25 16 -43 11 -19 20 -38 19 -43 -1 -4 5 -24 14 -43 8 -19 19 -53 23 -75 4 -22 14 -50 22 -62 8 -13 12 -29 9 -37 -3 -8 1 -20 9 -27 8 -7 13 -18 10 -25 -3 -7 4 -29 15 -50 10 -21 19 -46 19 -56 0 -9 5 -20 10 -23 6 -3 10 -16 10 -28 0 -12 5 -29 10 -37 14 -22 29 -2 35 50 3 24 12 52 20 60 8 9 12 20 9 23 -4 4 -2 13 4 20 7 8 9 17 6 20 -4 4 1 18 10 32 9 14 15 29 12 33 -7 11 21 89 45 128 10 17 16 34 12 37 -3 4 0 13 6 21 7 8 10 20 6 25 -3 6 0 21 7 33 7 13 11 27 10 31 -1 4 3 18 10 30 7 12 11 30 9 40 -1 9 7 30 18 46 11 15 18 31 15 34 -3 2 4 22 15 42 11 20 17 43 15 50 -3 7 0 16 5 20 6 3 9 10 6 15 -3 4 3 25 12 46 9 22 16 42 15 46 -1 4 8 26 20 49 11 22 22 56 24 76 1 19 10 43 19 53 9 10 14 23 11 29 -3 5 -1 22 5 38 7 15 13 35 14 43 4 24 36 114 46 126 5 6 6 13 3 17 -3 3 0 16 7 29 7 12 12 27 11 32 -2 4 4 19 13 32 8 13 17 36 19 51 8 63 -58 58 803 57 433 -1 796 1 806 5 16 6 10 13 -37 46 -31 21 -56 42 -56 47 0 4 -6 8 -13 8 -7 0 -23 11 -35 25 -12 14 -28 25 -36 25 -7 0 -21 11 -30 25 -9 14 -21 23 -27 20 -9 -6 -72 40 -67 49 5 9 -36 35 -54 36 -9 0 -24 10 -33 23 -8 12 -18 20 -21 18 -8 -5 -94 61 -94 71 0 5 -16 16 -36 24 -20 8 -33 18 -30 21 4 4 -12 15 -34 25 -25 11 -38 23 -34 30 4 7 3 8 -4 4 -12 -7 -112 62 -112 77 0 4 -16 15 -35 23 -20 8 -33 19 -30 24 3 6 1 10 -4 10 -21 0 -26 3 -69 34 -24 17 -48 38 -53 48 -5 9 -16 15 -23 12 -8 -3 -25 9 -41 30 -15 20 -33 36 -41 36 -19 0 -123 73 -124 88 0 6 -7 12 -16 12 -18 0 -59 30 -63 45 -1 6 -8 20 -16 32 -13 20 -13 23 2 31 11 7 16 22 15 46 -1 25 4 39 14 43 9 3 12 12 9 24 -3 10 2 33 12 51 9 18 16 39 14 46 -1 8 5 25 14 39 10 14 19 43 21 64 5 43 29 104 43 114 6 3 8 12 5 19 -3 8 -1 17 5 20 6 4 7 14 4 23 -4 9 1 21 10 28 9 6 18 29 21 51 2 21 16 74 30 117 14 43 26 84 26 93 0 8 6 17 14 20 8 3 12 13 9 24 -3 11 4 35 16 55 11 19 18 42 15 50 -4 9 1 18 10 21 13 5 15 14 11 34 -3 16 -1 31 4 35 6 3 11 15 11 26 0 11 6 22 13 24 6 3 13 21 14 41 1 19 9 46 17 59 9 14 18 42 21 63 3 22 13 57 22 78 9 22 16 43 14 48 -1 4 5 19 13 32 9 12 13 29 10 37 -3 8 2 20 11 27 17 14 21 50 5 50 -5 0 -10 -4 -10 -9z"/>
<path d="M7023 7566 c3 -8 -3 -31 -14 -52 -10 -21 -17 -46 -14 -55 3 -9 0 -30 -6 -45 -37 -91 -42 -108 -40 -118 1 -4 -5 -19 -14 -32 -9 -14 -13 -29 -9 -35 3 -6 -2 -19 -11 -29 -9 -10 -14 -24 -10 -30 4 -6 -1 -22 -10 -36 -9 -14 -18 -40 -21 -57 -7 -55 -15 -57 -288 -59 -138 -1 -264 -2 -280 -2 -38 -1 -44 -19 -11 -34 15 -7 23 -17 20 -22 -3 -6 1 -10 10 -10 21 0 154 -92 155 -107 0 -6 14 -16 32 -22 17 -6 28 -14 25 -18 -8 -7 23 -32 40 -33 16 0 113 -69 113 -80 0 -5 10 -10 23 -12 19 -3 22 -8 19 -38 -2 -19 -15 -60 -29 -90 -15 -30 -26 -66 -25 -79 1 -13 -9 -43 -22 -65 -13 -23 -21 -46 -19 -53 2 -6 0 -14 -6 -17 -6 -4 -8 -13 -4 -22 3 -8 -1 -22 -9 -32 -9 -9 -18 -36 -22 -59 -3 -24 -15 -59 -26 -78 -32 -57 -24 -59 42 -8 91 70 127 93 144 93 8 0 13 4 10 9 -7 10 77 71 98 71 9 0 23 11 32 25 18 27 99 89 130 99 20 6 83 -35 148 -96 16 -16 35 -28 42 -28 15 0 51 -28 94 -70 14 -14 45 -36 70 -49 25 -13 47 -26 50 -30 3 -4 21 -19 41 -34 30 -23 38 -25 42 -13 4 9 0 22 -8 30 -8 8 -15 24 -15 35 0 11 -5 23 -10 26 -6 4 -9 12 -8 18 1 7 -4 23 -11 35 -7 13 -10 26 -7 29 3 4 2 11 -3 17 -15 19 -62 167 -55 177 3 5 -4 25 -16 44 -12 19 -19 39 -16 44 4 5 1 13 -5 16 -5 4 -8 13 -5 20 3 8 -2 19 -9 25 -20 16 -3 46 30 54 14 4 25 11 25 17 0 12 40 48 53 49 4 0 17 9 29 20 12 10 25 17 30 14 4 -3 8 -1 8 5 0 13 98 84 108 77 5 -3 36 21 70 54 33 32 70 61 82 65 12 4 19 12 17 18 -3 9 -82 12 -292 13 l-288 1 -14 33 c-7 18 -11 41 -8 50 3 11 -1 20 -11 24 -9 3 -14 13 -10 21 3 8 1 17 -4 20 -6 4 -10 15 -10 26 0 10 -4 27 -10 37 -18 32 -49 125 -44 133 3 5 -2 20 -11 33 -9 14 -14 30 -11 35 4 5 1 13 -5 16 -5 4 -8 13 -5 20 3 8 -2 19 -9 25 -8 7 -14 19 -13 28 3 35 -2 50 -18 56 -11 4 -15 2 -11 -8z"/>
<path d="M6552 5713 c22 -43 37 -85 42 -118 4 -21 13 -47 22 -56 8 -9 14 -23 13 -31 -2 -7 2 -23 9 -35 7 -12 12 -26 11 -30 -1 -4 6 -25 15 -46 9 -21 14 -47 11 -57 -3 -11 0 -20 10 -24 11 -4 14 -13 10 -25 -3 -11 -1 -22 4 -26 6 -3 17 -29 26 -58 15 -51 15 -52 -7 -69 -12 -9 -26 -14 -30 -12 -5 3 -11 -2 -14 -10 -7 -17 -74 -62 -87 -58 -5 1 -6 -1 -3 -6 6 -11 -148 -122 -168 -122 -8 0 -26 -16 -41 -36 -16 -21 -33 -33 -41 -30 -8 3 -14 -1 -14 -8 0 -7 -12 -18 -26 -25 -15 -6 -23 -15 -19 -19 3 -4 133 -8 288 -9 155 0 284 -5 286 -10 2 -4 10 -17 17 -28 8 -11 14 -30 14 -43 0 -12 7 -33 15 -46 9 -13 15 -28 13 -32 -1 -5 3 -19 10 -32 7 -12 10 -27 6 -33 -3 -6 2 -19 11 -29 9 -10 14 -23 11 -29 -3 -5 3 -26 15 -45 12 -20 19 -45 16 -56 -3 -10 1 -21 8 -24 7 -2 15 -19 19 -38 16 -81 24 -98 41 -92 7 3 11 13 8 23 -3 10 3 34 13 52 10 19 17 37 16 41 -1 4 3 20 10 35 6 15 10 32 9 36 0 4 4 18 11 30 7 12 11 27 10 33 -1 6 4 17 12 23 8 7 13 18 10 26 -3 7 0 16 5 20 6 3 9 11 5 16 -3 5 1 21 10 34 9 13 16 33 16 44 0 11 5 23 10 26 6 4 7 11 4 17 -3 5 2 26 11 46 l18 37 276 -1 c152 -1 282 2 290 6 11 6 9 10 -8 20 -24 12 -52 34 -83 63 -10 9 -22 17 -27 17 -5 0 -16 11 -25 25 -9 14 -21 23 -26 20 -11 -7 -84 45 -75 53 6 6 -15 22 -67 49 -21 11 -60 36 -87 54 -46 32 -49 36 -46 73 2 21 11 46 19 55 9 10 13 21 10 24 -4 4 -1 13 5 21 7 8 10 19 7 24 -5 8 4 45 25 97 4 11 15 45 25 75 9 30 26 73 38 94 11 22 19 52 18 68 -1 15 2 28 8 28 5 0 10 11 10 25 0 14 -4 25 -9 25 -5 0 -16 -11 -25 -25 -9 -14 -26 -25 -37 -25 -11 0 -18 -4 -14 -9 6 -10 -28 -33 -53 -37 -8 -1 -29 -18 -48 -38 -40 -41 -106 -87 -150 -105 -17 -7 -41 -25 -53 -42 -12 -16 -30 -29 -41 -29 -11 0 -19 -6 -18 -12 2 -7 -7 -14 -19 -16 -23 -3 -133 71 -133 90 0 5 -4 7 -9 4 -5 -3 -14 1 -21 9 -7 8 -18 15 -25 15 -8 0 -22 10 -32 23 -10 13 -26 26 -36 30 -10 4 -16 11 -13 15 3 5 -9 17 -27 27 -18 11 -32 17 -33 15 -1 -10 -116 75 -125 92 -5 10 -17 18 -25 18 -9 0 -14 -3 -12 -7z"/>
<path d="M6028 4484 c-4 -3 -4 -12 -1 -20 3 -8 -2 -23 -12 -34 -9 -10 -15 -23 -12 -27 7 -11 -25 -107 -42 -127 -7 -8 -10 -19 -7 -24 6 -9 -20 -91 -35 -108 -5 -6 -11 -25 -13 -42 -2 -18 -8 -38 -15 -45 -6 -8 -8 -17 -4 -20 3 -4 -2 -16 -11 -26 -12 -13 -15 -27 -11 -41 5 -15 3 -21 -7 -19 -51 7 -598 -3 -598 -11 0 -5 16 -17 36 -26 20 -10 57 -37 83 -61 25 -24 50 -43 57 -43 6 0 29 -16 50 -35 21 -19 42 -35 46 -35 13 0 78 -44 78 -53 0 -14 42 -47 87 -68 37 -17 41 -22 34 -42 -4 -12 -6 -28 -4 -35 3 -7 -3 -19 -12 -26 -10 -7 -15 -18 -11 -24 7 -12 -31 -139 -44 -147 -5 -3 -7 -12 -3 -21 3 -8 -2 -23 -12 -34 -9 -10 -14 -24 -10 -30 4 -6 -1 -20 -10 -30 -9 -10 -14 -24 -10 -30 4 -6 -1 -23 -11 -38 -10 -15 -19 -38 -20 -52 -1 -14 -6 -35 -9 -47 -14 -44 44 -19 109 48 36 38 82 71 91 67 4 -2 11 5 16 15 6 9 18 17 28 17 10 0 26 12 36 26 9 14 19 23 22 21 7 -7 113 69 130 93 20 28 43 25 81 -10 18 -16 37 -30 42 -30 4 0 22 -13 39 -29 17 -16 31 -27 31 -25 0 3 11 -3 25 -12 14 -9 23 -19 20 -22 -7 -8 68 -57 83 -54 6 2 12 -4 12 -12 0 -8 13 -19 29 -24 16 -6 37 -22 46 -36 10 -14 21 -23 27 -20 5 3 17 -1 26 -8 9 -8 22 -17 27 -21 15 -8 12 47 -3 66 -8 9 -11 21 -7 27 4 6 0 21 -7 33 -8 12 -15 35 -16 51 -1 16 -9 34 -19 41 -9 7 -14 19 -10 28 3 9 2 19 -3 22 -6 4 -10 14 -10 23 0 10 -9 35 -20 57 -11 22 -20 47 -20 57 0 9 -5 20 -11 24 -6 3 -8 16 -5 28 3 11 0 36 -7 55 -10 28 -10 35 2 39 7 2 23 15 34 28 11 13 27 24 34 24 7 0 13 7 13 15 0 9 6 15 13 14 19 -3 47 12 47 26 0 13 28 30 43 27 4 -1 7 2 7 7 0 11 95 81 110 81 6 0 10 4 10 10 0 5 32 31 70 57 41 26 67 50 62 55 -5 5 -138 8 -295 6 l-286 -3 -11 23 c-5 13 -8 28 -4 33 3 6 0 17 -7 25 -6 8 -9 17 -6 20 3 3 -5 26 -19 51 -13 25 -24 54 -24 64 0 10 -5 21 -10 24 -6 3 -8 16 -4 29 3 14 -1 27 -11 36 -8 7 -13 20 -10 29 3 10 -8 44 -25 76 -17 32 -28 66 -25 74 5 18 -27 66 -37 55z"/>
</g>
<g id="layer104" fill="#e78697" stroke="none">
<path d="M5610 11843 c-25 -2 -52 -6 -60 -9 -8 -3 -52 -5 -97 -4 -46 0 -83 -2 -83 -7 0 -4 -33 -9 -73 -10 -63 -3 -171 -14 -275 -29 -18 -3 -30 -9 -27 -15 4 -5 11 -6 17 -3 6 4 8 2 5 -4 -4 -6 -23 -8 -45 -5 -41 6 -238 -32 -259 -49 -8 -6 -16 -8 -20 -5 -3 4 -11 3 -17 -2 -7 -6 -34 -12 -61 -15 -96 -9 -134 -18 -137 -33 -2 -10 -18 -16 -48 -18 -25 -2 -65 -9 -90 -15 -25 -6 -58 -14 -75 -18 l-30 -6 30 -6 c26 -6 27 -8 11 -15 -11 -5 -26 -4 -37 3 -11 7 -20 8 -24 2 -3 -6 -16 -10 -29 -10 -12 0 -26 -3 -30 -7 -9 -10 -77 -32 -101 -34 -17 -1 -16 -2 5 -9 20 -6 16 -8 -21 -8 -25 0 -55 -5 -67 -11 -11 -6 -30 -11 -41 -11 -11 0 -24 -7 -29 -16 -5 -9 -11 -15 -13 -13 -9 5 -109 -33 -104 -41 3 -4 -5 -6 -17 -3 -19 4 -20 3 -8 -7 12 -10 11 -11 -8 -7 -12 3 -20 1 -16 -4 3 -5 -7 -9 -23 -9 -37 -1 -116 -37 -108 -50 3 -5 0 -7 -9 -4 -14 5 -113 -31 -131 -49 -7 -7 -5 -7 4 -2 9 5 12 4 7 -3 -4 -7 -16 -12 -27 -12 -10 0 -29 -5 -42 -12 -12 -6 -29 -14 -37 -19 -8 -4 -14 -12 -12 -19 1 -6 -2 -9 -8 -5 -17 10 -129 -45 -123 -61 3 -10 0 -12 -10 -8 -14 5 -97 -30 -97 -42 0 -2 9 0 19 6 27 14 41 12 16 -2 -11 -7 -27 -12 -37 -13 -34 -2 -99 -38 -94 -52 3 -7 1 -13 -3 -13 -5 0 -12 6 -14 13 -3 6 -6 3 -6 -7 -1 -11 -4 -16 -7 -13 -12 11 -83 -35 -77 -49 4 -10 0 -12 -13 -7 -13 5 -15 3 -9 -7 5 -8 4 -11 -3 -6 -13 8 -63 -14 -57 -25 3 -4 0 -11 -6 -15 -8 -4 -9 -3 -5 4 11 18 2 15 -54 -20 -28 -17 -49 -37 -46 -44 3 -7 -2 -10 -13 -7 -10 2 -23 -3 -30 -11 -8 -9 -19 -16 -25 -16 -7 0 -23 -11 -36 -25 -13 -14 -29 -25 -35 -25 -17 0 -46 -35 -38 -45 5 -4 2 -5 -5 -1 -15 9 -66 -21 -118 -71 -22 -20 -33 -32 -25 -28 10 5 12 4 7 -4 -4 -6 -11 -9 -15 -6 -14 8 -76 -40 -75 -57 1 -11 -4 -14 -14 -11 -9 4 -13 2 -9 -4 4 -6 -1 -10 -11 -9 -9 0 -16 -5 -14 -12 1 -8 -1 -11 -5 -9 -5 3 -17 -2 -28 -10 -20 -15 -20 -16 0 -9 11 4 16 4 12 -1 -5 -4 -21 -12 -38 -18 -28 -10 -66 -42 -257 -220 -219 -204 -448 -449 -444 -474 2 -10 -3 -23 -9 -27 -9 -5 -10 -2 -5 12 4 11 -3 7 -18 -11 -13 -16 -22 -35 -19 -41 2 -7 -1 -15 -8 -20 -8 -4 -10 -3 -5 4 4 7 3 12 -3 12 -16 0 -62 -62 -57 -76 3 -7 0 -16 -6 -20 -7 -5 -8 -2 -3 7 8 12 6 12 -9 0 -9 -8 -15 -20 -12 -27 3 -8 1 -13 -3 -11 -8 2 -46 -35 -84 -82 -10 -12 -15 -27 -11 -33 4 -6 3 -8 -4 -4 -13 8 -42 -31 -42 -59 0 -14 -3 -16 -8 -7 -6 8 -16 -1 -32 -30 -13 -24 -32 -49 -41 -56 -15 -11 -57 -78 -93 -149 -6 -13 -14 -23 -18 -23 -13 0 -58 -87 -53 -102 3 -8 -2 -21 -12 -29 -16 -13 -17 -12 -4 4 8 9 11 20 9 23 -9 8 -48 -47 -48 -66 0 -10 -7 -20 -15 -24 -8 -3 -15 -10 -15 -16 0 -6 5 -8 12 -4 7 4 8 3 4 -5 -4 -6 -11 -9 -16 -6 -4 3 -15 -13 -24 -34 -8 -22 -20 -42 -26 -46 -17 -10 -48 -79 -42 -94 3 -9 0 -11 -8 -6 -10 6 -12 4 -7 -8 4 -10 2 -16 -6 -14 -7 1 -12 -8 -11 -20 0 -12 -3 -20 -8 -17 -12 7 -28 -40 -21 -64 2 -11 0 -23 -6 -27 -6 -3 -11 -3 -10 2 5 31 -4 32 -17 3 -9 -19 -20 -44 -26 -56 -5 -11 -8 -24 -6 -30 2 -5 -1 -10 -6 -11 -14 -2 -46 -56 -46 -77 0 -11 -16 -51 -36 -89 -19 -38 -33 -76 -30 -84 4 -10 2 -13 -8 -10 -9 4 -19 -8 -29 -36 -23 -62 -34 -110 -29 -125 2 -7 -2 -11 -8 -10 -16 4 -51 -99 -44 -128 4 -15 2 -24 -5 -24 -6 0 -11 8 -11 18 -1 24 -30 -58 -30 -85 0 -12 -4 -25 -10 -28 -5 -3 -10 -16 -10 -28 0 -23 -19 -83 -34 -105 -9 -14 -10 -20 -25 -131 -6 -41 -15 -79 -21 -85 -6 -6 -5 5 1 28 6 20 9 42 7 47 -7 20 -47 -166 -42 -196 4 -25 3 -27 -6 -10 -7 16 -9 10 -6 -25 2 -25 1 -35 -1 -22 -5 26 -25 30 -22 5 1 -10 -1 -26 -6 -36 -4 -9 -5 -26 -2 -37 3 -11 1 -20 -3 -20 -12 0 -23 -74 -23 -145 0 -37 -2 -51 -6 -36 -12 43 -43 -166 -45 -297 -1 -85 -5 -125 -14 -134 -11 -11 -12 -10 -7 5 4 9 3 17 -3 17 -24 0 -37 -249 -37 -705 0 -234 5 -438 14 -530 7 -82 15 -180 18 -217 2 -38 9 -68 14 -68 13 0 11 117 -2 143 -10 19 -9 20 2 9 15 -14 30 -164 15 -155 -9 6 -1 -111 14 -192 5 -27 12 -68 16 -90 5 -33 8 -36 14 -20 6 13 8 -3 9 -45 0 -64 29 -230 41 -240 4 -3 17 -48 29 -100 28 -117 32 -132 36 -128 2 2 0 21 -5 42 -5 21 -5 35 0 30 5 -5 13 -38 19 -74 13 -84 21 -120 31 -145 11 -27 25 -71 40 -125 22 -77 41 -129 37 -97 -4 24 -2 26 8 15 7 -7 16 -24 20 -38 5 -19 4 -21 -4 -10 -17 24 -13 -4 10 -64 12 -31 25 -54 29 -51 4 2 7 -8 8 -23 2 -54 27 -117 50 -127 16 -7 21 -16 18 -29 -6 -22 21 -96 41 -113 8 -6 14 -15 14 -20 -1 -26 23 -87 42 -106 12 -12 21 -26 19 -31 -2 -5 4 -23 12 -40 8 -17 19 -44 25 -59 6 -15 15 -27 21 -27 5 0 10 -6 10 -14 0 -25 41 -86 53 -79 7 4 8 0 4 -11 -10 -25 30 -99 49 -92 8 3 12 2 9 -4 -8 -14 22 -81 36 -78 6 2 14 -4 16 -12 4 -13 3 -13 -6 0 -6 8 -11 10 -11 4 0 -6 11 -20 25 -30 13 -10 20 -21 15 -24 -6 -3 5 -28 23 -55 17 -27 40 -63 50 -82 9 -18 20 -33 23 -33 3 0 3 4 -1 9 -3 5 -2 12 3 15 4 2 9 -7 10 -20 2 -30 27 -69 45 -69 6 -1 11 -6 9 -13 -3 -16 24 -69 41 -79 7 -4 25 -28 38 -53 14 -25 30 -44 36 -43 6 1 13 -11 17 -27 3 -18 12 -30 22 -30 8 0 14 -5 12 -12 -2 -6 4 -21 15 -32 59 -65 71 -75 80 -69 6 3 7 1 3 -5 -9 -15 23 -64 37 -55 6 3 7 1 3 -5 -7 -12 42 -82 57 -82 5 0 5 5 1 12 -5 7 -3 8 5 4 7 -5 10 -10 7 -13 -15 -16 75 -121 311 -360 110 -112 176 -172 184 -167 7 4 9 3 6 -3 -5 -8 119 -137 126 -130 1 1 20 -17 41 -40 21 -24 44 -43 52 -43 7 0 19 -9 27 -20 7 -11 30 -31 49 -44 20 -13 44 -31 55 -40 50 -44 91 -76 99 -76 4 0 -1 7 -12 16 -18 14 -18 15 4 4 12 -6 20 -15 17 -19 -7 -12 20 -32 36 -29 7 2 13 -4 14 -12 0 -8 17 -24 39 -36 21 -12 41 -26 45 -31 3 -5 21 -18 38 -28 18 -11 33 -23 33 -27 0 -9 62 -43 73 -40 4 1 7 -2 7 -8 0 -5 7 -7 15 -4 11 5 13 2 9 -10 -3 -9 -2 -16 4 -16 5 0 32 -15 59 -34 50 -34 89 -52 109 -48 7 1 11 -5 10 -14 -1 -21 56 -56 90 -56 13 0 27 -5 31 -11 4 -6 1 -7 -8 -2 -12 8 -12 6 0 -8 7 -9 31 -22 52 -28 21 -7 36 -16 33 -20 -2 -5 24 -22 58 -39 35 -17 79 -40 98 -50 19 -11 45 -19 58 -20 13 0 21 -4 18 -8 -8 -13 86 -56 118 -55 20 1 25 -2 15 -7 -16 -11 -16 -11 41 -34 25 -10 59 -24 75 -32 17 -7 50 -20 75 -30 25 -10 49 -24 53 -31 4 -7 16 -13 27 -13 10 0 40 -9 66 -21 29 -12 58 -18 74 -14 17 4 21 3 11 -4 -11 -7 -10 -11 8 -20 11 -7 21 -9 21 -5 0 3 12 -1 26 -10 14 -10 31 -15 37 -13 7 2 24 -2 40 -10 15 -7 27 -9 27 -4 0 6 7 8 16 4 11 -4 12 -8 4 -13 -16 -10 131 -51 158 -44 17 5 21 3 16 -9 -4 -11 7 -19 48 -30 29 -9 67 -17 83 -19 17 -2 32 -6 35 -9 3 -3 18 -9 33 -13 22 -5 27 -4 22 6 -4 7 -1 6 7 -3 7 -9 27 -19 43 -22 106 -21 135 -25 173 -20 28 4 42 2 42 -6 0 -6 -15 -11 -32 -12 -31 -1 -30 -2 12 -12 25 -6 66 -11 92 -11 25 -1 44 -4 42 -7 -6 -11 70 -19 115 -13 33 5 41 3 41 -10 0 -12 11 -16 49 -16 28 0 51 -5 53 -11 5 -14 66 -18 408 -25 168 -4 242 -2 235 5 -6 5 -71 13 -145 16 -175 7 -414 35 -610 72 -47 8 -110 19 -140 24 -89 14 -291 62 -425 101 -55 17 -115 34 -132 39 -76 21 -105 30 -238 77 -143 50 -206 73 -262 98 -17 8 -34 14 -37 14 -4 0 -46 18 -94 41 -48 22 -105 48 -127 57 -110 44 -413 204 -542 285 -24 15 -45 27 -48 27 -9 0 -294 188 -383 253 -101 74 -316 244 -435 345 -86 72 -412 392 -497 487 -145 162 -302 356 -405 500 -77 108 -256 379 -288 437 -14 25 -36 63 -50 85 -53 84 -183 338 -247 478 -12 28 -35 77 -50 110 -15 33 -37 87 -50 120 -12 33 -38 101 -57 150 -47 121 -55 144 -93 260 -43 130 -112 383 -139 505 -7 30 -16 73 -21 95 -5 22 -16 81 -25 130 -8 50 -19 113 -24 140 -6 28 -15 91 -21 140 -6 50 -16 122 -21 160 -14 98 -39 497 -39 635 0 232 31 644 66 875 18 124 52 305 73 400 14 62 32 146 41 191 5 22 13 51 18 65 6 13 15 42 20 64 22 82 122 400 142 450 4 11 20 52 35 90 15 39 31 80 36 93 5 12 13 32 18 45 5 12 19 45 31 72 13 28 34 75 47 105 48 108 168 346 210 418 24 40 43 75 43 77 0 9 91 157 151 247 22 31 39 60 39 63 0 9 182 265 252 355 33 41 71 91 86 110 177 226 498 558 746 770 272 233 572 447 876 625 117 69 458 246 540 280 25 10 78 33 118 52 39 18 75 33 79 33 6 0 104 38 208 80 51 21 298 101 370 121 44 11 94 25 110 29 58 17 191 49 305 75 63 14 134 30 158 35 23 6 55 10 71 10 15 0 41 4 57 9 54 16 409 55 644 71 394 25 894 -5 1325 -80 28 -5 75 -13 105 -19 30 -5 93 -18 140 -29 47 -11 110 -26 140 -32 30 -6 91 -22 135 -35 44 -12 107 -31 140 -40 87 -24 391 -129 482 -165 43 -18 87 -35 98 -39 11 -5 45 -19 75 -33 30 -14 75 -33 100 -44 71 -29 417 -206 503 -258 43 -25 81 -46 83 -46 3 0 51 -30 107 -67 56 -37 112 -73 124 -79 31 -17 280 -194 330 -235 22 -19 70 -56 104 -84 317 -250 676 -609 930 -930 122 -154 298 -397 319 -440 3 -5 23 -37 44 -70 60 -92 82 -126 109 -175 14 -25 43 -74 63 -110 52 -91 167 -316 208 -408 19 -42 50 -112 70 -155 20 -42 36 -82 36 -87 0 -6 4 -18 9 -28 5 -9 17 -37 26 -62 17 -44 29 -75 46 -115 14 -34 108 -327 123 -385 8 -30 16 -62 19 -70 23 -72 49 -174 67 -260 6 -30 15 -73 20 -95 5 -22 16 -80 25 -130 9 -49 20 -110 25 -135 27 -135 57 -437 71 -697 11 -212 10 -313 -7 -638 -11 -225 -64 -610 -115 -845 -41 -182 -48 -213 -76 -310 -13 -47 -29 -103 -35 -125 -6 -22 -35 -114 -65 -205 -46 -140 -74 -216 -123 -335 -4 -11 -15 -38 -23 -60 -63 -164 -229 -503 -321 -654 -31 -52 -56 -96 -56 -98 0 -18 -308 -473 -380 -563 -20 -25 -66 -81 -101 -126 -129 -163 -247 -293 -434 -479 -242 -242 -436 -406 -732 -620 -113 -82 -358 -245 -368 -245 -2 0 -46 -26 -97 -57 -97 -59 -423 -228 -493 -256 -22 -8 -74 -31 -115 -50 -77 -36 -302 -125 -387 -153 -27 -8 -77 -26 -113 -38 -36 -13 -83 -28 -105 -35 -22 -6 -62 -17 -90 -25 -157 -46 -200 -58 -300 -81 -173 -40 -188 -44 -225 -49 -19 -3 -73 -12 -120 -20 -200 -36 -432 -63 -602 -71 -64 -3 -127 -9 -140 -15 -15 -7 57 -8 227 -5 305 5 398 10 403 24 2 6 26 11 53 11 38 0 49 3 49 16 0 13 7 15 35 10 39 -8 127 2 121 13 -2 3 19 7 47 7 29 1 70 6 92 12 40 10 40 10 8 11 -18 0 -33 6 -33 12 0 8 14 10 43 6 37 -5 66 -1 172 20 16 3 36 13 43 22 8 9 11 10 7 3 -5 -10 0 -11 22 -6 15 4 30 10 33 13 3 3 19 7 35 9 17 2 54 10 83 19 40 11 52 19 48 30 -5 12 -1 14 18 9 27 -7 159 31 152 43 -3 4 5 7 17 6 12 -1 30 4 41 11 10 7 24 10 31 7 8 -2 25 3 39 12 14 10 26 14 26 11 0 -4 10 -2 21 5 18 9 19 13 8 21 -11 8 -10 8 5 4 19 -6 94 11 111 26 5 4 19 8 32 8 12 0 26 6 30 13 4 7 28 21 53 31 25 10 59 23 75 30 17 8 50 22 75 32 57 23 57 23 40 35 -11 7 -8 8 10 4 27 -6 136 46 123 58 -3 4 5 7 18 7 13 1 40 9 59 20 19 10 63 33 98 50 34 17 60 34 58 39 -3 4 12 13 33 20 21 6 45 19 52 28 12 14 12 16 0 8 -9 -5 -12 -4 -8 2 4 6 18 11 31 11 34 0 91 35 90 55 -1 8 6 15 15 15 24 -1 68 19 89 40 10 10 33 24 50 31 21 9 31 19 28 27 -3 8 0 15 7 15 27 3 33 5 65 22 17 10 32 21 32 25 0 5 18 18 40 31 22 12 38 26 35 31 -3 4 2 11 11 14 10 4 13 2 7 -7 -4 -6 12 4 36 23 24 19 69 54 100 77 31 23 67 51 81 62 14 12 36 29 49 39 13 9 36 29 50 45 14 15 31 27 37 27 6 0 28 18 48 40 20 22 38 40 41 40 13 0 133 125 128 133 -3 6 -1 7 6 3 19 -12 433 412 482 493 10 17 18 34 18 37 0 3 3 9 7 12 4 4 4 1 0 -6 -4 -6 -4 -12 1 -12 15 0 64 70 57 82 -4 6 -3 8 3 5 14 -9 46 40 37 55 -4 6 -3 8 4 4 12 -7 89 80 84 96 -1 5 2 7 7 4 10 -7 41 37 41 59 0 8 5 14 12 13 6 -2 21 15 34 37 12 22 29 47 37 55 20 21 42 63 39 77 -1 6 3 15 9 19 8 5 10 2 5 -7 -4 -8 4 0 18 16 14 17 26 38 26 48 0 9 4 17 10 17 14 0 61 75 57 91 -2 8 -2 10 1 6 6 -12 53 47 47 61 -2 7 4 20 15 29 11 10 20 22 20 28 0 5 -5 3 -11 -5 -9 -13 -10 -13 -6 0 2 8 10 14 16 12 14 -3 44 64 36 78 -3 6 1 7 10 4 11 -4 20 5 32 32 9 22 16 47 15 57 0 9 3 15 8 12 13 -8 43 54 35 73 -3 9 -3 14 0 10 7 -7 45 22 45 34 0 5 9 28 21 53 11 24 18 49 15 54 -4 6 2 15 13 20 19 11 57 104 52 130 -1 7 2 10 7 7 14 -8 52 86 45 112 -3 13 -1 22 6 22 6 0 11 -6 11 -12 0 -20 28 39 41 85 6 23 11 52 11 64 0 13 4 21 8 18 4 -2 17 20 29 51 23 60 27 88 10 64 -8 -11 -9 -9 -4 10 4 14 13 31 20 38 10 11 12 9 8 -15 -4 -32 15 20 37 97 20 71 31 103 45 130 7 14 18 65 24 114 6 50 15 94 21 100 6 6 5 -5 -1 -28 -6 -21 -9 -40 -6 -42 4 -4 29 85 47 171 6 27 15 52 19 55 12 9 45 192 44 250 0 36 2 48 7 35 6 -16 9 -12 14 20 4 22 11 63 16 90 15 82 23 198 13 192 -13 -8 2 142 16 156 10 9 11 8 6 -4 -4 -10 -2 -20 4 -23 39 -25 51 1050 15 1352 -3 23 -10 42 -16 42 -6 0 -7 -8 -3 -17 5 -15 4 -16 -7 -5 -9 9 -13 50 -15 140 0 69 -6 151 -12 182 -6 30 -13 73 -17 95 -5 34 -8 37 -15 20 -7 -15 -8 -11 -4 14 6 40 -13 161 -26 161 -4 0 -6 6 -3 14 6 15 -12 125 -22 135 -3 3 -10 -1 -15 -9 -8 -12 -9 -9 -5 10 5 25 -35 211 -42 191 -2 -5 1 -27 7 -47 6 -23 7 -34 1 -28 -6 6 -15 44 -20 85 -6 40 -12 84 -14 97 -2 13 -8 28 -15 35 -6 6 -11 24 -11 39 0 15 -4 28 -10 28 -5 0 -10 8 -10 17 0 9 -4 30 -9 47 -6 17 -17 54 -25 81 -8 28 -15 42 -15 33 -1 -10 -6 -18 -12 -18 -7 0 -9 9 -5 23 7 29 -29 133 -44 129 -6 -1 -10 3 -8 10 4 22 -12 86 -32 130 -11 24 -20 37 -20 31 0 -7 -5 -13 -11 -13 -6 0 -8 8 -4 20 4 12 -7 44 -29 88 -20 37 -36 77 -36 88 0 21 -32 75 -46 77 -5 1 -8 6 -6 11 2 6 -1 19 -6 30 -6 12 -17 37 -26 56 -13 29 -22 28 -17 -3 1 -5 -4 -5 -10 -2 -6 4 -8 16 -6 27 7 25 -10 71 -22 63 -5 -3 -13 0 -17 6 -5 8 -3 9 5 4 9 -5 12 -2 9 11 -2 11 -9 18 -16 17 -7 -2 -9 4 -5 14 4 11 3 14 -6 9 -8 -5 -11 -3 -9 6 5 23 -34 99 -48 94 -8 -3 -11 0 -7 10 4 10 0 13 -13 8 -13 -4 -15 -3 -6 3 9 7 8 18 -8 51 -11 23 -24 42 -29 42 -5 0 -11 13 -14 29 -3 16 -13 35 -21 43 -8 8 -28 38 -46 66 -17 29 -36 52 -41 52 -5 0 -9 6 -9 14 0 8 -12 28 -26 43 -14 15 -22 22 -18 14 5 -10 3 -12 -5 -7 -7 5 -10 14 -7 21 6 18 -20 71 -43 87 -9 7 -28 32 -41 56 -16 29 -26 38 -32 30 -5 -9 -8 -8 -8 5 0 18 -22 57 -51 92 -45 53 -82 90 -89 88 -4 -1 -7 5 -6 15 0 9 -5 17 -13 17 -8 0 -15 10 -16 23 -1 12 -12 33 -25 47 -24 25 -47 35 -34 13 5 -7 3 -8 -5 -4 -7 5 -10 13 -8 20 3 6 -6 25 -19 41 -15 18 -22 22 -18 11 5 -14 4 -17 -5 -12 -6 4 -11 17 -9 27 3 21 -179 220 -336 369 -44 41 -100 96 -124 122 -25 26 -49 45 -53 42 -5 -3 -9 2 -9 11 0 8 -8 18 -17 22 -10 3 -25 14 -33 23 -8 10 -40 39 -70 64 -82 70 -80 68 -80 55 0 -15 -15 -1 -15 14 -1 7 -6 11 -13 10 -7 -2 -11 3 -9 10 1 6 -6 11 -15 11 -10 -1 -15 3 -11 9 4 6 0 8 -10 4 -11 -4 -14 -2 -11 7 5 14 -45 56 -71 60 -8 1 -18 6 -22 11 -5 4 -1 5 7 0 8 -5 -1 7 -20 26 -47 47 -107 82 -122 73 -7 -4 -10 -3 -5 1 8 10 -21 45 -38 45 -7 0 -20 9 -30 20 -24 26 -75 51 -88 43 -6 -4 -7 -1 -2 7 6 10 4 12 -8 7 -10 -4 -14 -2 -11 7 3 7 -16 26 -46 44 -56 35 -65 38 -54 20 4 -7 4 -10 0 -6 -4 3 -7 10 -6 13 2 9 -51 45 -65 45 -5 0 -3 -5 5 -11 13 -9 13 -10 0 -6 -8 2 -15 11 -15 21 0 17 -78 60 -89 48 -3 -3 -6 2 -6 12 0 16 -58 49 -87 49 -7 0 -13 4 -13 9 0 5 -4 6 -10 3 -5 -3 -18 -1 -27 5 -17 11 -17 11 0 6 30 -9 18 3 -24 24 -23 12 -48 19 -56 16 -10 -4 -13 -2 -10 8 7 17 -106 71 -125 60 -6 -4 -8 -3 -5 4 7 11 -68 52 -96 52 -9 0 -19 5 -23 12 -5 7 -2 8 7 3 9 -5 11 -5 4 2 -18 18 -124 55 -136 47 -8 -4 -9 -3 -5 5 9 14 -67 50 -107 51 -16 0 -26 4 -23 9 4 5 -4 7 -16 4 -19 -4 -20 -3 -8 7 12 10 11 11 -8 7 -12 -3 -20 -1 -17 3 3 5 -14 15 -37 21 -24 7 -49 17 -55 22 -9 6 -13 6 -13 -2 0 -6 -5 -11 -11 -11 -6 0 -9 6 -6 14 7 18 -80 48 -138 48 -26 0 -33 2 -22 7 14 5 6 10 -33 21 -28 8 -53 18 -56 22 -3 4 -16 8 -29 8 -13 0 -27 4 -30 10 -4 6 -13 5 -24 -2 -11 -7 -26 -8 -37 -3 -16 7 -15 9 11 15 l30 6 -30 6 c-16 4 -50 12 -75 18 -25 7 -59 13 -76 14 -17 2 -37 7 -44 11 -9 6 -11 4 -5 -5 5 -9 4 -11 -3 -6 -7 4 -12 14 -12 22 0 9 -6 14 -12 11 -7 -2 -30 2 -52 9 -21 8 -56 14 -77 14 -21 0 -41 5 -44 10 -4 6 -11 8 -16 4 -5 -3 -15 -1 -22 4 -7 6 -30 13 -52 17 -22 3 -71 13 -108 22 -38 8 -86 13 -108 10 -22 -3 -42 -1 -46 5 -3 6 -1 8 5 4 6 -3 13 -2 17 3 3 6 -9 12 -27 15 -104 15 -212 26 -275 29 -40 1 -73 6 -73 11 0 5 -63 7 -147 4 -82 -3 -125 -2 -98 1 l50 6 -70 8 c-68 7 -666 7 -755 0z m18 -20 c-16 -2 -40 -2 -55 0 -16 2 -3 4 27 4 30 0 43 -2 28 -4z m6139 -4550 c-3 -10 -5 -2 -5 17 0 19 2 27 5 18 2 -10 2 -26 0 -35z m-11620 -460 c-2 -16 -4 -3 -4 27 0 30 2 43 4 28 2 -16 2 -40 0 -55z m11710 0 c-2 -16 -4 -3 -4 27 0 30 2 43 4 28 2 -16 2 -40 0 -55z m-11709 -1844 l-3 -44 -5 52 c-3 29 -1 48 3 44 5 -5 7 -28 5 -52z m11712 9 c-4 -49 -5 -50 -8 -14 -3 34 2 66 10 66 2 0 1 -24 -2 -52z m-11612 -503 c0 -16 -2 -15 -8 5 -4 14 -8 36 -8 50 0 22 1 22 8 -5 4 -16 8 -39 8 -50z m11512 15 l-11 -25 6 25 c2 14 5 34 6 45 2 19 2 19 6 0 2 -12 -1 -32 -7 -45z m-11030 -1285 c0 -8 -4 -15 -10 -15 -5 0 -10 7 -10 15 0 8 5 15 10 15 6 0 10 -7 10 -15z m10560 0 c0 -8 -4 -15 -10 -15 -5 0 -10 7 -10 15 0 8 5 15 10 15 6 0 10 -7 10 -15z m-7530 -2785 c0 -5 -9 -10 -20 -10 -11 0 -20 5 -20 10 0 6 9 10 20 10 11 0 20 -4 20 -10z m4520 0 c0 -5 -9 -10 -20 -10 -11 0 -20 5 -20 10 0 6 9 10 20 10 11 0 20 -4 20 -10z m-3662 -277 c-10 -2 -26 -2 -35 0 -10 3 -2 5 17 5 19 0 27 -2 18 -5z m2800 0 c-10 -2 -26 -2 -35 0 -10 3 -2 5 17 5 19 0 27 -2 18 -5z m-2335 -90 c-13 -2 -35 -2 -50 0 -16 2 -5 4 22 4 28 0 40 -2 28 -4z m1890 0 c-13 -2 -35 -2 -50 0 -16 2 -5 4 22 4 28 0 40 -2 28 -4z"/>
<path d="M101 6680 c1 -33 6 -60 11 -60 4 0 8 27 8 60 0 35 -4 60 -11 60 -6 0 -9 -23 -8 -60z"/>
<path d="M11880 6680 c0 -33 4 -60 8 -60 5 0 10 27 11 60 1 37 -2 60 -8 60 -7 0 -11 -25 -11 -60z"/>
</g>
<g id="layer105" fill="#eac3c9" stroke="none">
<path d="M5653 11835 c-3 -9 -4 -18 -1 -20 2 -2 49 0 103 4 l100 8 -100 3 c-90 3 -94 4 -45 10 l55 7 -53 1 c-39 2 -54 -2 -59 -13z"/>
<path d="M6285 11840 c42 -6 36 -7 -44 -8 -52 -1 -92 -4 -90 -6 2 -2 46 -6 97 -10 88 -6 92 -6 92 14 0 18 -6 20 -52 18 l-53 -1 50 -7z"/>
<path d="M5366 11814 c-3 -9 -6 -18 -6 -21 0 -6 124 5 153 13 41 12 11 24 -62 24 -63 0 -80 -3 -85 -16z"/>
<path d="M6410 11821 c-30 -6 -32 -8 -14 -14 23 -8 54 0 54 14 0 5 -1 8 -2 8 -2 -1 -19 -5 -38 -8z"/>
<path d="M6460 11821 c0 -11 28 -18 114 -27 63 -6 69 -5 63 10 -4 10 -7 20 -7 22 0 2 -38 4 -85 4 -47 0 -85 -4 -85 -9z"/>
<path d="M5305 11802 c-8 -22 -6 -24 17 -20 30 4 38 37 9 35 -11 -1 -23 -7 -26 -15z"/>
<path d="M5545 11810 c8 -13 35 -13 55 0 11 7 5 10 -23 10 -23 0 -36 -4 -32 -10z"/>
<path d="M6650 11805 c0 -18 24 -30 39 -21 6 4 7 14 4 22 -5 13 -7 13 -14 2 -7 -10 -9 -10 -9 0 0 6 -4 12 -10 12 -5 0 -10 -7 -10 -15z"/>
<path d="M5175 11792 c-3 -7 -5 -16 -5 -18 0 -7 63 -3 90 6 21 7 22 8 5 10 l-20 1 20 9 c15 7 6 9 -32 8 -35 -1 -54 -6 -58 -16z"/>
<path d="M6740 11801 l25 -8 -25 -5 c-19 -3 -12 -6 25 -12 28 -4 91 -14 140 -23 50 -8 104 -17 120 -19 17 -3 58 -12 93 -21 67 -16 84 -13 59 11 -9 9 -23 12 -37 9 -17 -5 -21 -3 -15 6 6 10 2 11 -15 6 -12 -4 -20 -3 -17 1 3 5 -20 10 -51 11 -91 3 -153 14 -159 29 -6 17 -43 19 -43 2 -1 -9 -5 -8 -13 3 -8 9 -30 16 -62 16 -38 2 -44 0 -25 -6z"/>
<path d="M5117 11786 c-6 -15 -68 -26 -159 -29 -31 -1 -54 -6 -51 -10 2 -4 -8 -5 -24 -2 -22 5 -25 4 -13 -5 12 -8 7 -9 -21 -5 -31 6 -37 4 -42 -14 -3 -12 -2 -21 1 -21 4 0 72 14 152 30 80 16 157 30 173 30 20 0 27 5 27 20 0 23 -35 28 -43 6z"/>
<path d="M5006 11780 c-11 -3 -15 -9 -10 -13 10 -6 42 9 34 16 -3 3 -14 1 -24 -3z"/>
<path d="M6970 11780 c0 -12 28 -21 35 -11 2 5 -4 11 -15 14 -11 3 -20 2 -20 -3z"/>
<path d="M4726 11715 c-16 -9 -31 -13 -34 -10 -3 3 -11 0 -17 -5 -7 -6 -23 -11 -37 -12 -16 -1 -24 -7 -21 -15 7 -19 31 -16 69 8 21 13 34 16 34 9 0 -8 9 -10 28 -5 35 8 52 25 27 26 -19 0 -19 1 0 9 l20 9 -20 0 c-11 1 -33 -6 -49 -14z"/>
<path d="M7220 11721 c18 -7 20 -9 7 -10 -27 -1 -11 -18 24 -26 20 -5 34 -3 38 4 5 8 15 5 31 -9 28 -24 56 -26 64 -4 3 8 2 13 -2 10 -5 -3 -20 1 -35 9 -14 7 -28 11 -31 8 -3 -3 -11 -1 -19 5 -7 6 -33 13 -57 16 -34 4 -39 3 -20 -3z"/>
<path d="M4562 11673 c-7 -10 -10 -12 -7 -5 3 6 1 12 -4 12 -6 0 -11 -5 -11 -11 0 -5 -4 -8 -9 -4 -5 3 -13 0 -17 -6 -4 -7 -3 -9 4 -5 5 3 12 1 14 -5 6 -18 61 3 64 24 3 22 -18 22 -34 0z"/>
<path d="M7404 11673 c3 -21 58 -42 64 -24 2 6 9 8 14 5 7 -4 8 -2 4 5 -4 6 -12 9 -17 6 -5 -4 -9 -1 -9 4 0 6 -5 11 -11 11 -5 0 -7 -6 -4 -12 4 -7 0 -5 -8 5 -18 22 -36 22 -33 0z"/>
<path d="M4465 11640 c3 -5 -1 -11 -7 -13 -9 -4 -8 -6 2 -6 14 -1 51 18 40 20 -3 0 -13 2 -23 4 -9 2 -15 0 -12 -5z"/>
<path d="M7504 11639 c-5 -9 35 -23 43 -15 4 3 1 6 -6 6 -7 0 -10 4 -7 8 3 5 -2 9 -10 9 -8 0 -17 -4 -20 -8z"/>
<path d="M4406 11629 c4 -7 0 -9 -14 -5 -13 4 -22 1 -25 -8 -9 -22 8 -28 37 -15 28 13 35 39 10 39 -8 0 -12 -5 -8 -11z"/>
<path d="M7570 11627 c0 -18 50 -41 62 -29 12 12 -18 42 -43 42 -10 0 -19 -6 -19 -13z"/>
<path d="M4289 11608 c-12 -40 0 -47 41 -22 l25 15 -27 -4 c-15 -2 -25 0 -22 4 3 5 0 9 -5 9 -6 0 -11 -1 -12 -2z"/>
<path d="M7693 11603 c4 -6 -5 -8 -21 -6 l-27 4 25 -15 c14 -8 30 -15 37 -16 15 0 10 33 -7 38 -7 3 -10 0 -7 -5z"/>
<path d="M4215 11581 c-3 -5 1 -12 7 -15 7 -3 -2 -3 -20 0 -24 4 -39 1 -52 -11 -10 -9 -24 -14 -31 -9 -8 5 -10 3 -5 -5 5 -8 3 -12 -5 -10 -8 1 -27 0 -44 -1 l-30 -2 27 -8 c28 -8 79 2 160 32 35 12 37 14 18 25 -10 7 -22 9 -25 4z"/>
<path d="M7756 11575 c-16 -13 -14 -15 25 -26 24 -7 49 -14 54 -15 11 -1 35 -10 75 -26 39 -16 72 -20 65 -8 -3 5 -18 10 -33 11 -24 0 -25 1 -7 9 18 8 18 9 -5 10 -14 2 -31 2 -39 1 -8 -2 -10 2 -5 10 5 8 3 10 -5 5 -7 -5 -21 0 -31 9 -14 12 -28 15 -52 10 -22 -4 -28 -3 -19 3 7 5 9 12 4 15 -4 3 -17 -1 -27 -8z"/>
<path d="M4011 11501 c-6 -9 -9 -10 -6 -3 9 18 -3 15 -38 -10 -17 -12 -27 -17 -23 -10 5 8 0 12 -12 12 -12 0 -22 -9 -26 -22 -5 -19 -8 -21 -16 -8 -8 13 -14 8 -12 -11 1 -4 -7 -6 -16 -6 -48 0 -64 -5 -83 -24 -11 -11 -27 -18 -35 -15 -9 3 -12 1 -9 -4 3 -6 -1 -10 -9 -10 -15 0 -32 -18 -24 -25 4 -5 117 35 179 64 24 11 73 30 109 42 78 27 89 35 57 41 -15 3 -29 -1 -36 -11z"/>
<path d="M7994 11494 c1 -9 17 -23 35 -30 44 -19 51 -18 51 6 0 11 -7 20 -16 20 -9 0 -12 -5 -8 -12 4 -7 -6 -2 -23 10 -37 26 -42 27 -39 6z"/>
<path d="M8102 11454 c-14 -16 -19 -13 117 -65 41 -16 77 -27 79 -24 8 7 -9 25 -24 25 -8 0 -12 4 -9 10 3 5 0 7 -9 4 -8 -3 -24 4 -35 15 -18 18 -51 27 -65 19 -2 -2 -12 4 -22 14 -16 14 -21 14 -32 2z"/>
<path d="M3680 11379 c0 -5 -4 -7 -10 -4 -10 6 -101 -38 -101 -49 2 -18 0 -20 -8 -8 -11 18 -61 -5 -61 -27 0 -14 -2 -14 -10 -1 -7 11 -10 11 -10 2 0 -7 -5 -10 -10 -7 -6 4 -9 1 -8 -7 2 -8 -5 -12 -20 -10 -12 2 -25 -3 -28 -11 -3 -9 -13 -13 -26 -9 -14 3 -19 1 -14 -6 4 -7 1 -12 -9 -12 -10 0 -13 -5 -9 -12 5 -8 2 -9 -9 -5 -10 4 -17 2 -17 -4 0 -6 -6 -9 -14 -6 -8 3 -17 -1 -20 -8 -3 -9 -12 -12 -21 -9 -11 5 -18 0 -22 -15 -5 -19 -15 -25 -35 -22 -5 0 -8 -4 -8 -10 0 -6 -9 -9 -20 -6 -11 3 -18 1 -14 -4 3 -5 -6 -14 -20 -21 -14 -6 -26 -15 -26 -20 0 -11 17 -10 25 1 3 6 43 28 88 51 45 23 102 52 127 65 25 14 84 43 133 65 48 22 87 45 87 50 0 5 7 7 15 4 8 -4 17 1 21 10 3 9 10 13 15 10 16 -9 47 6 52 26 3 11 1 20 -4 20 -5 0 -9 -5 -9 -11z"/>
<path d="M8310 11369 c14 -25 40 -36 50 -20 5 9 9 6 13 -9 4 -15 11 -21 21 -17 8 3 17 -1 20 -9 4 -10 14 -13 33 -8 21 4 24 3 14 -4 -12 -8 -3 -16 40 -35 117 -52 155 -71 171 -85 20 -16 40 -8 31 14 -4 11 -9 12 -19 3 -11 -9 -14 -8 -14 6 0 11 -5 15 -15 11 -9 -3 -15 0 -15 10 0 10 -6 14 -14 11 -8 -3 -22 3 -32 14 -10 11 -27 18 -38 17 -13 -2 -20 2 -18 10 1 8 -2 11 -8 7 -5 -3 -10 -1 -10 5 0 6 -4 8 -10 5 -5 -3 -10 -1 -10 4 0 6 -5 11 -11 11 -6 0 -42 16 -81 35 -38 19 -74 33 -79 30 -5 -4 -9 -1 -9 4 0 6 -5 11 -10 11 -7 0 -7 -7 0 -21z"/>
<path d="M8717 11183 c-14 -13 -6 -23 36 -43 94 -47 223 -118 248 -138 13 -10 18 -10 29 3 13 15 5 20 -27 16 -7 -1 -10 5 -7 13 8 20 -29 39 -46 23 -10 -9 -11 -9 -6 0 8 14 -23 32 -43 25 -9 -3 -11 0 -6 8 5 9 4 11 -3 6 -14 -8 -55 12 -48 23 3 4 -6 13 -19 19 -19 9 -25 9 -25 -1 0 -9 -3 -8 -9 1 -4 8 -11 13 -15 13 -19 -3 -24 1 -29 19 -5 20 -18 26 -30 13z"/>
<path d="M3064 11077 c-23 -13 -39 -28 -37 -34 3 -7 0 -13 -5 -13 -6 0 -13 6 -15 13 -3 7 -6 5 -6 -5 -1 -10 -4 -17 -8 -17 -27 4 -35 -1 -23 -16 10 -13 16 -11 44 9 17 12 48 30 69 40 35 16 46 30 30 39 -5 3 -26 -5 -49 -16z"/>
<path d="M2940 10995 c0 -8 -6 -13 -12 -11 -7 1 -10 1 -5 -1 14 -8 -4 -22 -20 -16 -12 5 -14 3 -8 -7 5 -9 4 -11 -3 -6 -12 7 -113 -42 -109 -53 1 -3 -2 -7 -8 -9 -5 -2 -19 -11 -29 -20 -12 -11 -16 -12 -11 -3 5 10 4 12 -3 7 -16 -10 -15 -26 2 -26 7 0 25 6 40 13 47 25 196 122 196 128 0 4 -7 9 -15 13 -9 3 -15 0 -15 -9z"/>
<path d="M9040 11000 c-8 -5 -12 -11 -10 -13 16 -13 153 -99 174 -109 14 -6 26 -15 26 -20 0 -4 11 -8 25 -8 26 0 33 14 13 26 -7 5 -8 3 -3 -7 5 -9 1 -8 -11 3 -10 9 -22 17 -26 17 -5 1 -8 4 -9 9 -1 13 -104 72 -118 67 -8 -3 -11 0 -8 10 4 8 2 17 -3 20 -6 4 -10 2 -10 -4 0 -6 -7 -8 -15 -5 -8 4 -12 10 -9 15 7 11 3 11 -16 -1z"/>
<path d="M2690 10845 c-1 -5 -2 -12 -2 -15 0 -3 -9 -7 -20 -7 -11 -1 -33 -16 -48 -33 -16 -18 -33 -30 -38 -27 -8 6 -49 -34 -43 -41 1 -2 0 -6 -3 -9 -3 -4 -6 0 -6 8 -1 10 -4 9 -14 -4 -8 -10 -17 -18 -20 -18 -19 3 -27 -1 -46 -21 -31 -33 -8 -45 32 -17 18 13 35 26 38 29 14 15 118 87 135 94 16 6 17 9 5 17 -12 8 -11 9 5 7 11 -1 31 6 45 16 14 10 17 16 8 13 -9 -3 -19 -1 -22 6 -2 7 -5 8 -6 2z"/>
<path d="M9291 10821 c13 -11 25 -16 27 -11 2 5 10 6 18 3 13 -5 13 -7 3 -14 -10 -6 -9 -10 6 -15 11 -4 47 -28 80 -54 98 -75 124 -92 134 -85 16 9 1 35 -30 51 -16 8 -29 11 -29 7 0 -4 -7 2 -15 13 -9 12 -14 14 -15 6 0 -7 -5 -10 -11 -7 -6 4 -8 9 -5 12 7 8 -27 42 -36 36 -5 -3 -21 8 -36 24 -27 30 -48 41 -91 49 l-24 5 24 -20z"/>
<path d="M2399 10633 c-12 -14 -12 -16 0 -8 10 5 12 4 7 -3 -4 -7 -16 -12 -27 -12 -20 0 -92 -64 -83 -73 3 -3 -3 -4 -13 -3 -10 0 -17 -5 -15 -12 1 -8 -1 -11 -5 -9 -5 3 -16 -1 -26 -8 -16 -11 -15 -12 9 -12 29 0 77 34 68 49 -3 4 2 8 11 8 15 0 92 53 107 75 8 10 1 25 -11 25 -5 0 -15 -8 -22 -17z"/>
<path d="M9566 10641 c-7 -11 91 -91 111 -91 8 0 12 -4 9 -8 -6 -11 79 -83 88 -75 3 4 6 13 6 22 0 13 -2 13 -9 2 -6 -9 -11 -10 -15 -2 -4 6 -4 11 0 11 4 0 -1 9 -11 20 -10 12 -25 18 -32 15 -8 -2 -12 -1 -8 4 3 5 -7 14 -22 19 -16 6 -22 11 -14 11 19 1 -32 41 -52 41 -9 0 -19 5 -23 12 -5 7 -3 8 7 3 12 -8 12 -6 0 8 -15 19 -27 22 -35 8z"/>
<path d="M2230 10480 c-8 -5 -11 -12 -7 -16 4 -4 13 -2 19 4 15 15 7 24 -12 12z"/>
<path d="M2157 10442 c-29 -30 -35 -52 -14 -52 13 0 67 50 67 63 0 3 -7 3 -17 0 -11 -4 -14 -3 -9 5 12 20 1 13 -27 -16z"/>
<path d="M9815 10461 c6 -11 4 -13 -9 -8 -13 5 -15 3 -7 -12 9 -16 53 -51 65 -51 12 0 -9 41 -32 62 -14 12 -22 17 -17 9z"/>
<path d="M2086 10378 c-19 -27 -5 -48 19 -28 16 14 21 50 6 50 -6 0 -17 -10 -25 -22z"/>
<path d="M9880 10381 c0 -10 17 -31 37 -47 20 -15 64 -53 96 -84 32 -30 70 -59 83 -63 13 -5 24 -15 24 -23 0 -9 5 -12 11 -9 15 10 -20 45 -45 45 -18 0 -19 2 -6 11 13 9 13 10 0 7 -8 -3 -21 8 -31 26 -9 17 -26 35 -37 41 -12 5 -22 16 -22 23 0 7 -4 11 -9 8 -5 -3 -15 2 -22 11 -12 14 -12 16 1 8 11 -6 12 -5 5 3 -6 6 -20 13 -32 15 -13 2 -26 7 -30 12 -5 4 -2 5 5 1 15 -9 16 6 0 22 -17 17 -28 15 -28 -7z"/>
<path d="M1976 10276 c-35 -36 -59 -66 -53 -67 7 0 3 -4 -8 -9 -12 -5 -14 -9 -6 -9 17 -1 123 96 134 123 15 37 -2 27 -67 -38z"/>
<path d="M1884 10182 c4 -8 0 -12 -11 -12 -10 0 -36 -19 -59 -43 -55 -56 -59 -65 -29 -59 28 5 78 58 69 73 -3 5 4 9 14 9 23 0 37 26 20 36 -7 4 -8 3 -4 -4z"/>
<path d="M10163 10125 c0 -27 21 -50 55 -58 30 -7 28 -1 -17 43 -36 36 -38 37 -38 15z"/>
<path d="M10243 10031 c59 -77 141 -159 158 -158 10 1 19 3 19 5 0 10 -88 90 -94 85 -3 -3 -9 3 -13 13 -9 24 -33 49 -47 49 -6 1 -10 6 -9 11 1 6 -5 11 -12 11 -12 0 -12 -3 -2 -16z"/>
<path d="M1712 10003 c-7 -10 -10 -12 -6 -4 5 9 3 12 -4 7 -7 -4 -12 -13 -12 -21 0 -8 -5 -17 -12 -21 -7 -5 -8 -3 -3 6 5 9 4 11 -3 6 -7 -4 -12 -14 -12 -23 0 -9 -3 -14 -6 -10 -8 8 -75 -54 -72 -67 2 -7 0 -13 -4 -14 -25 -10 -72 -67 -73 -89 -1 -25 -1 -25 25 7 14 17 39 47 57 66 20 22 30 41 27 52 -5 15 -4 15 5 2 10 -13 19 -7 57 35 49 54 69 85 57 85 -5 0 -14 -8 -21 -17z"/>
<path d="M10410 9854 c0 -7 121 -154 126 -154 2 0 4 9 4 20 0 12 -10 24 -24 29 -25 10 -41 38 -25 43 6 2 -5 17 -24 33 -34 29 -57 41 -57 29z"/>
<path d="M1467 9743 c-4 -3 -7 -15 -7 -26 0 -19 1 -19 20 -2 11 10 17 22 14 26 -6 11 -18 12 -27 2z"/>
<path d="M10557 9696 c-3 -8 -1 -18 5 -22 7 -5 8 -2 3 6 -5 8 -4 11 3 6 6 -4 9 -13 6 -21 -4 -9 2 -18 12 -22 11 -5 19 -14 19 -22 0 -16 31 -38 40 -29 7 7 -23 53 -61 96 -18 20 -22 21 -27 8z"/>
<path d="M1410 9682 c-38 -47 -61 -84 -55 -90 10 -10 40 14 39 32 -1 9 4 16 12 16 16 0 45 40 38 52 -8 13 -18 10 -34 -10z"/>
<path d="M1337 9565 c-8 -8 -17 -12 -19 -9 -3 2 -11 -2 -18 -11 -9 -11 -9 -15 -1 -15 7 0 9 -5 6 -11 -4 -6 -9 -8 -12 -5 -9 9 -40 -29 -35 -43 3 -8 1 -12 -5 -8 -13 8 -43 -35 -43 -62 0 -10 -7 -22 -16 -25 -14 -5 -15 -4 -4 9 7 9 11 18 8 20 -2 3 -14 -12 -26 -33 -20 -36 -20 -38 -3 -39 13 -1 36 24 74 80 31 45 70 98 86 117 38 43 44 72 8 35z"/>
<path d="M10640 9570 c0 -5 8 -15 18 -22 9 -7 23 -25 31 -40 17 -33 31 -36 31 -7 0 11 -4 18 -9 14 -5 -3 -12 -1 -16 5 -3 5 -1 10 5 10 7 0 6 5 -2 14 -7 8 -16 12 -20 9 -5 -2 -8 0 -8 5 0 6 -7 12 -15 16 -8 3 -15 1 -15 -4z"/>
<path d="M10725 9480 c-9 -15 4 -30 26 -30 17 0 18 3 9 20 -12 22 -25 26 -35 10z"/>
<path d="M10765 9428 c-8 -20 32 -81 46 -72 5 3 8 0 7 -6 -2 -7 5 -14 15 -15 16 -3 15 1 -5 36 -12 21 -24 37 -26 34 -3 -2 1 -11 8 -20 11 -13 10 -14 -4 -9 -9 3 -16 14 -16 23 0 9 -4 23 -10 31 -8 12 -10 12 -15 -2z"/>
<path d="M1100 9280 c-6 -11 -7 -20 -3 -20 4 0 2 -4 -6 -9 -9 -6 -10 -14 -4 -25 8 -15 13 -11 36 23 32 48 33 51 7 51 -10 0 -24 -9 -30 -20z"/>
<path d="M10850 9295 c0 -10 45 -75 52 -75 16 0 17 20 2 49 -9 19 -23 31 -35 31 -10 0 -19 -2 -19 -5z"/>
<path d="M10926 9203 c-12 -12 -6 -35 8 -30 9 4 13 0 10 -11 -4 -22 109 -188 125 -184 8 2 10 -4 7 -16 -4 -12 2 -28 14 -43 l21 -24 -6 25 c-5 22 -4 23 5 7 8 -13 9 -22 1 -31 -8 -10 -7 -17 4 -26 12 -10 15 -10 15 1 0 11 2 11 10 -1 5 -9 5 -17 -1 -21 -6 -3 6 -33 28 -70 21 -35 52 -90 68 -121 21 -42 31 -54 37 -44 10 18 -8 69 -21 61 -5 -3 -12 -1 -16 5 -3 5 -1 10 5 10 7 0 10 6 7 13 -2 6 -10 11 -17 9 -8 -2 -10 3 -6 13 3 9 2 13 -4 10 -6 -3 -10 3 -10 14 0 12 -5 21 -11 21 -6 0 -9 7 -5 15 3 8 -1 21 -9 29 -8 7 -11 17 -7 21 4 5 -1 5 -11 2 -10 -4 -16 -3 -12 2 7 12 -43 111 -56 111 -5 0 -9 8 -9 17 0 23 -42 83 -58 83 -7 0 -10 5 -7 10 4 6 -3 26 -15 45 -20 32 -31 40 -52 36 -5 0 -8 6 -8 15 0 8 5 12 11 8 8 -5 8 -1 0 14 -13 25 -26 34 -35 25z"/>
<path d="M1047 9182 c-10 -10 -17 -24 -17 -30 0 -7 -4 -12 -9 -12 -15 0 -53 -69 -45 -82 4 -7 4 -10 -1 -6 -9 9 -65 -59 -65 -78 0 -8 -9 -23 -21 -35 -13 -13 -18 -27 -14 -40 4 -12 2 -19 -5 -17 -7 2 -15 -3 -17 -10 -4 -9 1 -13 13 -10 24 4 65 77 58 102 -4 11 -2 16 4 12 14 -9 43 29 36 48 -4 11 -2 15 7 11 16 -5 84 99 84 130 0 11 6 20 12 20 6 0 15 3 19 8 4 4 1 7 -8 7 -8 0 -22 -8 -31 -18z"/>
<path d="M825 8826 c-16 -16 -22 -31 -18 -42 4 -12 3 -15 -5 -10 -8 5 -12 -2 -12 -19 0 -15 -4 -24 -10 -20 -6 3 -7 -1 -4 -10 4 -10 2 -15 -7 -13 -8 2 -15 -6 -15 -17 -1 -11 -2 -28 -3 -38 -1 -10 -5 -16 -10 -12 -14 8 -23 -13 -13 -30 6 -12 16 0 42 52 19 37 34 71 32 76 -1 4 2 7 7 7 5 0 11 8 15 18 3 9 15 32 26 50 23 38 9 42 -25 8z"/>
<path d="M700 8610 c4 -28 0 -41 -10 -35 -5 3 -10 1 -10 -4 0 -6 5 -11 12 -11 6 0 3 -9 -7 -20 -10 -11 -15 -20 -11 -20 4 0 2 -9 -4 -21 -7 -11 -10 -23 -7 -25 2 -3 18 22 34 54 27 52 29 60 16 78 -10 13 -14 15 -13 4z"/>
<path d="M11284 8603 c-8 -14 -4 -30 18 -76 16 -32 32 -57 35 -54 2 3 0 15 -7 26 -6 12 -8 21 -4 21 4 0 -1 9 -11 20 -10 11 -13 20 -7 20 7 0 12 5 12 11 0 5 -4 7 -10 4 -10 -6 -14 7 -11 33 2 17 -2 15 -15 -5z"/>
<path d="M621 8452 c-14 -27 -17 -75 -5 -79 16 -5 27 27 14 42 -8 10 -6 13 7 11 9 0 19 6 21 15 4 23 -26 32 -37 11z"/>
<path d="M11344 8455 c-8 -19 5 -38 22 -31 8 3 14 1 14 -3 0 -5 -5 -11 -11 -13 -5 -2 -7 -11 -3 -21 3 -10 12 -16 18 -14 11 4 11 17 1 63 -6 26 -34 39 -41 19z"/>
<path d="M579 8339 c-8 -15 -8 -19 0 -15 6 4 11 2 11 -3 0 -6 -6 -11 -13 -11 -20 0 -42 -51 -26 -60 8 -6 8 -9 0 -14 -6 -4 -15 -5 -20 -2 -5 3 -11 -1 -15 -9 -3 -8 -1 -15 5 -15 6 0 9 -6 6 -12 -2 -7 -9 -12 -15 -11 -7 2 -9 -4 -5 -14 4 -10 2 -14 -4 -10 -11 7 -29 -63 -24 -90 1 -7 -5 -13 -14 -13 -18 0 -20 -16 -2 -23 8 -4 6 -6 -4 -6 -19 -1 -41 -67 -33 -99 7 -23 -11 -32 -19 -9 -2 6 -3 4 -2 -5 2 -9 -3 -25 -10 -35 -11 -15 -11 -22 0 -36 13 -17 14 -17 20 2 3 12 3 26 -1 32 -4 8 -3 9 4 5 7 -4 12 -2 12 4 0 7 6 26 14 43 8 18 33 80 55 140 38 101 89 220 111 259 13 24 13 28 -5 28 -8 0 -19 -10 -26 -21z"/>
<path d="M11380 8357 c0 -9 41 -87 46 -87 4 0 4 6 1 14 -3 8 -1 17 6 20 7 2 4 5 -5 5 -10 1 -18 6 -18 12 0 5 5 7 11 3 8 -4 8 0 0 15 -9 17 -41 31 -41 18z"/>
<path d="M11433 8271 c-10 -15 -9 -22 2 -31 12 -10 16 -9 21 3 3 9 2 23 -3 31 -7 13 -10 13 -20 -3z"/>
<path d="M11462 8224 c-21 -22 13 -104 42 -103 20 0 20 1 2 8 -14 5 -16 10 -8 15 7 4 12 12 12 17 0 6 -5 7 -12 3 -8 -5 -9 -2 -5 9 3 9 3 16 -1 16 -18 -3 -26 2 -16 9 6 4 9 14 5 23 -5 15 -8 15 -19 3z"/>
<path d="M11490 8105 c0 -20 35 -85 44 -82 18 6 19 37 1 37 -9 0 -15 6 -14 13 3 26 -2 37 -16 37 -8 0 -15 -2 -15 -5z"/>
<path d="M11536 7983 c4 -15 13 -38 20 -52 8 -14 14 -32 14 -39 0 -7 5 -10 12 -6 7 4 8 3 4 -5 -4 -6 -4 -20 -1 -32 6 -19 7 -19 20 -2 11 14 11 21 0 36 -7 10 -12 26 -10 35 1 9 0 11 -2 5 -8 -24 -25 -13 -19 11 8 32 -9 76 -29 76 -12 0 -14 -6 -9 -27z"/>
<path d="M365 7810 c-3 -6 0 -17 8 -24 12 -13 16 -12 25 10 10 21 9 24 -8 24 -10 0 -22 -5 -25 -10z"/>
<path d="M11606 7786 c3 -8 12 -12 20 -9 17 6 9 23 -11 23 -8 0 -12 -6 -9 -14z"/>
<path d="M356 7745 c-20 -20 -20 -22 -1 -22 8 0 17 7 20 15 8 22 0 25 -19 7z"/>
<path d="M11620 7746 c0 -21 13 -26 27 -11 10 10 9 14 -3 19 -22 8 -24 8 -24 -8z"/>
<path d="M325 7674 c-13 -14 -14 -19 -3 -25 8 -6 18 -3 26 8 24 33 7 46 -23 17z"/>
<path d="M11640 7682 c0 -19 26 -41 38 -33 11 6 10 11 -3 25 -18 17 -35 21 -35 8z"/>
<path d="M317 7615 c-9 -8 -13 -24 -10 -35 7 -25 19 -15 28 23 8 31 3 34 -18 12z"/>
<path d="M11665 7603 c9 -36 14 -41 25 -24 10 18 3 38 -17 45 -12 5 -14 1 -8 -21z"/>
<path d="M279 7528 c-4 -15 -2 -25 2 -22 5 3 9 -4 9 -15 0 -11 -5 -23 -12 -27 -7 -5 -8 -2 -3 7 6 10 5 11 -3 4 -7 -7 -9 -21 -3 -40 7 -28 8 -29 18 -10 15 29 24 85 13 85 -5 0 -10 10 -12 23 -3 20 -4 20 -9 -5z"/>
<path d="M300 7535 c0 -8 5 -15 10 -15 6 0 10 7 10 15 0 8 -4 15 -10 15 -5 0 -10 -7 -10 -15z"/>
<path d="M11680 7535 c0 -8 5 -15 10 -15 6 0 10 7 10 15 0 8 -4 15 -10 15 -5 0 -10 -7 -10 -15z"/>
<path d="M11710 7530 c0 -11 -4 -20 -10 -20 -11 0 -3 -55 13 -85 10 -19 11 -18 18 10 6 19 4 33 -3 40 -8 7 -9 6 -3 -4 5 -9 4 -12 -3 -7 -7 4 -12 16 -12 27 0 11 4 18 9 15 4 -3 6 6 3 19 -5 30 -12 33 -12 5z"/>
<path d="M256 7368 c-8 -32 -7 -40 3 -34 11 7 21 56 11 56 -4 0 -10 -10 -14 -22z"/>
<path d="M11731 7368 c-1 -15 4 -30 9 -33 12 -7 12 12 0 40 -8 18 -9 17 -9 -7z"/>
<path d="M232 7335 c0 -11 4 -31 8 -45 l8 -25 0 25 c0 14 -3 34 -8 45 l-9 20 1 -20z"/>
<path d="M11754 7333 c-7 -12 -8 -31 -2 -58 10 -45 28 -70 28 -39 0 16 2 17 11 4 8 -12 9 -11 7 5 -2 12 -10 19 -21 17 -13 -2 -17 4 -16 30 1 24 3 27 6 11 5 -24 23 -32 23 -10 0 21 -12 57 -19 57 -3 0 -11 -8 -17 -17z"/>
<path d="M213 7290 c3 -11 1 -23 -4 -26 -16 -10 -9 -30 11 -31 11 -1 20 4 20 13 0 8 -4 14 -9 14 -4 0 -6 11 -3 25 3 16 0 25 -8 25 -7 0 -10 -8 -7 -20z"/>
<path d="M197 7193 c-11 -11 -8 -25 4 -17 7 4 10 1 7 -7 -3 -8 -10 -13 -15 -12 -6 1 -9 -10 -7 -25 1 -15 -3 -30 -9 -34 -9 -6 -9 -8 1 -8 6 0 12 -8 12 -17 1 -17 1 -17 11 0 6 10 8 25 4 34 -3 9 -2 19 3 22 5 3 13 21 17 39 5 24 3 32 -8 32 -7 0 -17 -3 -20 -7z"/>
<path d="M11775 7168 c4 -18 11 -34 15 -36 4 -2 6 -12 3 -22 -3 -11 -2 -28 2 -37 7 -17 8 -16 15 2 8 19 9 19 9 -2 1 -13 -3 -23 -9 -23 -5 0 -10 -7 -10 -15 0 -8 4 -15 10 -15 14 0 25 71 12 79 -6 3 -9 18 -8 33 2 15 -1 26 -7 25 -5 -1 -12 4 -15 12 -3 8 0 11 7 7 6 -4 11 -1 11 8 0 10 -9 16 -21 16 -18 0 -20 -4 -14 -32z"/>
<path d="M178 7034 c2 -13 8 -21 13 -18 14 8 11 31 -4 37 -10 4 -13 -2 -9 -19z"/>
<path d="M166 7007 c2 -18 0 -26 -7 -21 -7 4 -9 -2 -7 -17 1 -12 8 -24 15 -26 15 -5 27 35 15 50 -5 7 -12 19 -15 27 -2 8 -3 2 -1 -13z"/>
<path d="M11830 7027 c0 -9 -4 -17 -10 -17 -12 0 -13 -40 -2 -57 16 -25 34 3 28 43 -7 40 -16 58 -16 31z"/>
<path d="M143 6915 c4 -8 2 -17 -3 -20 -6 -4 -9 -21 -9 -38 l2 -32 7 35 7 35 3 -40 2 -40 8 35 c5 19 6 38 4 42 -3 5 0 8 5 8 6 0 11 7 11 15 0 9 -9 15 -21 15 -14 0 -19 -5 -16 -15z"/>
<path d="M11820 6914 c0 -10 6 -14 14 -11 17 7 26 -12 27 -56 0 -18 3 -26 6 -19 3 7 2 33 -2 58 -5 35 -10 44 -26 44 -11 0 -19 -7 -19 -16z"/>
<path d="M11836 6853 c9 -52 14 -54 14 -5 0 23 -5 42 -10 42 -7 0 -8 -14 -4 -37z"/>
<path d="M133 6771 c10 -12 9 -13 -2 -6 -11 6 -13 4 -8 -9 4 -10 7 -36 8 -59 l1 -42 9 45 c5 25 11 55 14 67 4 17 1 21 -14 20 -16 -1 -18 -4 -8 -16z"/>
<path d="M11845 6767 c3 -12 10 -45 14 -72 l9 -50 1 47 c0 25 4 54 8 64 4 12 3 15 -5 10 -7 -4 -12 -1 -12 8 0 9 -5 16 -10 16 -6 0 -8 -10 -5 -23z"/>
<path d="M100 6690 c0 -27 5 -50 10 -50 6 0 10 23 10 50 0 28 -4 50 -10 50 -5 0 -10 -22 -10 -50z"/>
<path d="M11880 6690 c0 -27 5 -50 10 -50 6 0 10 23 10 50 0 28 -4 50 -10 50 -5 0 -10 -22 -10 -50z"/>
<path d="M109 6622 c17 -12 6 -52 -15 -52 -8 0 -14 -4 -14 -10 0 -5 5 -10 10 -10 6 0 11 -32 11 -72 l2 -73 9 75 c15 119 15 142 -2 147 -12 4 -12 3 -1 -5z"/>
<path d="M11875 6620 c-4 -6 -2 -43 4 -83 6 -39 13 -88 14 -107 2 -19 5 0 5 43 1 43 6 77 12 77 6 0 10 5 10 10 0 6 -6 10 -14 10 -20 0 -32 40 -15 51 10 6 10 9 2 9 -6 0 -15 -5 -18 -10z"/>
<path d="M70 6340 c0 -14 5 -31 12 -38 9 -9 7 -13 -5 -18 -14 -5 -17 -20 -16 -88 1 -103 13 -206 22 -186 3 8 8 76 11 150 3 74 8 152 12 172 6 33 4 37 -15 35 -16 -1 -21 -8 -21 -27z"/>
<path d="M11896 6304 c3 -31 10 -110 14 -177 l7 -122 3 85 c2 70 4 78 10 45 6 -31 7 -21 9 49 1 74 -2 91 -16 102 -11 8 -13 13 -5 14 6 0 12 12 12 28 0 21 -5 28 -21 29 -19 2 -20 -2 -13 -53z"/>
<path d="M70 5720 c-8 -156 -8 -190 -1 -185 5 2 11 -2 15 -10 3 -8 1 -17 -4 -20 -6 -4 -10 -16 -10 -28 0 -16 6 -23 21 -24 18 -2 20 2 15 30 -3 18 -8 70 -11 115 -4 46 -10 103 -15 125 l-8 42 -2 -45z"/>
<path d="M11908 5615 c-5 -49 -11 -107 -14 -128 -6 -34 -5 -38 12 -35 14 2 20 14 25 48 4 28 2 48 -5 52 -8 5 -7 8 2 8 7 0 12 13 12 33 0 23 -3 28 -10 17 -6 -10 -10 2 -12 40 -3 49 -4 45 -10 -35z"/>
<path d="M101 5353 c-1 -39 -5 -63 -12 -63 -8 0 -7 -6 2 -17 12 -14 12 -15 1 -9 -11 7 -12 4 -4 -10 5 -11 10 -50 11 -89 3 -69 6 -84 16 -73 9 9 6 228 -4 278 l-8 45 -2 -62z"/>
<path d="M11887 5345 c-17 -134 -18 -141 -7 -117 10 24 23 31 14 8 -3 -8 0 -17 7 -22 8 -4 10 -3 5 4 -4 6 -2 21 5 33 9 17 8 20 -3 13 -11 -6 -11 -5 1 9 8 10 9 17 3 17 -6 0 -12 25 -14 58 l-3 57 -8 -60z"/>
<path d="M11880 5148 c0 -32 4 -58 10 -58 13 0 13 80 0 100 -7 11 -10 -2 -10 -42z"/>
<path d="M130 5130 c0 -22 3 -40 8 -40 4 0 6 18 4 40 -2 22 -6 40 -8 40 -2 0 -4 -18 -4 -40z"/>
<path d="M11858 5130 c-2 -22 0 -40 4 -40 5 0 8 18 8 40 0 22 -2 40 -4 40 -2 0 -6 -18 -8 -40z"/>
<path d="M141 5057 c-1 -10 -5 -15 -11 -12 -5 3 -10 2 -10 -3 0 -10 30 -25 37 -19 2 2 -1 15 -6 28 -7 18 -10 20 -10 6z"/>
<path d="M11848 5050 c-7 -24 -3 -38 8 -28 3 4 4 17 2 30 l-3 23 -7 -25z"/>
<path d="M150 4960 l-3 -45 -7 35 c-4 21 -8 26 -9 14 -2 -37 11 -84 21 -78 6 4 8 -5 3 -25 -4 -17 -3 -46 1 -63 6 -29 8 -31 16 -13 7 17 8 15 5 -7 -3 -16 0 -28 4 -28 5 0 9 -11 9 -25 0 -14 -4 -25 -10 -25 -5 0 -10 -5 -10 -11 0 -5 4 -8 9 -5 5 3 8 -2 7 -12 0 -9 5 -16 12 -14 10 2 10 -2 2 -17 -14 -27 -13 -31 10 -31 24 0 24 -2 4 75 -8 33 -16 67 -16 75 0 8 -5 35 -10 60 -5 25 -11 61 -14 80 -2 19 -8 51 -13 70 l-9 35 -2 -45z"/>
<path d="M11836 4960 c-5 -25 -10 -56 -12 -70 -1 -14 -6 -40 -10 -59 -6 -29 -5 -33 12 -29 15 3 19 12 17 46 -1 23 2 40 7 37 10 -6 25 77 17 97 -3 7 -6 -5 -8 -27 l-2 -40 -6 45 -6 45 -9 -45z"/>
<path d="M11801 4768 c0 -13 -4 -43 -10 -68 -23 -93 -23 -90 -1 -90 23 0 24 4 9 32 -8 15 -8 19 0 14 7 -5 11 2 11 18 0 14 5 26 10 26 6 0 10 10 9 23 0 21 -1 21 -9 2 -8 -19 -9 -19 -9 3 -1 12 3 22 8 22 5 0 7 9 4 20 -7 27 -23 25 -22 -2z"/>
<path d="M212 4584 c-7 -8 -8 -14 -3 -14 6 0 7 -15 4 -35 -4 -24 -2 -35 7 -35 8 0 11 9 8 25 -3 14 -1 25 3 25 5 0 10 -12 10 -27 1 -22 3 -23 6 -7 2 12 -2 35 -9 52 -11 26 -15 28 -26 16z"/>
<path d="M11759 4563 c-5 -15 -8 -36 -6 -47 3 -16 5 -14 6 7 0 15 5 27 10 27 4 0 6 -11 3 -25 -3 -16 0 -25 8 -25 9 0 11 11 7 34 -3 22 -1 36 6 39 6 2 3 6 -6 10 -13 5 -20 0 -28 -20z"/>
<path d="M232 4480 c0 -8 4 -26 8 -40 7 -21 8 -22 10 -5 1 19 2 19 9 1 4 -11 10 -15 13 -10 3 5 1 20 -4 34 -7 19 -11 21 -18 11 -6 -11 -9 -10 -13 5 -2 10 -5 12 -5 4z"/>
<path d="M11735 4468 c-4 -15 -5 -33 -2 -40 3 -7 6 -3 6 8 1 12 8 24 16 28 8 3 15 11 15 18 0 10 -2 10 -9 -1 -7 -11 -9 -11 -14 0 -3 9 -7 3 -12 -13z"/>
<path d="M257 4393 c-4 -3 -7 -11 -7 -17 0 -6 5 -4 11 4 8 12 9 9 5 -10 -4 -21 -1 -26 14 -27 22 -2 25 9 10 38 -11 20 -22 24 -33 12z"/>
<path d="M11712 4383 c-17 -31 -15 -42 7 -40 18 1 37 35 26 46 -3 2 -5 -2 -6 -10 0 -8 -4 -6 -8 6 -8 19 -8 19 -19 -2z"/>
<path d="M290 4314 c0 -11 7 -29 16 -40 15 -18 15 -18 9 11 -8 37 -25 57 -25 29z"/>
<path d="M11690 4306 c-12 -33 -13 -46 -1 -46 9 0 24 60 16 68 -2 3 -9 -7 -15 -22z"/>
<path d="M300 4231 c0 -21 13 -41 26 -41 15 0 17 10 8 34 -7 17 -34 22 -34 7z"/>
<path d="M11666 4224 c-9 -24 -7 -34 8 -34 13 0 26 20 26 41 0 15 -27 10 -34 -7z"/>
<path d="M328 4152 c-5 -18 7 -32 28 -32 8 0 4 17 -9 35 -13 17 -14 17 -19 -3z"/>
<path d="M11651 4151 c-14 -26 -9 -37 12 -24 9 5 12 15 7 28 -7 19 -7 19 -19 -4z"/>
<path d="M360 4091 c0 -7 -4 -9 -10 -6 -6 3 -7 -1 -4 -9 3 -9 15 -16 26 -16 18 0 19 2 7 18 -7 9 -15 19 -16 21 -2 2 -3 -1 -3 -8z"/>
<path d="M11631 4088 c-1 -9 -7 -19 -13 -21 -7 -3 -3 -6 8 -6 12 -1 25 6 28 15 3 8 2 13 -3 9 -5 -3 -12 1 -14 7 -4 8 -6 7 -6 -4z"/>
<path d="M368 4043 c6 -2 12 -13 12 -23 0 -10 5 -22 10 -25 6 -3 10 -11 10 -16 0 -6 -4 -8 -9 -5 -18 12 -5 -29 16 -49 25 -23 43 -73 22 -60 -8 6 -11 4 -7 -6 3 -8 11 -31 19 -51 7 -21 17 -38 22 -38 4 0 5 -6 1 -12 -6 -10 -3 -9 8 0 12 10 14 20 8 35 -4 12 -12 21 -18 20 -5 -1 -7 9 -4 23 2 13 0 30 -6 37 -5 6 -17 37 -27 67 -24 74 -43 110 -58 109 -9 0 -9 -2 1 -6z"/>
<path d="M11607 4023 c-8 -16 -22 -53 -32 -83 -10 -30 -21 -59 -26 -64 -5 -6 -9 -20 -9 -32 0 -13 -4 -25 -9 -28 -17 -11 -19 -45 -3 -58 12 -10 14 -10 8 0 -4 6 -3 12 1 12 5 0 15 17 22 38 8 20 16 43 19 51 4 10 1 12 -7 6 -21 -13 -3 37 22 60 21 20 34 61 16 49 -5 -3 -9 -1 -9 5 0 5 5 13 10 16 6 3 10 15 10 25 0 10 6 21 13 23 9 4 9 6 0 6 -7 1 -19 -11 -26 -26z"/>
<path d="M478 3748 c-8 -20 2 -38 19 -38 10 0 13 6 9 16 -3 9 -6 20 -6 25 0 13 -17 11 -22 -3z"/>
<path d="M11500 3751 c0 -5 -3 -16 -6 -25 -4 -10 -1 -16 9 -16 17 0 27 18 19 38 -5 14 -22 16 -22 3z"/>
<path d="M493 3693 c20 -5 22 -19 5 -26 -10 -4 -10 -7 0 -15 7 -5 12 -14 10 -21 -4 -15 28 -38 38 -29 4 4 -1 23 -10 42 -9 19 -16 39 -16 45 0 6 -10 10 -22 10 -17 -1 -19 -2 -5 -6z"/>
<path d="M11469 3655 c-19 -39 -19 -46 -6 -59 13 -14 16 -13 22 7 4 12 6 26 6 31 -1 5 4 13 11 18 10 8 10 11 1 15 -18 7 -16 21 5 26 16 4 16 5 0 6 -12 1 -25 -14 -39 -44z"/>
<path d="M547 3570 c-3 -13 0 -20 9 -20 15 0 19 26 5 34 -5 3 -11 -3 -14 -14z"/>
<path d="M11435 3577 c-8 -19 -2 -31 13 -26 5 2 6 13 2 24 -7 19 -8 19 -15 2z"/>
<path d="M561 3531 c-11 -7 -9 -11 9 -21 15 -8 20 -18 17 -31 -4 -14 0 -19 13 -19 17 0 18 2 3 40 -17 42 -20 45 -42 31z"/>
<path d="M11397 3500 c-14 -36 -14 -39 3 -37 11 1 15 7 13 18 -3 10 3 22 16 28 26 14 27 26 2 28 -13 1 -23 -10 -34 -37z"/>
<path d="M598 3441 c8 -4 13 -11 13 -15 -3 -20 1 -26 14 -26 8 0 15 4 15 9 0 14 -29 41 -43 41 -8 0 -8 -3 1 -9z"/>
<path d="M11366 3423 c-4 -9 -1 -20 6 -24 13 -8 30 18 21 34 -7 12 -21 8 -27 -10z"/>
<path d="M622 3365 c6 -13 15 -23 21 -22 6 1 12 -11 13 -28 2 -16 11 -36 21 -43 10 -7 17 -22 15 -32 -2 -15 3 -20 17 -20 17 0 21 -6 21 -34 0 -39 37 -109 52 -100 6 4 8 -2 3 -15 -4 -13 -2 -21 5 -21 6 0 8 -4 5 -10 -3 -5 -1 -10 5 -10 6 0 8 -4 5 -10 -3 -5 11 -26 32 -45 21 -19 32 -35 24 -35 -10 0 -9 -6 4 -27 37 -58 84 -87 62 -38 -7 14 -16 25 -20 25 -5 0 -5 -4 -2 -10 3 -5 2 -10 -3 -10 -15 0 -22 28 -9 33 8 3 7 10 -5 24 -10 11 -18 25 -18 31 0 7 -7 12 -16 12 -8 0 -13 4 -9 9 4 7 -134 289 -152 311 -2 2 -9 -2 -14 -10 -8 -12 -9 -10 -4 7 3 12 2 30 -4 40 -5 10 -12 26 -15 36 -3 9 -14 17 -25 17 -18 0 -19 -3 -9 -25z"/>
<path d="M11339 3361 c-8 -16 -33 -65 -56 -110 -24 -44 -43 -82 -43 -84 0 -2 7 -4 15 -4 10 0 15 10 15 29 0 20 5 28 18 28 18 0 54 64 56 102 1 10 5 17 9 16 12 -4 29 30 22 42 -10 17 -21 11 -36 -19z"/>
<path d="M11222 3132 c-4 -9 -22 -43 -40 -75 -18 -31 -31 -61 -27 -67 3 -5 -1 -10 -9 -10 -9 0 -16 -6 -16 -14 0 -7 -7 -19 -16 -27 -10 -8 -13 -21 -9 -38 4 -19 3 -22 -4 -11 -6 8 -11 12 -13 10 -20 -31 -27 -50 -18 -50 14 0 42 28 65 63 13 21 14 27 4 27 -8 0 4 16 25 36 26 24 35 38 27 43 -8 5 -6 13 8 25 11 10 17 25 14 34 -4 10 -2 13 5 8 9 -6 42 40 42 59 0 13 -31 3 -38 -13z"/>
<path d="M923 2822 c10 -10 14 -22 10 -25 -3 -4 -1 -7 5 -7 7 0 12 -6 12 -13 0 -19 35 -49 45 -40 4 5 5 -1 1 -13 -3 -11 0 -27 6 -35 7 -8 12 -12 11 -10 -2 2 2 10 8 17 8 10 5 19 -10 35 -12 13 -21 27 -21 32 0 19 -51 77 -67 77 -15 0 -15 -2 0 -18z"/>
<path d="M11050 2830 c-13 -8 -13 -11 3 -27 16 -16 17 -16 17 0 0 9 5 17 10 17 6 0 10 5 10 10 0 13 -20 13 -40 0z"/>
<path d="M11011 2771 c-26 -36 -26 -41 -3 -41 17 0 42 36 42 60 0 19 -19 10 -39 -19z"/>
<path d="M10945 2673 c-16 -26 -32 -52 -34 -57 -2 -6 -10 -17 -18 -24 -16 -16 -17 -32 -3 -32 6 0 15 12 20 26 6 14 14 23 19 20 9 -6 41 35 41 51 0 4 -5 1 -10 -7 -6 -9 -10 -10 -10 -3 0 15 47 63 54 55 3 -3 6 0 6 6 0 28 -37 8 -65 -35z"/>
<path d="M1027 2694 c-3 -3 -2 -15 2 -27 7 -24 62 -110 74 -115 4 -2 4 -8 1 -14 -3 -5 1 -8 9 -6 9 2 16 -1 16 -5 0 -5 8 -15 18 -24 11 -9 12 -12 3 -8 -13 6 -13 5 0 -7 8 -7 17 -22 18 -33 5 -26 22 -46 33 -39 5 3 9 -4 9 -15 0 -12 5 -21 11 -21 5 0 7 -4 4 -10 -3 -5 1 -10 10 -10 11 0 15 -5 11 -15 -3 -8 -2 -14 2 -14 21 3 31 -3 26 -16 -4 -8 -1 -15 5 -15 6 0 11 -7 11 -15 0 -8 5 -15 11 -15 7 0 18 -8 25 -17 13 -17 13 -17 14 0 0 19 -79 127 -92 127 -5 0 -8 5 -8 11 0 13 -105 166 -132 192 -10 10 -18 22 -18 28 0 5 -8 21 -17 36 -16 24 -17 24 -25 7 -6 -14 -7 -12 -3 8 5 25 -6 44 -18 32z"/>
<path d="M10846 2525 c-9 -13 -16 -26 -16 -29 0 -3 -10 -16 -23 -30 -12 -13 -29 -37 -37 -53 -8 -15 -36 -53 -62 -84 -27 -30 -48 -64 -48 -74 0 -17 2 -17 20 3 11 12 20 28 20 37 0 8 5 15 10 15 6 0 23 12 38 26 15 15 21 23 15 20 -7 -4 -13 -3 -13 2 0 5 9 12 20 15 12 3 20 14 20 27 0 11 4 19 9 16 16 -10 36 27 40 77 1 5 6 5 13 1 7 -4 8 -3 4 4 -4 7 -2 12 4 12 6 0 8 4 5 10 -3 6 1 7 9 4 11 -4 16 0 16 10 0 24 -26 19 -44 -9z"/>
<path d="M1353 2233 c6 -39 15 -55 28 -48 5 3 6 0 3 -8 -3 -8 -1 -18 4 -21 25 -15 19 29 -9 67 l-31 42 5 -32z"/>
<path d="M10612 2211 c-18 -26 -53 -70 -78 -97 -60 -64 -77 -91 -69 -104 5 -8 15 -4 31 11 18 17 21 25 12 31 -9 5 -8 8 5 8 10 0 16 4 13 9 -3 5 1 12 9 15 8 3 14 11 13 17 -2 7 7 18 20 24 13 7 23 15 23 19 -3 24 0 30 8 17 6 -9 11 -10 15 -2 4 6 4 16 0 23 -4 6 -3 8 4 4 6 -3 14 -1 17 4 7 12 18 70 13 70 -2 0 -18 -22 -36 -49z"/>
<path d="M1410 2155 c0 -12 10 -25 23 -30 12 -6 21 -17 19 -24 -1 -7 7 -15 19 -18 16 -4 17 -8 7 -14 -10 -6 -8 -9 7 -9 12 0 16 -3 9 -8 -7 -5 -3 -15 12 -29 13 -13 26 -18 29 -13 8 13 -4 32 -16 25 -5 -3 -7 0 -4 7 2 7 -20 40 -50 73 -42 46 -54 55 -55 40z"/>
<path d="M1540 1990 c0 -6 12 -25 28 -41 71 -77 112 -118 112 -111 0 4 5 -1 11 -10 5 -10 16 -18 23 -18 7 0 20 -8 29 -17 15 -18 17 -22 17 -44 0 -6 7 -9 14 -6 10 4 13 1 9 -9 -6 -15 12 -20 21 -5 7 10 -229 265 -250 269 -8 2 -14 -2 -14 -8z"/>
<path d="M10405 1969 c-39 -47 -16 -61 29 -17 20 19 33 38 29 41 -13 14 -32 6 -58 -24z"/>
<path d="M10276 1828 c-54 -57 -82 -96 -77 -101 13 -13 39 14 33 32 -3 9 0 11 9 6 8 -5 11 -4 6 0 -9 10 21 45 40 45 7 0 29 16 49 37 27 28 32 38 22 45 -9 7 -8 8 5 4 25 -8 44 4 26 15 -8 5 -17 9 -21 9 -3 0 -45 -41 -92 -92z"/>
<path d="M1805 1710 c-5 -9 -4 -11 3 -6 7 4 12 1 12 -6 0 -22 40 -52 53 -39 7 7 5 13 -9 18 -10 4 -26 16 -35 27 -12 15 -18 16 -24 6z"/>
<path d="M10150 1694 c-20 -17 -28 -30 -22 -36 12 -12 52 20 52 40 0 7 5 10 12 6 7 -4 8 -3 4 4 -10 16 -10 16 -46 -14z"/>
<path d="M1876 1651 c-9 -14 45 -73 60 -67 7 3 16 0 20 -6 5 -7 2 -8 -7 -3 -12 8 -12 6 0 -8 17 -21 18 -21 18 1 1 16 -64 92 -78 92 -4 0 -10 -4 -13 -9z"/>
<path d="M10068 1623 c-19 -21 -35 -46 -35 -55 0 -22 1 -22 18 -1 12 14 12 16 0 8 -9 -5 -12 -4 -7 3 4 6 13 9 20 6 15 -6 69 53 60 67 -9 15 -19 10 -56 -28z"/>
<path d="M2013 1520 c1 -10 4 -17 8 -15 3 3 15 -2 25 -10 16 -13 16 -14 2 -9 -12 4 -9 -3 10 -24 15 -16 33 -27 39 -25 21 8 15 19 -24 52 -64 53 -62 52 -60 31z"/>
<path d="M9974 1527 c-7 -7 -28 -25 -48 -40 -20 -15 -36 -32 -36 -37 0 -19 29 -10 56 16 19 20 21 25 7 20 -17 -6 -17 -5 1 9 10 8 22 13 25 10 4 -2 8 5 8 16 2 22 2 22 -13 6z"/>
<path d="M2130 1420 c0 -6 -6 -8 -12 -4 -7 4 -5 -2 6 -14 10 -12 23 -19 29 -15 6 3 7 1 3 -5 -7 -11 38 -38 56 -34 4 1 5 -5 2 -13 -4 -9 1 -18 12 -22 30 -11 79 -47 80 -58 1 -15 34 -18 34 -3 0 17 -68 71 -80 63 -6 -3 -10 0 -10 8 0 9 -21 33 -47 54 -60 49 -73 57 -73 43z"/>
<path d="M9798 1378 c-27 -22 -48 -47 -48 -55 0 -8 -4 -12 -9 -9 -8 5 -142 -92 -198 -144 -12 -11 -27 -20 -33 -20 -5 0 -10 -10 -10 -22 0 -19 -2 -20 -10 -8 -6 9 -13 11 -17 5 -5 -6 -27 -23 -50 -39 -24 -16 -40 -33 -37 -37 3 -5 2 -8 -3 -7 -12 3 -53 -12 -53 -20 1 -17 18 -34 24 -23 4 6 4 11 -1 11 -8 0 43 30 85 49 12 6 22 13 22 16 0 4 -5 3 -12 -1 -7 -5 -8 -3 -4 5 5 7 15 10 23 7 8 -3 11 -1 8 4 -3 6 0 10 8 10 22 0 68 40 61 52 -4 6 -3 8 3 5 13 -8 48 17 48 34 0 7 6 14 14 17 9 3 11 0 6 -8 -5 -8 3 -5 17 6 14 10 23 23 20 28 -3 5 0 6 7 2 14 -9 43 12 35 25 -2 5 6 11 20 15 13 3 27 12 30 20 3 8 12 14 20 14 14 0 42 37 39 51 -1 3 8 5 20 5 13 -1 21 4 19 12 -1 8 2 11 6 8 5 -3 17 2 25 12 15 16 15 18 -6 19 -13 1 -42 -15 -69 -39z"/>
<path d="M2370 1229 c0 -5 -6 -7 -12 -4 -7 4 7 -11 31 -33 24 -22 49 -39 57 -38 7 0 12 -2 11 -5 -4 -13 27 -40 40 -35 9 4 11 1 7 -6 -5 -7 -2 -9 8 -5 10 3 20 -3 28 -18 6 -12 35 -34 64 -49 28 -15 50 -29 49 -31 -2 -3 -3 -8 -3 -12 0 -10 20 19 20 29 0 8 -41 23 -53 20 -5 -1 -6 2 -3 7 6 10 -41 44 -61 44 -7 0 -15 9 -19 19 -3 10 -12 18 -20 18 -8 0 -14 5 -14 10 0 6 -5 10 -11 10 -6 0 -20 11 -31 25 -19 24 -56 36 -42 14 4 -8 0 -8 -15 0 -24 13 -28 23 -6 15 22 -9 18 9 -5 24 -13 8 -20 8 -20 1z"/>
<path d="M2672 993 c2 -10 10 -17 16 -15 7 1 12 -2 12 -8 0 -5 8 -6 17 -3 12 5 15 2 10 -9 -3 -10 0 -19 9 -22 25 -9 16 25 -13 50 -33 28 -56 31 -51 7z"/>
<path d="M9287 990 c-14 -14 -15 -19 -5 -23 18 -6 48 11 48 28 0 20 -21 18 -43 -5z"/>
<path d="M9250 949 c0 -5 -4 -7 -10 -4 -12 7 -90 -32 -90 -46 0 -6 -4 -8 -9 -4 -6 3 -13 -1 -18 -8 -4 -8 -15 -17 -23 -20 -10 -4 -8 -6 7 -6 30 -1 68 14 91 37 10 10 32 24 50 31 17 7 29 17 26 22 -7 12 -24 11 -24 -2z"/>
<path d="M2760 935 c0 -8 5 -15 10 -15 6 0 10 7 10 15 0 8 -4 15 -10 15 -5 0 -10 -7 -10 -15z"/>
<path d="M2786 925 c-7 -19 44 -55 88 -62 23 -3 33 -10 32 -22 -1 -22 65 -56 76 -38 7 11 12 3 9 -15 0 -4 7 -4 16 -1 11 4 14 2 9 -5 -8 -13 27 -38 66 -47 15 -4 27 -10 26 -14 -2 -18 3 -22 16 -12 11 9 16 9 22 0 4 -8 3 -9 -4 -5 -7 4 -12 2 -12 -4 0 -7 6 -10 14 -7 8 3 22 -3 32 -14 20 -23 33 -25 30 -4 -2 16 -14 30 -24 30 -4 1 -33 18 -65 38 -31 21 -65 41 -75 44 -9 4 -36 19 -60 36 -24 16 -50 26 -58 23 -8 -3 -13 -2 -10 3 5 8 -56 56 -101 79 -17 9 -22 9 -27 -3z"/>
<path d="M9016 820 c-22 -17 -44 -30 -49 -30 -10 0 -129 -70 -137 -80 -3 -4 -11 -9 -19 -12 -15 -4 -25 -38 -11 -38 4 0 21 14 38 31 19 19 32 27 37 20 3 -6 11 -9 16 -5 5 3 7 10 4 15 -4 5 -1 9 5 9 6 0 9 4 6 9 -3 5 1 11 8 14 8 3 16 1 18 -4 5 -15 38 1 38 18 0 8 5 11 12 7 7 -5 8 -3 3 6 -6 10 -4 12 9 7 9 -4 14 -3 11 2 -3 5 -1 12 5 16 5 3 10 0 10 -7 1 -8 5 -7 14 5 8 10 16 13 18 7 4 -12 48 16 48 31 0 19 -46 7 -84 -21z"/>
<path d="M3222 663 c2 -10 19 -25 38 -35 31 -14 35 -14 38 -1 5 20 -19 43 -25 25 -4 -10 -9 -8 -20 7 -17 26 -36 27 -31 4z"/>
<path d="M8747 659 c-8 -11 -16 -16 -18 -10 -3 7 -9 7 -19 1 -11 -7 -12 -12 -3 -21 15 -15 66 9 71 34 5 23 -14 22 -31 -4z"/>
<path d="M3314 629 c-3 -5 2 -12 10 -15 9 -3 13 -11 10 -16 -4 -6 -1 -9 7 -6 8 3 20 -2 27 -11 8 -9 11 -10 7 -3 -3 6 -1 12 4 12 6 0 11 -6 11 -13 0 -20 32 -33 65 -27 28 5 24 8 -53 47 -45 22 -85 37 -88 32z"/>
<path d="M8591 593 c-71 -35 -73 -37 -47 -44 30 -8 66 7 66 28 0 7 5 13 11 13 5 0 7 -6 4 -12 -4 -7 -1 -6 7 3 7 9 20 14 28 11 8 -3 12 -1 8 3 -4 4 0 14 10 21 34 27 -12 14 -87 -23z"/>
<path d="M3473 543 c-7 -2 -13 -9 -13 -15 0 -6 7 -8 15 -4 8 3 15 2 15 -3 0 -11 50 -32 60 -26 5 3 11 1 15 -5 9 -15 75 -41 86 -34 11 6 2 24 -12 24 -6 0 -7 -5 -3 -12 4 -7 3 -8 -5 -4 -6 4 -9 11 -6 16 8 12 -33 33 -51 26 -8 -3 -14 -1 -14 4 0 10 -53 41 -67 39 -4 0 -14 -3 -20 -6z"/>
<path d="M8468 534 c-16 -8 -28 -19 -28 -23 0 -5 -9 -7 -20 -4 -12 3 -20 0 -20 -7 0 -7 7 -10 18 -5 13 5 14 4 5 -6 -10 -10 -15 -9 -28 1 -8 7 -16 10 -16 6 -1 -3 -2 -10 -3 -15 0 -5 -5 -13 -10 -18 -5 -5 -6 -3 -2 5 4 6 3 12 -3 12 -14 0 -23 -18 -12 -24 11 -7 77 19 86 34 4 6 10 8 15 5 10 -6 60 15 60 26 0 5 7 6 15 3 8 -4 15 -2 15 4 0 9 -23 22 -38 22 -4 -1 -19 -8 -34 -16z"/>
<path d="M3714 428 c1 -18 7 -23 28 -23 15 -1 30 -4 34 -7 3 -4 12 -4 20 -1 11 4 12 9 3 19 -13 16 -39 19 -39 4 0 -5 -9 -10 -20 -10 -11 0 -20 5 -20 10 0 6 8 10 18 10 14 0 15 2 2 10 -23 15 -27 12 -26 -12z"/>
<path d="M8260 440 c-13 -8 -12 -10 3 -10 9 0 17 -4 17 -10 0 -5 -9 -10 -20 -10 -11 0 -20 5 -20 10 0 15 -26 12 -40 -5 -13 -16 -3 -19 50 -15 26 2 53 27 44 41 -7 11 -15 11 -34 -1z"/>
<path d="M3823 390 c1 -22 23 -35 33 -19 6 11 -13 39 -27 39 -4 0 -7 -9 -6 -20z"/>
<path d="M8146 395 c-11 -8 -18 -15 -15 -16 34 -6 45 -3 46 13 2 22 -6 22 -31 3z"/>
<path d="M3888 374 c6 -3 12 -10 12 -15 0 -6 -4 -7 -10 -4 -5 3 -10 4 -10 1 0 -3 8 -10 19 -15 15 -9 18 -7 17 12 -1 14 -8 23 -21 24 -11 2 -14 0 -7 -3z"/>
<path d="M8094 372 c-6 -4 -11 -15 -11 -24 0 -13 4 -15 19 -7 10 5 18 12 18 15 0 3 -4 2 -10 -1 -5 -3 -10 -2 -10 4 0 5 6 12 13 14 6 3 8 6 2 6 -5 0 -15 -3 -21 -7z"/>
<path d="M3949 339 c11 -32 34 -38 29 -8 -1 13 -11 25 -20 27 -15 3 -16 -1 -9 -19z"/>
<path d="M8027 353 c-12 -11 -8 -45 5 -41 17 6 30 48 14 48 -7 0 -16 -3 -19 -7z"/>
<path d="M4000 327 c0 -8 11 -19 25 -25 21 -10 23 -9 18 6 -11 29 -43 43 -43 19z"/>
<path d="M7954 315 c-24 -21 -25 -25 -9 -22 35 7 55 19 55 33 0 20 -13 17 -46 -11z"/>
<path d="M4060 310 c0 -5 6 -10 13 -10 9 0 9 -2 -1 -9 -10 -6 -8 -10 9 -14 13 -4 25 -4 28 -2 2 3 -2 5 -10 5 -12 0 -11 2 1 10 13 9 13 11 0 20 -19 13 -40 13 -40 0z"/>
<path d="M7900 310 c-13 -9 -13 -11 0 -20 12 -8 13 -10 1 -10 -8 0 -11 -3 -7 -7 4 -5 14 1 22 11 24 33 15 46 -16 26z"/>
<path d="M4120 291 c0 -13 29 -41 41 -41 6 0 7 5 4 10 -3 6 0 10 7 10 8 1 6 6 -6 15 -22 17 -46 20 -46 6z"/>
<path d="M7834 285 c-12 -9 -14 -14 -6 -15 7 0 10 -4 7 -10 -10 -16 12 -12 29 6 32 32 8 48 -30 19z"/>
<path d="M7783 272 c-13 -2 -23 -7 -23 -12 0 -12 25 -19 40 -10 19 12 8 25 -17 22z"/>
<path d="M4190 260 c0 -5 12 -10 26 -10 14 0 23 4 19 10 -3 6 -15 10 -26 10 -10 0 -19 -4 -19 -10z"/>
<path d="M4247 243 c-11 -11 -8 -20 9 -27 8 -3 12 -2 9 4 -10 16 31 6 49 -13 24 -23 26 -21 13 7 -14 30 -63 47 -80 29z"/>
<path d="M7698 243 c-31 -8 -19 -24 13 -18 19 4 28 2 24 -5 -3 -6 0 -7 10 -4 38 15 -4 39 -47 27z"/>
<path d="M4330 224 c0 -7 27 -34 35 -34 3 0 3 6 0 13 -4 6 -1 5 7 -4 7 -9 19 -14 26 -12 6 3 12 0 12 -5 0 -5 11 -12 25 -14 14 -3 25 -1 25 3 0 5 5 9 10 9 6 0 10 -7 10 -15 0 -8 5 -15 11 -15 5 0 7 5 4 10 -3 6 2 10 12 10 17 1 17 1 1 11 -10 5 -30 12 -45 14 -16 2 -46 11 -68 19 -43 16 -65 20 -65 10z"/>
<path d="M7615 218 c-16 -5 -37 -12 -45 -15 -8 -3 -26 -7 -39 -9 -26 -3 -54 -24 -32 -24 7 0 9 -4 6 -10 -3 -5 -1 -10 4 -10 6 0 11 7 11 15 0 8 5 15 10 15 6 0 10 -4 10 -9 0 -4 11 -6 25 -3 14 2 25 9 25 14 0 6 7 8 15 4 8 -3 15 -1 15 5 0 6 5 7 10 4 6 -3 17 0 25 9 28 28 15 33 -40 14z"/>
<path d="M7415 165 c-30 -14 -30 -14 -5 -16 l25 -1 -25 -8 c-23 -7 -23 -8 -3 -9 24 -1 56 26 48 40 -4 5 -7 9 -8 8 -1 0 -15 -7 -32 -14z"/>
<path d="M4548 163 c6 -2 9 -10 5 -16 -4 -7 0 -8 11 -4 10 4 25 7 34 8 25 1 -17 18 -43 18 -11 -1 -14 -3 -7 -6z"/>
<path d="M4631 146 c-8 -10 -9 -16 -1 -21 5 -3 10 -1 10 4 0 6 5 11 11 11 5 0 8 -4 5 -9 -3 -4 7 -6 22 -3 22 5 24 7 7 10 -11 2 -25 8 -31 13 -7 6 -16 4 -23 -5z"/>
<path d="M7326 145 l-29 -12 26 -5 c15 -3 24 -1 21 3 -3 5 -1 9 5 9 5 0 11 -5 13 -12 3 -8 6 -9 11 -1 12 20 -16 31 -47 18z"/>
<path d="M4730 121 c0 -6 -15 -12 -32 -12 l-33 -1 35 -8 c19 -4 48 -11 64 -15 21 -6 27 -5 22 4 -4 6 -2 11 5 11 21 0 -3 18 -33 25 -18 5 -28 3 -28 -4z"/>
<path d="M7215 115 c-30 -13 -30 -13 -5 -15 23 -1 24 -2 5 -11 -16 -7 -14 -8 10 -5 17 3 48 9 70 14 40 10 40 10 8 11 -18 0 -33 6 -33 11 0 13 -19 12 -55 -5z"/>
<path d="M4843 91 c1 -12 7 -21 15 -21 8 0 10 5 6 13 -4 6 3 3 16 -8 13 -11 20 -14 16 -7 -5 8 -1 12 10 12 27 0 4 17 -33 25 -28 6 -32 4 -30 -14z"/>
<path d="M7101 99 c-18 -6 -32 -11 -30 -12 2 -2 13 -9 23 -17 11 -8 17 -10 13 -4 -4 7 2 14 13 17 11 3 18 1 14 -4 -3 -5 1 -9 8 -9 8 0 14 9 15 20 2 22 -5 23 -56 9z"/>
<path d="M4966 81 c-3 -5 8 -11 25 -15 43 -8 51 -8 44 5 -4 5 -12 8 -18 6 -7 -2 -20 0 -29 4 -10 5 -19 5 -22 0z"/>
<path d="M7018 84 c-3 -2 -16 -7 -28 -9 -29 -6 -39 -15 -14 -14 35 2 69 15 58 22 -6 3 -13 4 -16 1z"/>
<path d="M5103 39 c1 -16 7 -19 24 -16 13 2 23 0 23 -4 0 -14 20 -11 35 5 12 12 12 15 -3 21 -9 4 -31 9 -49 11 -27 4 -32 1 -30 -17z"/>
<path d="M6820 52 c-16 -6 -12 -42 5 -42 8 0 15 4 15 8 0 5 13 7 28 4 22 -3 28 0 29 16 1 17 -4 20 -32 19 -19 -1 -39 -3 -45 -5z"/>
<path d="M5270 25 c0 -11 5 -15 15 -12 8 4 17 2 20 -3 8 -13 62 -13 70 -1 6 10 -9 16 -67 27 -32 5 -38 3 -38 -11z"/>
<path d="M6666 31 c-34 -7 -48 -31 -18 -31 57 0 110 13 105 26 -5 14 -37 16 -87 5z"/>
<path d="M5410 10 c0 -6 28 -10 65 -10 37 0 65 4 65 10 0 6 -28 10 -65 10 -37 0 -65 -4 -65 -10z"/>
<path d="M6460 10 c0 -6 29 -10 66 -10 41 0 63 4 59 10 -3 6 -33 10 -66 10 -33 0 -59 -4 -59 -10z"/>
<path d="M6403 3 c9 -2 25 -2 35 0 9 3 1 5 -18 5 -19 0 -27 -2 -17 -5z"/>
</g>


</svg>