<!DOCTYPE svg PUBLIC "-//W3C//DTD SVG 20010904//EN" "http://www.w3.org/TR/2001/REC-SVG-20010904/DTD/svg10.dtd">
<svg version="1.0" xmlns="http://www.w3.org/2000/svg" width="1280px" height="1280px" viewBox="0 0 12000 12000" preserveAspectRatio="xMidYMid meet">
<g id="layer101" fill="#1a8f29" stroke="none">
<path d="M5535 11990 c-44 -4 -126 -11 -183 -15 -56 -5 -105 -12 -108 -17 -3 -4 -26 -8 -52 -8 -52 0 -143 -16 -372 -65 -85 -19 -177 -37 -205 -40 -66 -8 -186 -43 -398 -115 -49 -16 -97 -30 -107 -30 -24 0 -286 -98 -352 -131 -21 -11 -45 -19 -54 -19 -16 0 -72 -25 -249 -110 -181 -88 -289 -143 -322 -166 -20 -13 -43 -24 -52 -24 -9 0 -45 -19 -81 -43 -36 -24 -84 -54 -107 -67 -24 -13 -43 -27 -43 -32 0 -4 -7 -8 -15 -8 -13 0 -33 -11 -113 -65 -8 -5 -26 -20 -39 -32 -14 -12 -44 -32 -68 -43 -24 -11 -54 -31 -68 -43 -14 -12 -78 -60 -143 -107 -65 -47 -135 -102 -154 -122 -20 -21 -41 -38 -49 -38 -7 0 -48 -34 -90 -75 -43 -41 -82 -75 -87 -75 -5 0 -22 -14 -39 -31 -16 -16 -50 -49 -74 -72 -139 -130 -411 -410 -411 -423 0 -5 -34 -43 -75 -84 -41 -41 -75 -82 -75 -90 0 -8 -17 -31 -37 -50 -21 -20 -58 -64 -83 -100 -72 -102 -135 -187 -152 -204 -9 -8 -26 -35 -37 -60 -12 -24 -32 -55 -44 -68 -36 -38 -97 -135 -97 -152 0 -9 -4 -16 -8 -16 -5 0 -22 -24 -37 -52 -16 -29 -46 -77 -67 -107 -21 -30 -38 -62 -38 -71 0 -9 -17 -43 -38 -76 -21 -32 -46 -79 -57 -104 -10 -25 -27 -57 -37 -72 -10 -14 -18 -29 -18 -33 0 -6 -37 -87 -110 -238 -22 -46 -40 -91 -40 -99 0 -15 -30 -89 -70 -173 -10 -22 -23 -56 -29 -75 -5 -19 -19 -60 -29 -90 -11 -30 -30 -91 -43 -135 -12 -44 -32 -111 -45 -150 -48 -146 -63 -202 -74 -270 -7 -38 -21 -110 -31 -160 -42 -198 -79 -405 -89 -505 -7 -58 -16 -136 -22 -175 -16 -110 -22 -850 -8 -1007 6 -73 14 -169 16 -213 3 -44 9 -89 14 -100 5 -11 11 -49 13 -85 2 -36 25 -162 50 -280 25 -118 50 -246 57 -285 12 -73 23 -113 70 -255 15 -47 38 -121 50 -165 12 -44 32 -109 45 -145 13 -36 27 -78 31 -95 4 -16 10 -35 15 -40 12 -16 79 -178 79 -192 0 -7 20 -56 46 -110 25 -53 59 -126 75 -162 17 -36 36 -77 44 -91 7 -14 27 -53 43 -87 17 -35 45 -83 61 -107 17 -25 31 -53 31 -64 0 -10 17 -43 38 -73 21 -30 51 -78 67 -107 15 -28 32 -52 37 -52 4 0 8 -7 8 -15 0 -13 11 -33 65 -113 6 -8 20 -26 32 -39 11 -13 33 -48 49 -78 15 -30 30 -55 34 -55 3 0 52 -65 109 -143 56 -79 115 -154 131 -166 17 -12 30 -28 30 -36 0 -9 33 -49 73 -91 39 -42 74 -81 76 -87 4 -14 105 -120 261 -274 63 -62 147 -145 186 -183 39 -39 74 -70 79 -70 5 0 43 -34 86 -75 42 -41 84 -75 92 -75 9 0 26 -13 39 -29 13 -17 84 -74 159 -128 74 -55 146 -109 159 -121 13 -12 30 -22 37 -22 15 0 103 -61 103 -72 0 -4 6 -8 14 -8 7 0 20 -7 27 -16 7 -9 36 -28 64 -43 67 -34 104 -56 189 -113 39 -27 78 -48 87 -48 9 0 31 -10 50 -23 40 -27 215 -118 277 -143 23 -9 42 -21 42 -26 0 -4 7 -8 16 -8 9 0 28 -7 42 -14 64 -35 181 -86 197 -86 9 0 29 -7 43 -14 36 -20 204 -86 217 -86 6 0 30 -9 53 -20 23 -11 57 -23 75 -26 17 -4 93 -25 167 -49 74 -23 166 -52 203 -64 37 -12 109 -28 160 -36 51 -8 142 -26 202 -40 143 -33 260 -54 360 -66 44 -4 116 -13 160 -18 221 -27 382 -33 758 -28 216 3 428 10 472 16 44 6 118 16 165 21 139 17 316 48 460 79 74 16 167 34 205 41 75 12 88 16 320 90 83 26 165 50 182 54 18 3 52 15 75 26 23 11 47 20 53 20 13 0 181 66 217 86 14 7 34 14 43 14 16 0 133 51 197 86 14 7 33 14 42 14 9 0 16 4 16 8 0 5 19 17 43 26 61 25 236 116 276 143 19 13 41 23 50 23 15 0 157 86 213 129 14 12 31 21 37 21 6 0 30 12 53 28 22 15 48 32 57 37 8 6 20 15 26 21 24 25 85 64 100 64 9 0 26 10 38 23 22 23 37 34 202 153 50 36 100 79 113 95 13 16 31 29 41 29 10 0 51 34 92 75 41 41 78 75 83 75 10 0 68 55 266 252 182 182 260 264 260 274 0 5 8 17 18 25 53 49 132 139 132 152 0 9 13 26 30 39 27 21 164 199 212 275 11 18 23 33 27 33 4 0 21 25 37 56 16 31 38 66 49 78 34 37 95 133 95 150 0 9 4 16 8 16 5 0 19 18 31 40 12 22 43 71 67 108 24 37 44 74 44 83 0 8 17 42 38 75 21 32 46 79 57 104 11 25 27 56 37 69 10 13 18 27 18 32 0 7 38 90 121 265 16 33 29 68 29 76 0 14 25 77 70 173 10 22 23 56 29 75 5 19 19 60 29 90 11 30 30 91 42 135 13 44 35 116 51 160 15 44 31 96 34 115 4 19 11 41 15 50 13 25 30 108 30 143 0 17 9 70 21 117 65 272 83 389 119 786 15 159 8 892 -9 1034 -28 231 -33 271 -52 380 -11 63 -32 165 -46 225 -13 61 -31 153 -39 205 -7 52 -18 104 -23 115 -5 11 -35 106 -66 210 -31 105 -68 219 -81 255 -12 36 -26 79 -30 95 -4 17 -10 35 -14 40 -13 18 -80 181 -80 195 0 7 -13 41 -29 74 -82 172 -121 257 -121 265 0 4 -8 19 -18 32 -10 13 -26 44 -37 69 -11 25 -36 72 -57 104 -21 33 -38 67 -38 76 0 8 -19 44 -43 80 -24 36 -54 84 -67 108 -13 23 -27 42 -32 42 -4 0 -8 7 -8 16 0 17 -62 115 -98 154 -12 14 -32 44 -43 68 -12 23 -28 49 -36 58 -19 18 -70 87 -152 204 -35 50 -72 95 -83 101 -11 6 -25 24 -32 40 -7 16 -45 62 -84 103 -40 40 -72 77 -72 82 0 4 -33 42 -72 83 -115 118 -289 292 -338 338 -25 23 -58 56 -75 72 -16 17 -35 31 -40 31 -6 0 -43 34 -84 75 -41 41 -81 75 -88 75 -8 0 -31 17 -51 38 -21 20 -91 75 -157 122 -65 47 -127 94 -139 106 -12 11 -41 30 -66 42 -25 12 -56 32 -71 44 -14 13 -32 28 -41 33 -8 6 -34 22 -56 38 -23 15 -48 27 -57 27 -8 0 -15 4 -15 8 0 5 -18 19 -41 31 -23 13 -70 43 -106 67 -36 24 -73 44 -83 44 -9 0 -34 11 -54 25 -69 47 -514 263 -559 272 -18 3 -48 14 -67 23 -19 10 -66 30 -105 44 -38 15 -98 38 -133 51 -34 14 -84 30 -110 35 -26 6 -101 28 -167 49 -210 68 -289 90 -345 97 -30 3 -112 19 -183 35 -166 38 -341 69 -394 69 -23 0 -45 5 -48 10 -3 6 -32 10 -63 10 -31 0 -120 7 -197 15 -149 16 -802 19 -960 5z m-4035 -4635 c105 -14 236 -68 299 -121 84 -71 141 -128 147 -147 4 -12 15 -33 26 -47 30 -41 78 -169 94 -250 19 -99 18 -287 -2 -391 -14 -75 -46 -153 -111 -274 -21 -40 -153 -167 -228 -220 -33 -23 -96 -61 -140 -85 -44 -24 -82 -47 -85 -51 -3 -3 -35 -22 -71 -42 -73 -38 -109 -66 -180 -139 -35 -36 -52 -64 -69 -118 -26 -80 -23 -132 10 -205 57 -126 273 -188 477 -136 92 23 170 56 246 104 29 18 58 37 65 41 9 6 12 -47 12 -252 l0 -259 -57 -26 c-125 -54 -253 -77 -438 -77 -184 0 -355 42 -459 113 -21 15 -44 27 -50 27 -31 1 -169 156 -208 235 -14 28 -38 95 -54 150 -26 91 -29 114 -28 250 0 134 3 161 29 250 34 122 49 152 117 241 61 81 215 224 241 224 5 0 59 30 120 66 62 37 137 81 167 98 72 41 186 156 213 214 16 36 22 67 22 127 0 73 -3 85 -30 126 -51 77 -95 109 -177 126 -77 16 -215 13 -314 -6 -96 -18 -258 -111 -346 -198 l-38 -37 0 284 1 285 34 22 c64 40 208 90 285 98 41 5 104 11 140 16 77 8 209 2 340 -16z m1975 -4 c82 -7 98 -13 175 -56 47 -26 109 -61 138 -77 29 -16 74 -55 100 -86 26 -30 68 -75 94 -99 25 -25 52 -59 59 -76 13 -33 75 -146 114 -207 13 -19 28 -60 35 -90 7 -30 26 -102 43 -160 23 -80 34 -152 47 -300 16 -177 17 -211 4 -375 -10 -125 -22 -205 -38 -260 -13 -44 -29 -102 -35 -130 -27 -112 -34 -132 -66 -185 -18 -30 -51 -90 -72 -132 -29 -56 -67 -107 -139 -183 -92 -99 -107 -110 -209 -162 -60 -30 -115 -59 -121 -64 -6 -5 -72 -19 -147 -31 l-136 -21 -143 23 c-130 20 -149 26 -228 69 -47 26 -98 53 -115 59 -16 7 -80 63 -141 125 -82 82 -120 129 -144 177 -18 36 -53 98 -77 138 -43 70 -64 126 -77 205 -4 20 -18 72 -32 115 -19 58 -30 128 -44 282 -18 198 -18 211 0 395 13 140 25 217 48 295 16 58 35 125 40 150 10 41 80 171 124 229 10 13 18 33 18 44 0 12 32 51 78 96 42 42 85 89 95 104 10 15 39 39 65 53 26 14 88 48 137 76 81 45 99 51 180 59 50 5 113 13 140 17 28 4 70 4 95 0 24 -5 85 -12 135 -17z m2255 8 c139 -15 199 -31 298 -82 l82 -42 0 -256 0 -256 -51 24 c-28 14 -59 32 -69 41 -35 29 -173 73 -274 86 -196 25 -373 -33 -500 -164 -66 -68 -70 -74 -120 -177 -112 -234 -134 -576 -54 -858 17 -60 37 -117 45 -126 7 -8 13 -21 13 -28 0 -41 186 -271 219 -271 8 0 42 -15 75 -34 125 -69 340 -73 508 -11 49 18 116 49 149 69 l59 35 0 -274 0 -273 -47 -18 c-27 -10 -53 -21 -58 -25 -22 -16 -204 -50 -301 -56 -79 -5 -134 -1 -247 17 -141 21 -152 25 -273 86 -112 56 -138 74 -239 168 -98 93 -120 119 -170 209 -31 56 -60 104 -64 107 -17 12 -59 98 -65 132 -4 20 -25 92 -47 160 -35 109 -42 147 -60 328 -19 196 -19 213 -4 386 10 118 24 211 39 265 54 191 84 277 114 324 17 28 50 84 73 125 24 41 52 81 63 89 12 8 53 46 92 85 59 58 95 83 203 139 115 59 138 67 188 68 32 0 94 6 138 13 83 13 109 13 285 -5z m3350 -4 c117 -16 183 -41 280 -107 103 -70 222 -209 236 -277 3 -14 12 -44 19 -66 70 -197 57 -481 -30 -691 -16 -37 -142 -207 -159 -213 -10 -4 -30 -19 -112 -91 -16 -13 -56 -38 -89 -55 -59 -31 -133 -75 -210 -124 -22 -14 -53 -31 -68 -38 -37 -17 -153 -137 -178 -186 -27 -51 -34 -124 -19 -185 9 -39 24 -64 68 -110 49 -51 67 -63 126 -81 153 -47 387 -7 531 90 24 16 47 29 53 29 5 0 15 7 22 15 7 8 16 15 21 15 5 0 9 -116 9 -259 l0 -259 -77 -31 c-132 -53 -207 -65 -408 -66 -217 0 -281 13 -434 89 -144 71 -236 161 -303 296 -71 142 -83 197 -82 380 0 130 4 168 23 235 35 123 138 307 190 339 8 5 38 32 66 60 27 28 71 62 96 76 83 45 150 85 209 123 33 20 65 37 72 37 15 0 89 59 163 129 100 96 117 237 46 381 -13 25 -89 78 -129 90 -94 29 -294 23 -410 -12 -45 -13 -157 -77 -195 -110 -17 -16 -34 -28 -39 -28 -4 0 -26 -16 -48 -36 l-40 -37 2 279 3 279 70 37 c98 53 172 74 310 88 66 6 127 13 135 15 23 6 175 -5 280 -20z m1530 4 c137 -15 250 -67 361 -163 93 -82 178 -218 235 -376 l38 -105 1 -225 0 -225 -34 -100 c-19 -55 -51 -125 -71 -155 -21 -30 -41 -65 -45 -77 -3 -13 -37 -46 -76 -74 -38 -29 -69 -55 -69 -60 0 -4 -10 -11 -22 -15 -13 -4 -49 -19 -82 -35 -73 -35 -183 -51 -333 -48 -62 1 -115 0 -117 -2 -6 -5 23 -508 29 -526 3 -10 86 -13 370 -13 l365 0 0 -230 0 -230 -537 2 -538 3 -17 290 c-9 160 -17 358 -18 440 -1 83 -9 279 -18 437 l-17 288 35 -7 c68 -12 422 -9 495 6 64 13 75 18 130 72 33 32 67 64 77 71 42 33 63 299 32 394 -18 53 -64 122 -113 168 -61 58 -207 92 -326 76 -96 -14 -226 -56 -272 -89 -21 -15 -50 -35 -65 -45 l-28 -18 0 239 0 240 43 18 c23 10 61 26 84 36 59 26 306 61 373 53 14 -1 72 -8 130 -15z m-3690 -669 c0 -537 2 -650 13 -650 8 0 19 18 26 40 19 63 254 531 352 702 22 36 39 71 39 76 0 12 91 183 105 198 6 6 19 31 29 55 21 51 70 149 98 197 l20 32 274 0 c151 0 274 -3 274 -6 0 -3 -11 -27 -24 -53 -14 -25 -27 -53 -31 -61 -3 -8 -28 -51 -55 -95 -28 -44 -66 -111 -85 -150 -37 -72 -107 -192 -137 -235 -10 -13 -18 -31 -18 -40 0 -8 -16 -40 -36 -70 -20 -30 -61 -102 -92 -160 -31 -58 -71 -129 -89 -158 -19 -30 -59 -102 -90 -160 -31 -59 -67 -123 -79 -142 -13 -19 -24 -42 -24 -50 0 -9 21 -49 46 -90 25 -41 57 -97 70 -125 13 -27 47 -86 74 -130 27 -44 55 -91 61 -105 22 -48 53 -105 59 -110 3 -3 24 -36 45 -75 21 -38 42 -71 47 -73 4 -2 8 -11 8 -20 1 -9 16 -42 35 -72 19 -30 55 -93 81 -140 26 -47 76 -134 112 -195 36 -60 67 -113 69 -117 2 -5 -116 -8 -264 -8 l-268 0 -33 68 c-78 160 -119 239 -149 290 -18 30 -33 59 -33 65 0 5 -25 57 -56 114 -94 175 -313 615 -333 668 -10 27 -24 51 -30 53 -8 3 -11 -164 -11 -627 l0 -631 -225 0 -225 0 0 1320 0 1320 225 0 225 0 0 -650z"/>
</g>
<g id="layer102" fill="#1d9582" stroke="none">
<path d="M5535 11990 c-44 -4 -126 -11 -183 -15 -56 -5 -105 -12 -108 -17 -3 -4 -26 -8 -52 -8 -52 0 -143 -16 -372 -65 -85 -19 -177 -37 -205 -40 -66 -8 -186 -43 -398 -115 -49 -16 -97 -30 -107 -30 -24 0 -286 -98 -352 -131 -21 -11 -45 -19 -54 -19 -16 0 -72 -25 -249 -110 -181 -88 -289 -143 -322 -166 -20 -13 -43 -24 -52 -24 -9 0 -45 -19 -81 -43 -36 -24 -84 -54 -107 -67 -24 -13 -43 -27 -43 -32 0 -4 -7 -8 -15 -8 -13 0 -33 -11 -113 -65 -8 -5 -26 -20 -39 -32 -14 -12 -44 -32 -68 -43 -24 -11 -54 -31 -68 -43 -14 -12 -78 -60 -143 -107 -65 -47 -135 -102 -154 -122 -20 -21 -41 -38 -49 -38 -7 0 -48 -34 -90 -75 -43 -41 -82 -75 -87 -75 -5 0 -22 -14 -39 -31 -16 -16 -50 -49 -74 -72 -139 -130 -411 -410 -411 -423 0 -5 -34 -43 -75 -84 -41 -41 -75 -82 -75 -90 0 -8 -17 -31 -37 -50 -21 -20 -58 -64 -83 -100 -72 -102 -135 -187 -152 -204 -9 -8 -26 -35 -37 -60 -12 -24 -32 -55 -44 -68 -36 -38 -97 -135 -97 -152 0 -9 -4 -16 -8 -16 -5 0 -22 -24 -37 -52 -16 -29 -46 -77 -67 -107 -21 -30 -38 -62 -38 -71 0 -9 -17 -43 -38 -76 -21 -32 -46 -79 -57 -104 -10 -25 -27 -57 -37 -72 -10 -14 -18 -29 -18 -33 0 -6 -37 -87 -110 -238 -22 -46 -40 -91 -40 -99 0 -15 -30 -89 -70 -173 -10 -22 -23 -56 -29 -75 -5 -19 -19 -60 -29 -90 -11 -30 -30 -91 -43 -135 -12 -44 -32 -111 -45 -150 -48 -146 -63 -202 -74 -270 -7 -38 -21 -110 -31 -160 -42 -198 -79 -405 -89 -505 -7 -58 -16 -138 -21 -178 -16 -131 -23 -360 -11 -374 6 -8 9 -40 6 -78 -2 -36 -4 -84 -4 -107 1 -134 0 -175 -5 -242 -4 -41 -2 -133 5 -205 6 -72 14 -167 16 -211 3 -44 9 -89 14 -100 5 -11 11 -54 14 -95 4 -41 12 -100 20 -130 l13 -55 16 30 17 30 -7 -30 c-3 -16 -10 -33 -16 -36 -6 -4 2 -62 21 -150 17 -79 35 -175 42 -214 12 -73 23 -113 70 -255 15 -47 38 -121 50 -165 12 -44 32 -109 45 -145 13 -36 27 -78 31 -95 4 -16 10 -35 15 -40 12 -16 79 -178 79 -192 0 -7 20 -56 46 -110 25 -53 59 -126 75 -162 17 -36 36 -77 44 -91 7 -14 27 -53 43 -87 17 -35 45 -83 61 -107 17 -25 31 -53 31 -64 0 -10 17 -43 38 -73 21 -30 51 -78 67 -107 15 -28 32 -52 37 -52 4 0 8 -7 8 -15 0 -13 11 -33 65 -113 6 -8 20 -26 32 -39 11 -13 33 -48 49 -78 15 -30 30 -55 34 -55 3 0 52 -65 109 -143 56 -79 115 -154 131 -166 17 -12 30 -28 30 -36 0 -9 33 -49 73 -91 39 -42 74 -81 76 -87 4 -14 105 -120 261 -274 63 -62 147 -145 186 -183 39 -39 74 -70 79 -70 5 0 43 -34 86 -75 42 -41 84 -75 92 -75 9 0 26 -13 39 -29 13 -17 84 -74 159 -128 74 -55 146 -109 159 -121 13 -12 30 -22 37 -22 15 0 103 -61 103 -72 0 -4 6 -8 14 -8 7 0 20 -7 27 -16 7 -9 36 -28 64 -43 67 -34 104 -56 189 -113 39 -27 78 -48 87 -48 9 0 31 -10 50 -23 40 -27 215 -118 277 -143 23 -9 42 -21 42 -26 0 -4 7 -8 16 -8 9 0 28 -7 42 -14 64 -35 181 -86 197 -86 9 0 29 -7 43 -14 36 -20 204 -86 217 -86 6 0 30 -9 53 -20 23 -11 57 -23 75 -26 17 -4 93 -25 167 -49 74 -23 166 -52 203 -64 37 -12 109 -28 160 -36 51 -8 142 -26 202 -40 143 -33 260 -54 360 -66 44 -4 116 -13 160 -18 160 -20 363 -33 421 -27 32 3 85 8 118 12 37 4 62 2 69 -5 15 -15 97 -14 97 0 0 9 19 9 68 3 219 -27 672 16 1082 105 74 16 167 34 205 41 75 12 88 16 320 90 83 26 165 50 182 54 18 3 52 15 75 26 23 11 47 20 53 20 13 0 181 66 217 86 14 7 34 14 43 14 16 0 133 51 197 86 14 7 33 14 42 14 9 0 16 4 16 8 0 5 19 17 43 26 61 25 236 116 276 143 19 13 41 23 50 23 15 0 157 86 213 129 14 12 31 21 37 21 6 0 30 12 53 28 22 15 48 32 57 37 8 6 20 15 26 21 24 25 85 64 100 64 9 0 26 10 38 23 22 23 37 34 202 153 50 36 100 79 113 95 13 16 31 29 41 29 10 0 51 34 92 75 41 41 78 75 83 75 10 0 68 55 266 252 182 182 260 264 260 274 0 5 8 17 18 25 53 49 132 139 132 152 0 9 13 26 30 39 27 21 164 199 212 275 11 18 23 33 27 33 4 0 21 25 37 56 16 31 38 66 49 78 34 37 95 133 95 150 0 9 4 16 8 16 5 0 19 18 31 40 12 22 43 71 67 108 24 37 44 74 44 83 0 8 17 42 38 75 21 32 46 79 57 104 11 25 27 56 37 69 10 13 18 27 18 32 0 7 38 90 121 265 16 33 29 68 29 76 0 14 25 77 70 173 10 22 23 56 29 75 5 19 19 60 29 90 11 30 30 91 42 135 13 44 35 116 51 160 15 44 31 96 34 115 4 19 11 41 15 50 13 25 30 108 30 143 0 17 9 70 21 117 52 218 78 370 98 570 34 331 36 395 15 554 -4 30 -2 57 6 71 8 15 10 37 5 62 -3 21 -6 67 -4 103 12 354 -22 691 -108 1065 -13 61 -31 153 -39 205 -7 52 -18 104 -23 115 -5 11 -35 106 -66 210 -31 105 -68 219 -81 255 -12 36 -26 79 -30 95 -4 17 -10 35 -14 40 -13 18 -80 181 -80 195 0 7 -13 41 -29 74 -82 172 -121 257 -121 265 0 4 -8 19 -18 32 -10 13 -26 44 -37 69 -11 25 -36 72 -57 104 -21 33 -38 67 -38 76 0 8 -19 44 -43 80 -24 36 -54 84 -67 108 -13 23 -27 42 -32 42 -4 0 -8 7 -8 16 0 17 -62 115 -98 154 -12 14 -32 44 -43 68 -12 23 -28 49 -36 58 -19 18 -70 87 -152 204 -35 50 -72 95 -83 101 -11 6 -25 24 -32 40 -7 16 -45 62 -84 103 -40 40 -72 77 -72 82 0 4 -33 42 -72 83 -115 118 -289 292 -338 338 -25 23 -58 56 -75 72 -16 17 -35 31 -40 31 -6 0 -43 34 -84 75 -41 41 -81 75 -88 75 -8 0 -31 17 -51 38 -21 20 -91 75 -157 122 -65 47 -127 94 -139 106 -12 11 -41 30 -66 42 -25 12 -56 32 -71 44 -14 13 -32 28 -41 33 -8 6 -34 22 -56 38 -23 15 -48 27 -57 27 -8 0 -15 4 -15 8 0 5 -18 19 -41 31 -23 13 -70 43 -106 67 -36 24 -73 44 -83 44 -9 0 -34 11 -54 25 -69 47 -514 263 -559 272 -18 3 -48 14 -67 23 -19 10 -66 30 -105 44 -38 15 -98 38 -133 51 -34 14 -84 30 -110 35 -26 6 -101 28 -167 49 -210 68 -289 90 -345 97 -30 3 -112 19 -183 35 -166 38 -341 69 -394 69 -23 0 -45 5 -48 10 -3 6 -32 10 -63 10 -31 0 -120 7 -197 15 -178 19 -272 19 -360 0 -86 -18 -96 -18 -92 -2 3 17 -61 22 -89 7 -14 -8 -41 -10 -75 -6 -93 11 -261 14 -344 6z m-1090 -220 c-3 -5 -16 -10 -28 -10 -18 0 -19 2 -7 10 20 13 43 13 35 0z m3145 0 c12 -8 11 -10 -7 -10 -12 0 -25 5 -28 10 -8 13 15 13 35 0z m-3240 -40 c0 -5 -7 -10 -15 -10 -8 0 -15 5 -15 10 0 6 7 10 15 10 8 0 15 -4 15 -10z m3330 0 c0 -5 -7 -10 -15 -10 -8 0 -15 5 -15 10 0 6 7 10 15 10 8 0 15 -4 15 -10z m-3485 -59 c10 -18 -11 -20 -51 -6 l-39 14 42 1 c23 0 44 -4 48 -9z m3657 -7 c-45 -16 -59 -14 -47 5 3 6 25 11 48 11 l42 -1 -43 -15z m-3707 -64 c-7 -12 -42 -12 -70 0 -15 6 -8 9 28 9 30 1 46 -3 42 -9z m3770 0 c-3 -5 -17 -10 -30 -10 -13 0 -27 5 -30 10 -4 6 8 10 30 10 22 0 34 -4 30 -10z m-4215 -100 c0 -5 -7 -10 -15 -10 -8 0 -15 5 -15 10 0 6 7 10 15 10 8 0 15 -4 15 -10z m4630 0 c0 -5 -9 -10 -21 -10 -11 0 -17 5 -14 10 3 6 13 10 21 10 8 0 14 -4 14 -10z m-4708 -45 c0 -5 -5 -11 -11 -13 -6 -2 -11 4 -11 13 0 9 5 15 11 13 6 -2 11 -8 11 -13z m4778 0 c0 -8 -4 -15 -9 -15 -13 0 -22 16 -14 24 11 11 23 6 23 -9z m-5062 -133 c2 -7 -6 -12 -17 -12 -21 0 -27 11 -14 24 9 9 26 2 31 -12z m5362 -3 c0 -5 -9 -9 -20 -9 -22 0 -27 16 -7 23 15 5 27 -1 27 -14z m-5550 -124 c0 -8 -4 -15 -10 -15 -5 0 -10 7 -10 15 0 8 5 15 10 15 6 0 10 -7 10 -15z m5720 0 c0 -8 -4 -15 -10 -15 -5 0 -10 7 -10 15 0 8 5 15 10 15 6 0 10 -7 10 -15z m90 -85 c0 -5 -7 -10 -15 -10 -8 0 -15 5 -15 10 0 6 7 10 15 10 8 0 15 -4 15 -10z m-6316 -265 c3 -10 -1 -15 -14 -15 -23 0 -35 16 -18 23 21 9 26 8 32 -8z m6740 9 c18 -7 12 -24 -10 -24 -8 0 -14 7 -14 15 0 17 2 18 24 9z m-8212 -1366 c-9 -9 -12 -7 -12 12 0 19 3 21 12 12 9 -9 9 -15 0 -24z m-2 -119 c0 -17 -4 -28 -10 -24 -5 3 -10 17 -10 31 0 13 5 24 10 24 6 0 10 -14 10 -31z m9671 -22 c-8 -8 -11 -4 -11 14 0 33 14 47 18 19 2 -12 -1 -27 -7 -33z m-9751 18 c0 -8 -4 -15 -10 -15 -5 0 -10 7 -10 15 0 8 5 15 10 15 6 0 10 -7 10 -15z m10082 -377 c-9 -9 -15 -9 -24 0 -9 9 -7 12 12 12 19 0 21 -3 12 -12z m-10352 -129 c0 -5 -7 -9 -15 -9 -15 0 -20 12 -9 23 8 8 24 -1 24 -14z m-100 -104 c0 -8 -4 -15 -10 -15 -5 0 -10 7 -10 15 0 8 5 15 10 15 6 0 10 -7 10 -15z m10580 0 c0 -8 -4 -15 -10 -15 -5 0 -10 7 -10 15 0 8 5 15 10 15 6 0 10 -7 10 -15z m-10610 -70 c0 -8 -4 -15 -9 -15 -13 0 -22 16 -14 24 11 11 23 6 23 -9z m10642 0 c0 -5 -5 -11 -11 -13 -6 -2 -11 4 -11 13 0 9 5 15 11 13 6 -2 11 -8 11 -13z m-10784 -297 c-6 -18 -28 -21 -28 -4 0 9 7 16 16 16 9 0 14 -5 12 -12z m10932 -9 c0 -18 -2 -19 -15 -9 -8 7 -15 16 -15 21 0 5 7 9 15 9 9 0 15 -9 15 -21z m-10970 -59 c0 -11 -4 -20 -10 -20 -5 0 -10 9 -10 20 0 11 5 20 10 20 6 0 10 -9 10 -20z m11000 -1 c0 -11 -4 -17 -10 -14 -5 3 -10 13 -10 21 0 8 5 14 10 14 6 0 10 -9 10 -21z m-10010 -964 c105 -14 236 -68 299 -121 84 -71 141 -128 147 -147 4 -12 15 -33 26 -47 30 -41 78 -169 94 -250 19 -99 18 -287 -2 -391 -14 -75 -46 -153 -111 -274 -21 -40 -153 -167 -228 -220 -33 -23 -96 -61 -140 -85 -44 -24 -82 -47 -85 -51 -3 -3 -35 -22 -71 -42 -73 -38 -109 -66 -180 -139 -35 -36 -52 -64 -69 -118 -26 -80 -23 -132 10 -205 57 -126 273 -188 477 -136 92 23 170 56 246 104 29 18 58 37 65 41 9 6 12 -47 12 -252 l0 -259 -57 -26 c-125 -54 -253 -77 -438 -77 -184 0 -355 42 -459 113 -21 15 -44 27 -50 27 -31 1 -169 156 -208 235 -14 28 -38 95 -54 150 -26 91 -29 114 -28 250 0 134 3 161 29 250 34 122 49 152 117 241 61 81 215 224 241 224 5 0 59 30 120 66 62 37 137 81 167 98 72 41 186 156 213 214 16 36 22 67 22 127 0 73 -3 85 -30 126 -51 77 -95 109 -177 126 -77 16 -215 13 -314 -6 -96 -18 -258 -111 -346 -198 l-38 -37 0 284 1 285 34 22 c64 40 208 90 285 98 41 5 104 11 140 16 77 8 209 2 340 -16z m1975 -4 c82 -7 98 -13 175 -56 47 -26 109 -61 138 -77 29 -16 74 -55 100 -86 26 -30 68 -75 94 -99 25 -25 52 -59 59 -76 13 -33 75 -146 114 -207 13 -19 28 -60 35 -90 7 -30 26 -102 43 -160 23 -80 34 -152 47 -300 16 -177 17 -211 4 -375 -10 -125 -22 -205 -38 -260 -13 -44 -29 -102 -35 -130 -27 -112 -34 -132 -66 -185 -18 -30 -51 -90 -72 -132 -29 -56 -67 -107 -139 -183 -92 -99 -107 -110 -209 -162 -60 -30 -115 -59 -121 -64 -6 -5 -72 -19 -147 -31 l-136 -21 -143 23 c-130 20 -149 26 -228 69 -47 26 -98 53 -115 59 -16 7 -80 63 -141 125 -82 82 -120 129 -144 177 -18 36 -53 98 -77 138 -43 70 -64 126 -77 205 -4 20 -18 72 -32 115 -19 58 -30 128 -44 282 -18 198 -18 211 0 395 13 140 25 217 48 295 16 58 35 125 40 150 10 41 80 171 124 229 10 13 18 33 18 44 0 12 32 51 78 96 42 42 85 89 95 104 10 15 39 39 65 53 26 14 88 48 137 76 81 45 99 51 180 59 50 5 113 13 140 17 28 4 70 4 95 0 24 -5 85 -12 135 -17z m2255 8 c139 -15 199 -31 298 -82 l82 -42 0 -256 0 -256 -51 24 c-28 14 -59 32 -69 41 -35 29 -173 73 -274 86 -196 25 -373 -33 -500 -164 -66 -68 -70 -74 -120 -177 -112 -234 -134 -576 -54 -858 17 -60 37 -117 45 -126 7 -8 13 -21 13 -28 0 -41 186 -271 219 -271 8 0 42 -15 75 -34 125 -69 340 -73 508 -11 49 18 116 49 149 69 l59 35 0 -274 0 -273 -47 -18 c-27 -10 -53 -21 -58 -25 -22 -16 -204 -50 -301 -56 -79 -5 -134 -1 -247 17 -141 21 -152 25 -273 86 -112 56 -138 74 -239 168 -98 93 -120 119 -170 209 -31 56 -60 104 -64 107 -17 12 -59 98 -65 132 -4 20 -25 92 -47 160 -35 109 -42 147 -60 328 -19 196 -19 213 -4 386 10 118 24 211 39 265 54 191 84 277 114 324 17 28 50 84 73 125 24 41 52 81 63 89 12 8 53 46 92 85 59 58 95 83 203 139 115 59 138 67 188 68 32 0 94 6 138 13 83 13 109 13 285 -5z m3350 -4 c117 -16 183 -41 280 -107 103 -70 222 -209 236 -277 3 -14 12 -44 19 -66 70 -197 57 -481 -30 -691 -16 -37 -142 -207 -159 -213 -10 -4 -30 -19 -112 -91 -16 -13 -56 -38 -89 -55 -59 -31 -133 -75 -210 -124 -22 -14 -53 -31 -68 -38 -37 -17 -153 -137 -178 -186 -27 -51 -34 -124 -19 -185 9 -39 24 -64 68 -110 49 -51 67 -63 126 -81 153 -47 387 -7 531 90 24 16 47 29 53 29 5 0 15 7 22 15 7 8 16 15 21 15 5 0 9 -116 9 -259 l0 -259 -77 -31 c-132 -53 -207 -65 -408 -66 -217 0 -281 13 -434 89 -144 71 -236 161 -303 296 -71 142 -83 197 -82 380 0 130 4 168 23 235 35 123 138 307 190 339 8 5 38 32 66 60 27 28 71 62 96 76 83 45 150 85 209 123 33 20 65 37 72 37 15 0 89 59 163 129 100 96 117 237 46 381 -13 25 -89 78 -129 90 -94 29 -294 23 -410 -12 -45 -13 -157 -77 -195 -110 -17 -16 -34 -28 -39 -28 -4 0 -26 -16 -48 -36 l-40 -37 2 279 3 279 70 37 c98 53 172 74 310 88 66 6 127 13 135 15 23 6 175 -5 280 -20z m1530 4 c137 -15 250 -67 361 -163 93 -82 178 -218 235 -376 l38 -105 1 -225 0 -225 -34 -100 c-19 -55 -51 -125 -71 -155 -21 -30 -41 -65 -45 -77 -3 -13 -37 -46 -76 -74 -38 -29 -69 -55 -69 -60 0 -4 -10 -11 -22 -15 -13 -4 -49 -19 -82 -35 -73 -35 -183 -51 -333 -48 -62 1 -115 0 -117 -2 -6 -5 23 -508 29 -526 3 -10 86 -13 370 -13 l365 0 0 -230 0 -230 -537 2 -538 3 -17 290 c-9 160 -17 358 -18 440 -1 83 -9 279 -18 437 l-17 288 35 -7 c68 -12 422 -9 495 6 64 13 75 18 130 72 33 32 67 64 77 71 42 33 63 299 32 394 -18 53 -64 122 -113 168 -61 58 -207 92 -326 76 -96 -14 -226 -56 -272 -89 -21 -15 -50 -35 -65 -45 l-28 -18 0 239 0 240 43 18 c23 10 61 26 84 36 59 26 306 61 373 53 14 -1 72 -8 130 -15z m-3690 -669 c0 -537 2 -650 13 -650 8 0 19 18 26 40 19 63 254 531 352 702 22 36 39 71 39 76 0 12 91 183 105 198 6 6 19 31 29 55 21 51 70 149 98 197 l20 32 274 0 c151 0 274 -3 274 -6 0 -3 -11 -27 -24 -53 -14 -25 -27 -53 -31 -61 -3 -8 -28 -51 -55 -95 -28 -44 -66 -111 -85 -150 -37 -72 -107 -192 -137 -235 -10 -13 -18 -31 -18 -40 0 -8 -16 -40 -36 -70 -20 -30 -61 -102 -92 -160 -31 -58 -71 -129 -89 -158 -19 -30 -59 -102 -90 -160 -31 -59 -67 -123 -79 -142 -13 -19 -24 -42 -24 -50 0 -9 21 -49 46 -90 25 -41 57 -97 70 -125 13 -27 47 -86 74 -130 27 -44 55 -91 61 -105 22 -48 53 -105 59 -110 3 -3 24 -36 45 -75 21 -38 42 -71 47 -73 4 -2 8 -11 8 -20 1 -9 16 -42 35 -72 19 -30 55 -93 81 -140 26 -47 76 -134 112 -195 36 -60 67 -113 69 -117 2 -5 -116 -8 -264 -8 l-268 0 -33 68 c-78 160 -119 239 -149 290 -18 30 -33 59 -33 65 0 5 -25 57 -56 114 -94 175 -313 615 -333 668 -10 27 -24 51 -30 53 -8 3 -11 -164 -11 -627 l0 -631 -225 0 -225 0 0 1320 0 1320 225 0 225 0 0 -650z m-6806 328 c8 -32 7 -40 -3 -34 -11 7 -21 56 -11 56 4 0 10 -10 14 -22z m11788 -3 c-2 -14 -6 -25 -8 -25 -2 0 -4 11 -4 25 0 14 4 25 9 25 4 0 6 -11 3 -25z m-11845 -772 c-3 -10 -5 -2 -5 17 0 19 2 27 5 18 2 -10 2 -26 0 -35z m11890 0 c-3 -10 -5 -2 -5 17 0 19 2 27 5 18 2 -10 2 -26 0 -35z m-45 -1258 c3 -14 1 -25 -3 -25 -5 0 -9 11 -9 25 0 14 2 25 4 25 2 0 6 -11 8 -25z m-11715 -387 c-2 -13 -4 -5 -4 17 -1 22 1 32 4 23 2 -10 2 -28 0 -40z m23 -81 c0 -10 -4 -15 -10 -12 -5 3 -10 18 -10 33 0 21 2 24 10 12 5 -8 10 -23 10 -33z m11561 -110 c-13 -13 -15 11 -4 40 7 16 8 15 11 -6 2 -13 -1 -28 -7 -34z m-11531 12 c0 -11 -4 -17 -10 -14 -5 3 -10 15 -10 26 0 11 5 17 10 14 6 -3 10 -15 10 -26z m290 -773 c0 -8 7 -16 15 -20 19 -7 20 -26 1 -26 -8 0 -19 14 -25 30 -6 18 -6 30 0 30 5 0 9 -6 9 -14z m10949 -16 c-6 -16 -17 -30 -25 -30 -18 0 -18 6 4 35 24 33 33 31 21 -5z m-10789 -315 c0 -8 -7 -15 -15 -15 -16 0 -20 12 -8 23 11 12 23 8 23 -8z m10642 0 c0 -5 -5 -11 -11 -13 -6 -2 -11 4 -11 13 0 9 5 15 11 13 6 -2 11 -8 11 -13z m-10512 -175 c0 -5 -7 -10 -15 -10 -8 0 -15 5 -15 10 0 6 7 10 15 10 8 0 15 -4 15 -10z m10390 0 c0 -5 -7 -10 -15 -10 -8 0 -15 5 -15 10 0 6 7 10 15 10 8 0 15 -4 15 -10z m-219 -303 c-1 -12 -15 -9 -19 4 -3 6 1 10 8 8 6 -3 11 -8 11 -12z m-9821 -207 c0 -16 -4 -30 -10 -30 -11 0 -14 43 -3 53 11 12 13 8 13 -23z m9680 -6 c0 -14 -4 -22 -10 -19 -5 3 -10 17 -10 31 0 14 4 22 10 19 6 -3 10 -17 10 -31z m-9760 11 c0 -8 -4 -15 -10 -15 -5 0 -10 7 -10 15 0 8 5 15 10 15 6 0 10 -7 10 -15z m9840 0 c0 -8 -4 -15 -10 -15 -5 0 -10 7 -10 15 0 8 5 15 10 15 6 0 10 -7 10 -15z m-8350 -1470 c0 -8 -4 -15 -10 -15 -5 0 -10 7 -10 15 0 8 5 15 10 15 6 0 10 -7 10 -15z m63 -11 c-3 -8 -12 -13 -20 -10 -8 3 -17 6 -19 6 -3 0 -2 5 1 10 11 17 45 12 38 -6z m6757 7 c0 -5 -7 -12 -16 -15 -22 -9 -24 -8 -24 9 0 8 9 15 20 15 11 0 20 -4 20 -9z m-6320 -271 c0 -5 -7 -10 -15 -10 -8 0 -15 5 -15 10 0 6 7 10 15 10 8 0 15 -4 15 -10z m5870 0 c0 -5 -7 -10 -15 -10 -8 0 -15 5 -15 10 0 6 7 10 15 10 8 0 15 -4 15 -10z m-5605 -176 c12 -5 14 -9 4 -14 -14 -9 -39 -2 -39 11 0 11 12 11 35 3z m5345 -3 c0 -12 -21 -19 -38 -13 -11 4 -11 6 0 13 17 11 38 11 38 0z m-5062 -163 c-6 -18 -28 -21 -28 -4 0 9 7 16 16 16 9 0 14 -5 12 -12z m4772 -4 c0 -17 -22 -14 -28 4 -2 7 3 12 12 12 9 0 16 -7 16 -16z m-4690 -44 c0 -5 -9 -10 -19 -10 -11 0 -23 5 -26 10 -4 6 5 10 19 10 14 0 26 -4 26 -10z m4630 0 c0 -5 -9 -10 -20 -10 -11 0 -20 5 -20 10 0 6 9 10 20 10 11 0 20 -4 20 -10z m-4190 -100 c0 -5 -16 -10 -36 -10 -21 0 -33 4 -29 10 3 6 19 10 36 10 16 0 29 -4 29 -10z m3765 0 c4 -6 -7 -10 -24 -10 -17 0 -31 5 -31 10 0 6 11 10 24 10 14 0 28 -4 31 -10z m-3715 -59 c0 -13 -26 -21 -63 -20 l-32 0 35 13 c43 17 60 19 60 7z m3655 -6 l40 -14 -32 -1 c-37 0 -63 8 -63 21 0 12 8 11 55 -6z m-2617 -212 c-10 -2 -26 -2 -35 0 -10 3 -2 5 17 5 19 0 27 -2 18 -5z m1570 0 c-10 -2 -26 -2 -35 0 -10 3 -2 5 17 5 19 0 27 -2 18 -5z"/>
<path d="M3205 6867 c-79 -19 -173 -81 -233 -156 -77 -96 -110 -167 -150 -320 l-35 -136 0 -235 c-1 -232 -1 -236 31 -360 38 -149 71 -226 131 -300 24 -30 48 -65 54 -77 5 -12 23 -27 39 -32 16 -6 49 -24 73 -40 96 -65 282 -65 388 0 28 17 60 35 73 40 13 4 24 13 24 19 0 6 21 37 47 68 49 60 92 147 111 222 58 227 56 212 56 470 0 245 0 245 -33 375 -19 72 -48 157 -65 190 -111 217 -304 319 -511 272z"/>
</g>
<g id="layer103" fill="#1f99c6" stroke="none">
<path d="M5583 11993 c-18 -2 -33 -8 -33 -12 0 -10 177 -1 205 10 21 8 -110 9 -172 2z"/>
<path d="M6240 11991 c21 -12 260 -24 260 -13 0 10 -128 22 -220 22 -35 -1 -50 -4 -40 -9z"/>
<path d="M5445 11983 c-71 -8 -95 -15 -95 -25 0 -7 16 -8 48 -4 90 13 112 18 112 27 0 9 -8 9 -65 2z"/>
<path d="M6516 11971 c13 -12 124 -23 124 -12 0 9 -57 21 -104 21 -18 0 -26 -4 -20 -9z"/>
<path d="M5250 11960 c-11 -7 0 -10 38 -10 33 0 51 4 47 10 -8 13 -65 13 -85 0z"/>
<path d="M6675 11960 c3 -5 24 -10 46 -10 24 0 38 4 34 10 -3 6 -24 10 -46 10 -24 0 -38 -4 -34 -10z"/>
<path d="M5513 11945 c0 -8 9 -15 20 -15 10 0 17 5 15 13 -7 18 -35 20 -35 2z"/>
<path d="M5098 11943 c-16 -2 -28 -9 -28 -15 0 -11 75 -2 100 13 16 9 -19 10 -72 2z"/>
<path d="M6830 11942 c23 -15 100 -24 100 -12 0 5 -8 10 -17 10 -10 0 -36 3 -58 6 -27 3 -35 2 -25 -4z"/>
<path d="M4975 11919 c-101 -19 -201 -47 -169 -48 45 -1 138 18 142 29 2 6 18 10 35 11 37 1 95 17 62 17 -11 0 -42 -4 -70 -9z"/>
<path d="M6960 11920 c14 -4 40 -8 58 -9 17 -1 32 -5 32 -10 0 -12 90 -31 138 -30 29 1 16 6 -55 24 -94 23 -222 42 -173 25z"/>
<path d="M5180 11900 c0 -5 16 -10 35 -10 19 0 35 5 35 10 0 6 -16 10 -35 10 -19 0 -35 -4 -35 -10z"/>
<path d="M6750 11900 c0 -5 16 -10 35 -10 19 0 35 5 35 10 0 6 -16 10 -35 10 -19 0 -35 -4 -35 -10z"/>
<path d="M4710 11860 c-14 -4 -42 -8 -62 -9 -21 -1 -38 -6 -38 -11 0 -7 14 -9 38 -5 55 10 112 25 112 30 0 7 -20 5 -50 -5z"/>
<path d="M7240 11867 c0 -4 17 -10 38 -16 68 -17 112 -22 112 -13 0 5 -24 12 -52 15 -29 4 -63 9 -75 13 -13 3 -23 4 -23 1z"/>
<path d="M4550 11830 c0 -5 7 -10 15 -10 8 0 15 5 15 10 0 6 -7 10 -15 10 -8 0 -15 -4 -15 -10z"/>
<path d="M7420 11830 c0 -5 7 -10 15 -10 8 0 15 5 15 10 0 6 -7 10 -15 10 -8 0 -15 -4 -15 -10z"/>
<path d="M4483 11817 c-18 -6 -33 -15 -33 -19 0 -14 37 -9 50 7 7 8 16 13 20 10 5 -3 11 -1 15 5 7 12 -8 11 -52 -3z"/>
<path d="M7464 11821 c5 -7 10 -10 13 -7 3 3 15 -1 27 -9 23 -17 46 -20 46 -6 0 5 -10 11 -22 14 -13 3 -34 9 -47 13 -18 5 -22 4 -17 -5z"/>
<path d="M7651 11763 c6 -7 16 -13 21 -13 6 0 25 -7 43 -16 18 -8 46 -14 61 -12 22 2 10 9 -54 29 -52 16 -78 21 -71 12z"/>
<path d="M4305 11760 c-16 -4 -48 -15 -70 -23 l-40 -16 35 0 c19 0 44 6 54 14 11 8 28 15 38 15 10 0 18 5 18 10 0 6 -1 10 -2 9 -2 -1 -16 -5 -33 -9z"/>
<path d="M4395 11730 c3 -5 17 -10 31 -10 13 0 24 5 24 10 0 6 -14 10 -31 10 -17 0 -28 -4 -24 -10z"/>
<path d="M7555 11730 c3 -5 17 -10 31 -10 13 0 24 5 24 10 0 6 -14 10 -31 10 -17 0 -28 -4 -24 -10z"/>
<path d="M4155 11710 c-11 -5 -32 -9 -47 -9 -16 -1 -28 -5 -28 -11 0 -12 -2 -12 39 0 22 6 40 6 53 -1 23 -13 31 -8 22 15 -7 18 -10 18 -39 6z"/>
<path d="M7806 11705 c-9 -25 -8 -27 17 -19 28 9 36 9 70 0 15 -3 27 -2 27 3 0 4 -18 11 -39 15 -22 3 -46 8 -54 12 -8 3 -17 -2 -21 -11z"/>
<path d="M3980 11658 c-115 -42 -186 -71 -222 -89 -21 -11 -45 -19 -54 -19 -19 0 -133 -52 -134 -60 0 -13 49 -4 67 13 11 9 32 17 46 17 15 0 27 4 27 8 0 5 18 15 40 22 22 7 40 16 40 20 0 4 27 14 60 23 33 10 60 21 60 25 0 4 8 8 19 9 55 4 124 34 110 47 -2 2 -29 -5 -59 -16z"/>
<path d="M7960 11672 c0 -14 61 -41 98 -44 35 -2 38 -8 20 -26 -9 -9 -8 -12 5 -12 9 0 17 4 17 9 0 11 70 -10 127 -38 23 -12 47 -21 53 -21 5 0 10 -4 10 -10 0 -5 13 -10 28 -10 16 0 37 -9 47 -20 10 -12 25 -18 33 -15 7 3 56 -16 108 -41 53 -25 97 -44 100 -42 7 7 -264 138 -299 145 -18 3 -50 15 -71 25 -21 11 -57 27 -80 35 -98 36 -162 61 -178 68 -10 4 -18 3 -18 -3z"/>
<path d="M4090 11641 c0 -5 5 -11 12 -13 19 -7 58 3 52 13 -7 12 -64 12 -64 0z"/>
<path d="M7845 11640 c-4 -6 8 -10 29 -10 20 0 36 5 36 10 0 6 -13 10 -29 10 -17 0 -33 -4 -36 -10z"/>
<path d="M3472 11447 c-46 -23 -78 -43 -73 -45 8 -3 112 47 160 76 2 1 2 4 0 7 -3 2 -42 -15 -87 -38z"/>
<path d="M3260 11346 c-52 -28 -111 -61 -130 -74 -57 -36 -19 -25 44 13 32 19 63 35 68 35 6 0 22 6 36 14 15 7 40 18 57 22 16 5 31 17 33 27 5 23 1 22 -108 -37z"/>
<path d="M8630 11380 c6 -11 23 -22 38 -26 25 -5 44 -13 112 -43 14 -7 43 -23 65 -36 52 -32 68 -32 21 0 -41 28 -226 125 -239 125 -4 0 -3 -9 3 -20z"/>
<path d="M3000 11207 c-36 -24 -84 -54 -108 -67 -24 -14 -39 -26 -33 -28 5 -2 27 7 48 20 21 13 60 35 86 48 60 32 108 69 87 70 -8 0 -44 -19 -80 -43z"/>
<path d="M8915 11240 c3 -5 36 -26 73 -46 37 -20 84 -47 104 -60 21 -13 43 -24 50 -24 7 0 -3 10 -22 22 -19 12 -68 43 -109 70 -69 45 -110 61 -96 38z"/>
<path d="M2775 11070 c-22 -16 -47 -33 -55 -37 -8 -4 -19 -12 -25 -19 -5 -7 -36 -29 -68 -48 -32 -19 -53 -37 -47 -41 5 -3 10 -1 10 4 0 6 5 11 11 11 7 0 36 16 65 35 29 19 59 35 68 35 8 0 17 9 21 19 7 22 39 36 69 32 12 -2 16 1 11 9 -4 7 -1 16 6 21 11 7 9 9 -6 9 -11 -1 -38 -14 -60 -30z"/>
<path d="M9162 11075 c-1 -21 1 -24 14 -17 24 13 51 4 69 -24 8 -13 20 -24 26 -24 6 0 30 -13 54 -29 24 -16 53 -32 64 -36 12 -3 21 -11 21 -16 0 -5 7 -9 15 -9 8 0 15 -9 15 -21 0 -11 4 -17 10 -14 11 7 43 -10 71 -37 8 -7 30 -24 49 -37 19 -14 39 -30 43 -38 4 -7 14 -13 21 -13 7 0 21 -9 31 -20 10 -11 24 -20 32 -20 7 0 13 -5 13 -10 0 -15 50 -60 66 -60 23 0 -58 72 -181 160 -64 47 -127 94 -138 104 -12 11 -41 30 -66 43 -26 12 -57 33 -72 45 -14 13 -32 28 -41 33 -8 6 -34 22 -56 38 -51 33 -57 34 -60 2z"/>
<path d="M2540 10913 c-19 -20 -241 -184 -257 -190 -15 -6 -67 -73 -56 -73 4 0 30 20 57 45 27 25 61 52 77 61 16 8 29 18 29 22 0 4 17 18 38 32 20 14 39 27 42 30 23 25 66 49 80 45 14 -4 16 -1 12 20 -2 14 -5 25 -6 24 0 0 -8 -8 -16 -16z"/>
<path d="M2575 10810 c-4 -6 5 -10 19 -10 14 0 26 5 26 10 0 6 -9 10 -19 10 -11 0 -23 -4 -26 -10z"/>
<path d="M9380 10810 c0 -5 12 -10 28 -10 21 0 24 2 12 10 -20 13 -40 13 -40 0z"/>
<path d="M2160 10624 c-17 -15 -29 -29 -26 -31 7 -7 54 26 60 43 8 20 2 18 -34 -12z"/>
<path d="M9800 10641 c0 -5 15 -20 33 -32 17 -13 43 -34 57 -48 47 -48 75 -66 35 -22 -85 92 -125 125 -125 102z"/>
<path d="M2075 10538 c-22 -23 -29 -34 -15 -23 36 28 70 65 62 65 -5 0 -26 -19 -47 -42z"/>
<path d="M1988 10472 c-15 -15 -35 -36 -45 -47 -10 -11 -47 -44 -81 -74 -60 -52 -73 -71 -52 -71 10 0 220 206 220 215 0 12 -17 3 -42 -23z"/>
<path d="M9970 10495 c0 -9 100 -105 109 -105 5 0 11 -9 14 -20 3 -11 12 -20 20 -20 9 0 19 -9 22 -20 8 -24 52 -56 63 -46 4 4 -9 22 -29 39 -50 45 -119 110 -154 146 -28 29 -45 38 -45 26z"/>
<path d="M1752 10244 c-18 -19 -29 -34 -24 -34 10 0 67 58 61 63 -2 2 -19 -11 -37 -29z"/>
<path d="M10210 10272 c0 -10 58 -67 63 -61 2 2 -11 19 -29 37 -19 18 -34 29 -34 24z"/>
<path d="M1639 10128 c-35 -40 -81 -88 -101 -106 -38 -34 -47 -52 -28 -52 6 0 10 6 10 13 0 6 14 18 30 25 17 8 30 19 30 26 0 14 94 106 108 106 8 0 32 42 32 55 0 17 -25 -4 -81 -67z"/>
<path d="M10280 10195 c0 -20 28 -57 47 -61 13 -4 23 -12 23 -18 0 -7 11 -18 25 -24 14 -6 25 -16 25 -22 0 -17 52 -70 68 -70 9 0 -11 27 -45 63 -34 34 -75 79 -93 100 -28 32 -50 47 -50 32z"/>
<path d="M1449 9915 c-48 -51 -57 -65 -40 -65 6 0 11 5 11 10 0 6 18 28 41 51 22 22 39 43 36 45 -3 3 -24 -16 -48 -41z"/>
<path d="M10522 9930 c12 -16 26 -30 30 -30 5 0 14 -11 20 -25 6 -14 16 -25 22 -25 6 0 16 -10 21 -22 10 -22 41 -40 34 -20 -4 12 -138 152 -145 152 -3 0 5 -13 18 -30z"/>
<path d="M1366 9831 c-11 -12 -16 -24 -12 -28 9 -9 39 22 34 37 -2 7 -10 4 -22 -9z"/>
<path d="M10650 9776 c0 -15 37 -56 50 -56 5 0 12 -9 15 -21 7 -21 19 -38 61 -82 11 -12 29 -35 40 -52 10 -16 24 -34 31 -38 7 -4 13 -13 13 -19 0 -5 14 -27 30 -48 17 -21 30 -43 30 -49 0 -6 4 -11 9 -11 10 0 32 -35 52 -82 6 -16 17 -28 25 -28 8 0 14 -8 14 -18 0 -10 11 -29 25 -42 14 -13 25 -29 25 -36 0 -6 7 -17 15 -24 11 -9 15 -9 15 -1 0 15 -23 51 -78 125 -25 32 -54 75 -66 96 -11 20 -41 64 -66 96 -47 61 -49 63 -119 165 -47 68 -121 145 -121 125z"/>
<path d="M1309 9747 c-19 -18 -54 -61 -79 -97 -71 -100 -141 -194 -149 -200 -4 -3 -20 -29 -36 -58 -16 -29 -38 -63 -50 -76 -39 -43 -96 -137 -93 -154 2 -12 8 -7 20 19 9 19 26 43 38 54 11 10 20 26 20 37 0 10 6 18 14 18 8 0 19 12 26 28 16 39 50 99 50 89 0 -5 27 32 61 82 33 50 71 101 85 113 13 13 24 28 24 34 0 6 9 19 20 29 11 10 20 24 20 32 0 7 10 18 23 24 22 10 52 47 44 55 -2 2 -19 -11 -38 -29z"/>
<path d="M10800 9401 c0 -12 5 -21 10 -21 6 0 10 6 10 14 0 8 -4 18 -10 21 -5 3 -10 -3 -10 -14z"/>
<path d="M848 9085 c-20 -36 -33 -65 -29 -65 8 0 73 121 68 126 -2 2 -20 -25 -39 -61z"/>
<path d="M11110 9148 c0 -3 16 -35 35 -70 19 -34 41 -76 50 -93 23 -44 44 -69 51 -62 4 4 -16 41 -43 84 -28 43 -60 94 -71 113 -12 19 -22 32 -22 28z"/>
<path d="M776 8973 c-16 -23 -26 -48 -24 -55 3 -7 16 5 32 29 16 23 26 48 24 55 -3 7 -16 -5 -32 -29z"/>
<path d="M710 8841 c-20 -31 -44 -76 -55 -101 -10 -25 -27 -57 -37 -72 -21 -31 -22 -38 -5 -38 12 0 52 78 68 137 5 17 16 34 24 37 8 3 15 12 15 21 0 9 7 27 16 41 9 13 15 26 13 28 -2 2 -20 -22 -39 -53z"/>
<path d="M11250 8894 c0 -6 7 -19 15 -30 8 -10 15 -26 15 -34 0 -9 9 -23 20 -33 11 -9 20 -26 20 -36 0 -11 4 -22 9 -26 5 -3 12 -18 16 -33 7 -34 41 -79 51 -69 4 4 -1 20 -12 35 -11 15 -28 47 -39 72 -21 50 -95 170 -95 154z"/>
<path d="M835 8860 c-3 -5 3 -10 15 -10 12 0 18 5 15 10 -3 6 -10 10 -15 10 -5 0 -12 -4 -15 -10z"/>
<path d="M547 8518 c-26 -56 -45 -103 -43 -106 3 -2 17 22 31 54 14 33 35 76 46 97 11 20 19 42 17 47 -2 5 -24 -37 -51 -92z"/>
<path d="M11400 8610 c0 -8 8 -28 18 -45 10 -16 27 -51 37 -77 10 -27 21 -48 26 -48 10 0 8 5 -41 105 -21 44 -39 73 -40 65z"/>
<path d="M700 8595 c0 -8 5 -15 10 -15 6 0 10 7 10 15 0 8 -4 15 -10 15 -5 0 -10 -7 -10 -15z"/>
<path d="M11280 8595 c0 -8 5 -15 10 -15 6 0 10 7 10 15 0 8 -4 15 -10 15 -5 0 -10 -7 -10 -15z"/>
<path d="M477 8370 c-19 -32 -31 -94 -17 -85 5 3 11 18 15 34 3 16 13 35 21 42 15 12 19 39 6 39 -4 0 -16 -13 -25 -30z"/>
<path d="M11490 8389 c0 -6 9 -22 20 -36 11 -14 20 -34 20 -44 0 -10 5 -21 10 -24 17 -10 11 26 -11 72 -20 40 -39 56 -39 32z"/>
<path d="M477 8273 c-12 -11 -8 -23 8 -23 8 0 15 7 15 15 0 16 -12 20 -23 8z"/>
<path d="M11500 8266 c0 -9 7 -16 16 -16 17 0 14 22 -4 28 -7 2 -12 -3 -12 -12z"/>
<path d="M426 8229 c-10 -24 -29 -66 -41 -94 -13 -27 -26 -61 -30 -75 -4 -14 -15 -47 -25 -75 -11 -27 -31 -93 -46 -145 -15 -52 -35 -119 -46 -149 -16 -45 -16 -52 -3 -41 8 7 15 18 15 25 0 8 5 15 11 17 6 2 12 24 14 48 3 52 33 149 52 168 7 7 13 24 13 37 0 12 7 36 15 51 8 16 15 40 15 52 0 13 6 36 14 50 30 56 68 151 64 163 -2 6 -12 -8 -22 -32z"/>
<path d="M11551 8257 c-1 -10 7 -32 16 -50 28 -52 43 -102 33 -105 -6 -2 -10 -11 -10 -20 1 -15 2 -15 11 1 13 22 29 22 29 0 0 -9 3 -14 6 -10 6 5 -14 52 -66 162 -11 23 -19 32 -19 22z"/>
<path d="M11640 8013 c0 -14 19 -38 25 -32 8 8 -5 39 -16 39 -5 0 -9 -3 -9 -7z"/>
<path d="M11660 7947 c0 -13 9 -34 20 -47 23 -27 27 -12 9 39 -13 37 -29 41 -29 8z"/>
<path d="M11728 7755 c3 -33 9 -61 14 -63 4 -2 8 -10 8 -18 0 -8 5 -14 10 -14 12 0 14 -8 -14 80 l-24 75 6 -60z"/>
<path d="M258 7586 c-3 -14 -2 -26 3 -26 14 0 20 20 11 36 -8 14 -10 12 -14 -10z"/>
<path d="M11731 7588 c-1 -16 4 -28 9 -28 12 0 12 8 0 35 -8 18 -9 17 -9 -7z"/>
<path d="M11820 7430 c0 -11 5 -20 10 -20 6 0 10 9 10 20 0 11 -4 20 -10 20 -5 0 -10 -9 -10 -20z"/>
<path d="M160 7425 c0 -8 5 -15 10 -15 6 0 10 7 10 15 0 8 -4 15 -10 15 -5 0 -10 -7 -10 -15z"/>
<path d="M11836 7363 c10 -40 14 -41 14 -5 0 18 -5 32 -10 32 -6 0 -8 -11 -4 -27z"/>
<path d="M141 7296 c-7 -32 -11 -60 -8 -62 7 -7 30 93 25 107 -2 7 -10 -14 -17 -45z"/>
<path d="M11846 7295 c13 -54 25 -73 18 -30 -3 22 -10 45 -15 50 -7 7 -8 0 -3 -20z"/>
<path d="M111 7158 c-7 -35 -15 -73 -18 -85 -6 -26 12 -31 21 -7 8 20 20 154 14 154 -2 0 -10 -28 -17 -62z"/>
<path d="M11876 7150 c3 -47 10 -80 19 -90 13 -13 15 -12 14 5 0 11 -9 52 -20 90 l-18 70 5 -75z"/>
<path d="M68 6950 c-20 -108 -23 -153 -9 -131 5 8 9 33 9 56 0 23 6 60 12 81 7 22 10 51 8 64 -1 14 -11 -18 -20 -70z"/>
<path d="M11910 7009 c0 -19 5 -41 10 -49 7 -10 8 -1 4 30 -8 56 -14 64 -14 19z"/>
<path d="M11890 6925 c0 -15 4 -24 10 -20 6 3 10 12 10 20 0 8 -4 17 -10 20 -6 4 -10 -5 -10 -20z"/>
<path d="M11928 6888 c2 -29 9 -57 14 -63 7 -7 9 5 4 39 -3 27 -6 55 -6 62 0 8 -3 14 -7 14 -5 0 -6 -24 -5 -52z"/>
<path d="M10576 6906 c60 -27 128 -86 152 -130 27 -50 52 -119 52 -143 0 -13 5 -23 10 -23 27 0 -8 115 -56 180 -50 69 -88 101 -146 122 -70 24 -74 22 -12 -6z"/>
<path d="M11955 6718 c-4 -10 -4 -26 0 -35 8 -17 8 -17 12 0 3 9 3 25 0 35 -4 16 -4 16 -12 0z"/>
<path d="M30 6690 c0 -11 5 -20 10 -20 6 0 10 9 10 20 0 11 -4 20 -10 20 -5 0 -10 -9 -10 -20z"/>
<path d="M26 6609 c-9 -46 -7 -81 3 -74 8 5 14 105 6 105 -1 0 -5 -14 -9 -31z"/>
<path d="M11961 6593 c-1 -28 4 -55 9 -58 12 -8 12 61 0 90 -6 15 -9 6 -9 -32z"/>
<path d="M10 6499 c0 -11 4 -17 10 -14 13 8 13 35 0 35 -5 0 -10 -9 -10 -21z"/>
<path d="M11970 6506 c0 -8 5 -18 10 -21 6 -3 10 3 10 14 0 12 -4 21 -10 21 -5 0 -10 -6 -10 -14z"/>
<path d="M48 6488 c-7 -17 8 -46 18 -35 4 4 3 17 -3 29 -7 17 -11 19 -15 6z"/>
<path d="M11935 6481 c-8 -26 1 -39 16 -24 8 8 8 17 1 29 -9 16 -10 15 -17 -5z"/>
<path d="M11977 6447 c-3 -8 -1 -20 4 -28 6 -10 9 -7 9 14 0 29 -5 35 -13 14z"/>
<path d="M11980 6323 c0 -43 5 -85 10 -93 7 -10 10 14 10 78 0 55 -4 92 -10 92 -6 0 -10 -32 -10 -77z"/>
<path d="M0 6303 c0 -61 3 -83 10 -73 13 20 13 160 0 160 -6 0 -10 -36 -10 -87z"/>
<path d="M8794 6239 c-87 -45 -243 -152 -292 -200 -61 -58 -113 -131 -160 -219 -43 -81 -59 -130 -42 -130 5 0 10 6 10 14 0 45 137 275 179 300 8 5 38 32 66 60 28 28 68 60 90 71 22 11 54 30 70 41 17 12 53 33 82 48 28 14 54 30 58 36 9 15 2 13 -61 -21z"/>
<path d="M11987 5762 c-9 -24 -12 -210 -4 -219 8 -8 19 117 15 182 -2 46 -5 55 -11 37z"/>
<path d="M0 5691 c0 -47 4 -81 10 -81 6 0 10 31 10 74 0 41 -4 78 -10 81 -6 4 -10 -23 -10 -74z"/>
<path d="M3724 5503 c-16 -37 -28 -71 -26 -75 1 -5 -3 -8 -9 -8 -5 0 -8 -4 -5 -9 4 -5 3 -11 -2 -13 -4 -1 -29 -31 -56 -66 -46 -58 -112 -109 -175 -134 -15 -6 -21 -12 -13 -15 6 -3 35 10 63 27 29 17 62 36 75 41 13 4 24 13 24 19 0 6 21 37 47 68 45 55 93 148 107 205 11 45 0 31 -30 -40z"/>
<path d="M46 5542 c-3 -5 -2 -19 1 -31 4 -17 8 -19 14 -9 12 18 11 48 0 48 -6 0 -12 -4 -15 -8z"/>
<path d="M11930 5533 c0 -10 4 -24 9 -31 6 -10 10 -8 14 9 3 12 4 26 1 31 -9 14 -24 9 -24 -9z"/>
<path d="M10 5501 c0 -12 5 -21 10 -21 6 0 10 6 10 14 0 8 -4 18 -10 21 -5 3 -10 -3 -10 -14z"/>
<path d="M11975 5507 c-4 -10 -5 -21 -1 -24 10 -10 18 4 13 24 -4 17 -4 17 -12 0z"/>
<path d="M23 5410 c4 -35 7 -83 7 -106 0 -24 4 -44 10 -44 10 0 11 117 1 135 -3 5 -4 22 -2 37 1 14 -3 29 -10 34 -9 5 -11 -7 -6 -56z"/>
<path d="M11967 5455 c-14 -45 -18 -93 -9 -99 12 -7 27 69 20 100 -4 18 -5 18 -11 -1z"/>
<path d="M11956 5324 c-9 -25 -7 -64 4 -64 6 0 10 18 10 40 0 43 -4 50 -14 24z"/>
<path d="M4700 5243 c0 -4 27 -52 60 -107 46 -78 83 -124 163 -202 57 -56 122 -111 145 -123 44 -22 60 -21 18 1 -13 7 -76 62 -139 121 -102 96 -122 120 -173 212 -51 92 -74 122 -74 98z"/>
<path d="M54 5129 c4 -30 14 -79 21 -109 14 -54 15 -54 10 -10 -3 25 -8 71 -11 103 -4 31 -11 60 -17 64 -6 4 -7 -13 -3 -48z"/>
<path d="M11936 5169 c-8 -23 -12 -109 -5 -109 9 0 22 110 15 117 -3 3 -8 0 -10 -8z"/>
<path d="M11890 5080 c0 -18 4 -29 10 -25 6 3 10 15 10 25 0 10 -4 22 -10 25 -6 4 -10 -7 -10 -25z"/>
<path d="M11916 5035 c-3 -9 -6 -31 -5 -48 1 -28 2 -26 10 12 9 46 6 65 -5 36z"/>
<path d="M90 4943 c0 -4 9 -44 19 -88 16 -66 19 -73 19 -40 1 64 -12 128 -25 133 -7 2 -13 0 -13 -5z"/>
<path d="M11892 4937 c-11 -13 -30 -167 -19 -157 7 7 39 162 34 167 -2 2 -9 -3 -15 -10z"/>
<path d="M3864 4859 c-16 -18 -48 -40 -71 -51 -24 -10 -43 -23 -43 -29 0 -19 97 40 124 75 33 44 29 46 -10 5z"/>
<path d="M131 4765 c0 -5 4 -30 10 -55 6 -25 11 -57 11 -72 0 -16 4 -28 10 -28 6 0 7 15 3 42 -8 46 -33 129 -34 113z"/>
<path d="M11851 4723 c0 -6 -4 -20 -7 -30 -5 -14 -4 -15 5 -7 7 7 11 20 8 30 -3 11 -5 14 -6 7z"/>
<path d="M11837 4635 c-5 -22 -10 -48 -13 -57 -3 -10 -1 -18 5 -18 12 0 24 58 19 91 -3 19 -5 15 -11 -16z"/>
<path d="M197 4630 c3 -11 9 -20 14 -20 5 0 9 9 9 20 0 11 -6 20 -14 20 -9 0 -12 -7 -9 -20z"/>
<path d="M220 4521 c0 -11 5 -23 10 -26 6 -4 10 5 10 19 0 14 -4 26 -10 26 -5 0 -10 -9 -10 -19z"/>
<path d="M11815 4521 c-3 -6 -3 -11 2 -11 4 0 1 -5 -7 -10 -10 -7 -11 -10 -2 -10 7 0 15 7 19 15 7 19 -2 31 -12 16z"/>
<path d="M188 4475 c2 -14 9 -25 14 -25 6 0 7 7 4 16 -3 9 -6 20 -6 25 0 5 -4 9 -9 9 -4 0 -6 -11 -3 -25z"/>
<path d="M11724 4425 c-6 -24 0 -44 10 -34 11 11 17 59 7 59 -6 0 -13 -11 -17 -25z"/>
<path d="M260 4416 c0 -14 5 -26 10 -26 6 0 10 9 10 19 0 11 -4 23 -10 26 -6 4 -10 -5 -10 -19z"/>
<path d="M11790 4430 c-1 -3 -3 -16 -6 -30 -3 -21 -2 -22 7 -7 6 10 8 23 5 30 -2 7 -5 10 -6 7z"/>
<path d="M224 4355 c12 -31 24 -70 61 -195 44 -148 74 -239 90 -270 18 -35 70 -167 84 -215 15 -47 38 -82 48 -71 4 4 -1 22 -10 41 -24 50 -42 90 -73 170 -15 39 -34 79 -41 90 -7 11 -13 31 -13 45 0 14 -7 38 -15 54 -8 15 -15 41 -15 57 0 15 -6 32 -13 36 -18 11 -47 106 -50 163 -1 25 -5 50 -10 55 -4 6 -17 21 -29 35 -17 20 -20 21 -14 5z"/>
<path d="M11740 4323 c-8 -10 -15 -35 -14 -55 0 -39 14 -68 14 -31 0 11 7 37 15 56 8 20 15 39 15 42 0 11 -16 4 -30 -12z"/>
<path d="M11712 4183 c-6 -15 -14 -39 -18 -53 -4 -14 -11 -28 -17 -32 -6 -3 -12 -19 -13 -35 -1 -15 -9 -45 -18 -65 -18 -42 -20 -58 -7 -58 5 0 11 10 14 23 3 12 14 47 25 77 27 74 52 163 48 167 -2 2 -8 -9 -14 -24z"/>
<path d="M11626 3922 c-4 -7 -4 -12 0 -12 4 0 1 -6 -8 -12 -9 -7 -30 -51 -47 -96 -18 -46 -36 -91 -40 -100 -36 -70 -44 -92 -38 -98 11 -11 35 25 48 71 14 50 78 206 91 222 5 7 8 18 6 25 -3 9 -6 9 -12 0z"/>
<path d="M550 3685 c0 -8 5 -15 10 -15 6 0 10 7 10 15 0 8 -4 15 -10 15 -5 0 -10 -7 -10 -15z"/>
<path d="M11430 3680 c0 -11 5 -20 10 -20 6 0 10 9 10 20 0 11 -4 20 -10 20 -5 0 -10 -9 -10 -20z"/>
<path d="M500 3585 c0 -2 23 -51 50 -107 28 -56 50 -97 50 -89 0 7 -9 30 -19 50 -11 20 -31 62 -45 94 -21 49 -36 70 -36 52z"/>
<path d="M11483 3568 c-5 -7 -17 -31 -28 -53 -10 -22 -26 -56 -37 -76 -10 -20 -18 -43 -17 -50 0 -14 32 46 74 139 24 51 26 64 8 40z"/>
<path d="M700 3405 c0 -8 5 -15 10 -15 6 0 10 7 10 15 0 8 -4 15 -10 15 -5 0 -10 -7 -10 -15z"/>
<path d="M11280 3405 c0 -8 5 -15 10 -15 6 0 10 7 10 15 0 8 -4 15 -10 15 -5 0 -10 -7 -10 -15z"/>
<path d="M600 3362 c0 -4 7 -18 16 -30 8 -12 33 -57 55 -100 21 -42 48 -88 59 -102 19 -23 19 -22 -2 20 -12 25 -28 51 -35 58 -7 7 -13 19 -13 27 0 25 -55 135 -67 135 -7 0 -13 -3 -13 -8z"/>
<path d="M11368 3348 c-24 -43 -48 -100 -48 -113 0 -8 -6 -20 -13 -27 -14 -14 -57 -94 -57 -105 0 -13 76 113 95 157 11 25 27 56 37 69 10 13 18 28 18 32 0 17 -19 9 -32 -13z"/>
<path d="M750 3072 c0 -4 12 -25 27 -47 32 -47 44 -30 13 20 -20 32 -40 46 -40 27z"/>
<path d="M11212 3048 c-11 -18 -23 -43 -27 -55 -3 -13 -11 -23 -16 -23 -5 0 -9 -6 -9 -14 0 -7 -11 -30 -25 -50 -14 -20 -25 -42 -25 -49 0 -7 10 4 22 23 12 19 41 66 65 103 24 37 46 74 50 82 10 28 -15 15 -35 -17z"/>
<path d="M848 2915 c19 -36 37 -63 40 -61 6 6 -59 126 -68 126 -5 0 8 -29 28 -65z"/>
<path d="M11078 2819 c-9 -19 -26 -43 -38 -54 -11 -10 -20 -26 -20 -37 0 -10 -6 -18 -13 -18 -7 0 -18 -12 -25 -27 -23 -52 -43 -83 -53 -83 -5 0 -9 -5 -9 -11 0 -5 -14 -28 -31 -49 -17 -21 -29 -44 -27 -52 3 -8 12 -1 23 17 10 17 24 35 30 40 6 6 26 37 45 69 18 33 41 67 49 75 33 33 92 132 89 149 -2 12 -8 7 -20 -19z"/>
<path d="M900 2828 c0 -7 14 -30 65 -106 6 -8 19 -25 31 -38 11 -12 33 -47 49 -76 16 -29 32 -56 37 -59 4 -3 19 -20 33 -39 14 -19 25 -28 25 -21 0 7 -13 30 -30 51 -16 21 -30 43 -30 49 0 6 -4 11 -8 11 -5 0 -14 10 -21 23 -6 12 -20 36 -31 52 -11 17 -24 40 -29 51 -5 12 -21 34 -36 48 -17 17 -24 33 -21 44 4 13 1 18 -14 18 -11 0 -20 -4 -20 -8z"/>
<path d="M10800 2606 c0 -8 5 -18 10 -21 6 -3 10 3 10 14 0 12 -4 21 -10 21 -5 0 -10 -6 -10 -14z"/>
<path d="M1150 2465 c0 -12 33 -55 41 -55 5 0 3 14 -6 30 -13 26 -35 41 -35 25z"/>
<path d="M10822 2443 c-23 -31 -57 -72 -84 -103 -10 -11 -18 -27 -18 -35 0 -8 -10 -20 -22 -26 -13 -7 -27 -18 -31 -26 -5 -7 -12 -11 -18 -8 -5 3 -6 -1 -3 -9 5 -14 9 -13 30 2 28 20 179 221 171 228 -2 3 -14 -8 -25 -23z"/>
<path d="M1200 2395 c0 -12 101 -141 124 -157 21 -15 25 -16 30 -2 3 8 2 12 -3 9 -6 -3 -13 1 -18 8 -4 8 -18 19 -30 26 -13 6 -23 16 -23 21 0 14 -49 84 -66 93 -8 4 -14 5 -14 2z"/>
<path d="M10623 2193 c-7 -2 -13 -10 -13 -17 0 -6 -8 -19 -17 -27 -18 -16 -37 -38 -78 -88 -32 -41 2 -13 53 42 26 28 55 58 65 66 27 24 22 37 -10 24z"/>
<path d="M1360 2185 c0 -4 32 -38 72 -78 64 -65 78 -70 21 -7 -49 53 -62 73 -57 81 3 5 -4 9 -15 9 -12 0 -21 -2 -21 -5z"/>
<path d="M1500 2023 c0 -4 31 -39 69 -77 38 -39 85 -89 104 -111 19 -22 38 -37 42 -34 8 9 -16 59 -29 59 -5 0 -47 38 -92 85 -79 81 -94 94 -94 78z"/>
<path d="M10476 2014 c-3 -9 -12 -14 -18 -12 -7 3 -17 -3 -23 -12 -5 -9 -19 -30 -30 -48 -11 -18 -28 -35 -37 -38 -10 -3 -18 -11 -18 -19 0 -7 -10 -15 -23 -19 -23 -5 -53 -53 -42 -65 4 -3 22 12 42 34 19 22 66 72 104 111 38 39 69 73 69 77 0 14 -18 7 -24 -9z"/>
<path d="M10235 1760 c-16 -16 -27 -31 -24 -33 2 -2 19 11 37 29 18 19 29 34 24 34 -4 0 -21 -13 -37 -30z"/>
<path d="M1800 1714 c0 -3 28 -31 62 -62 34 -32 82 -78 107 -104 24 -27 49 -48 55 -48 6 0 43 -32 82 -71 40 -39 78 -69 85 -67 8 3 1 12 -18 26 -16 11 -56 46 -89 76 -32 31 -65 56 -71 56 -7 0 -13 4 -13 10 0 13 -177 190 -190 190 -5 0 -10 -3 -10 -6z"/>
<path d="M10134 1674 c-24 -26 -44 -50 -44 -55 0 -5 -8 -9 -17 -9 -10 0 -28 -16 -40 -35 -33 -49 -28 -56 10 -15 18 19 60 59 95 89 34 30 62 58 62 63 0 19 -24 5 -66 -38z"/>
<path d="M9962 1528 c3 -17 -74 -97 -134 -139 -27 -20 -37 -39 -20 -39 5 0 40 32 78 71 38 39 80 75 94 81 19 8 21 12 10 16 -8 3 -19 10 -23 16 -5 7 -7 5 -5 -6z"/>
<path d="M2242 1321 c13 -17 86 -76 163 -131 77 -56 143 -107 147 -114 5 -7 8 -5 8 6 0 9 3 24 7 33 5 15 3 16 -14 7 -15 -8 -26 -7 -48 8 -16 10 -32 26 -37 34 -5 9 -15 16 -22 16 -7 0 -26 13 -42 30 -16 16 -34 30 -40 30 -6 0 -19 9 -29 20 -10 11 -24 20 -32 20 -7 0 -13 4 -13 9 0 11 -50 61 -62 61 -5 0 1 -13 14 -29z"/>
<path d="M9736 1324 c-14 -15 -26 -31 -26 -35 0 -5 -6 -9 -13 -9 -8 0 -22 -9 -32 -20 -10 -11 -22 -20 -27 -20 -5 0 -23 -13 -40 -30 -16 -16 -36 -30 -44 -30 -8 0 -14 -4 -14 -10 0 -15 -77 -63 -89 -55 -7 3 -11 -2 -11 -14 0 -12 -7 -21 -15 -21 -8 0 -15 -4 -15 -8 0 -4 -12 -13 -27 -20 -76 -34 -184 -114 -171 -127 3 -3 19 6 36 20 16 14 35 25 41 25 6 0 11 4 11 8 0 12 87 71 116 78 14 4 28 12 30 18 3 7 29 30 60 52 172 122 231 169 252 195 29 36 14 38 -22 3z"/>
<path d="M2580 1190 c20 -13 40 -13 40 0 0 6 -12 10 -27 10 -22 0 -25 -2 -13 -10z"/>
<path d="M9380 1190 c0 -13 20 -13 40 0 12 8 9 10 -12 10 -16 0 -28 -4 -28 -10z"/>
<path d="M2575 1071 c-3 -5 4 -13 16 -16 27 -9 109 -66 109 -77 0 -4 6 -8 14 -8 7 0 19 -7 27 -16 17 -20 87 -56 101 -52 6 2 -4 12 -23 21 -19 9 -49 30 -67 47 -19 17 -48 37 -65 45 -18 8 -49 26 -69 40 -20 13 -40 21 -43 16z"/>
<path d="M9165 914 c-20 -15 -20 -16 4 -12 14 2 26 9 29 16 5 16 -9 15 -33 -4z"/>
<path d="M2865 881 c3 -5 31 -23 62 -40 42 -23 51 -26 38 -11 -10 11 -23 20 -29 20 -6 0 -22 9 -36 20 -26 21 -45 26 -35 11z"/>
<path d="M9116 881 c-3 -5 -20 -16 -38 -25 -46 -23 -72 -39 -80 -50 -3 -5 -14 -11 -23 -12 -26 -4 -71 -37 -57 -42 7 -2 52 21 100 52 108 69 130 85 115 86 -6 0 -14 -4 -17 -9z"/>
<path d="M2991 813 c-1 -15 68 -63 89 -63 21 1 -40 50 -62 50 -9 0 -19 6 -21 13 -4 9 -6 9 -6 0z"/>
<path d="M3135 725 c60 -41 158 -88 153 -73 -3 7 -18 18 -34 23 -16 6 -54 25 -84 43 -66 38 -88 42 -35 7z"/>
<path d="M8830 718 c-30 -18 -68 -37 -84 -43 -16 -5 -31 -16 -34 -23 -5 -15 93 32 153 73 53 35 31 31 -35 -7z"/>
<path d="M3300 640 c0 -11 52 -40 72 -40 9 0 8 4 -2 13 -22 20 -70 38 -70 27z"/>
<path d="M8663 634 c-33 -14 -52 -34 -33 -34 18 0 70 30 70 40 0 6 -1 10 -2 9 -2 0 -17 -7 -35 -15z"/>
<path d="M3418 583 c17 -9 32 -20 32 -25 0 -4 7 -8 16 -8 9 0 28 -7 42 -14 64 -35 181 -86 197 -86 9 0 29 -7 43 -15 47 -25 152 -63 152 -54 0 12 -29 25 -72 33 -21 4 -38 11 -38 16 0 5 -18 15 -40 21 -22 7 -40 16 -40 21 0 4 -13 8 -30 8 -16 0 -33 7 -38 16 -5 9 -20 18 -33 19 -31 4 -125 41 -165 66 -17 10 -38 19 -45 18 -8 0 1 -8 19 -16z"/>
<path d="M3600 590 c0 -13 11 -13 30 0 12 8 11 10 -7 10 -13 0 -23 -4 -23 -10z"/>
<path d="M8551 578 c-20 -13 -29 -24 -21 -26 7 -3 15 0 19 5 3 6 20 17 36 26 17 9 23 16 15 16 -8 1 -30 -9 -49 -21z"/>
<path d="M8455 534 c-22 -9 -51 -17 -64 -19 -13 -1 -28 -10 -33 -19 -5 -9 -22 -16 -38 -16 -17 0 -30 -4 -30 -9 0 -5 -13 -12 -29 -16 -16 -3 -35 -13 -42 -21 -6 -8 -22 -14 -36 -14 -27 0 -83 -26 -83 -39 0 -9 105 29 153 55 15 9 41 17 58 19 17 2 45 13 62 23 18 10 48 25 67 32 38 15 81 40 65 39 -6 0 -28 -7 -50 -15z"/>
<path d="M4103 373 c-24 -9 -13 -23 16 -23 34 0 49 15 25 24 -18 7 -23 7 -41 -1z"/>
<path d="M7852 373 c-21 -8 -3 -23 29 -23 31 0 39 14 13 24 -18 7 -23 7 -42 -1z"/>
<path d="M3930 360 c8 -5 24 -10 35 -10 17 0 17 2 5 10 -8 5 -24 10 -35 10 -17 0 -17 -2 -5 -10z"/>
<path d="M8030 360 c-12 -8 -12 -10 5 -10 11 0 27 5 35 10 12 8 12 10 -5 10 -11 0 -27 -5 -35 -10z"/>
<path d="M3992 349 c2 -7 10 -15 17 -17 8 -3 12 1 9 9 -2 7 -10 15 -17 17 -8 3 -12 -1 -9 -9z"/>
<path d="M7990 350 c-8 -5 -11 -12 -7 -16 4 -4 13 -2 19 4 15 15 7 24 -12 12z"/>
<path d="M4083 314 c7 -7 41 -18 117 -39 21 -5 22 -4 8 5 -10 6 -15 17 -11 26 5 13 2 15 -18 9 -30 -10 -37 -10 -74 -1 -17 4 -26 4 -22 0z"/>
<path d="M7804 303 c3 -7 -3 -17 -12 -23 -18 -12 -14 -11 75 14 60 17 59 21 -8 21 -44 1 -58 -3 -55 -12z"/>
<path d="M4230 272 c0 -5 18 -14 41 -21 23 -7 47 -15 55 -18 30 -11 12 14 -21 30 -38 18 -75 22 -75 9z"/>
<path d="M4350 270 c0 -5 9 -10 20 -10 11 0 20 5 20 10 0 6 -9 10 -20 10 -11 0 -20 -4 -20 -10z"/>
<path d="M4513 273 c9 -2 25 -2 35 0 9 3 1 5 -18 5 -19 0 -27 -2 -17 -5z"/>
<path d="M7453 273 c9 -2 25 -2 35 0 9 3 1 5 -18 5 -19 0 -27 -2 -17 -5z"/>
<path d="M7610 271 c0 -6 9 -9 20 -8 11 1 20 5 20 9 0 4 -9 8 -20 8 -11 0 -20 -4 -20 -9z"/>
<path d="M7693 261 c-32 -16 -47 -39 -19 -28 8 3 32 11 55 18 23 7 41 16 41 21 0 13 -42 7 -77 -11z"/>
<path d="M7565 215 c-5 -2 -22 -6 -37 -9 -16 -4 -28 -10 -28 -15 0 -8 109 15 119 25 5 5 -39 4 -54 -1z"/>
<path d="M4460 201 c0 -5 9 -11 20 -14 24 -6 27 8 4 17 -21 8 -24 8 -24 -3z"/>
<path d="M4620 160 c0 -6 3 -9 8 -6 4 2 34 -2 67 -9 65 -16 90 -12 29 4 -82 20 -104 23 -104 11z"/>
<path d="M7313 159 c-41 -8 -89 -28 -68 -29 6 0 34 7 63 14 30 8 60 12 68 9 8 -3 14 0 14 6 0 12 -16 13 -77 0z"/>
<path d="M4777 129 c12 -11 352 -79 393 -79 13 1 13 2 0 10 -16 9 -139 31 -175 31 -11 0 -34 6 -51 14 -32 15 -180 37 -167 24z"/>
<path d="M7095 118 c-22 -6 -42 -14 -45 -18 -3 -4 -49 -13 -104 -19 -54 -6 -106 -16 -115 -21 -13 -8 -14 -9 -1 -10 33 0 380 68 389 76 9 8 -85 2 -124 -8z"/>
<path d="M5180 100 c0 -5 16 -10 35 -10 19 0 35 5 35 10 0 6 -16 10 -35 10 -19 0 -35 -4 -35 -10z"/>
<path d="M6750 100 c0 -5 16 -10 35 -10 19 0 35 5 35 10 0 6 -16 10 -35 10 -19 0 -35 -4 -35 -10z"/>
<path d="M5513 58 c2 -7 10 -13 17 -13 7 0 15 6 18 13 2 7 -5 12 -18 12 -13 0 -20 -5 -17 -12z"/>
<path d="M6452 58 c5 -15 28 -18 29 -3 0 6 -7 12 -17 13 -10 3 -15 -1 -12 -10z"/>
<path d="M5290 40 c0 -5 17 -10 38 -10 20 0 61 -3 90 -6 38 -5 52 -3 52 6 0 8 -12 11 -35 8 -19 -2 -35 0 -35 4 0 4 -25 8 -55 8 -30 0 -55 -4 -55 -10z"/>
<path d="M6600 41 c0 -4 -16 -5 -35 -3 -23 3 -35 0 -35 -8 0 -9 14 -11 53 -6 28 3 69 6 90 6 20 0 37 4 37 9 0 5 -25 10 -55 10 -30 0 -55 -4 -55 -8z"/>
<path d="M5480 20 c0 -5 7 -10 15 -10 8 0 15 5 15 10 0 6 -7 10 -15 10 -8 0 -15 -4 -15 -10z"/>
<path d="M5550 20 c0 -5 12 -10 26 -10 14 0 23 4 19 10 -3 6 -15 10 -26 10 -10 0 -19 -4 -19 -10z"/>
<path d="M6405 20 c-4 -6 5 -10 19 -10 14 0 26 5 26 10 0 6 -9 10 -19 10 -11 0 -23 -4 -26 -10z"/>
<path d="M6490 20 c0 -5 7 -10 15 -10 8 0 15 5 15 10 0 6 -7 10 -15 10 -8 0 -15 -4 -15 -10z"/>
<path d="M5620 10 c0 -6 32 -10 78 -10 53 0 72 3 62 10 -20 13 -140 13 -140 0z"/>
<path d="M6240 10 c-10 -7 9 -10 63 -10 45 0 77 4 77 10 0 13 -120 13 -140 0z"/>
</g>
<g id="layer104" fill="#6ab7ab" stroke="none">
<path d="M1120 7380 c0 -5 23 -10 50 -10 28 0 50 5 50 10 0 6 -22 10 -50 10 -27 0 -50 -4 -50 -10z"/>
<path d="M1320 7380 c0 -5 20 -10 45 -10 25 0 45 5 45 10 0 6 -20 10 -45 10 -25 0 -45 -4 -45 -10z"/>
<path d="M3230 7380 c0 -5 14 -10 30 -10 17 0 30 5 30 10 0 6 -13 10 -30 10 -16 0 -30 -4 -30 -10z"/>
<path d="M3300 7380 c0 -5 11 -10 25 -10 14 0 25 5 25 10 0 6 -11 10 -25 10 -14 0 -25 -4 -25 -10z"/>
<path d="M5465 7380 c-4 -6 7 -10 24 -10 17 0 31 5 31 10 0 6 -11 10 -24 10 -14 0 -28 -4 -31 -10z"/>
<path d="M5550 7380 c0 -5 23 -10 50 -10 28 0 50 5 50 10 0 6 -22 10 -50 10 -27 0 -50 -4 -50 -10z"/>
<path d="M8710 7380 c0 -5 23 -10 50 -10 28 0 50 5 50 10 0 6 -22 10 -50 10 -27 0 -50 -4 -50 -10z"/>
<path d="M8900 7380 c0 -5 23 -10 50 -10 28 0 50 5 50 10 0 6 -22 10 -50 10 -27 0 -50 -4 -50 -10z"/>
<path d="M10350 7380 c0 -5 23 -10 50 -10 28 0 50 5 50 10 0 6 -22 10 -50 10 -27 0 -50 -4 -50 -10z"/>
<path d="M10490 7380 c0 -5 14 -10 31 -10 17 0 28 4 24 10 -3 6 -17 10 -31 10 -13 0 -24 -4 -24 -10z"/>
<path d="M1050 7370 c0 -5 11 -10 25 -10 14 0 25 5 25 10 0 6 -11 10 -25 10 -14 0 -25 -4 -25 -10z"/>
<path d="M1430 7370 c0 -5 14 -10 30 -10 17 0 30 5 30 10 0 6 -13 10 -30 10 -16 0 -30 -4 -30 -10z"/>
<path d="M3170 7370 c0 -5 11 -10 25 -10 14 0 25 5 25 10 0 6 -11 10 -25 10 -14 0 -25 -4 -25 -10z"/>
<path d="M3360 7370 c0 -5 11 -10 25 -10 14 0 25 5 25 10 0 6 -11 10 -25 10 -14 0 -25 -4 -25 -10z"/>
<path d="M5390 7370 c0 -5 14 -10 30 -10 17 0 30 5 30 10 0 6 -13 10 -30 10 -16 0 -30 -4 -30 -10z"/>
<path d="M5690 7370 c0 -5 10 -10 23 -10 12 0 47 -2 77 -5 l55 -5 -50 15 c-58 17 -105 19 -105 5z"/>
<path d="M8630 7370 c0 -5 16 -10 35 -10 19 0 35 5 35 10 0 6 -16 10 -35 10 -19 0 -35 -4 -35 -10z"/>
<path d="M9010 7370 c0 -5 14 -10 30 -10 17 0 30 5 30 10 0 6 -13 10 -30 10 -16 0 -30 -4 -30 -10z"/>
<path d="M10270 7370 c0 -5 11 -10 25 -10 14 0 25 5 25 10 0 6 -11 10 -25 10 -14 0 -25 -4 -25 -10z"/>
<path d="M10560 7370 c0 -5 14 -10 30 -10 17 0 30 5 30 10 0 6 -13 10 -30 10 -16 0 -30 -4 -30 -10z"/>
<path d="M975 7360 c-27 -7 -25 -8 18 -9 26 0 47 4 47 9 0 11 -21 11 -65 0z"/>
<path d="M1500 7360 c0 -5 17 -10 38 -9 33 1 34 2 12 9 -36 11 -50 11 -50 0z"/>
<path d="M3100 7360 c0 -5 11 -10 25 -10 14 0 25 5 25 10 0 6 -11 10 -25 10 -14 0 -25 -4 -25 -10z"/>
<path d="M3430 7360 c0 -6 23 -9 53 -9 44 1 48 2 22 9 -44 11 -75 11 -75 0z"/>
<path d="M5320 7360 c0 -5 14 -10 30 -10 17 0 30 5 30 10 0 6 -13 10 -30 10 -16 0 -30 -4 -30 -10z"/>
<path d="M8580 7360 c0 -5 9 -10 20 -10 11 0 20 5 20 10 0 6 -9 10 -20 10 -11 0 -20 -4 -20 -10z"/>
<path d="M9080 7360 c0 -5 7 -10 15 -10 8 0 15 5 15 10 0 6 -7 10 -15 10 -8 0 -15 -4 -15 -10z"/>
<path d="M10220 7360 c0 -5 9 -10 20 -10 11 0 20 5 20 10 0 6 -9 10 -20 10 -11 0 -20 -4 -20 -10z"/>
<path d="M10640 7360 c0 -5 17 -10 38 -10 58 -1 199 -75 290 -153 63 -54 90 -87 140 -170 33 -56 75 -144 93 -195 32 -93 51 -124 25 -41 -7 24 -21 70 -30 102 -22 72 -107 205 -178 275 -77 78 -133 122 -158 127 -12 2 -27 8 -34 13 -19 15 -145 62 -166 62 -11 0 -20 -4 -20 -10z"/>
<path d="M8475 7337 c-38 -11 -73 -26 -77 -31 -4 -6 -8 -7 -8 -3 0 5 -27 -6 -60 -25 l-60 -33 0 -302 c0 -167 1 -303 3 -303 1 0 29 28 62 61 61 62 42 67 -23 6 l-32 -31 2 279 3 280 70 37 c39 21 104 49 145 62 92 30 72 33 -25 3z"/>
<path d="M9197 7331 c96 -33 220 -113 278 -179 86 -98 108 -138 142 -249 10 -35 21 -63 25 -63 12 0 10 11 -11 73 -23 66 -91 197 -103 197 -4 0 -8 6 -8 14 0 18 -142 141 -195 168 -47 25 -172 68 -194 68 -9 0 21 -13 66 -29z"/>
<path d="M10142 7345 c-60 -19 -75 -25 -71 -29 2 -2 36 6 74 19 73 25 71 33 -3 10z"/>
<path d="M3626 7307 c43 -23 104 -56 134 -72 30 -17 77 -51 104 -78 27 -26 50 -46 52 -44 2 1 -20 28 -49 58 -41 43 -80 69 -174 117 -137 70 -189 85 -67 19z"/>
<path d="M5168 7322 c-32 -15 -58 -30 -58 -34 0 -5 26 5 58 20 31 16 64 32 72 35 13 5 13 5 0 5 -8 0 -41 -12 -72 -26z"/>
<path d="M5865 7340 c11 -5 29 -8 40 -8 16 0 15 2 -5 8 -34 11 -60 11 -35 0z"/>
<path d="M6693 7343 l227 -3 0 -650 c0 -592 1 -650 16 -650 11 0 15 6 11 20 -3 11 -1 18 4 14 5 -3 9 -1 9 5 0 5 3 18 6 28 5 17 4 16 -10 -1 -14 -18 -16 35 -18 610 l-3 629 -235 0 -235 1 228 -3z"/>
<path d="M7582 7338 c-7 -7 -12 -19 -11 -27 0 -12 4 -10 16 7 15 22 17 22 289 22 151 0 274 -3 274 -7 0 -3 -12 -26 -26 -50 -14 -24 -24 -49 -21 -56 2 -6 19 15 39 48 19 33 33 63 31 68 -7 13 -577 9 -591 -5z"/>
<path d="M833 7318 c-35 -11 -63 -24 -63 -30 0 -6 7 -7 18 -3 9 4 40 16 67 27 87 34 74 38 -22 6z"/>
<path d="M1610 7338 c10 -11 140 -67 140 -60 0 4 -24 17 -53 29 -64 28 -94 38 -87 31z"/>
<path d="M2938 7313 c-32 -15 -58 -30 -58 -35 0 -4 27 5 60 22 33 17 60 32 60 35 0 3 -1 5 -2 4 -2 0 -29 -12 -60 -26z"/>
<path d="M6000 7303 c0 -7 22 -24 50 -38 54 -27 60 -29 60 -17 0 10 -82 49 -89 44 -2 -2 -8 2 -12 10 -6 9 -9 10 -9 1z"/>
<path d="M10010 7293 c-11 -8 -20 -11 -20 -8 0 4 -7 0 -15 -9 -13 -12 -15 -55 -15 -255 0 -132 4 -242 8 -245 10 -6 181 95 182 107 0 15 -20 6 -82 -36 -35 -24 -69 -46 -75 -51 -10 -6 -13 43 -13 233 l0 239 35 12 c19 6 37 15 39 19 8 13 -23 8 -44 -6z"/>
<path d="M729 7273 c-51 -36 -49 -24 -49 -332 0 -159 4 -292 9 -295 5 -3 27 14 50 39 23 25 44 45 47 45 5 0 85 58 114 82 8 7 15 12 15 10 0 -3 116 48 124 54 2 2 2 7 -1 10 -18 17 -227 -110 -300 -183 l-38 -37 0 286 c0 273 1 287 19 293 21 6 47 33 39 40 -2 3 -15 -3 -29 -12z"/>
<path d="M5041 7263 c-48 -26 -266 -221 -257 -230 6 -6 50 31 130 110 39 38 94 81 127 98 33 16 59 34 59 39 0 14 -1 14 -59 -17z"/>
<path d="M1760 7274 c0 -5 17 -23 37 -39 74 -60 143 -128 149 -148 4 -12 15 -33 26 -47 30 -41 78 -169 94 -250 19 -99 18 -287 -2 -391 -14 -75 -47 -157 -111 -274 -9 -16 -45 -58 -80 -93 -36 -35 -62 -66 -59 -70 9 -8 80 62 133 133 46 60 99 155 87 155 -4 0 -1 7 6 15 7 8 9 15 4 15 -5 0 -4 4 3 8 22 14 45 180 44 322 -1 227 -42 367 -151 515 -22 30 -66 73 -98 96 -31 23 -63 46 -69 52 -7 5 -13 5 -13 1z"/>
<path d="M2840 7262 c0 -7 -3 -11 -7 -11 -26 4 -46 -11 -141 -103 -95 -93 -167 -184 -174 -219 -2 -8 -7 -17 -13 -21 -6 -5 -6 -8 2 -8 16 0 43 40 43 64 0 10 34 53 78 96 42 42 87 91 100 108 13 17 43 40 66 51 44 19 63 37 52 48 -3 4 -6 1 -6 -5z"/>
<path d="M7530 7230 c-11 -22 -18 -40 -15 -40 2 0 14 18 25 40 11 22 18 40 15 40 -2 0 -14 -18 -25 -40z"/>
<path d="M8083 7198 c-25 -33 -73 -128 -65 -128 6 0 26 32 46 70 34 67 39 84 19 58z"/>
<path d="M7462 7106 c-19 -35 -25 -56 -18 -56 14 0 63 97 54 106 -3 3 -19 -20 -36 -50z"/>
<path d="M3940 7074 c0 -4 20 -24 44 -45 24 -21 49 -53 56 -71 16 -39 98 -186 117 -209 16 -19 43 -105 43 -136 0 -13 5 -23 10 -23 14 0 13 7 -13 87 -31 92 -140 292 -195 354 -40 44 -62 60 -62 43z"/>
<path d="M7992 7047 c-6 -7 -25 -42 -42 -77 -30 -64 -99 -183 -132 -230 -10 -13 -18 -31 -18 -40 0 -8 -16 -40 -36 -70 -20 -30 -61 -102 -92 -160 -31 -58 -71 -129 -89 -158 -19 -30 -59 -102 -90 -160 -31 -59 -67 -123 -79 -142 -13 -19 -24 -42 -24 -50 0 -9 21 -49 46 -90 25 -41 56 -98 69 -126 21 -47 41 -72 50 -62 4 4 -87 165 -104 184 -5 7 -7 15 -4 18 4 3 2 6 -4 6 -11 0 -33 65 -31 93 1 9 5 17 9 17 4 0 19 24 34 53 15 28 48 88 74 132 25 43 45 83 44 87 -2 4 2 8 8 8 5 0 8 4 5 9 -4 5 -3 11 2 13 10 4 162 271 162 285 0 6 4 13 8 15 10 4 85 138 77 138 -3 0 2 9 12 19 10 11 32 46 48 77 17 32 47 87 68 121 20 35 38 69 40 76 1 7 7 15 12 19 6 5 6 8 -1 8 -6 0 -16 -6 -22 -13z"/>
<path d="M4757 6993 c-6 -16 -14 -30 -18 -33 -11 -9 -41 -72 -36 -76 6 -6 19 12 56 79 18 31 28 57 22 57 -7 0 -17 -12 -24 -27z"/>
<path d="M7385 6950 c-14 -27 -23 -50 -20 -50 2 0 16 23 30 50 14 28 23 50 20 50 -2 0 -16 -22 -30 -50z"/>
<path d="M10395 6940 c3 -5 12 -10 20 -10 8 0 17 5 20 10 4 6 -5 10 -20 10 -15 0 -24 -4 -20 -10z"/>
<path d="M10323 6933 c9 -2 25 -2 35 0 9 3 1 5 -18 5 -19 0 -27 -2 -17 -5z"/>
<path d="M10450 6936 c0 -2 16 -6 35 -8 19 -2 35 0 35 4 0 4 -16 8 -35 8 -19 0 -35 -2 -35 -4z"/>
<path d="M10210 6912 c-52 -19 -55 -21 -49 -26 2 -2 36 6 74 20 39 13 59 23 45 23 -14 -1 -45 -9 -70 -17z"/>
<path d="M10576 6906 c60 -27 128 -86 152 -130 27 -50 52 -119 52 -143 0 -13 5 -23 10 -23 29 0 -9 117 -61 187 -45 60 -87 93 -147 116 -62 24 -65 20 -6 -7z"/>
<path d="M1183 6913 c15 -2 37 -2 50 0 12 2 0 4 -28 4 -27 0 -38 -2 -22 -4z"/>
<path d="M8753 6913 c15 -2 37 -2 50 0 12 2 0 4 -28 4 -27 0 -38 -2 -22 -4z"/>
<path d="M8888 6913 c12 -2 30 -2 40 0 9 3 -1 5 -23 4 -22 0 -30 -2 -17 -4z"/>
<path d="M8970 6901 c48 -16 93 -43 136 -83 28 -26 44 -35 44 -25 0 17 -56 69 -98 91 -15 8 -46 17 -67 20 -29 4 -33 4 -15 -3z"/>
<path d="M1050 6890 c0 -6 11 -8 28 -4 39 10 40 14 4 14 -18 0 -32 -5 -32 -10z"/>
<path d="M1431 6885 c14 -8 32 -15 40 -17 18 -4 87 -77 95 -100 3 -10 9 -18 14 -18 5 0 7 -7 4 -15 -4 -8 -1 -15 5 -15 18 0 13 23 -17 66 -38 58 -108 114 -140 114 l-27 -1 26 -14z"/>
<path d="M8591 6886 c-19 -7 -37 -18 -39 -26 -3 -9 1 -11 14 -6 11 5 31 13 47 18 15 5 27 14 27 19 0 11 -6 11 -49 -5z"/>
<path d="M2471 6854 c-12 -20 -28 -53 -36 -73 -14 -35 -14 -35 3 -12 34 49 72 121 63 121 -5 0 -19 -16 -30 -36z"/>
<path d="M5580 6880 c-28 -5 -31 -8 -17 -14 20 -10 67 0 67 14 0 6 -3 9 -7 9 -5 -1 -24 -5 -43 -9z"/>
<path d="M7323 6833 c-15 -32 -31 -61 -37 -65 -7 -5 -7 -8 -1 -8 6 0 3 -5 -5 -10 -8 -5 -10 -10 -3 -10 12 0 66 91 75 128 10 39 -2 24 -29 -35z"/>
<path d="M3250 6870 c0 -5 9 -10 20 -10 11 0 20 5 20 10 0 6 -9 10 -20 10 -11 0 -20 -4 -20 -10z"/>
<path d="M3320 6870 c0 -5 9 -10 20 -10 11 0 20 5 20 10 0 6 -9 10 -20 10 -11 0 -20 -4 -20 -10z"/>
<path d="M5655 6870 c3 -5 17 -10 31 -10 13 0 24 5 24 10 0 6 -14 10 -31 10 -17 0 -28 -4 -24 -10z"/>
<path d="M3175 6862 c-60 -20 -154 -90 -205 -154 -57 -71 -68 -88 -53 -88 5 0 17 13 26 29 22 38 116 141 128 141 5 0 26 11 47 25 20 13 56 27 80 31 23 4 42 10 42 15 0 10 -35 10 -65 1z"/>
<path d="M3380 6860 c0 -5 9 -10 20 -10 11 0 20 5 20 10 0 6 -9 10 -20 10 -11 0 -20 -4 -20 -10z"/>
<path d="M4676 6848 c-22 -36 -56 -102 -56 -110 0 -5 5 -8 10 -8 6 0 10 6 10 14 0 7 14 39 30 70 30 55 34 77 6 34z"/>
<path d="M5490 6860 c0 -5 11 -10 25 -10 14 0 25 5 25 10 0 6 -11 10 -25 10 -14 0 -25 -4 -25 -10z"/>
<path d="M5733 6864 c3 -3 20 -9 39 -13 18 -5 43 -11 56 -15 35 -11 26 11 -9 23 -33 12 -97 15 -86 5z"/>
<path d="M5356 6815 c-76 -41 -217 -167 -203 -181 3 -3 34 24 68 60 45 49 82 77 141 106 43 22 87 40 98 40 11 0 20 5 20 10 0 20 -47 7 -124 -35z"/>
<path d="M8470 6821 c-35 -21 -66 -44 -68 -51 -3 -8 8 -4 23 8 16 13 48 31 72 42 24 10 43 24 43 29 0 15 1 15 -70 -28z"/>
<path d="M3461 6841 c3 -7 27 -24 54 -39 53 -29 111 -86 147 -144 22 -36 38 -48 38 -29 0 11 -108 143 -129 157 -51 34 -113 66 -110 55z"/>
<path d="M5860 6832 c0 -5 26 -16 58 -26 31 -10 63 -23 70 -28 7 -6 12 -7 12 -1 0 12 -30 28 -89 48 -51 17 -51 18 -51 7z"/>
<path d="M9645 6783 c7 -49 11 -60 20 -51 9 8 -7 98 -17 98 -6 0 -8 -18 -3 -47z"/>
<path d="M6029 6751 c40 -31 81 -53 81 -43 0 14 -20 28 -65 46 -40 16 -40 16 -16 -3z"/>
<path d="M9166 6725 c8 -37 14 -45 14 -19 0 10 -5 26 -10 34 -8 11 -9 7 -4 -15z"/>
<path d="M7228 6655 c-20 -42 -33 -73 -27 -70 13 9 81 145 72 145 -5 0 -25 -34 -45 -75z"/>
<path d="M11243 6685 c0 -27 2 -38 4 -22 2 15 2 37 0 50 -2 12 -4 0 -4 -28z"/>
<path d="M4610 6705 c0 -8 5 -15 10 -15 6 0 10 7 10 15 0 8 -4 15 -10 15 -5 0 -10 -7 -10 -15z"/>
<path d="M1590 6655 c0 -30 5 -55 10 -55 6 0 10 25 10 55 0 30 -4 55 -10 55 -5 0 -10 -25 -10 -55z"/>
<path d="M9660 6592 c0 -66 4 -101 10 -97 13 8 13 165 0 185 -7 10 -10 -18 -10 -88z"/>
<path d="M2387 6656 c-4 -15 -6 -31 -2 -34 10 -10 16 6 13 35 l-3 28 -8 -29z"/>
<path d="M9179 6678 c-5 -17 -4 -50 3 -54 4 -3 8 9 8 25 0 17 -2 31 -5 31 -3 0 -5 -1 -6 -2z"/>
<path d="M4588 6625 c-6 -28 6 -34 16 -9 8 22 7 34 -3 34 -5 0 -11 -11 -13 -25z"/>
<path d="M11253 6590 c0 -25 2 -35 4 -22 2 12 2 32 0 45 -2 12 -4 2 -4 -23z"/>
<path d="M5132 6608 c-13 -17 -66 -136 -54 -123 19 21 64 105 55 105 -4 0 -1 4 7 10 8 5 12 12 9 15 -4 3 -11 0 -17 -7z"/>
<path d="M2875 6560 c-14 -27 -25 -57 -25 -67 1 -17 46 60 52 88 2 8 8 17 13 21 6 5 5 8 -2 8 -7 0 -24 -22 -38 -50z"/>
<path d="M3722 6543 c17 -38 33 -70 36 -73 11 -12 -12 69 -29 103 -34 65 -39 40 -7 -30z"/>
<path d="M9171 6595 c-4 -70 -88 -173 -209 -256 -77 -52 -121 -88 -70 -56 15 9 33 17 40 17 15 0 89 59 163 129 36 35 55 64 69 103 10 31 16 62 13 69 -3 9 -6 7 -6 -6z"/>
<path d="M10792 6562 c-1 -24 -12 -87 -23 -140 l-21 -97 -72 -67 c-39 -38 -77 -68 -83 -68 -7 0 -13 -4 -13 -10 0 -20 37 -9 61 18 14 15 48 48 76 73 48 43 52 49 67 126 10 45 15 110 13 145 -2 45 -4 51 -5 20z"/>
<path d="M4215 6553 c8 -31 13 -39 20 -31 9 9 -6 58 -17 58 -6 0 -7 -11 -3 -27z"/>
<path d="M1559 6518 c-17 -42 -58 -87 -126 -139 -57 -45 -74 -74 -20 -38 64 44 177 172 177 202 0 19 -19 4 -31 -25z"/>
<path d="M2346 6524 c-6 -24 -2 -43 8 -33 11 10 17 59 8 59 -5 0 -13 -12 -16 -26z"/>
<path d="M11250 6480 c0 -38 4 -59 10 -55 6 3 10 28 10 55 0 27 -4 52 -10 55 -6 4 -10 -17 -10 -55z"/>
<path d="M7145 6500 c-9 -16 -12 -30 -8 -30 5 0 1 -5 -7 -10 -10 -6 -11 -10 -3 -10 7 0 22 18 33 40 11 22 16 40 10 40 -5 0 -16 -13 -25 -30z"/>
<path d="M4233 6493 c3 -10 11 -39 18 -65 7 -27 17 -48 21 -48 11 0 11 1 -9 70 -9 33 -21 60 -26 60 -5 0 -7 -8 -4 -17z"/>
<path d="M2333 6466 c3 -8 1 -17 -6 -19 -7 -2 -8 -8 -4 -13 4 -5 12 -2 17 6 13 20 12 40 -1 40 -6 0 -9 -6 -6 -14z"/>
<path d="M4549 6479 c-6 -32 -9 -46 -13 -65 -4 -13 -2 -25 3 -28 8 -5 23 85 15 93 -2 2 -4 2 -5 0z"/>
<path d="M2830 6420 c-7 -28 -10 -53 -8 -55 3 -3 10 18 16 47 7 28 11 53 8 55 -2 2 -9 -19 -16 -47z"/>
<path d="M5047 6410 c-20 -69 -21 -78 -8 -64 9 8 14 27 27 97 9 48 -2 29 -19 -33z"/>
<path d="M9650 6445 c0 -14 5 -25 10 -25 6 0 10 11 10 25 0 14 -4 25 -10 25 -5 0 -10 -11 -10 -25z"/>
<path d="M3764 6435 c4 -14 9 -45 13 -70 3 -25 10 -48 16 -52 6 -4 8 3 4 18 -3 13 -11 48 -17 77 -7 28 -14 52 -17 52 -3 0 -2 -11 1 -25z"/>
<path d="M7076 6363 c-21 -43 -33 -73 -28 -68 19 18 84 145 75 145 -5 0 -26 -35 -47 -77z"/>
<path d="M9636 6378 c-6 -28 -2 -48 8 -37 10 11 17 69 8 69 -5 0 -12 -14 -16 -32z"/>
<path d="M2316 6384 c-9 -24 -7 -62 4 -69 6 -4 10 12 10 39 0 48 -4 56 -14 30z"/>
<path d="M11253 6360 c0 -25 2 -35 4 -22 2 12 2 32 0 45 -2 12 -4 2 -4 -23z"/>
<path d="M4270 6318 c0 -27 5 -48 10 -48 13 0 13 60 0 80 -7 11 -10 2 -10 -32z"/>
<path d="M4533 6305 c0 -27 2 -38 4 -22 2 15 2 37 0 50 -2 12 -4 0 -4 -28z"/>
<path d="M1290 6284 c-41 -23 -80 -47 -86 -53 -7 -5 -15 -7 -18 -4 -3 4 -6 1 -6 -5 0 -7 -3 -11 -8 -9 -7 2 -112 -62 -112 -69 0 -8 51 17 135 68 50 31 109 65 133 77 23 12 42 26 42 31 0 6 -1 10 -2 9 -2 -1 -37 -21 -78 -45z"/>
<path d="M5016 6308 c-9 -36 -7 -60 5 -52 6 3 9 15 6 25 -3 10 -1 22 4 25 12 7 12 24 0 24 -5 0 -11 -10 -15 -22z"/>
<path d="M9611 6288 c-22 -73 -39 -106 -92 -174 -28 -36 -48 -68 -45 -71 8 -8 36 17 36 32 0 7 7 15 15 18 14 6 115 201 115 224 0 28 -18 10 -29 -29z"/>
<path d="M2793 6273 c-4 -21 -8 -139 -7 -263 0 -219 1 -228 32 -350 38 -149 71 -226 131 -300 24 -30 48 -65 54 -77 5 -12 23 -27 39 -32 16 -6 50 -24 75 -41 25 -17 53 -29 62 -27 12 3 8 7 -12 15 -156 64 -288 251 -337 477 -27 128 -40 324 -30 470 5 66 7 121 5 124 -3 2 0 12 6 22 6 13 6 19 0 19 -6 0 -14 -17 -18 -37z"/>
<path d="M3795 6288 c-3 -7 -1 -26 4 -43 9 -29 9 -29 10 13 1 41 -5 54 -14 30z"/>
<path d="M11238 6265 c-3 -22 -9 -49 -12 -60 -4 -11 1 -5 9 14 9 18 15 45 13 60 -3 21 -5 18 -10 -14z"/>
<path d="M2306 6274 c-10 -25 -7 -74 4 -74 6 0 10 20 10 45 0 47 -4 55 -14 29z"/>
<path d="M7001 6220 c-18 -33 -29 -60 -25 -60 3 0 1 -7 -6 -15 -7 -8 -8 -15 -3 -15 5 0 25 34 46 75 44 89 34 101 -12 15z"/>
<path d="M8794 6239 c-87 -45 -243 -152 -292 -200 -61 -58 -113 -131 -160 -219 -43 -81 -59 -130 -42 -130 5 0 10 6 10 14 0 45 138 276 180 300 8 5 33 28 55 52 38 41 158 120 257 170 26 13 49 28 53 34 9 15 2 13 -61 -21z"/>
<path d="M4281 6201 c-1 -42 2 -52 11 -43 8 8 8 23 1 54 l-11 43 -1 -54z"/>
<path d="M4523 6190 c0 -25 2 -35 4 -22 2 12 2 32 0 45 -2 12 -4 2 -4 -23z"/>
<path d="M5000 6175 c0 -25 5 -45 10 -45 6 0 10 20 10 45 0 25 -4 45 -10 45 -5 0 -10 -20 -10 -45z"/>
<path d="M3801 6153 c1 -21 5 -49 9 -63 6 -19 8 -9 9 38 1 35 -3 62 -9 62 -5 0 -10 -17 -9 -37z"/>
<path d="M2296 6142 c-4 -24 -5 -46 -2 -49 12 -12 17 6 14 48 l-3 44 -9 -43z"/>
<path d="M10000 6170 c0 -5 7 -10 15 -10 8 0 15 5 15 10 0 6 -7 10 -15 10 -8 0 -15 -4 -15 -10z"/>
<path d="M10530 6170 c0 -5 9 -10 20 -10 11 0 20 5 20 10 0 6 -9 10 -20 10 -11 0 -20 -4 -20 -10z"/>
<path d="M10040 6160 c0 -5 14 -10 31 -10 17 0 28 4 24 10 -3 6 -17 10 -31 10 -13 0 -24 -4 -24 -10z"/>
<path d="M10480 6160 c0 -5 9 -10 20 -10 11 0 20 5 20 10 0 6 -9 10 -20 10 -11 0 -20 -4 -20 -10z"/>
<path d="M10128 6153 c12 -2 30 -2 40 0 9 3 -1 5 -23 4 -22 0 -30 -2 -17 -4z"/>
<path d="M10000 6075 c0 -43 4 -75 10 -75 6 0 10 32 10 75 0 43 -4 75 -10 75 -6 0 -10 -32 -10 -75z"/>
<path d="M10233 6143 c20 -2 54 -2 75 0 20 2 3 4 -38 4 -41 0 -58 -2 -37 -4z"/>
<path d="M11190 6108 c-7 -24 -29 -68 -50 -98 -21 -30 -41 -65 -44 -77 -4 -11 -32 -40 -64 -64 -66 -49 -106 -88 -99 -95 2 -3 37 23 76 57 71 61 136 141 124 153 -4 3 -1 6 4 6 13 0 61 83 67 116 3 13 7 28 11 34 3 5 2 10 -3 10 -5 0 -15 -19 -22 -42z"/>
<path d="M1025 6124 c-11 -7 -38 -29 -60 -48 -22 -19 -51 -43 -65 -55 -14 -11 -19 -20 -13 -21 7 0 37 22 66 48 29 26 63 55 77 65 13 9 22 19 19 21 -2 2 -13 -2 -24 -10z"/>
<path d="M4291 6077 c-1 -30 3 -46 9 -42 12 7 12 42 0 70 -6 15 -9 8 -9 -28z"/>
<path d="M4513 6080 c0 -25 2 -35 4 -22 2 12 2 32 0 45 -2 12 -4 2 -4 -23z"/>
<path d="M4990 6040 c0 -33 4 -60 10 -60 6 0 10 27 10 60 0 33 -4 60 -10 60 -6 0 -10 -27 -10 -60z"/>
<path d="M2291 5993 c1 -16 5 -39 9 -53 6 -20 8 -14 9 28 1 28 -3 52 -9 52 -5 0 -10 -12 -9 -27z"/>
<path d="M4523 5975 c0 -27 2 -38 4 -22 2 15 2 37 0 50 -2 12 -4 0 -4 -28z"/>
<path d="M9389 5974 c-13 -14 -38 -34 -56 -45 -18 -12 -33 -25 -33 -30 0 -15 14 -10 40 14 14 12 40 33 58 45 17 13 32 28 32 33 0 16 -16 10 -41 -17z"/>
<path d="M846 5958 c-15 -18 -36 -44 -46 -56 -11 -13 -20 -31 -20 -40 0 -8 2 -13 4 -11 29 32 104 139 97 139 -5 0 -21 -15 -35 -32z"/>
<path d="M3806 5968 c-9 -36 -7 -86 4 -93 6 -4 10 17 10 54 0 65 -4 75 -14 39z"/>
<path d="M10010 5901 c0 -44 5 -83 10 -86 6 -4 10 25 10 79 0 51 -4 86 -10 86 -6 0 -10 -33 -10 -79z"/>
<path d="M4291 5920 l1 -55 11 43 c7 31 7 46 -1 54 -9 9 -12 -1 -11 -42z"/>
<path d="M1745 5919 c-27 -21 -94 -62 -147 -91 -54 -29 -98 -59 -98 -66 0 -8 5 -10 13 -6 98 58 267 167 277 179 24 30 5 23 -45 -16z"/>
<path d="M5000 5910 c0 -32 4 -49 10 -45 6 3 10 24 10 45 0 21 -4 42 -10 45 -6 4 -10 -13 -10 -45z"/>
<path d="M6920 5331 c0 -414 3 -631 10 -631 7 0 10 208 11 603 0 463 3 596 12 577 6 -14 14 -27 17 -30 3 -3 6 -12 7 -21 5 -28 355 -699 365 -699 5 0 -16 47 -47 105 -95 177 -314 617 -334 670 -10 27 -24 51 -30 53 -8 3 -11 -164 -11 -627z"/>
<path d="M4528 5903 c-2 -5 -1 -26 3 -48 l6 -40 2 48 c1 44 -3 57 -11 40z"/>
<path d="M2301 5873 c0 -16 4 -37 9 -48 6 -15 9 -8 9 28 1 26 -3 47 -9 47 -5 0 -10 -12 -9 -27z"/>
<path d="M9219 5851 c-76 -41 -147 -83 -204 -120 -22 -14 -53 -31 -68 -38 -72 -32 -236 -243 -188 -243 8 0 21 34 20 54 -1 5 3 12 8 15 5 3 19 20 31 38 34 48 136 125 258 193 91 52 196 114 213 127 2 2 2 4 0 6 -2 2 -34 -13 -70 -32z"/>
<path d="M4280 5803 c0 -35 3 -44 10 -33 13 20 13 80 0 80 -5 0 -10 -21 -10 -47z"/>
<path d="M745 5790 c-27 -53 -31 -70 -16 -70 5 0 13 15 16 33 4 17 14 44 21 60 8 15 12 27 9 27 -2 0 -16 -22 -30 -50z"/>
<path d="M3797 5808 c-3 -18 -1 -37 4 -42 5 -6 9 7 9 32 0 50 -6 54 -13 10z"/>
<path d="M5010 5808 c0 -34 61 -240 77 -259 7 -8 13 -21 13 -28 0 -40 185 -271 218 -271 7 0 26 -7 42 -15 17 -9 30 -13 30 -10 0 2 -17 13 -37 24 -95 49 -259 268 -283 377 -6 27 -13 56 -17 64 -7 17 -9 28 -19 88 -7 46 -24 67 -24 30z"/>
<path d="M4534 5786 c-3 -7 -1 -29 4 -47 l10 -34 1 48 c1 47 -5 60 -15 33z"/>
<path d="M10020 5721 c0 -44 5 -83 10 -86 6 -4 10 25 10 79 0 51 -4 86 -10 86 -6 0 -10 -33 -10 -79z"/>
<path d="M2310 5746 c0 -25 5 -48 10 -51 6 -4 10 13 10 44 0 28 -4 51 -10 51 -5 0 -10 -20 -10 -44z"/>
<path d="M10852 5753 c-29 -14 -51 -27 -49 -30 3 -2 18 2 34 10 15 8 40 17 56 21 15 3 27 11 27 16 0 14 -7 12 -68 -17z"/>
<path d="M1420 5724 c-36 -20 -66 -42 -68 -50 -2 -8 18 0 50 21 29 19 61 38 70 41 10 3 18 10 18 15 0 11 6 14 -70 -27z"/>
<path d="M3790 5745 c-1 -5 -3 -23 -6 -40 -3 -29 -3 -29 7 -6 5 14 8 32 6 40 -3 9 -6 12 -7 6z"/>
<path d="M4271 5678 c0 -39 3 -48 9 -33 12 28 12 85 0 85 -5 0 -10 -24 -9 -52z"/>
<path d="M10397 5703 c-10 -10 -8 -63 2 -63 5 0 11 16 13 35 4 34 -1 43 -15 28z"/>
<path d="M10683 5703 c9 -2 25 -2 35 0 9 3 1 5 -18 5 -19 0 -27 -2 -17 -5z"/>
<path d="M10468 5693 c17 -2 47 -2 65 0 17 2 3 4 -33 4 -36 0 -50 -2 -32 -4z"/>
<path d="M10603 5693 c9 -2 25 -2 35 0 9 3 1 5 -18 5 -19 0 -27 -2 -17 -5z"/>
<path d="M4547 5684 c-3 -4 -1 -16 5 -28 6 -11 11 -23 10 -26 -5 -13 11 -70 19 -70 12 0 11 6 -9 73 -10 31 -21 54 -25 51z"/>
<path d="M8285 5670 c-3 -5 -8 -40 -10 -77 -4 -63 -4 -64 4 -18 5 28 12 62 16 78 7 27 2 36 -10 17z"/>
<path d="M1268 5608 c-55 -55 -67 -73 -87 -136 -17 -53 -22 -84 -17 -117 8 -65 41 -130 79 -159 39 -30 135 -76 160 -76 32 0 17 16 -26 27 -73 20 -138 71 -170 133 -24 47 -28 64 -25 120 5 84 28 130 101 202 33 33 57 61 54 64 -2 3 -34 -23 -69 -58z"/>
<path d="M2324 5648 c4 -13 9 -35 12 -50 4 -16 11 -28 16 -28 6 0 7 10 4 23 -4 12 -9 34 -12 50 -4 15 -11 27 -16 27 -6 0 -7 -10 -4 -22z"/>
<path d="M7581 5613 c18 -32 41 -69 51 -82 10 -13 18 -29 18 -35 0 -21 45 -96 58 -96 7 0 11 3 9 8 -3 4 -30 49 -61 100 -31 51 -63 108 -71 127 -7 19 -19 35 -25 35 -6 0 3 -26 21 -57z"/>
<path d="M690 5625 c0 -8 5 -15 10 -15 6 0 10 7 10 15 0 8 -4 15 -10 15 -5 0 -10 -7 -10 -15z"/>
<path d="M4255 5599 c-6 -19 0 -38 9 -28 10 12 16 49 7 49 -5 0 -13 -9 -16 -21z"/>
<path d="M10030 5540 c0 -47 4 -80 10 -80 6 0 10 33 10 80 0 47 -4 80 -10 80 -6 0 -10 -33 -10 -80z"/>
<path d="M10401 5538 c-1 -46 3 -78 9 -78 12 0 12 107 0 135 -6 14 -9 -5 -9 -57z"/>
<path d="M687 5593 c-11 -10 -8 -83 3 -83 6 0 10 20 10 45 0 46 -2 50 -13 38z"/>
<path d="M3724 5503 c-16 -37 -28 -71 -26 -75 1 -5 -3 -8 -9 -8 -5 0 -8 -4 -5 -9 4 -5 3 -11 -2 -13 -4 -1 -29 -31 -56 -66 -46 -58 -112 -109 -175 -134 -14 -6 -21 -12 -14 -15 13 -5 162 78 163 90 0 5 21 34 47 65 45 55 93 148 107 205 11 45 0 31 -30 -40z"/>
<path d="M2354 5543 c3 -10 8 -30 12 -45 5 -25 24 -40 24 -20 0 23 -22 82 -31 82 -6 0 -8 -8 -5 -17z"/>
<path d="M4232 5521 c-14 -45 -15 -61 -4 -61 7 0 32 69 32 90 0 24 -18 7 -28 -29z"/>
<path d="M4583 5536 c3 -7 15 -47 27 -87 27 -91 69 -189 82 -189 6 0 -1 19 -15 43 -13 23 -27 57 -31 76 -13 70 -47 171 -57 171 -6 0 -9 -6 -6 -14z"/>
<path d="M8264 5420 c0 -52 1 -74 3 -47 2 26 2 68 0 95 -2 26 -3 4 -3 -48z"/>
<path d="M677 5473 c-11 -10 -8 -81 3 -88 6 -4 10 13 10 44 0 52 -1 56 -13 44z"/>
<path d="M2380 5454 c0 -52 131 -333 159 -342 15 -5 -2 29 -66 136 -43 71 -77 159 -75 195 0 9 -3 17 -9 17 -5 0 -9 -3 -9 -6z"/>
<path d="M8740 5390 c0 -27 5 -50 10 -50 6 0 10 23 10 50 0 28 -4 50 -10 50 -5 0 -10 -22 -10 -50z"/>
<path d="M10043 5355 c0 -44 2 -61 4 -37 2 23 2 59 0 80 -2 20 -4 1 -4 -43z"/>
<path d="M10411 5363 c-1 -43 3 -73 9 -73 12 0 12 97 0 125 -6 14 -9 -3 -9 -52z"/>
<path d="M4197 5379 c-5 -40 -26 -87 -81 -181 -15 -27 -24 -48 -18 -48 5 0 17 17 28 38 10 20 23 40 27 43 5 3 8 8 7 10 0 2 10 29 23 59 27 62 41 120 28 120 -5 0 -11 -18 -14 -41z"/>
<path d="M7747 5320 c21 -38 41 -70 46 -70 4 0 -9 32 -29 70 -21 39 -41 70 -46 70 -5 0 8 -31 29 -70z"/>
<path d="M680 5311 c0 -17 5 -33 10 -36 6 -4 10 8 10 29 0 20 -4 36 -10 36 -5 0 -10 -13 -10 -29z"/>
<path d="M6030 5280 c-41 -28 -90 -53 -108 -56 -18 -3 -35 -11 -38 -16 -4 -6 3 -8 17 -4 39 11 187 87 200 102 25 31 0 21 -71 -26z"/>
<path d="M8750 5321 c0 -26 23 -62 72 -113 45 -47 64 -59 122 -77 74 -23 236 -30 236 -10 0 6 -32 10 -87 9 -93 -2 -95 -2 -185 37 -47 21 -140 100 -130 110 6 7 -11 53 -19 53 -5 0 -9 -4 -9 -9z"/>
<path d="M1945 5270 c-27 -22 -69 -47 -92 -56 -24 -9 -43 -21 -43 -25 0 -18 5 -16 173 88 4 2 7 -112 7 -255 l0 -259 -40 -18 c-22 -10 -40 -22 -40 -27 0 -13 17 -9 34 7 8 9 17 15 18 14 2 -2 13 0 26 3 l22 6 0 281 c0 155 -3 281 -7 281 -5 0 -30 -18 -58 -40z"/>
<path d="M9538 5282 c-62 -55 -265 -142 -329 -142 -10 0 -19 -4 -19 -10 0 -32 187 28 287 93 24 15 46 27 50 27 16 1 55 40 51 51 -2 7 -18 -1 -40 -19z"/>
<path d="M696 5223 c16 -92 118 -303 145 -303 6 0 8 -4 5 -9 -10 -16 179 -166 195 -155 5 3 9 1 9 -4 0 -10 87 -51 121 -57 11 -2 24 -7 29 -10 6 -3 10 -2 10 3 0 4 -28 18 -62 30 -35 13 -83 36 -107 52 -24 17 -49 30 -55 30 -31 1 -169 156 -208 235 -14 28 -36 89 -49 137 -24 88 -46 121 -33 51z"/>
<path d="M10423 5215 l2 -50 368 -3 367 -2 0 -230 c0 -149 4 -230 10 -230 7 0 9 81 8 238 l-3 237 -367 3 -368 2 -1 23 c0 12 -4 31 -9 42 -7 15 -9 6 -7 -30z"/>
<path d="M4700 5243 c0 -4 27 -52 60 -107 46 -78 83 -124 163 -202 57 -56 122 -111 145 -123 23 -12 42 -19 42 -17 0 3 -11 11 -24 18 -14 7 -76 61 -139 120 -101 95 -121 119 -173 212 -51 93 -74 123 -74 99z"/>
<path d="M8285 5206 c5 -48 10 -64 20 -55 2 3 -2 27 -10 54 l-15 50 5 -49z"/>
<path d="M10053 5175 c0 -44 2 -61 4 -37 2 23 2 59 0 80 -2 20 -4 1 -4 -43z"/>
<path d="M7800 5228 c1 -22 65 -121 80 -126 12 -3 12 -2 2 6 -8 5 -12 11 -10 13 4 5 -60 119 -67 119 -3 0 -5 -6 -5 -12z"/>
<path d="M5400 5215 c0 -10 61 -35 82 -34 19 1 17 3 -12 16 -38 16 -70 24 -70 18z"/>
<path d="M5850 5203 c0 -5 -19 -9 -42 -11 -51 -3 -77 -22 -31 -22 37 0 93 19 93 31 0 5 -4 9 -10 9 -5 0 -10 -3 -10 -7z"/>
<path d="M1735 5166 c-71 -25 -70 -24 -62 -32 6 -7 107 24 121 37 19 17 0 16 -59 -5z"/>
<path d="M3200 5180 c0 -5 9 -10 21 -10 11 0 17 5 14 10 -3 6 -13 10 -21 10 -8 0 -14 -4 -14 -10z"/>
<path d="M3380 5180 c0 -5 9 -10 21 -10 11 0 17 5 14 10 -3 6 -13 10 -21 10 -8 0 -14 -4 -14 -10z"/>
<path d="M5510 5180 c0 -5 12 -10 26 -10 14 0 23 4 19 10 -3 6 -15 10 -26 10 -10 0 -19 -4 -19 -10z"/>
<path d="M3250 5170 c0 -5 11 -10 25 -10 14 0 25 5 25 10 0 6 -11 10 -25 10 -14 0 -25 -4 -25 -10z"/>
<path d="M3325 5170 c-4 -6 5 -10 19 -10 14 0 26 5 26 10 0 6 -9 10 -19 10 -11 0 -23 -4 -26 -10z"/>
<path d="M5575 5170 c-4 -6 5 -10 19 -10 14 0 26 5 26 10 0 6 -9 10 -19 10 -11 0 -23 -4 -26 -10z"/>
<path d="M5660 5170 c0 -5 14 -10 30 -10 17 0 30 5 30 10 0 6 -13 10 -30 10 -16 0 -30 -4 -30 -10z"/>
<path d="M4077 5133 c-10 -9 -9 -23 2 -23 5 0 11 7 15 15 5 15 -5 20 -17 8z"/>
<path d="M1430 5120 c0 -6 37 -10 90 -10 53 0 90 4 90 10 0 6 -37 10 -90 10 -53 0 -90 -4 -90 -10z"/>
<path d="M8320 5095 c7 -8 10 -15 6 -15 -8 0 19 -55 46 -93 11 -16 22 -26 25 -23 7 7 -70 146 -81 146 -5 0 -3 -7 4 -15z"/>
<path d="M2559 5063 c11 -21 70 -87 133 -148 104 -101 123 -115 240 -175 100 -50 130 -62 140 -52 9 9 7 12 -10 12 -12 0 -61 22 -109 48 -49 27 -102 54 -118 61 -37 14 -259 237 -269 269 -4 12 -12 22 -17 22 -5 0 -1 -17 10 -37z"/>
<path d="M4049 5073 c-6 -16 -27 -45 -47 -65 -20 -21 -31 -38 -26 -38 6 0 22 12 35 28 33 35 71 102 58 102 -5 0 -14 -12 -20 -27z"/>
<path d="M7366 5065 c22 -53 188 -364 192 -360 2 2 -9 30 -25 62 -88 178 -150 295 -166 315 -16 22 -16 21 -1 -17z"/>
<path d="M7927 5003 c66 -123 183 -319 183 -306 0 14 -52 107 -62 111 -4 2 -6 8 -2 13 3 5 0 9 -5 9 -6 0 -10 3 -9 8 1 4 -16 39 -39 77 -22 39 -53 94 -69 123 -15 28 -32 52 -36 52 -4 0 13 -39 39 -87z"/>
<path d="M10063 4995 c0 -44 2 -61 4 -37 2 23 2 59 0 80 -2 20 -4 1 -4 -43z"/>
<path d="M3930 4935 c-10 -12 -10 -15 4 -15 9 0 16 7 16 15 0 8 -2 15 -4 15 -2 0 -9 -7 -16 -15z"/>
<path d="M8420 4920 c41 -58 182 -165 257 -196 64 -27 32 4 -43 42 -52 26 -102 63 -152 112 -41 39 -77 72 -79 72 -3 0 5 -14 17 -30z"/>
<path d="M3861 4856 c-18 -19 -50 -42 -72 -51 -21 -10 -39 -22 -39 -27 0 -18 98 42 124 76 34 45 29 46 -13 2z"/>
<path d="M10073 4815 c0 -44 2 -61 4 -37 2 23 2 59 0 80 -2 20 -4 1 -4 -43z"/>
<path d="M5120 4792 c0 -12 96 -63 104 -55 3 3 6 1 6 -6 0 -7 4 -10 9 -7 5 4 12 0 14 -6 4 -10 6 -10 6 -1 1 7 -30 29 -69 48 -38 19 -70 31 -70 27z"/>
<path d="M3660 4740 c-41 -22 -80 -40 -87 -40 -7 0 -13 -5 -13 -11 0 -14 30 -4 113 37 37 19 67 39 67 44 0 13 6 15 -80 -30z"/>
<path d="M6050 4740 c-24 -9 -46 -23 -48 -29 -2 -7 16 -3 47 9 29 11 54 20 56 20 3 0 5 5 5 10 0 13 -5 12 -60 -10z"/>
<path d="M9503 4732 c-35 -14 -63 -29 -63 -34 0 -5 6 -6 13 -1 6 4 15 8 20 9 4 1 9 3 12 4 3 1 8 3 13 4 34 8 82 29 82 37 0 12 -5 11 -77 -19z"/>
<path d="M1830 4700 c-41 -14 -46 -18 -20 -14 19 3 42 7 50 9 8 2 21 4 28 4 6 1 12 6 12 11 0 13 -3 12 -70 -10z"/>
<path d="M8720 4710 c0 -5 10 -10 23 -10 18 0 19 2 7 10 -19 13 -30 13 -30 0z"/>
<path d="M5323 4689 c14 -8 22 -8 30 0 8 8 3 11 -18 11 -26 -1 -28 -2 -12 -11z"/>
<path d="M5875 4685 l-50 -14 45 6 c25 3 53 5 62 5 10 -1 20 3 23 9 8 12 -19 10 -80 -6z"/>
<path d="M8774 4693 c3 -4 12 -8 19 -9 88 -14 93 -14 42 1 -56 16 -72 18 -61 8z"/>
<path d="M3125 4679 c51 -10 92 -10 50 1 -16 4 -43 8 -60 8 -25 0 -24 -2 10 -9z"/>
<path d="M9330 4680 c-34 -7 -34 -7 -5 -8 17 0 39 3 50 8 24 10 4 10 -45 0z"/>
<path d="M5443 4673 c9 -2 25 -2 35 0 9 3 1 5 -18 5 -19 0 -27 -2 -17 -5z"/>
<path d="M1663 4663 c9 -2 25 -2 35 0 9 3 1 5 -18 5 -19 0 -27 -2 -17 -5z"/>
<path d="M3383 4663 c9 -2 25 -2 35 0 9 3 1 5 -18 5 -19 0 -27 -2 -17 -5z"/>
<path d="M5768 4663 c12 -2 30 -2 40 0 9 3 -1 5 -23 4 -22 0 -30 -2 -17 -4z"/>
<path d="M8925 4659 c39 -8 300 -11 280 -4 -5 2 -80 5 -165 7 -86 2 -137 1 -115 -3z"/>
<path d="M9243 4663 c9 -2 25 -2 35 0 9 3 1 5 -18 5 -19 0 -27 -2 -17 -5z"/>
<path d="M1433 4653 c37 -2 96 -2 130 0 34 2 4 3 -68 3 -71 0 -99 -1 -62 -3z"/>
<path d="M3298 4653 c12 -2 32 -2 45 0 12 2 2 4 -23 4 -25 0 -35 -2 -22 -4z"/>
<path d="M5598 4653 c23 -2 59 -2 80 0 20 2 1 4 -43 4 -44 0 -61 -2 -37 -4z"/>
</g>
<g id="layer105" fill="#bcdbd1" stroke="none">
<path d="M1165 7380 c-16 -7 -13 -9 18 -9 20 -1 37 4 37 9 0 12 -27 12 -55 0z"/>
<path d="M1320 7380 c0 -5 14 -10 31 -10 17 0 28 4 24 10 -3 6 -17 10 -31 10 -13 0 -24 -4 -24 -10z"/>
<path d="M5550 7380 c0 -5 12 -10 26 -10 14 0 23 4 19 10 -3 6 -15 10 -26 10 -10 0 -19 -4 -19 -10z"/>
<path d="M8750 7380 c-11 -7 -5 -10 23 -10 23 0 36 4 32 10 -8 13 -35 13 -55 0z"/>
<path d="M8905 7380 c-4 -6 8 -10 30 -10 22 0 34 4 30 10 -3 6 -17 10 -30 10 -13 0 -27 -4 -30 -10z"/>
<path d="M10410 7380 c-12 -8 -9 -10 13 -10 16 0 26 4 22 10 -8 12 -16 12 -35 0z"/>
<path d="M5690 7370 c0 -5 12 -10 28 -10 21 0 24 2 12 10 -20 13 -40 13 -40 0z"/>
<path d="M8660 7370 c0 -5 9 -10 21 -10 11 0 17 5 14 10 -3 6 -13 10 -21 10 -8 0 -14 -4 -14 -10z"/>
<path d="M10285 7370 c-3 -5 3 -10 15 -10 12 0 18 5 15 10 -3 6 -10 10 -15 10 -5 0 -12 -4 -15 -10z"/>
<path d="M8368 7289 c-21 -11 -38 -22 -38 -24 0 -5 79 32 89 41 12 11 -18 1 -51 -17z"/>
<path d="M5048 7257 c-26 -12 -48 -25 -48 -30 0 -4 23 4 50 18 28 14 50 28 50 30 0 6 5 8 -52 -18z"/>
<path d="M3755 7235 c42 -26 60 -32 50 -15 -3 6 -13 10 -21 10 -8 0 -14 5 -14 11 0 5 -4 7 -10 4 -5 -3 -10 -1 -10 4 0 6 -8 11 -17 11 -11 -1 -3 -10 22 -25z"/>
<path d="M8277 7243 c-4 -3 -7 -139 -7 -302 l0 -295 40 39 c22 21 40 44 40 49 0 5 -16 -6 -35 -24 l-36 -35 3 288 c2 158 3 287 2 287 0 0 -4 -3 -7 -7z"/>
<path d="M2798 7233 c-10 -2 -18 -9 -18 -14 0 -6 10 -5 23 2 37 20 36 23 -5 12z"/>
<path d="M692 6942 l-2 -293 40 32 c22 18 40 36 40 41 0 15 -11 8 -38 -24 l-27 -32 -5 285 -5 284 -3 -293z"/>
<path d="M4915 7160 c-38 -38 -67 -72 -64 -75 3 -3 36 27 73 66 38 39 66 72 64 74 -2 3 -35 -27 -73 -65z"/>
<path d="M9452 7175 c23 -24 44 -42 47 -40 6 6 -70 85 -81 85 -5 0 11 -20 34 -45z"/>
<path d="M1880 7165 c45 -46 62 -58 39 -27 -29 38 -63 72 -73 72 -6 0 10 -20 34 -45z"/>
<path d="M8083 7198 c-15 -18 -35 -58 -29 -58 2 0 13 16 25 35 20 35 22 46 4 23z"/>
<path d="M10987 7179 c12 -12 25 -20 28 -17 3 3 -7 13 -22 23 l-28 17 22 -23z"/>
<path d="M2635 7078 c-65 -67 -55 -65 23 7 29 26 59 65 50 65 -2 0 -35 -33 -73 -72z"/>
<path d="M1945 7090 c9 -31 24 -50 39 -50 7 0 6 4 -2 9 -8 4 -14 12 -14 17 0 5 -7 18 -15 29 -14 19 -15 19 -8 -5z"/>
<path d="M3941 7074 c4 -11 89 -90 89 -82 0 2 -21 24 -46 48 -26 25 -45 40 -43 34z"/>
<path d="M7972 7015 c-14 -30 -12 -31 10 -5 10 10 14 22 9 24 -4 3 -13 -6 -19 -19z"/>
<path d="M2018 6945 c14 -35 27 -63 29 -61 5 5 -40 126 -48 126 -3 0 5 -29 19 -65z"/>
<path d="M4045 6945 c9 -22 21 -44 26 -50 6 -5 3 8 -6 30 -9 22 -21 45 -26 50 -6 6 -3 -8 6 -30z"/>
<path d="M1440 6890 c0 -7 24 -20 36 -20 13 0 1 19 -16 23 -11 3 -20 2 -20 -3z"/>
<path d="M9090 6857 c0 -10 50 -61 55 -55 3 2 -9 17 -25 33 -17 16 -30 26 -30 22z"/>
<path d="M4135 6781 c8 -17 19 -33 25 -36 5 -3 1 10 -11 29 -25 43 -36 48 -14 7z"/>
<path d="M5310 6790 c-19 -11 -31 -19 -27 -20 11 0 67 29 67 35 0 7 -1 7 -40 -15z"/>
<path d="M7816 6735 c-17 -26 -21 -50 -7 -41 9 6 33 66 27 66 -2 0 -11 -11 -20 -25z"/>
<path d="M5219 6714 l-24 -27 28 18 c15 9 27 21 27 26 0 14 -5 11 -31 -17z"/>
<path d="M2084 6585 c0 -60 1 -84 3 -52 2 32 2 81 0 110 -2 29 -3 3 -3 -58z"/>
<path d="M9182 6650 c0 -19 2 -27 5 -17 2 9 2 25 0 35 -3 9 -5 1 -5 -18z"/>
<path d="M7215 6620 c-9 -16 -13 -30 -11 -30 3 0 12 14 21 30 9 17 13 30 11 30 -3 0 -12 -13 -21 -30z"/>
<path d="M9663 6595 c0 -22 2 -30 4 -17 2 12 2 30 0 40 -3 9 -5 -1 -4 -23z"/>
<path d="M2862 6536 c-7 -15 -12 -35 -12 -44 1 -9 7 -2 16 17 17 41 14 66 -4 27z"/>
<path d="M10780 6465 c0 -8 5 -15 10 -15 6 0 10 7 10 15 0 8 -4 15 -10 15 -5 0 -10 -7 -10 -15z"/>
<path d="M10775 6427 c-4 -10 -5 -21 -1 -24 10 -10 18 4 13 24 -4 17 -4 17 -12 0z"/>
<path d="M10766 6382 c-2 -4 -7 -25 -11 -47 -5 -28 -4 -37 3 -30 11 11 28 85 19 85 -3 0 -8 -3 -11 -8z"/>
<path d="M10695 6258 l-40 -43 43 40 c39 36 47 45 39 45 -2 0 -21 -19 -42 -42z"/>
<path d="M3813 6155 c0 -22 2 -30 4 -17 2 12 2 30 0 40 -3 9 -5 -1 -4 -23z"/>
<path d="M9534 6135 c-15 -20 -25 -38 -22 -40 3 -3 17 13 32 35 33 49 27 52 -10 5z"/>
<path d="M1962 6148 c-7 -7 -12 -16 -12 -22 0 -5 -8 -19 -17 -30 -18 -21 -18 -21 5 -2 12 11 22 25 22 32 0 7 6 14 13 17 6 2 9 7 6 10 -3 4 -11 1 -17 -5z"/>
<path d="M2783 6125 c0 -22 2 -30 4 -17 2 12 2 30 0 40 -3 9 -5 -1 -4 -23z"/>
<path d="M10006 6113 c9 -52 14 -54 14 -5 0 23 -5 42 -10 42 -7 0 -8 -14 -4 -37z"/>
<path d="M1861 6020 c-24 -22 -39 -40 -34 -40 5 0 27 18 48 40 50 51 43 51 -14 0z"/>
<path d="M8515 6040 c-10 -11 -14 -20 -8 -20 5 0 18 9 28 20 10 11 14 20 8 20 -5 0 -18 -9 -28 -20z"/>
<path d="M924 6036 c-10 -8 -16 -17 -13 -20 3 -3 14 3 24 14 21 23 17 26 -11 6z"/>
<path d="M10013 5964 c-3 -8 -1 -29 5 -47 10 -32 10 -31 11 16 1 48 -5 60 -16 31z"/>
<path d="M11101 5950 c-6 -18 -6 -28 -1 -25 6 4 10 12 10 20 0 7 5 15 12 17 9 3 9 6 1 11 -7 4 -15 -5 -22 -23z"/>
<path d="M6920 5952 c0 -5 7 -13 16 -16 10 -4 14 -1 12 6 -5 15 -28 23 -28 10z"/>
<path d="M2783 5905 c0 -27 2 -38 4 -22 2 15 2 37 0 50 -2 12 -4 0 -4 -28z"/>
<path d="M3812 5900 c0 -19 2 -27 5 -17 2 9 2 25 0 35 -3 9 -5 1 -5 -18z"/>
<path d="M796 5878 l-18 -33 21 25 c18 22 26 40 18 40 -1 0 -11 -15 -21 -32z"/>
<path d="M9190 5840 c-8 -5 -11 -12 -7 -16 4 -4 13 -2 19 4 15 15 7 24 -12 12z"/>
<path d="M10962 5818 c-19 -19 -14 -29 8 -16 20 13 27 28 12 28 -4 0 -13 -5 -20 -12z"/>
<path d="M10020 5768 c0 -18 5 -40 10 -48 7 -11 10 -2 10 33 0 26 -4 47 -10 47 -5 0 -10 -15 -10 -32z"/>
<path d="M2322 5760 c0 -19 2 -27 5 -17 2 9 2 25 0 35 -3 9 -5 1 -5 -18z"/>
<path d="M7012 5765 c6 -14 15 -25 19 -25 5 0 3 11 -3 25 -6 14 -15 25 -19 25 -5 0 -3 -11 3 -25z"/>
<path d="M1383 5704 c-34 -15 -42 -24 -20 -24 6 0 23 9 37 20 29 23 27 23 -17 4z"/>
<path d="M7055 5680 c9 -16 18 -30 21 -30 2 0 -2 14 -11 30 -9 17 -18 30 -21 30 -2 0 2 -13 11 -30z"/>
<path d="M10397 5703 c-11 -10 -8 -65 2 -59 5 3 7 15 4 27 -4 12 0 25 8 30 8 5 9 9 3 9 -6 0 -14 -3 -17 -7z"/>
<path d="M10508 5693 c12 -2 30 -2 40 0 9 3 -1 5 -23 4 -22 0 -30 -2 -17 -4z"/>
<path d="M1255 5600 c-16 -16 -24 -30 -19 -30 6 0 20 14 32 30 13 17 21 30 19 30 -2 0 -16 -13 -32 -30z"/>
<path d="M2835 5600 c3 -19 10 -39 15 -44 7 -7 7 -1 1 19 -17 54 -21 61 -16 25z"/>
<path d="M10030 5588 c0 -18 5 -40 10 -48 7 -11 10 -2 10 33 0 26 -4 47 -10 47 -5 0 -10 -15 -10 -32z"/>
<path d="M1195 5513 c-21 -49 -15 -50 12 -2 12 21 17 39 12 39 -5 0 -16 -16 -24 -37z"/>
<path d="M2850 5536 c0 -11 63 -137 71 -141 9 -6 8 -2 -29 78 -12 27 -22 53 -22 58 0 5 -4 9 -10 9 -5 0 -10 -2 -10 -4z"/>
<path d="M10403 5500 c0 -25 2 -35 4 -22 2 12 2 32 0 45 -2 12 -4 2 -4 -23z"/>
<path d="M5110 5489 c7 -11 14 -19 16 -16 7 7 -7 37 -17 37 -6 0 -5 -9 1 -21z"/>
<path d="M5141 5440 c13 -28 145 -173 163 -179 6 -2 -25 34 -69 80 -44 46 -86 93 -93 104 -11 17 -11 16 -1 -5z"/>
<path d="M10043 5390 c0 -25 2 -35 4 -22 2 12 2 32 0 45 -2 12 -4 2 -4 -23z"/>
<path d="M1164 5369 c5 -72 37 -141 79 -172 51 -38 66 -43 25 -8 -52 44 -81 96 -95 171 l-13 65 4 -56z"/>
<path d="M7220 5360 c11 -22 23 -40 25 -40 3 0 -4 18 -15 40 -11 22 -23 40 -25 40 -3 0 4 -18 15 -40z"/>
<path d="M10413 5325 c0 -22 2 -30 4 -17 2 12 2 30 0 40 -3 9 -5 -1 -4 -23z"/>
<path d="M10053 5210 c0 -25 2 -35 4 -22 2 12 2 32 0 45 -2 12 -4 2 -4 -23z"/>
<path d="M5400 5215 c0 -7 61 -37 66 -33 2 3 -12 12 -31 21 -19 9 -35 15 -35 12z"/>
<path d="M10424 5178 c2 -10 82 -14 369 -16 l367 -2 3 -233 2 -232 3 238 2 237 -369 0 c-242 0 -371 4 -374 10 -3 6 -4 5 -3 -2z"/>
<path d="M8850 5175 c0 -6 56 -35 67 -35 4 0 -7 9 -25 20 -33 20 -42 24 -42 15z"/>
<path d="M1430 5120 c0 -5 7 -10 15 -10 8 0 15 5 15 10 0 6 -7 10 -15 10 -8 0 -15 -4 -15 -10z"/>
<path d="M9150 5120 c-12 -8 -11 -10 8 -10 12 0 22 5 22 10 0 13 -11 13 -30 0z"/>
<path d="M755 5060 c9 -16 18 -30 21 -30 2 0 -2 14 -11 30 -9 17 -18 30 -21 30 -2 0 2 -13 11 -30z"/>
<path d="M10063 5030 c0 -25 2 -35 4 -22 2 12 2 32 0 45 -2 12 -4 2 -4 -23z"/>
<path d="M7380 5056 c0 -11 30 -66 36 -66 2 0 -3 15 -12 33 -19 36 -24 44 -24 33z"/>
<path d="M8362 5015 c6 -14 15 -25 19 -25 5 0 3 11 -3 25 -6 14 -15 25 -19 25 -5 0 -3 -11 3 -25z"/>
<path d="M3994 4998 l-29 -33 33 29 c30 28 37 36 29 36 -2 0 -16 -15 -33 -32z"/>
<path d="M7445 4930 c9 -16 18 -30 21 -30 2 0 -2 14 -11 30 -9 17 -18 30 -21 30 -2 0 2 -13 11 -30z"/>
<path d="M2730 4884 c36 -36 79 -72 95 -80 17 -8 21 -9 10 -2 -11 7 -51 43 -88 81 -38 37 -71 67 -75 67 -3 0 23 -30 58 -66z"/>
<path d="M4970 4905 c0 -10 71 -77 76 -72 2 2 -14 21 -36 42 -22 22 -40 35 -40 30z"/>
<path d="M10073 4855 c0 -22 2 -30 4 -17 2 12 2 30 0 40 -3 9 -5 -1 -4 -23z"/>
<path d="M1000 4783 c24 -17 50 -26 50 -17 0 5 -57 34 -67 34 -4 0 4 -8 17 -17z"/>
<path d="M3638 4729 c-21 -11 -38 -22 -38 -24 0 -3 18 4 40 15 22 11 40 23 40 25 0 7 0 7 -42 -16z"/>
<path d="M1463 4653 c20 -2 54 -2 75 0 20 2 3 4 -38 4 -41 0 -58 -2 -37 -4z"/>
<path d="M5603 4653 c9 -2 25 -2 35 0 9 3 1 5 -18 5 -19 0 -27 -2 -17 -5z"/>
<path d="M9048 4653 c23 -2 59 -2 80 0 20 2 1 4 -43 4 -44 0 -61 -2 -37 -4z"/>
</g>


</svg>