<!DOCTYPE svg PUBLIC "-//W3C//DTD SVG 20010904//EN" "http://www.w3.org/TR/2001/REC-SVG-20010904/DTD/svg10.dtd">
<svg version="1.0" xmlns="http://www.w3.org/2000/svg" width="512px" height="512px" viewBox="0 0 5120 5120" preserveAspectRatio="xMidYMid meet">
<g id="layer101" fill="#25b7d3" stroke="none">
 <path d="M2243 5104 c-342 -41 -742 -182 -1033 -364 -321 -200 -629 -507 -828 -826 -195 -313 -332 -708 -371 -1076 -16 -140 -13 -433 4 -582 41 -354 170 -726 360 -1036 194 -319 497 -626 825 -834 215 -137 547 -272 811 -330 305 -68 690 -75 999 -20 305 55 661 192 910 350 316 201 612 497 814 814 73 114 200 381 246 515 100 293 140 534 140 847 0 299 -38 530 -132 817 -54 162 -168 406 -254 541 -202 318 -496 612 -814 814 -294 187 -699 329 -1056 371 -158 18 -466 18 -621 -1z"/>
 </g>
<g id="layer102" fill="#eff4f6" stroke="none">
 <path d="M2663 3732 l-353 -177 -155 155 c-85 85 -156 152 -159 150 -2 -3 -87 -172 -189 -375 l-185 -370 -277 -185 -277 -184 1487 -744 c818 -409 1488 -742 1490 -740 4 5 -1018 2648 -1024 2647 -3 0 -165 -80 -358 -177z"/>
 </g>

</svg>