<!DOCTYPE svg PUBLIC "-//W3C//DTD SVG 20010904//EN" "http://www.w3.org/TR/2001/REC-SVG-20010904/DTD/svg10.dtd">
<svg version="1.0" xmlns="http://www.w3.org/2000/svg" width="720px" height="720px" viewBox="0 0 7200 7200" preserveAspectRatio="xMidYMid meet">
<g id="layer101" fill="#00205c" stroke="none">
</g>
<g id="layer102" fill="#054477" stroke="none">
<path d="M3305 7194 c-16 -2 -73 -9 -125 -15 -581 -64 -1177 -293 -1670 -643 -308 -219 -627 -538 -846 -846 -342 -482 -553 -1020 -641 -1631 -25 -179 -25 -739 0 -918 115 -800 446 -1486 987 -2045 584 -602 1318 -966 2175 -1078 135 -18 695 -18 830 0 857 112 1591 476 2175 1078 541 559 872 1245 987 2045 25 179 26 741 0 914 -104 706 -349 1278 -781 1820 -103 129 -392 418 -521 521 -538 428 -1124 681 -1810 780 -104 15 -681 29 -760 18z"/>
</g>
<g id="layer103" fill="#1568a6" stroke="none">
<path d="M3305 7194 c-16 -2 -73 -9 -125 -15 -581 -64 -1177 -293 -1670 -643 -308 -219 -627 -538 -846 -846 -342 -482 -553 -1020 -641 -1631 -25 -179 -25 -739 0 -918 115 -800 446 -1486 987 -2045 584 -602 1318 -966 2175 -1078 135 -18 695 -18 830 0 857 112 1591 476 2175 1078 541 559 872 1245 987 2045 25 179 26 741 0 914 -104 706 -349 1278 -781 1820 -103 129 -392 418 -521 521 -538 428 -1124 681 -1810 780 -104 15 -681 29 -760 18z m994 -2428 l33 -34 -332 -222 c-183 -122 -330 -218 -327 -213 3 5 150 105 327 223 l321 213 -33 34 c-17 18 -30 33 -27 33 3 0 20 -15 38 -34z m-994 -296 c21 -22 37 -40 34 -40 -3 0 -23 18 -44 40 -21 22 -37 40 -34 40 3 0 23 -18 44 -40z m145 -137 c0 -8 -9 0 -50 45 l-45 47 48 -45 c26 -24 47 -45 47 -47z m67 -70 c-3 -4 -27 -23 -54 -42 -47 -32 -28 -11 25 28 l27 20 -30 33 -30 33 34 -31 c18 -18 31 -36 28 -41z m23 -58 c0 -4 -272 -189 -310 -210 -44 -24 17 19 152 111 164 110 158 106 158 99z m-174 -53 c-2 -4 -26 -23 -53 -41 -55 -39 -47 -27 12 18 42 32 49 36 41 23z m-159 -112 c17 13 17 13 1 -4 -16 -19 -38 -15 -38 7 0 8 4 7 9 -2 8 -13 12 -13 28 -1z m-94 -94 l22 -18 -25 14 c-14 9 -26 26 -27 39 -1 19 -1 20 4 4 2 -11 15 -28 26 -39z m552 -276 c-3 -5 0 -12 6 -16 8 -4 9 -3 5 4 -14 23 14 11 77 -33 36 -25 67 -45 70 -45 4 0 34 -19 69 -42 35 -24 71 -47 80 -53 128 -77 537 -349 533 -355 -3 -5 0 -12 6 -16 8 -4 9 -3 5 4 -11 18 5 14 38 -7 30 -20 44 -51 22 -51 -7 0 -17 5 -23 11 -11 11 -36 26 -78 49 -11 6 -33 19 -50 30 -16 11 -39 24 -50 30 -11 6 -32 18 -47 28 -15 9 -142 86 -282 171 -146 88 -253 158 -249 164 3 6 1 7 -5 3 -16 -10 -54 12 -46 26 4 7 3 8 -4 4 -16 -10 -54 12 -46 26 4 7 3 8 -4 4 -10 -6 -419 229 -447 257 -14 14 -11 12 158 -88 120 -70 150 -85 162 -75 11 10 22 7 52 -11 98 -58 -2 12 -187 131 -113 73 -212 139 -220 147 -8 8 92 -54 222 -137 131 -84 235 -156 233 -160z m-865 115 c25 -13 41 -24 35 -24 -5 0 -30 11 -55 24 -25 13 -40 24 -35 24 6 0 30 -11 55 -24z m-60 -30 c14 -8 21 -14 15 -14 -5 0 -21 6 -35 14 -14 8 -20 14 -15 14 6 0 21 -6 35 -14z m100 -45 c19 -11 31 -19 25 -19 -5 0 -26 8 -45 19 -19 11 -30 19 -25 19 6 0 26 -8 45 -19z m207 -42 c60 -29 160 -77 223 -107 168 -80 299 -142 440 -209 196 -94 350 -168 477 -229 143 -68 296 -141 463 -222 69 -33 175 -83 235 -111 163 -76 175 -83 171 -87 -2 -2 -57 21 -121 51 -64 31 -121 56 -126 56 -5 0 -30 11 -56 24 -27 14 -70 35 -98 47 -27 12 -72 32 -100 45 -27 12 -72 33 -100 45 -27 12 -72 32 -100 45 -27 12 -72 33 -100 45 -52 23 -107 48 -210 95 -33 15 -80 37 -105 47 -25 11 -67 30 -95 43 -27 12 -72 33 -100 45 -27 12 -72 32 -100 45 -27 12 -72 33 -100 45 -59 26 -129 58 -205 93 -103 48 -225 103 -333 151 -59 27 -105 50 -104 52 2 2 105 -42 228 -97 123 -55 229 -98 237 -95 7 2 11 1 8 -4 -8 -12 23 -23 37 -14 6 4 -100 62 -238 129 -138 67 -247 123 -243 123 4 1 56 -22 115 -51z m1566 -606 c-2 -6 4 -9 12 -6 18 7 47 -14 39 -27 -3 -5 1 -6 9 -3 8 3 18 1 22 -5 10 -16 -23 -25 -40 -11 -8 7 -13 16 -10 20 3 5 -3 6 -14 3 -18 -5 -34 9 -37 35 -2 7 3 11 9 9 7 -3 11 -9 10 -15z m125 -69 c15 -10 35 -22 44 -28 9 -5 98 -63 197 -127 100 -65 185 -118 189 -118 11 -1 68 -50 58 -50 -5 0 -17 6 -25 14 -18 15 -393 243 -425 257 -20 9 -45 24 -74 42 -7 5 -10 13 -7 18 8 12 13 12 43 -8z m532 -338 c7 -8 8 -15 2 -15 -5 0 -15 7 -22 15 -7 8 -8 15 -2 15 5 0 15 -7 22 -15z"/>
<path d="M3422 3461 c-11 -6 -10 -10 4 -15 9 -4 22 -2 28 4 8 8 6 9 -8 4 -13 -5 -17 -4 -12 4 8 14 6 15 -12 3z"/>
<path d="M3810 3285 c0 -7 101 -57 106 -53 2 2 -21 16 -51 31 -30 15 -55 25 -55 22z"/>
<path d="M4000 3190 c19 -11 40 -19 45 -19 6 0 -6 8 -25 19 -19 11 -39 19 -45 19 -5 0 6 -8 25 -19z"/>
</g>
<g id="layer104" fill="#1b89d9" stroke="none">
<path d="M3305 7194 c-16 -2 -73 -9 -125 -15 -581 -64 -1177 -293 -1670 -643 -308 -219 -627 -538 -846 -846 -342 -482 -553 -1020 -641 -1631 -25 -179 -25 -739 0 -918 115 -800 446 -1486 987 -2045 584 -602 1318 -966 2175 -1078 135 -18 695 -18 830 0 857 112 1591 476 2175 1078 541 559 872 1245 987 2045 25 179 26 741 0 914 -104 706 -349 1278 -781 1820 -103 129 -392 418 -521 521 -538 428 -1124 681 -1810 780 -104 15 -681 29 -760 18z m1033 -2461 c2 -1 -193 -133 -434 -294 -577 -384 -687 -460 -677 -469 4 -5 483 -313 1063 -685 1254 -805 1130 -724 1130 -730 0 -2 -174 101 -387 229 -214 127 -739 442 -1169 699 l-781 467 -56 283 c-32 155 -64 312 -72 348 -8 37 -15 76 -15 87 0 31 -17 36 -24 7 -3 -13 -11 -37 -17 -52 -11 -28 -91 -249 -134 -373 -13 -36 -48 -135 -78 -221 l-55 -157 71 -35 c40 -19 277 -133 527 -252 250 -120 520 -249 600 -287 281 -136 819 -393 1160 -555 190 -90 349 -168 355 -174 5 -5 -51 18 -125 52 -74 34 -697 316 -1385 626 -872 393 -1258 563 -1275 560 -27 -5 -115 -29 -490 -133 -47 -13 -128 -36 -180 -50 -52 -14 -108 -30 -125 -35 -16 -4 -52 -14 -78 -20 l-48 -13 -160 160 c-160 158 -476 490 -407 425 l37 -34 956 957 957 956 -33 43 c-18 23 278 -266 657 -643 378 -377 690 -686 692 -687z"/>
<path d="M3010 4716 c0 -6 34 -142 84 -336 20 -74 47 -181 62 -238 18 -70 31 -102 39 -98 21 8 305 218 305 226 0 4 -21 27 -47 50 -27 24 -75 69 -108 100 -53 50 -167 153 -292 263 -24 21 -43 36 -43 33z"/>
</g>
<g id="layer105" fill="#ffffff" stroke="none">
<path d="M3781 4357 c-305 -205 -555 -376 -554 -381 1 -8 1073 -701 1908 -1233 143 -91 267 -172 275 -180 8 -8 -160 91 -375 219 -214 129 -741 444 -1171 701 l-781 467 -72 353 c-39 193 -71 360 -71 369 0 57 -30 -16 -157 -375 -79 -221 -144 -408 -145 -414 -3 -11 318 -168 1207 -593 55 -26 258 -123 450 -215 193 -92 505 -242 695 -332 190 -90 349 -168 355 -174 5 -5 -56 21 -135 57 -235 107 -2583 1166 -2611 1177 -21 8 -105 -12 -487 -118 -254 -71 -460 -130 -458 -132 3 -3 293 -84 2481 -689 726 -201 1342 -372 1368 -379 46 -14 48 -13 42 3 -8 21 -1196 2224 -1204 2234 -3 3 -256 -161 -560 -365z"/>
<path d="M3012 4705 c94 -380 174 -665 183 -661 21 8 305 218 305 226 0 4 -91 90 -202 192 -301 273 -292 266 -286 243z"/>
</g>


</svg>