<!DOCTYPE svg PUBLIC "-//W3C//DTD SVG 20010904//EN" "http://www.w3.org/TR/2001/REC-SVG-20010904/DTD/svg10.dtd">
<svg version="1.0" xmlns="http://www.w3.org/2000/svg" width="1020px" height="1020px" viewBox="0 0 10200 10200" preserveAspectRatio="xMidYMid meet">
<g id="layer101" fill="#000101" stroke="none">
 <path d="M4795 10040 c-4 -6 -58 -10 -131 -10 -68 0 -124 -4 -124 -9 0 -4 -22 -6 -49 -3 -29 2 -58 -1 -72 -9 -13 -7 -43 -11 -67 -10 -24 1 -50 -3 -59 -10 -8 -7 -32 -12 -53 -10 -21 1 -41 -2 -45 -8 -3 -6 -26 -11 -50 -11 -24 0 -47 -4 -50 -10 -3 -5 -26 -10 -50 -10 -24 0 -47 -4 -50 -10 -3 -5 -22 -10 -41 -10 -19 0 -34 -4 -34 -10 0 -5 -18 -10 -40 -10 -22 0 -40 -4 -40 -10 0 -5 -13 -10 -30 -10 -16 0 -30 -4 -30 -10 0 -5 -13 -10 -30 -10 -16 0 -30 -4 -30 -10 0 -5 -13 -10 -30 -10 -16 0 -30 -4 -30 -10 0 -5 -13 -10 -30 -10 -16 0 -30 -4 -30 -10 0 -5 -15 -10 -34 -10 -19 0 -38 -4 -41 -10 -3 -5 -15 -10 -25 -10 -11 0 -35 -9 -55 -20 -20 -11 -41 -20 -48 -20 -18 0 -67 -24 -67 -32 0 -5 -13 -8 -30 -8 -16 0 -30 -4 -30 -10 0 -5 -9 -10 -20 -10 -11 0 -20 -4 -20 -10 0 -5 -9 -10 -20 -10 -11 0 -20 -4 -20 -10 0 -5 -13 -10 -30 -10 -16 0 -30 -4 -30 -10 0 -5 -9 -10 -20 -10 -11 0 -20 -4 -20 -10 0 -5 -9 -10 -20 -10 -11 0 -20 -4 -20 -10 0 -5 -9 -10 -20 -10 -11 0 -20 -4 -20 -10 0 -5 -9 -10 -20 -10 -11 0 -20 -4 -20 -10 0 -5 -9 -10 -20 -10 -11 0 -20 -3 -20 -8 0 -4 -15 -13 -32 -21 -18 -8 -43 -23 -55 -34 -13 -11 -23 -17 -23 -12 0 4 -9 0 -21 -11 -12 -10 -24 -18 -28 -18 -13 3 -47 -14 -60 -30 -7 -9 -22 -16 -32 -16 -11 0 -19 -4 -19 -10 0 -5 -8 -10 -18 -10 -9 0 -23 -9 -30 -20 -7 -11 -20 -20 -30 -20 -9 0 -23 -9 -30 -20 -7 -11 -21 -20 -31 -20 -10 0 -21 -7 -24 -15 -3 -8 -25 -23 -49 -34 -24 -11 -56 -34 -73 -51 -16 -17 -46 -39 -65 -48 -19 -9 -52 -33 -72 -54 -20 -21 -41 -38 -47 -38 -7 0 -32 -20 -57 -45 -24 -25 -49 -45 -55 -45 -6 0 -34 -22 -62 -50 -28 -27 -56 -50 -62 -50 -13 0 -355 -348 -355 -362 0 -5 -31 -40 -70 -77 -38 -36 -70 -71 -70 -77 0 -5 -18 -28 -40 -49 -22 -21 -40 -44 -40 -50 0 -6 -14 -24 -30 -40 -16 -16 -30 -34 -30 -40 0 -6 -13 -24 -30 -40 -16 -16 -30 -34 -30 -40 0 -7 -9 -20 -21 -31 -11 -10 -29 -37 -39 -59 -10 -22 -30 -51 -44 -64 -14 -14 -26 -30 -26 -37 0 -6 -7 -17 -15 -24 -8 -7 -29 -42 -46 -77 -17 -35 -37 -67 -45 -70 -8 -3 -14 -13 -14 -22 0 -9 -9 -23 -20 -31 -11 -8 -20 -22 -20 -32 0 -10 -4 -18 -10 -18 -5 0 -10 -9 -10 -20 0 -11 -4 -20 -10 -20 -5 0 -10 -9 -10 -20 0 -11 -4 -20 -10 -20 -5 0 -10 -9 -10 -20 0 -11 -4 -20 -10 -20 -5 0 -10 -9 -10 -20 0 -11 -4 -20 -10 -20 -5 0 -10 -9 -10 -20 0 -11 -9 -25 -20 -32 -12 -8 -20 -24 -20 -40 0 -16 -4 -28 -10 -28 -5 0 -10 -9 -10 -20 0 -11 -3 -20 -8 -20 -12 0 -34 -58 -30 -82 2 -17 11 -24 31 -26 27 -3 35 -16 17 -27 -6 -3 -10 -16 -10 -29 0 -12 -13 -35 -30 -51 -27 -26 -30 -35 -30 -92 0 -43 -4 -62 -12 -60 -16 3 -49 -63 -44 -90 2 -17 -2 -23 -15 -23 -19 0 -20 -5 -24 -77 0 -12 -4 -25 -8 -29 -4 -4 -7 -21 -7 -38 0 -20 -7 -37 -20 -46 -16 -11 -20 -26 -20 -68 0 -47 -4 -58 -30 -82 -26 -25 -30 -35 -30 -83 0 -31 -3 -57 -7 -59 -5 -1 -18 -23 -31 -46 -19 -37 -22 -60 -22 -149 0 -104 0 -105 -30 -133 -29 -27 -30 -30 -30 -124 0 -53 -3 -96 -7 -96 -13 0 -33 -51 -33 -81 0 -15 -4 -31 -10 -34 -14 -9 -14 -1141 0 -1150 6 -3 10 -26 10 -51 0 -33 5 -47 20 -56 18 -11 20 -24 20 -110 0 -59 4 -98 10 -98 6 0 10 -8 10 -18 0 -9 9 -23 20 -30 18 -11 20 -23 20 -112 0 -81 4 -106 20 -135 11 -20 20 -44 20 -55 0 -11 5 -20 10 -20 6 0 10 -21 10 -46 0 -38 5 -51 30 -74 26 -24 30 -35 30 -82 0 -42 4 -57 20 -68 14 -10 20 -26 20 -56 0 -22 3 -44 7 -48 4 -4 8 -15 8 -24 4 -58 6 -62 24 -62 14 0 17 -6 14 -23 -5 -27 29 -93 46 -89 7 1 11 -18 11 -52 0 -30 4 -58 10 -61 5 -3 10 -14 10 -23 0 -10 9 -23 20 -30 13 -8 20 -23 20 -45 0 -24 9 -41 30 -62 16 -16 30 -39 30 -51 0 -12 13 -33 30 -47 22 -19 30 -34 30 -57 0 -23 9 -40 30 -60 17 -15 30 -33 30 -40 0 -7 14 -25 30 -40 21 -20 30 -37 30 -59 0 -25 12 -43 56 -86 46 -44 57 -61 59 -90 1 -24 10 -41 28 -56 15 -11 27 -29 27 -39 0 -10 7 -21 16 -24 8 -3 13 -10 10 -14 -3 -5 13 -26 34 -47 22 -22 40 -47 40 -56 0 -10 13 -23 30 -31 16 -7 30 -20 30 -28 0 -8 14 -26 30 -39 17 -13 30 -32 30 -42 0 -11 5 -19 10 -19 6 0 10 -7 10 -15 0 -8 35 -49 78 -92 43 -43 84 -90 91 -106 8 -15 23 -27 33 -27 11 0 18 -7 18 -20 0 -13 7 -20 19 -20 19 0 45 -23 36 -32 -3 -3 1 -11 10 -18 8 -7 15 -9 15 -5 0 4 7 2 15 -5 8 -7 15 -21 15 -31 0 -12 7 -19 20 -19 13 0 20 -7 20 -18 0 -11 15 -26 38 -38 23 -12 38 -28 40 -42 2 -12 11 -22 20 -22 8 0 37 -22 64 -50 26 -27 55 -50 63 -50 8 0 15 -4 15 -10 0 -5 7 -10 17 -10 9 0 43 -27 75 -60 33 -33 65 -60 72 -60 6 0 34 -22 61 -50 30 -30 58 -50 71 -50 13 0 32 -12 43 -27 15 -18 32 -27 56 -28 29 -2 46 -13 90 -59 43 -44 61 -56 85 -56 24 0 42 -11 80 -50 27 -27 56 -50 64 -50 9 0 16 -4 16 -10 0 -5 16 -10 36 -10 27 0 41 -7 61 -30 14 -17 35 -30 47 -30 12 0 35 -14 51 -30 21 -21 38 -30 62 -30 22 0 37 -7 45 -20 7 -11 20 -20 30 -20 9 0 20 -4 23 -10 3 -5 25 -10 48 -10 31 0 48 -7 69 -27 15 -14 36 -27 45 -28 10 -1 40 -12 66 -24 27 -12 55 -20 63 -17 7 3 16 1 19 -4 4 -6 22 -10 41 -10 23 0 38 -6 46 -20 9 -14 24 -20 50 -20 20 0 40 -5 43 -10 3 -6 16 -10 28 -10 13 0 29 -9 37 -20 11 -16 26 -20 70 -20 44 0 59 -4 70 -20 8 -11 24 -20 37 -20 12 0 25 -5 28 -10 3 -6 48 -10 101 -10 56 0 94 -4 94 -10 0 -5 9 -10 20 -10 11 0 20 -4 20 -10 0 -5 9 -10 20 -10 11 0 20 -4 20 -10 0 -6 40 -10 100 -10 55 0 100 -3 100 -7 0 -12 51 -33 77 -33 13 0 23 -4 23 -10 0 -7 210 -10 610 -10 400 0 610 3 610 10 0 6 10 10 23 10 26 0 77 21 77 33 0 4 45 7 100 7 60 0 100 4 100 10 0 6 9 10 20 10 11 0 20 5 20 10 0 6 9 10 20 10 11 0 20 5 20 10 0 6 38 10 94 10 53 0 98 4 101 10 3 5 16 10 28 10 13 0 29 9 37 20 11 16 26 20 70 20 44 0 59 4 70 20 8 11 24 20 37 20 12 0 25 5 28 10 3 6 23 10 43 10 26 0 41 6 50 20 8 13 23 20 45 20 19 0 37 3 40 6 4 4 25 8 49 10 23 3 50 12 60 21 10 9 28 17 39 18 11 1 32 14 47 28 21 20 38 27 69 27 23 0 45 5 48 10 3 6 14 10 23 10 10 0 23 9 30 20 8 13 23 20 45 20 24 0 41 9 62 30 16 16 38 30 48 30 11 0 33 14 49 30 21 22 37 30 63 30 19 0 35 5 35 10 0 6 7 10 16 10 8 0 37 23 64 50 38 39 56 50 80 50 24 0 42 12 85 56 44 46 61 57 90 59 24 1 41 10 56 28 11 15 30 27 43 27 13 0 41 20 71 50 27 28 55 50 61 50 7 0 39 27 72 60 36 37 67 60 81 60 13 0 43 22 79 60 32 33 66 60 74 60 9 0 18 10 20 22 2 14 17 30 41 42 22 12 37 27 37 38 0 11 7 18 20 18 13 0 20 7 20 19 0 10 7 24 15 31 8 7 15 9 15 5 0 -4 7 -2 15 5 9 7 13 15 10 18 -9 9 17 32 36 32 12 0 19 7 19 20 0 13 7 20 18 20 11 0 26 15 38 38 12 23 28 38 42 40 12 2 22 11 22 20 0 8 27 42 60 74 38 36 60 66 60 79 0 14 23 45 60 81 33 33 60 65 60 72 0 6 23 34 50 61 30 30 50 58 50 71 0 13 12 32 27 43 18 15 27 32 28 56 2 29 13 46 59 90 44 43 56 61 56 86 0 22 9 39 30 59 16 15 30 35 30 44 0 9 8 16 20 16 13 0 20 7 20 20 0 11 5 20 10 20 6 0 10 16 10 35 0 26 8 42 30 63 16 16 30 38 30 49 0 10 14 32 30 48 21 21 30 38 30 62 0 22 7 37 20 45 11 7 20 20 20 30 0 9 5 20 10 23 6 3 10 31 10 61 0 34 4 53 11 52 14 -4 52 60 46 76 -3 6 4 21 15 33 11 12 21 36 23 53 1 17 5 33 9 37 3 3 6 25 6 47 0 30 6 46 20 56 14 10 20 26 20 52 0 21 5 38 10 38 6 0 10 14 10 30 0 23 4 30 20 30 18 0 20 7 20 59 0 33 3 61 8 63 4 2 17 23 30 46 18 36 22 60 22 138 0 95 8 123 43 155 14 14 17 34 17 120 0 93 2 105 20 117 14 8 20 23 20 46 0 19 5 38 10 41 6 4 10 213 10 595 0 382 -4 591 -10 595 -5 3 -10 22 -10 41 0 23 -6 38 -20 46 -18 12 -20 24 -20 118 0 105 0 105 -30 129 -30 23 -30 24 -30 127 0 58 -4 106 -10 109 -5 3 -10 14 -10 24 0 21 -22 71 -32 71 -5 0 -8 22 -8 48 0 36 -5 51 -20 62 -11 8 -20 22 -20 32 0 10 -4 18 -10 18 -6 0 -10 27 -10 60 0 53 -2 60 -20 60 -17 0 -20 7 -20 43 0 24 -3 47 -7 51 -8 8 -9 12 -11 59 -2 19 -7 27 -21 27 -14 0 -17 6 -14 23 5 27 -29 93 -46 90 -7 -2 -11 19 -11 60 0 57 -3 66 -30 92 -16 16 -30 39 -30 51 0 13 -4 26 -10 29 -16 10 -12 19 12 30 40 19 44 39 17 92 -13 26 -27 50 -31 51 -5 2 -8 16 -8 30 0 16 -8 32 -20 40 -11 7 -20 21 -20 32 0 11 -4 20 -10 20 -5 0 -10 9 -10 20 0 11 -4 20 -10 20 -5 0 -10 9 -10 20 0 11 -4 20 -10 20 -5 0 -10 9 -10 20 0 11 -4 20 -10 20 -5 0 -10 9 -10 20 0 11 -4 20 -10 20 -5 0 -10 8 -10 18 0 10 -9 24 -20 32 -11 8 -20 22 -20 31 0 9 -6 19 -14 22 -8 3 -28 35 -45 70 -17 35 -38 70 -46 77 -8 7 -15 18 -15 25 0 6 -9 20 -20 30 -11 10 -20 23 -20 30 0 7 -9 20 -20 30 -11 10 -20 23 -20 30 0 6 -11 22 -25 35 -14 13 -25 29 -25 35 0 6 -13 24 -30 40 -16 16 -30 34 -30 40 0 6 -13 24 -30 40 -16 16 -30 34 -30 40 0 6 -18 29 -40 50 -22 21 -40 44 -40 49 0 6 -31 41 -70 77 -38 37 -70 72 -70 77 0 14 -342 362 -355 362 -6 0 -37 26 -70 57 -33 32 -63 57 -67 56 -3 -1 -25 15 -47 37 -23 22 -46 40 -52 40 -6 0 -27 17 -47 38 -20 21 -53 45 -72 54 -19 9 -48 31 -65 48 -16 17 -49 40 -73 51 -24 11 -46 26 -49 34 -3 8 -14 15 -24 15 -10 0 -24 9 -31 20 -7 11 -21 20 -30 20 -10 0 -23 9 -30 20 -7 11 -21 20 -30 20 -10 0 -18 5 -18 10 0 6 -8 10 -19 10 -10 0 -25 7 -32 16 -12 15 -62 39 -65 32 -1 -2 -11 6 -23 16 -12 11 -21 15 -21 11 0 -5 -10 1 -22 12 -13 11 -38 26 -55 34 -18 8 -33 17 -33 21 0 5 -9 8 -20 8 -11 0 -20 5 -20 10 0 6 -9 10 -20 10 -11 0 -20 5 -20 10 0 6 -9 10 -20 10 -11 0 -20 5 -20 10 0 6 -9 10 -20 10 -11 0 -20 5 -20 10 0 6 -9 10 -20 10 -11 0 -20 5 -20 10 0 6 -13 10 -30 10 -16 0 -30 5 -30 10 0 6 -9 10 -20 10 -11 0 -20 5 -20 10 0 6 -9 10 -20 10 -11 0 -20 5 -20 10 0 6 -13 10 -30 10 -16 0 -30 3 -30 8 0 8 -49 32 -67 32 -7 0 -28 9 -48 20 -20 11 -44 20 -55 20 -10 0 -22 5 -25 10 -3 6 -22 10 -41 10 -19 0 -34 5 -34 10 0 6 -13 10 -30 10 -16 0 -30 5 -30 10 0 6 -13 10 -30 10 -16 0 -30 5 -30 10 0 6 -13 10 -30 10 -16 0 -30 5 -30 10 0 6 -13 10 -30 10 -16 0 -30 5 -30 10 0 6 -18 10 -40 10 -22 0 -40 5 -40 10 0 6 -15 10 -34 10 -19 0 -38 5 -41 10 -3 6 -26 10 -50 10 -24 0 -47 5 -50 10 -3 6 -26 10 -50 10 -24 0 -47 5 -50 11 -4 6 -24 9 -45 8 -21 -2 -45 3 -53 10 -9 7 -35 11 -59 10 -24 -1 -54 3 -67 10 -14 8 -43 11 -72 9 -27 -3 -49 -1 -49 3 0 5 -56 9 -124 9 -73 0 -127 4 -131 10 -4 6 -117 10 -305 10 -188 0 -301 -4 -305 -10z m553 -195 c3 -3 -108 -5 -247 -5 -139 0 -250 3 -248 8 6 8 487 6 495 -3z m-943 -55 c4 -6 -15 -10 -50 -10 -35 0 -54 4 -50 10 3 6 26 10 50 10 24 0 47 -4 50 -10z m1490 0 c4 -6 -15 -10 -50 -10 -35 0 -54 4 -50 10 3 6 26 10 50 10 24 0 47 -4 50 -10z m-1740 -60 c-3 -5 -28 -10 -55 -10 -27 0 -52 5 -55 10 -4 6 17 10 55 10 38 0 59 -4 55 -10z m2000 0 c-3 -5 -28 -10 -55 -10 -27 0 -52 5 -55 10 -4 6 17 10 55 10 38 0 59 -4 55 -10z m-2315 -60 c0 -5 -7 -10 -15 -10 -8 0 -15 5 -15 10 0 6 7 10 15 10 8 0 15 -4 15 -10z m2550 0 c0 -5 -7 -10 -15 -10 -8 0 -15 5 -15 10 0 6 7 10 15 10 8 0 15 -4 15 -10z m-2685 -60 c-3 -5 -15 -10 -25 -10 -10 0 -22 5 -25 10 -4 6 7 10 25 10 18 0 29 -4 25 -10z m2840 0 c-3 -5 -15 -10 -25 -10 -10 0 -22 5 -25 10 -4 6 7 10 25 10 18 0 29 -4 25 -10z m2404 -1717 c0 -25 -1 -25 -8 -8 -5 11 -7 23 -4 28 8 14 13 7 12 -20z m-7686 -13 c3 -11 1 -23 -4 -26 -5 -3 -9 6 -9 20 0 31 6 34 13 6z m-93 -159 c0 -18 -18 -41 -32 -41 -9 0 -11 54 -2 63 11 10 34 -5 34 -22z m7900 -12 c0 -31 -9 -36 -28 -17 -16 16 -15 45 1 51 20 7 27 -2 27 -34z m-8020 -158 c0 -27 -20 -47 -34 -34 -10 10 -7 38 6 51 19 19 28 14 28 -17z m8140 -11 c0 -43 -4 -47 -26 -26 -22 23 -18 66 6 66 17 0 20 -7 20 -40z m-8200 -80 c0 -11 -4 -20 -10 -20 -5 0 -10 9 -10 20 0 11 5 20 10 20 6 0 10 -9 10 -20z m8240 0 c0 -11 -4 -20 -10 -20 -5 0 -10 9 -10 20 0 11 5 20 10 20 6 0 10 -9 10 -20z m78 -99 c-2 -25 -8 -37 -20 -39 -15 -3 -18 4 -18 41 0 41 2 45 21 40 16 -5 19 -12 17 -42z m-8378 -6 c0 -24 -5 -35 -14 -35 -23 0 -30 20 -15 46 18 34 29 30 29 -11z m8420 -106 c0 -16 -4 -29 -10 -29 -5 0 -10 16 -10 36 0 21 4 33 10 29 6 -3 10 -19 10 -36z m-8480 -4 c0 -14 -4 -25 -10 -25 -5 0 -10 11 -10 25 0 14 5 25 10 25 6 0 10 -11 10 -25z"/>
 <path d="M734 7156 c-11 -28 0 -61 21 -61 16 0 20 7 20 35 0 25 -5 36 -18 38 -9 2 -20 -3 -23 -12z"/>
 <path d="M9424 7156 c-11 -28 0 -61 21 -61 16 0 20 7 20 35 0 25 -5 36 -18 38 -9 2 -20 -3 -23 -12z"/>
 <path d="M9477 7032 c-18 -20 -23 -52 -8 -52 5 0 11 -10 13 -22 2 -13 11 -24 21 -26 15 -3 17 5 17 57 0 66 -12 77 -43 43z"/>
 <path d="M673 7003 c-7 -15 -13 -38 -13 -51 0 -20 4 -23 28 -20 19 2 28 9 30 26 2 12 8 22 13 22 15 0 10 22 -8 36 -26 20 -37 17 -50 -13z"/>
 </g>
<g id="layer102" fill="#003030" stroke="none">
 <path d="M4820 9837 c-3 -3 -49 -7 -103 -8 -69 -2 -101 -7 -109 -16 -30 -36 -62 -42 -195 -36 l-129 6 -11 -26 c-14 -31 -55 -44 -89 -28 -15 6 -24 7 -24 1 0 -6 -30 -10 -66 -10 -49 0 -79 -6 -121 -26 -31 -14 -70 -24 -87 -23 -17 1 -39 -2 -50 -6 -11 -5 -21 -3 -26 5 -6 10 -15 6 -35 -18 -15 -18 -33 -32 -41 -32 -8 0 -23 -6 -34 -12 -16 -10 -24 -10 -41 0 -18 11 -23 11 -35 -5 -7 -10 -14 -24 -14 -30 0 -9 -23 -13 -79 -13 -69 0 -83 -3 -108 -24 -15 -13 -44 -27 -63 -31 -19 -4 -45 -19 -56 -33 -18 -22 -29 -26 -63 -24 -40 3 -101 -22 -101 -40 0 -4 -17 -10 -38 -14 -28 -4 -43 -14 -60 -40 -20 -31 -26 -34 -55 -29 -28 6 -35 2 -55 -24 -17 -23 -31 -31 -55 -31 -38 0 -50 -7 -66 -37 -8 -16 -21 -23 -41 -23 -18 0 -41 -11 -61 -30 -23 -21 -36 -26 -45 -19 -7 5 -14 6 -16 2 -4 -11 -65 -53 -77 -53 -5 0 -21 -13 -34 -30 -14 -16 -36 -30 -47 -30 -22 0 -61 -27 -123 -85 -18 -16 -37 -30 -44 -31 -6 -1 -24 -14 -40 -28 -15 -14 -35 -26 -43 -26 -9 0 -23 -8 -31 -17 -9 -10 -42 -42 -72 -71 -31 -29 -61 -61 -67 -71 -5 -11 -18 -22 -28 -25 -9 -3 -22 -16 -27 -28 -7 -16 -20 -24 -43 -26 -17 -2 -32 -7 -32 -12 0 -5 -25 -26 -55 -47 -30 -21 -55 -46 -55 -55 0 -10 -17 -26 -39 -38 -37 -18 -48 -29 -95 -94 -11 -15 -32 -34 -48 -44 -15 -9 -28 -22 -28 -29 0 -7 -13 -22 -30 -35 -23 -16 -30 -30 -30 -55 0 -23 -6 -35 -22 -44 -26 -13 -218 -209 -218 -223 0 -5 -11 -18 -24 -30 -14 -11 -26 -33 -28 -49 -2 -15 -7 -26 -11 -25 -3 2 -17 -12 -30 -29 -13 -18 -36 -42 -50 -53 -22 -18 -25 -24 -15 -39 14 -23 4 -51 -20 -57 -9 -3 -25 -18 -34 -35 -9 -16 -24 -29 -31 -29 -18 0 -27 -21 -27 -62 0 -29 -30 -68 -52 -68 -4 0 -8 -11 -8 -24 0 -14 -4 -27 -10 -31 -5 -3 -7 -12 -4 -19 3 -8 -5 -16 -20 -20 -23 -6 -26 -12 -26 -46 0 -22 -5 -40 -11 -40 -5 0 -7 -5 -4 -10 3 -6 -5 -14 -19 -20 -18 -7 -26 -17 -26 -34 0 -13 -4 -26 -8 -28 -15 -6 -52 -66 -52 -85 0 -11 -13 -32 -30 -48 -27 -26 -30 -35 -30 -92 0 -36 -4 -62 -9 -59 -5 3 -14 -1 -21 -9 -7 -8 -10 -15 -6 -15 4 0 -1 -11 -10 -25 -9 -14 -14 -34 -11 -45 4 -15 0 -20 -14 -20 -19 0 -20 -4 -24 -77 0 -12 -4 -25 -8 -29 -4 -4 -7 -30 -7 -57 0 -40 -3 -50 -20 -54 -16 -4 -20 -14 -20 -50 0 -37 -5 -50 -30 -73 -26 -25 -30 -35 -30 -83 0 -31 -3 -57 -7 -59 -5 -1 -18 -23 -30 -46 -20 -37 -23 -60 -23 -149 0 -104 0 -105 -30 -133 -29 -27 -30 -30 -30 -124 0 -57 -4 -96 -10 -96 -5 0 -10 -9 -10 -20 0 -11 -4 -20 -10 -20 -5 0 -10 -15 -10 -34 0 -19 -5 -38 -10 -41 -14 -9 -14 -1141 0 -1150 6 -3 10 -26 10 -51 0 -33 5 -47 20 -56 18 -11 20 -24 20 -110 0 -59 4 -98 10 -98 6 0 10 -8 10 -18 0 -9 9 -23 20 -30 18 -11 20 -23 20 -112 0 -81 4 -106 20 -135 11 -20 20 -44 20 -55 0 -11 5 -20 10 -20 6 0 10 -21 10 -46 0 -38 5 -51 30 -74 26 -24 30 -35 30 -82 0 -42 4 -57 20 -68 14 -10 20 -26 20 -56 0 -22 3 -44 7 -48 4 -4 8 -15 8 -24 4 -58 6 -62 24 -62 14 0 17 -6 14 -23 -5 -27 29 -93 46 -89 7 1 11 -18 11 -52 0 -30 5 -58 10 -61 6 -3 10 -14 10 -23 0 -10 9 -23 20 -30 13 -8 20 -23 20 -45 0 -24 9 -41 30 -62 16 -16 30 -39 30 -51 0 -12 13 -33 30 -47 22 -19 30 -34 30 -57 0 -23 9 -40 30 -60 16 -15 30 -33 30 -40 0 -7 14 -25 30 -40 21 -20 30 -37 30 -59 0 -25 12 -43 56 -86 46 -44 57 -61 59 -90 1 -24 10 -41 28 -56 15 -11 27 -29 27 -39 0 -10 7 -21 16 -24 8 -3 13 -10 10 -14 -3 -5 13 -26 34 -47 22 -22 40 -47 40 -56 0 -10 14 -23 30 -31 17 -7 30 -20 30 -28 0 -8 14 -26 30 -39 17 -13 30 -32 30 -42 0 -11 5 -19 10 -19 6 0 10 -7 10 -15 0 -8 35 -49 78 -92 43 -43 84 -90 91 -105 8 -16 23 -28 33 -28 11 0 18 -7 18 -20 0 -13 7 -20 19 -20 19 0 45 -23 36 -32 -3 -3 1 -11 10 -18 8 -7 15 -9 15 -5 0 4 7 2 15 -5 8 -7 15 -21 15 -31 0 -12 7 -19 20 -19 13 0 20 -7 20 -18 0 -11 15 -26 37 -38 24 -12 39 -28 41 -42 2 -12 11 -22 20 -22 8 0 37 -23 64 -50 26 -28 55 -50 63 -50 8 0 15 -4 15 -10 0 -5 7 -10 17 -10 9 0 43 -27 75 -60 33 -33 65 -60 72 -60 6 0 34 -22 61 -50 30 -30 58 -50 71 -50 13 0 32 -12 43 -27 15 -18 32 -27 56 -28 29 -2 46 -13 90 -59 43 -44 61 -56 85 -56 24 0 42 -11 80 -50 27 -27 56 -50 64 -50 9 0 16 -4 16 -10 0 -5 16 -10 36 -10 27 0 41 -7 61 -30 14 -17 35 -30 47 -30 12 0 35 -14 51 -30 21 -21 38 -30 62 -30 22 0 37 -7 45 -20 7 -11 20 -20 30 -20 9 0 20 -4 23 -10 3 -5 25 -10 48 -10 31 0 48 -7 69 -27 15 -14 36 -27 45 -28 10 -1 40 -12 66 -24 27 -12 55 -20 63 -17 7 3 16 1 19 -4 4 -6 22 -10 41 -10 23 0 38 -6 46 -20 9 -14 24 -20 50 -20 20 0 40 -4 43 -10 3 -5 16 -10 28 -10 13 0 29 -9 37 -20 11 -16 26 -20 70 -20 44 0 59 -4 70 -20 8 -11 24 -20 37 -20 12 0 25 -4 28 -10 3 -6 48 -10 101 -10 56 0 94 -4 94 -10 0 -5 9 -10 20 -10 11 0 20 -4 20 -10 0 -5 9 -10 20 -10 11 0 20 -4 20 -10 0 -6 40 -10 100 -10 55 0 100 -3 100 -7 0 -12 51 -33 77 -33 13 0 23 -4 23 -10 0 -7 210 -10 610 -10 400 0 610 3 610 10 0 6 10 10 23 10 26 0 77 21 77 33 0 4 45 7 100 7 60 0 100 4 100 10 0 6 9 10 20 10 11 0 20 5 20 10 0 6 9 10 20 10 11 0 20 5 20 10 0 6 38 10 94 10 53 0 98 4 101 10 3 6 16 10 28 10 13 0 29 9 37 20 11 16 26 20 70 20 44 0 59 4 70 20 8 11 24 20 37 20 12 0 25 4 28 10 3 5 23 10 43 10 26 0 41 6 50 20 8 13 23 20 45 20 19 0 37 3 40 6 4 4 25 8 49 10 23 3 50 12 60 21 10 9 28 17 39 18 11 1 32 14 47 28 21 20 38 27 69 27 23 0 45 5 48 10 3 6 14 10 23 10 10 0 23 9 30 20 8 13 23 20 45 20 24 0 41 9 62 30 16 16 38 30 48 30 11 0 33 14 49 30 21 22 37 30 63 30 19 0 35 5 35 10 0 6 7 10 16 10 8 0 37 23 64 50 38 39 56 50 80 50 24 0 42 12 85 56 44 46 61 57 90 59 24 1 41 10 56 28 11 15 30 27 43 27 13 0 41 20 71 50 27 28 55 50 61 50 7 0 39 27 72 60 36 37 67 60 81 60 13 0 43 22 79 60 32 33 66 60 74 60 9 0 18 10 20 22 2 14 17 30 41 42 22 12 37 27 37 38 0 11 7 18 20 18 13 0 20 7 20 19 0 10 7 24 15 31 8 7 15 9 15 5 0 -4 7 -2 15 5 9 7 13 15 10 18 -9 9 17 32 36 32 12 0 19 7 19 20 0 13 7 20 18 20 11 0 26 15 38 38 12 23 28 38 42 40 12 2 22 11 22 19 0 9 27 43 60 75 35 35 60 68 60 80 0 13 25 46 60 80 33 33 60 65 60 72 0 6 20 32 45 56 24 24 47 56 50 72 4 15 18 37 32 48 18 14 27 31 28 55 2 29 13 46 59 90 44 43 56 61 56 86 0 22 9 39 30 59 17 15 30 35 30 44 0 9 7 16 16 16 9 0 18 9 21 20 3 11 9 20 14 20 5 0 9 16 9 36 0 27 7 43 30 64 17 15 30 38 30 50 0 12 14 33 30 47 23 18 30 33 30 59 0 23 6 38 20 46 11 7 20 20 20 30 0 9 5 20 10 23 6 3 10 31 10 61 0 34 4 53 11 52 14 -4 52 60 46 76 -3 6 4 21 15 33 11 12 21 36 23 53 1 17 5 33 9 37 3 3 6 26 6 50 0 32 5 46 20 55 14 9 20 24 20 50 0 20 5 40 10 43 6 3 10 17 10 31 0 17 5 24 20 24 18 0 20 7 20 59 0 33 5 63 10 66 6 3 10 16 10 28 0 13 9 29 20 37 18 13 20 26 20 122 0 65 4 108 10 108 6 0 10 6 10 13 0 8 9 22 20 32 18 16 20 31 20 141 0 122 0 123 30 156 l30 32 0 588 c0 385 -3 588 -10 588 -5 0 -19 9 -30 20 -18 18 -20 33 -20 136 0 107 -2 116 -20 121 -22 6 -33 32 -24 57 3 9 1 16 -5 16 -7 0 -11 36 -11 110 0 67 -4 110 -10 110 -5 0 -10 7 -10 15 0 8 -4 15 -10 15 -5 0 -10 13 -10 29 0 17 -4 33 -10 36 -5 3 -10 27 -10 52 0 31 -6 51 -17 62 -28 25 -43 58 -43 90 0 23 -5 30 -22 33 -22 3 -23 7 -20 66 2 34 -1 68 -6 75 -6 7 -12 28 -14 47 -2 23 -8 35 -18 35 -8 0 -14 8 -12 17 4 23 -30 98 -44 98 -7 0 -14 28 -18 68 -6 56 -11 71 -31 86 -14 10 -25 28 -25 40 0 29 -15 50 -29 41 -23 -13 -39 14 -34 55 4 31 2 40 -9 40 -26 0 -48 35 -48 76 0 35 -4 41 -30 51 -27 10 -30 15 -30 57 0 35 -4 48 -17 53 -30 11 -43 30 -43 62 0 17 -4 31 -9 31 -5 0 -22 20 -38 44 -15 24 -37 47 -48 52 -12 5 -22 22 -25 41 -6 40 -64 123 -85 123 -12 0 -15 6 -10 20 5 15 -2 28 -24 47 -17 15 -31 33 -31 40 0 7 -10 22 -23 35 -12 13 -29 32 -37 43 -8 11 -41 43 -72 70 -32 27 -58 54 -58 60 0 5 -10 15 -22 20 -16 7 -24 20 -26 43 -2 24 -8 32 -23 32 -11 0 -19 7 -19 16 0 28 -53 91 -85 100 -18 5 -31 17 -33 29 -5 27 -50 73 -76 77 -11 2 -26 14 -33 28 -7 14 -18 33 -25 43 -14 20 -63 49 -70 42 -3 -3 -15 6 -28 20 -13 14 -28 25 -34 25 -6 0 -43 34 -81 76 -39 43 -81 86 -94 98 -14 12 -35 31 -48 43 -12 11 -36 24 -53 28 -16 4 -30 13 -30 20 0 17 -30 34 -47 28 -7 -3 -13 0 -13 7 0 14 -27 41 -65 65 -16 10 -34 24 -38 32 -4 7 -19 13 -34 13 -15 0 -33 10 -44 24 -11 13 -40 34 -65 46 -25 13 -48 29 -51 37 -4 10 -9 11 -18 3 -10 -8 -21 -3 -44 21 -23 23 -38 30 -56 27 -19 -4 -31 2 -50 28 -21 27 -33 34 -60 34 -25 0 -39 7 -55 28 -18 21 -30 27 -63 27 -35 0 -42 4 -56 32 -12 24 -23 33 -42 33 -14 0 -44 14 -65 31 -36 28 -43 31 -91 25 -50 -6 -53 -5 -70 24 -12 21 -25 30 -43 30 -15 0 -41 13 -60 30 -31 28 -39 30 -112 30 -56 0 -78 4 -78 13 0 6 -7 20 -14 30 -12 16 -17 16 -35 5 -17 -10 -25 -10 -41 0 -11 6 -26 12 -34 12 -8 0 -26 14 -41 32 -20 24 -29 28 -35 18 -5 -8 -15 -10 -26 -5 -11 4 -41 7 -68 5 -38 -1 -53 3 -73 22 -20 19 -38 24 -104 27 -43 1 -79 7 -79 12 0 5 -12 4 -27 -2 -38 -14 -71 -3 -86 28 l-11 26 -130 -6 c-130 -6 -150 -3 -189 31 -10 9 -26 17 -35 19 -31 7 -737 16 -742 10z m-1495 -2282 c63 -64 115 -121 115 -127 0 -6 35 -47 78 -92 44 -44 86 -91 94 -104 14 -21 144 -155 539 -559 77 -77 139 -146 139 -151 0 -12 76 -82 90 -82 5 0 16 -12 24 -27 8 -16 46 -62 86 -103 39 -41 78 -86 86 -100 9 -14 34 -37 55 -53 22 -15 44 -37 48 -50 5 -12 87 -102 183 -199 283 -290 342 -351 368 -383 14 -16 37 -38 53 -48 15 -9 27 -23 27 -30 0 -20 166 -199 612 -659 73 -76 144 -152 157 -169 13 -17 34 -36 47 -41 13 -6 27 -20 30 -32 4 -12 42 -56 85 -98 43 -43 86 -91 95 -107 10 -16 29 -35 42 -43 14 -7 38 -31 54 -53 29 -40 142 -158 476 -501 98 -99 197 -206 222 -236 25 -31 54 -62 66 -68 11 -6 30 -31 42 -55 13 -26 34 -51 52 -60 17 -9 39 -29 49 -46 14 -22 408 -434 548 -572 49 -49 78 -47 -744 -47 -570 -1 -779 2 -795 11 -13 6 -62 50 -109 98 -179 179 -369 352 -399 362 -20 7 -38 25 -50 50 -13 24 -35 46 -58 58 -20 11 -53 36 -72 56 -19 20 -43 44 -53 53 -11 9 -35 34 -55 55 -87 91 -366 357 -374 357 -4 0 -43 35 -86 78 -44 43 -92 84 -109 91 -17 7 -34 24 -40 41 -7 18 -31 42 -62 61 -28 18 -51 38 -51 45 0 6 -16 25 -35 41 -64 50 -328 300 -583 550 -89 88 -164 106 -190 47 -9 -18 -12 -293 -12 -1029 0 -552 -2 -1009 -5 -1017 -4 -11 -125 -12 -681 -10 -593 2 -679 1 -700 -12 -34 -23 -57 -10 -50 27 3 16 6 136 6 266 l0 236 292 0 292 0 13 25 c10 20 13 473 13 2241 0 1219 3 2219 7 2222 3 4 8 7 10 7 2 0 55 -52 118 -115z"/>
 </g>
<g id="layer103" fill="#005050" stroke="none">
 <path d="M4820 9831 c-8 -4 -47 -11 -87 -14 -39 -3 -94 -16 -122 -28 -57 -24 -73 -25 -218 -14 -100 8 -103 7 -103 -13 0 -44 -81 -69 -114 -36 -9 8 -16 11 -16 5 0 -7 -23 -11 -57 -11 -45 0 -65 -5 -95 -27 -31 -21 -53 -27 -114 -31 -58 -4 -78 -1 -85 9 -7 12 -9 11 -9 -2 0 -24 -40 -60 -63 -58 -12 1 -30 -2 -41 -6 -11 -5 -27 -3 -40 5 -11 7 -18 9 -14 5 4 -4 -2 -20 -13 -36 -19 -27 -21 -28 -88 -22 -65 5 -71 4 -96 -21 -14 -14 -34 -27 -43 -28 -9 0 -21 -2 -27 -3 -5 -2 -17 -3 -27 -4 -9 0 -21 -15 -27 -32 l-11 -31 -56 7 c-54 6 -57 6 -85 -26 -23 -26 -37 -33 -63 -32 -29 1 -36 -4 -47 -28 -15 -37 -36 -50 -66 -38 -16 6 -26 4 -35 -7 -42 -50 -49 -55 -79 -49 -25 6 -31 2 -50 -30 -20 -33 -26 -37 -55 -32 -22 4 -34 1 -38 -8 -2 -7 -22 -21 -43 -31 -21 -10 -50 -26 -65 -36 -14 -10 -35 -18 -45 -18 -11 0 -25 -11 -31 -25 -7 -14 -23 -27 -39 -31 -15 -3 -45 -19 -65 -35 -20 -16 -40 -29 -43 -29 -4 0 -20 -14 -37 -30 -17 -17 -33 -29 -35 -26 -3 3 -16 -8 -30 -25 -15 -17 -35 -29 -49 -29 -13 0 -28 -9 -34 -20 -6 -11 -16 -20 -23 -20 -7 -1 -33 -24 -60 -53 -136 -149 -147 -159 -164 -155 -10 2 -22 -5 -28 -16 -6 -11 -19 -23 -30 -26 -34 -9 -85 -53 -85 -72 0 -11 -12 -23 -28 -30 -34 -15 -82 -58 -82 -74 0 -7 -22 -30 -49 -51 -27 -21 -56 -50 -66 -65 -9 -16 -23 -28 -31 -28 -12 0 -13 -8 -9 -34 6 -30 3 -37 -22 -53 -35 -23 -223 -209 -223 -221 0 -5 -11 -21 -25 -36 -14 -15 -27 -37 -29 -49 -2 -12 -9 -21 -16 -19 -6 1 -9 -1 -7 -5 3 -5 -14 -28 -39 -52 -34 -35 -42 -50 -38 -68 5 -19 -5 -35 -55 -84 -46 -47 -61 -69 -61 -90 0 -31 -26 -69 -47 -69 -12 0 -18 -31 -13 -73 1 -12 -9 -22 -29 -30 -28 -10 -31 -16 -31 -54 0 -32 -5 -46 -22 -57 -12 -8 -25 -13 -30 -10 -4 3 -8 -6 -8 -20 0 -13 -4 -26 -8 -28 -15 -6 -52 -66 -52 -85 0 -11 -14 -32 -30 -48 -27 -26 -30 -35 -30 -92 0 -36 -4 -62 -9 -59 -5 3 -14 -1 -21 -9 -7 -8 -10 -15 -6 -15 4 0 -1 -11 -10 -25 -9 -14 -14 -34 -11 -45 4 -15 0 -20 -14 -20 -19 0 -20 -4 -24 -77 0 -12 -4 -25 -8 -29 -4 -4 -7 -31 -7 -60 0 -44 -3 -54 -20 -59 -16 -5 -20 -15 -20 -47 0 -32 -6 -46 -30 -68 -26 -25 -30 -35 -30 -83 0 -31 -3 -57 -7 -59 -5 -1 -18 -23 -31 -46 -19 -37 -22 -60 -22 -149 0 -104 0 -105 -30 -133 -29 -27 -30 -30 -30 -124 0 -57 -4 -96 -10 -96 -5 0 -10 -9 -10 -20 0 -11 -4 -20 -10 -20 -5 0 -10 -15 -10 -34 0 -19 -4 -38 -10 -41 -14 -9 -14 -1141 0 -1150 6 -3 10 -26 10 -51 0 -33 5 -47 20 -56 18 -11 20 -24 20 -110 0 -59 4 -98 10 -98 6 0 10 -8 10 -18 0 -9 9 -23 20 -30 18 -11 20 -23 20 -112 0 -81 4 -106 20 -135 11 -20 20 -44 20 -55 0 -11 5 -20 10 -20 6 0 10 -21 10 -46 0 -38 5 -51 30 -74 26 -24 30 -35 30 -82 0 -42 4 -57 20 -68 14 -10 20 -26 20 -56 0 -22 3 -44 7 -48 4 -4 8 -15 8 -24 4 -58 6 -62 24 -62 14 0 17 -6 14 -23 -5 -27 29 -93 46 -89 7 1 11 -18 11 -52 0 -30 4 -58 10 -61 5 -3 10 -14 10 -23 0 -10 9 -23 20 -30 13 -8 20 -23 20 -45 0 -24 9 -41 30 -62 16 -16 30 -39 30 -51 0 -12 13 -33 30 -47 22 -19 30 -34 30 -57 0 -23 9 -40 30 -60 17 -15 30 -33 30 -40 0 -7 14 -25 30 -40 21 -20 30 -37 30 -59 0 -25 12 -43 56 -86 46 -44 57 -61 59 -90 1 -24 10 -41 28 -56 15 -11 27 -29 27 -39 0 -10 7 -21 16 -24 8 -3 13 -10 10 -14 -3 -5 13 -26 34 -47 22 -22 40 -47 40 -56 0 -10 13 -23 30 -31 16 -7 30 -20 30 -28 0 -8 14 -26 30 -39 17 -13 30 -32 30 -42 0 -11 5 -19 10 -19 6 0 10 -7 10 -15 0 -8 35 -49 78 -92 43 -43 84 -90 91 -105 8 -16 23 -28 33 -28 11 0 18 -7 18 -20 0 -13 7 -20 19 -20 19 0 45 -23 36 -32 -3 -3 1 -11 10 -18 8 -7 15 -9 15 -5 0 4 7 2 15 -5 8 -7 15 -21 15 -31 0 -12 7 -19 20 -19 13 0 20 -7 20 -18 0 -11 15 -26 38 -38 23 -12 38 -28 40 -42 2 -12 11 -22 20 -22 8 0 37 -23 64 -50 26 -28 55 -50 63 -50 8 0 15 -4 15 -10 0 -5 7 -10 17 -10 9 0 43 -27 75 -60 33 -33 65 -60 72 -60 6 0 34 -23 61 -50 30 -30 58 -50 71 -50 13 0 32 -12 43 -27 15 -18 32 -27 56 -28 29 -2 46 -13 90 -59 43 -44 61 -56 85 -56 24 0 42 -11 80 -50 27 -27 56 -50 64 -50 9 0 16 -4 16 -10 0 -5 16 -10 36 -10 27 0 41 -7 61 -30 14 -17 35 -30 47 -30 12 0 35 -13 51 -30 21 -21 38 -30 62 -30 22 0 37 -7 45 -20 7 -11 20 -20 30 -20 9 0 20 -4 23 -10 3 -5 25 -10 48 -10 31 0 48 -7 69 -27 15 -14 36 -27 45 -28 10 -1 40 -12 66 -24 27 -12 55 -20 63 -17 7 3 16 1 19 -4 4 -6 22 -10 41 -10 23 0 38 -6 46 -20 9 -14 24 -20 50 -20 20 0 40 -4 43 -10 3 -5 16 -10 28 -10 13 0 29 -9 37 -20 11 -16 26 -20 70 -20 44 0 59 -4 70 -20 8 -11 24 -20 37 -20 12 0 25 -4 28 -10 3 -6 48 -10 101 -10 56 0 94 -4 94 -10 0 -5 9 -10 20 -10 11 0 20 -4 20 -10 0 -5 9 -10 20 -10 11 0 20 -4 20 -10 0 -6 40 -10 100 -10 55 0 100 -3 100 -7 0 -12 51 -33 77 -33 13 0 23 -4 23 -10 0 -7 210 -10 610 -10 400 0 610 3 610 10 0 6 10 10 23 10 26 0 77 21 77 33 0 4 45 7 100 7 60 0 100 4 100 10 0 6 9 10 20 10 11 0 20 5 20 10 0 6 9 10 20 10 11 0 20 5 20 10 0 6 38 10 94 10 53 0 98 4 101 10 3 6 16 10 28 10 13 0 29 9 37 20 11 16 26 20 70 20 44 0 59 4 70 20 8 11 24 20 37 20 12 0 25 5 28 10 3 6 23 10 43 10 26 0 41 6 50 20 8 13 23 20 45 20 19 0 37 3 40 6 4 4 25 8 49 10 23 3 50 12 60 21 10 9 28 17 39 18 11 1 32 14 47 28 21 20 38 27 69 27 23 0 45 4 48 10 3 5 14 10 23 10 10 0 23 9 30 20 8 13 23 20 45 20 24 0 41 9 62 30 16 17 38 30 48 30 11 0 33 13 49 30 21 22 37 30 63 30 19 0 35 5 35 10 0 6 7 10 16 10 8 0 37 23 64 50 38 39 56 50 80 50 24 0 42 12 85 56 44 46 61 57 90 59 24 1 41 10 56 28 11 15 30 27 43 27 13 0 41 20 71 50 27 27 55 50 61 50 7 0 39 27 72 60 36 37 67 60 81 60 13 0 43 22 79 60 32 33 66 60 74 60 9 0 18 10 20 22 2 14 17 30 41 42 22 12 37 27 37 38 0 11 7 18 20 18 13 0 20 7 20 19 0 10 7 24 15 31 8 7 15 9 15 5 0 -4 7 -2 15 5 9 7 13 15 10 18 -9 9 17 32 36 32 12 0 19 7 19 20 0 13 7 20 18 20 11 0 26 15 38 38 12 23 28 38 42 40 12 2 22 11 22 19 0 9 27 43 60 75 35 35 60 68 60 80 0 13 25 46 60 80 33 33 60 65 60 72 0 6 20 32 45 56 24 24 47 56 50 72 4 15 18 37 32 48 18 14 27 31 28 55 2 29 13 46 59 90 44 43 56 61 56 86 0 22 9 39 30 59 16 15 30 35 30 44 0 9 7 16 16 16 9 0 18 9 21 20 3 11 9 20 14 20 5 0 9 16 9 36 0 27 7 43 30 64 17 15 30 38 30 50 0 12 14 33 30 47 23 18 30 33 30 59 0 23 6 38 20 46 11 7 20 20 20 30 0 9 5 20 10 23 6 3 10 31 10 61 0 34 4 53 11 52 14 -4 52 60 46 76 -3 6 4 21 15 33 11 12 21 36 23 53 1 17 5 33 9 37 3 3 6 26 6 50 0 32 5 46 20 55 14 9 20 24 20 50 0 20 5 40 10 43 6 3 10 17 10 31 0 17 5 24 20 24 18 0 20 7 20 85 0 85 0 86 30 103 l30 17 0 108 c0 69 4 107 11 107 6 0 9 12 7 27 -2 22 1 28 17 28 19 0 20 7 20 130 1 146 6 172 38 177 l22 3 3 593 c1 325 -1 592 -6 592 -4 0 -13 -5 -18 -10 -8 -8 -15 -6 -25 6 -11 13 -13 46 -11 141 3 115 2 123 -15 123 -38 0 -58 51 -31 78 9 9 9 12 0 12 -9 0 -12 30 -12 106 0 99 -2 108 -24 128 -28 26 -39 53 -23 60 9 3 9 5 0 5 -9 1 -13 19 -13 57 0 41 -5 61 -17 73 -26 24 -43 58 -43 86 0 18 -5 25 -19 25 -29 0 -47 28 -33 51 14 22 16 91 3 105 -5 5 -11 25 -13 44 -2 23 -8 35 -18 35 -8 0 -14 8 -12 17 4 25 -16 68 -32 68 -18 0 -22 15 -31 103 -5 49 -10 67 -21 67 -9 0 -13 4 -10 9 3 5 -1 11 -9 15 -8 3 -15 16 -15 28 0 24 -20 64 -20 41 0 -21 -38 -15 -50 7 -7 14 -8 26 0 39 17 33 12 46 -22 56 -32 10 -33 12 -30 57 3 44 1 47 -27 53 -33 7 -45 30 -35 69 5 21 0 32 -25 55 -19 18 -31 39 -31 55 0 14 -4 26 -10 26 -5 0 -16 12 -24 28 -8 15 -30 43 -50 62 -20 19 -36 44 -36 56 0 11 -5 25 -11 31 -6 6 -16 21 -23 34 -6 12 -24 30 -41 39 -24 13 -30 24 -31 51 0 27 -4 34 -20 34 -14 0 -20 8 -22 33 -2 20 -9 32 -18 32 -8 0 -18 8 -21 18 -10 25 -84 97 -120 116 -17 8 -34 24 -37 34 -4 11 -18 24 -31 30 -14 6 -25 20 -25 30 0 10 -11 28 -25 40 -14 13 -23 27 -20 32 10 15 -5 50 -20 50 -8 0 -17 9 -20 20 -4 14 -15 20 -35 20 -20 0 -31 6 -35 21 -4 11 -5 23 -2 25 6 7 -53 65 -61 60 -16 -9 -53 15 -50 31 4 26 -52 79 -80 75 -15 -2 -30 5 -43 22 -11 14 -24 26 -29 26 -13 0 -100 86 -100 99 0 13 -96 111 -110 111 -5 0 -14 8 -19 19 -7 13 -18 17 -35 14 -18 -4 -31 3 -52 26 -15 17 -32 31 -38 31 -7 0 -20 14 -29 30 -10 17 -24 30 -31 30 -20 0 -67 40 -61 51 4 5 -8 9 -24 9 -30 0 -71 29 -71 50 0 6 -13 10 -29 10 -16 0 -34 7 -41 15 -14 17 -67 45 -85 45 -7 0 -15 9 -18 20 -4 16 -11 18 -39 13 -32 -5 -37 -2 -57 32 -19 32 -25 36 -50 30 -30 -6 -37 -1 -79 49 -9 12 -18 13 -37 6 -35 -13 -52 -4 -65 36 -11 32 -14 34 -44 28 -35 -6 -55 7 -77 48 -9 17 -17 19 -52 14 -79 -13 -81 -13 -96 22 -13 28 -20 32 -51 32 -38 0 -96 40 -82 55 4 4 -27 5 -70 1 -76 -7 -76 -7 -97 22 -11 16 -17 33 -13 37 4 4 -3 2 -14 -5 -13 -8 -29 -10 -40 -5 -11 4 -32 8 -48 9 -22 1 -33 9 -47 36 -11 19 -19 29 -19 21 0 -10 -19 -12 -83 -10 -73 4 -87 7 -116 32 -27 23 -42 27 -92 27 -40 0 -59 4 -59 13 0 8 -2 9 -8 1 -24 -38 -105 -26 -124 17 l-13 31 -110 -8 c-138 -9 -146 -9 -192 15 -21 11 -78 26 -128 32 -109 14 -624 22 -645 10z m-1495 -2256 c66 -70 161 -171 210 -226 98 -110 217 -237 515 -548 252 -264 252 -264 274 -296 10 -15 34 -36 52 -47 18 -11 36 -27 39 -36 3 -9 68 -82 145 -160 77 -79 140 -148 140 -153 0 -5 24 -33 53 -62 28 -29 142 -147 252 -262 110 -116 227 -238 260 -271 33 -34 98 -105 145 -159 47 -53 108 -120 135 -148 28 -29 106 -110 174 -182 67 -71 173 -182 235 -246 61 -64 128 -135 149 -157 21 -23 42 -42 46 -42 5 0 12 -9 17 -19 5 -11 70 -84 145 -163 75 -79 165 -174 199 -213 35 -38 156 -166 269 -284 113 -118 240 -251 281 -295 41 -44 98 -103 125 -131 28 -27 61 -66 74 -86 14 -20 37 -45 53 -55 16 -10 37 -32 47 -49 16 -28 140 -159 395 -419 128 -131 206 -217 206 -228 0 -4 -357 -8 -793 -8 l-793 0 -36 28 c-20 15 -136 122 -258 237 -122 116 -235 217 -250 225 -16 8 -39 31 -52 50 -13 19 -38 45 -57 57 -28 19 -273 250 -494 466 -33 31 -64 57 -69 57 -6 0 -38 28 -72 63 -113 114 -225 217 -236 217 -6 0 -18 13 -28 30 -10 16 -36 43 -57 60 -22 17 -89 79 -150 138 -343 329 -459 438 -478 449 -32 18 -72 16 -90 -5 -15 -17 -17 -107 -19 -1043 l-3 -1024 -725 -5 c-478 -3 -728 -2 -732 5 -9 11 -11 509 -2 540 5 19 12 20 282 17 271 -4 278 -3 305 18 l27 21 0 2228 c0 1225 3 2231 7 2234 3 4 9 7 12 7 3 0 60 -56 126 -125z"/>
 </g>
<g id="layer104" fill="#008484" stroke="none">
 <path d="M4826 9825 c-11 -8 -34 -15 -50 -15 -17 0 -65 -10 -106 -21 -86 -25 -237 -36 -253 -20 -6 6 -33 11 -60 11 -42 0 -48 -2 -43 -18 4 -12 -1 -26 -14 -37 -21 -19 -52 -20 -173 -9 -65 5 -69 5 -102 -24 -38 -34 -99 -48 -167 -38 -40 6 -44 4 -60 -24 -18 -31 -54 -40 -75 -19 -8 8 -13 8 -17 0 -4 -6 -17 -11 -29 -11 -14 0 -28 -11 -39 -30 -13 -23 -24 -30 -48 -30 -16 0 -30 5 -30 10 0 6 -20 10 -45 10 -31 0 -45 -4 -45 -13 0 -8 -11 -24 -24 -36 -20 -19 -31 -22 -69 -16 -43 7 -45 6 -40 -14 3 -12 0 -28 -7 -36 -14 -17 -66 -20 -75 -5 -3 6 -19 10 -36 10 -22 0 -29 -5 -29 -18 0 -31 -34 -54 -75 -50 -35 2 -38 0 -49 -32 -11 -33 -13 -35 -57 -34 -40 2 -47 -1 -62 -28 -16 -28 -21 -30 -55 -25 -35 6 -38 4 -57 -31 -13 -25 -28 -38 -45 -40 -14 -2 -33 -11 -42 -19 -9 -8 -25 -13 -35 -11 -10 2 -38 -11 -62 -29 -26 -19 -51 -31 -61 -28 -11 3 -21 -4 -30 -20 -8 -14 -25 -28 -39 -32 -14 -3 -39 -19 -56 -35 -16 -15 -40 -28 -51 -28 -13 0 -24 -8 -27 -20 -3 -11 -14 -23 -25 -27 -11 -5 -32 -23 -47 -41 -23 -27 -34 -33 -55 -28 -22 4 -29 0 -38 -20 -11 -22 -17 -26 -39 -23 -4 0 -10 -9 -15 -20 -4 -12 -18 -25 -31 -30 -13 -5 -29 -23 -36 -39 -20 -47 -154 -162 -190 -162 -11 0 -26 -9 -33 -20 -7 -11 -21 -20 -31 -20 -14 0 -17 -5 -12 -20 8 -26 -12 -52 -35 -45 -22 7 -80 -48 -80 -75 0 -11 -9 -24 -20 -30 -11 -6 -20 -8 -20 -5 0 3 -18 -12 -40 -34 -22 -21 -40 -48 -40 -60 0 -11 -4 -21 -9 -21 -5 0 -12 -12 -16 -28 -5 -26 -66 -87 -127 -126 -15 -10 -30 -26 -33 -36 -3 -11 -14 -22 -24 -25 -10 -3 -23 -17 -29 -30 -6 -14 -18 -25 -27 -25 -9 0 -15 -9 -15 -25 0 -15 -12 -35 -30 -51 -16 -15 -27 -30 -24 -35 2 -4 -18 -31 -46 -60 -34 -35 -50 -60 -50 -78 0 -18 -15 -40 -49 -73 -27 -26 -47 -49 -45 -51 3 -2 -2 -10 -11 -17 -8 -7 -15 -25 -15 -41 0 -16 -4 -29 -9 -29 -5 0 -13 -9 -16 -20 -3 -11 -13 -20 -22 -20 -12 0 -15 -8 -10 -39 6 -44 -6 -61 -40 -61 -22 0 -24 -4 -22 -46 3 -47 -15 -74 -48 -74 -7 0 -13 -9 -13 -20 0 -11 -4 -20 -10 -20 -5 0 -10 -7 -10 -15 0 -8 -9 -23 -20 -32 -11 -10 -20 -27 -20 -38 0 -12 -14 -34 -30 -50 -27 -26 -30 -35 -30 -92 0 -36 -4 -62 -9 -59 -5 3 -14 -1 -21 -9 -7 -8 -10 -15 -6 -15 4 0 -1 -11 -10 -25 -9 -14 -14 -34 -11 -45 4 -15 0 -20 -14 -20 -19 0 -20 -3 -24 -75 -1 -11 -5 -26 -9 -33 -4 -7 -6 -36 -4 -65 3 -48 1 -52 -20 -55 -19 -3 -22 -10 -22 -44 0 -32 -6 -46 -30 -68 -26 -25 -30 -35 -30 -83 0 -31 -3 -57 -7 -59 -5 -1 -18 -23 -30 -46 -20 -37 -23 -60 -23 -149 0 -104 0 -105 -30 -133 -29 -27 -30 -30 -30 -124 0 -57 -4 -96 -10 -96 -5 0 -10 -9 -10 -20 0 -11 -4 -20 -10 -20 -5 0 -10 -15 -10 -34 0 -19 -4 -38 -10 -41 -14 -9 -14 -1141 0 -1150 5 -3 10 -26 10 -51 0 -33 5 -47 20 -56 18 -11 20 -24 20 -110 0 -59 4 -98 10 -98 6 0 10 -8 10 -18 0 -9 9 -23 20 -30 18 -11 20 -23 20 -112 0 -81 4 -106 20 -135 11 -20 20 -44 20 -55 0 -11 5 -20 10 -20 6 0 10 -21 10 -46 0 -38 5 -51 30 -74 26 -24 30 -35 30 -82 0 -42 4 -57 20 -68 14 -10 20 -26 20 -56 0 -22 3 -44 7 -48 4 -4 8 -15 8 -24 4 -58 6 -62 24 -62 14 0 17 -6 14 -23 -5 -27 29 -93 46 -89 7 1 11 -18 11 -52 0 -30 4 -58 10 -61 5 -3 10 -14 10 -23 0 -10 9 -23 20 -30 13 -8 20 -23 20 -45 0 -24 9 -41 30 -62 16 -16 30 -39 30 -51 0 -12 13 -33 30 -47 22 -19 30 -34 30 -57 0 -23 9 -40 30 -60 16 -15 30 -33 30 -40 0 -7 13 -25 30 -40 21 -20 30 -37 30 -59 0 -25 12 -43 56 -86 46 -44 57 -61 59 -90 1 -24 10 -41 28 -56 15 -11 27 -29 27 -39 0 -10 7 -21 16 -24 8 -3 13 -10 10 -14 -3 -5 13 -26 34 -47 22 -22 40 -47 40 -56 0 -10 13 -23 30 -31 16 -7 30 -20 30 -28 0 -8 14 -26 30 -39 17 -13 30 -32 30 -42 0 -11 5 -19 10 -19 6 0 10 -7 10 -15 0 -8 35 -49 78 -92 43 -43 84 -90 91 -106 8 -15 23 -27 33 -27 11 0 18 -7 18 -20 0 -13 7 -20 19 -20 19 0 45 -23 36 -32 -3 -3 1 -11 10 -18 8 -7 15 -9 15 -5 0 4 7 2 15 -5 8 -7 15 -21 15 -31 0 -12 7 -19 20 -19 13 0 20 -7 20 -18 0 -11 15 -26 37 -38 24 -12 39 -28 41 -42 2 -12 11 -22 20 -22 8 0 37 -23 64 -50 26 -28 55 -50 63 -50 8 0 15 -4 15 -10 0 -5 7 -10 17 -10 9 0 43 -27 75 -60 33 -33 65 -60 72 -60 6 0 34 -22 61 -50 30 -30 58 -50 71 -50 13 0 32 -12 43 -27 15 -18 32 -27 56 -28 29 -2 46 -13 90 -59 43 -44 61 -56 85 -56 24 0 42 -11 80 -50 27 -27 56 -50 64 -50 9 0 16 -4 16 -10 0 -5 16 -10 36 -10 27 0 41 -7 61 -30 14 -17 35 -30 47 -30 12 0 35 -14 51 -30 21 -21 38 -30 62 -30 22 0 37 -7 45 -20 7 -11 20 -20 30 -20 9 0 20 -5 23 -10 3 -6 25 -10 48 -10 31 0 48 -7 69 -27 15 -14 36 -27 45 -28 10 -1 40 -12 66 -24 27 -12 55 -20 63 -17 7 3 16 1 19 -4 4 -6 22 -10 41 -10 23 0 38 -6 46 -20 9 -14 24 -20 50 -20 20 0 40 -4 43 -10 3 -5 16 -10 28 -10 13 0 29 -9 37 -20 11 -16 26 -20 70 -20 44 0 59 -4 70 -20 8 -11 24 -20 37 -20 12 0 25 -4 28 -10 3 -6 48 -10 101 -10 56 0 94 -4 94 -10 0 -5 9 -10 20 -10 11 0 20 -4 20 -10 0 -5 9 -10 20 -10 11 0 20 -4 20 -10 0 -6 40 -10 100 -10 55 0 100 -3 100 -7 0 -12 51 -33 77 -33 13 0 23 -4 23 -10 0 -7 210 -10 610 -10 400 0 610 3 610 10 0 6 10 10 23 10 26 0 77 21 77 33 0 4 45 7 100 7 60 0 100 4 100 10 0 6 9 10 20 10 11 0 20 5 20 10 0 6 9 10 20 10 11 0 20 5 20 10 0 6 38 10 94 10 53 0 98 4 101 10 3 6 16 10 28 10 13 0 29 9 37 20 11 16 26 20 70 20 44 0 59 4 70 20 8 11 24 20 37 20 12 0 25 5 28 10 3 6 23 10 43 10 26 0 41 6 50 20 8 13 23 20 45 20 19 0 37 3 40 6 4 4 25 8 49 10 23 3 50 12 60 21 10 9 28 17 39 18 11 1 32 14 47 28 21 20 38 27 69 27 23 0 45 4 48 10 3 5 14 10 23 10 10 0 23 9 30 20 8 13 23 20 45 20 24 0 41 9 62 30 16 16 38 30 48 30 11 0 33 14 49 30 21 22 37 30 63 30 19 0 35 5 35 10 0 6 7 10 16 10 8 0 37 22 64 50 38 39 56 50 80 50 24 0 42 12 85 56 44 46 61 57 90 59 24 1 41 10 56 28 11 15 30 27 43 27 13 0 41 20 71 50 27 28 55 50 61 50 7 0 39 27 72 60 36 37 67 60 81 60 13 0 43 22 79 60 32 33 66 60 74 60 9 0 18 10 20 22 2 14 17 30 41 42 22 12 37 27 37 38 0 11 7 18 20 18 13 0 20 7 20 19 0 10 7 24 15 31 8 7 15 9 15 5 0 -4 7 -2 15 5 9 7 13 15 10 18 -9 9 17 32 36 32 12 0 19 7 19 20 0 13 7 20 18 20 11 0 26 15 38 38 12 23 28 38 42 40 12 2 22 11 22 19 0 9 27 43 60 75 39 39 60 68 60 83 0 13 12 32 30 46 16 13 30 29 30 34 0 6 14 19 30 30 16 11 30 27 30 36 0 8 14 28 30 44 17 16 30 34 30 40 0 7 9 20 20 30 11 10 20 24 20 31 0 7 12 22 27 33 18 15 27 32 28 56 2 29 13 46 59 90 44 43 56 61 56 86 0 22 9 39 30 59 17 15 30 35 30 44 0 9 6 16 14 16 8 0 18 9 21 20 3 11 11 20 16 20 5 0 9 16 9 36 0 27 7 43 30 64 17 15 30 38 30 50 0 12 14 33 30 47 23 18 30 33 30 59 0 23 6 38 20 46 11 7 20 20 20 30 0 9 5 20 10 23 6 3 10 31 10 61 0 34 4 53 11 52 15 -4 52 61 45 78 -3 8 4 23 15 33 12 11 22 33 24 50 1 17 5 34 9 38 3 3 6 30 6 60 0 46 3 53 20 53 17 0 20 7 20 39 0 22 5 43 10 46 5 3 10 17 10 31 0 22 10 29 33 25 4 -1 7 40 6 90 -2 95 4 109 44 109 15 0 17 13 17 138 0 146 9 182 44 169 14 -6 16 4 16 83 0 49 -5 100 -11 114 -9 20 -8 32 7 63 19 38 64 64 51 28 -4 -9 -3 -14 2 -11 10 7 15 1041 5 1103 -4 28 -10 40 -19 36 -8 -2 -21 6 -29 19 -21 32 -32 113 -17 122 6 4 11 36 11 75 0 66 0 68 -32 82 l-33 14 2 148 c2 147 2 148 -21 157 -34 13 -37 21 -38 110 0 45 -3 78 -6 75 -10 -10 -32 18 -32 41 0 12 -4 26 -10 29 -5 3 -10 17 -10 30 0 18 -6 24 -27 27 -22 2 -29 9 -31 32 -2 16 1 33 7 39 14 14 14 84 1 92 -5 3 -10 15 -10 25 0 10 -7 23 -16 28 -8 5 -17 24 -18 43 -4 49 -4 49 -25 49 -27 0 -43 24 -35 54 8 31 -4 118 -15 112 -4 -3 -17 3 -28 14 -16 14 -20 28 -16 52 4 34 4 34 -31 30 -30 -4 -37 -1 -45 19 -6 16 -4 33 5 51 18 35 18 38 -5 38 -10 0 -29 9 -42 19 -21 17 -22 22 -11 40 18 30 15 51 -7 51 -30 0 -61 32 -63 67 -1 18 -8 35 -16 38 -10 3 -12 13 -8 30 4 14 2 25 -4 25 -5 0 -10 13 -10 29 0 21 -5 28 -17 27 -12 -1 -19 7 -21 22 -2 13 -21 42 -43 64 -21 22 -39 47 -39 56 0 8 -8 24 -17 35 -10 10 -18 25 -18 33 0 8 -16 22 -35 32 -19 9 -40 28 -47 42 -7 13 -19 30 -28 36 -18 13 -22 39 -9 69 7 17 6 18 -8 8 -12 -11 -18 -9 -33 7 -9 10 -15 26 -12 34 3 8 -2 16 -14 19 -10 3 -23 16 -28 30 -6 15 -21 27 -38 31 -29 8 -123 93 -123 112 0 7 -12 19 -26 29 -19 12 -25 23 -21 41 3 17 -2 28 -19 38 -16 11 -21 22 -17 37 5 19 4 20 -16 8 -29 -19 -55 -1 -59 39 -4 36 -43 73 -70 65 -24 -6 -46 21 -39 47 3 13 0 20 -9 20 -8 0 -22 9 -31 20 -10 11 -27 20 -39 20 -29 0 -172 138 -183 176 -5 16 -14 28 -21 26 -17 -4 -40 17 -40 37 0 12 -8 17 -27 16 -23 0 -28 5 -33 30 -4 20 -8 26 -13 18 -5 -7 -16 -13 -26 -13 -22 0 -134 108 -125 121 3 5 -8 9 -25 9 -20 0 -37 9 -54 30 -14 17 -34 30 -45 30 -20 0 -52 29 -52 47 0 5 -13 8 -29 5 -24 -3 -36 3 -62 32 -23 26 -35 34 -44 26 -8 -7 -29 -2 -68 18 -44 21 -60 35 -69 59 -11 31 -14 32 -50 27 -34 -6 -39 -4 -55 23 -15 27 -21 30 -58 25 -52 -5 -62 6 -74 78 -1 2 -6 -1 -13 -8 -29 -29 -98 1 -98 44 0 29 -30 32 -78 8 -48 -23 -80 -1 -73 53 1 9 -12 10 -48 6 -48 -5 -50 -5 -73 31 -18 29 -29 36 -55 36 -17 0 -35 -4 -38 -10 -3 -5 -20 -10 -36 -10 -23 0 -34 7 -47 30 -10 18 -25 30 -38 30 -11 0 -25 5 -31 11 -8 8 -13 8 -17 0 -4 -6 -20 -11 -35 -11 -22 0 -31 7 -41 30 -12 29 -14 30 -61 24 -77 -10 -137 3 -169 38 -27 29 -29 30 -96 24 -122 -11 -153 -10 -174 9 -13 11 -18 25 -14 37 5 16 -1 18 -45 18 -27 0 -53 -4 -56 -10 -10 -16 -162 -12 -196 5 -16 9 -70 22 -120 29 -50 7 -96 19 -102 25 -8 8 -91 11 -266 11 -209 -1 -260 -3 -275 -15z m-1599 -2130 c5 -8 60 -68 123 -133 63 -65 149 -156 190 -202 74 -84 161 -176 355 -380 55 -58 170 -179 255 -270 85 -91 182 -192 215 -226 113 -114 210 -219 237 -256 15 -20 41 -44 57 -54 17 -10 34 -27 37 -39 7 -21 44 -60 405 -435 119 -124 242 -255 273 -292 31 -37 66 -74 78 -82 11 -8 29 -27 39 -42 9 -15 62 -72 116 -128 54 -56 184 -191 287 -301 104 -110 209 -221 235 -246 25 -26 84 -89 131 -140 47 -51 110 -118 141 -149 30 -30 100 -104 154 -165 112 -125 154 -170 279 -298 238 -245 412 -430 421 -447 6 -10 33 -42 62 -72 29 -29 114 -118 190 -198 76 -80 201 -210 278 -290 188 -195 200 -209 188 -221 -7 -7 -288 -10 -808 -10 l-798 1 -34 26 c-18 14 -44 35 -56 47 -238 229 -387 368 -425 397 -26 19 -72 60 -103 90 -83 81 -386 370 -448 426 -30 27 -68 64 -85 83 -17 18 -43 39 -57 46 -14 8 -62 49 -106 92 -148 144 -320 308 -359 343 -21 18 -155 144 -297 280 -142 135 -267 249 -277 254 -13 6 -29 5 -45 -2 l-25 -12 0 -1024 c0 -852 -2 -1025 -14 -1035 -9 -8 -215 -11 -741 -12 -654 0 -729 1 -737 16 -14 24 -6 551 8 565 8 8 93 11 289 10 248 -1 279 1 296 16 18 17 19 79 19 2235 0 1219 3 2224 6 2233 8 20 40 21 51 1z"/>
 </g>
<g id="layer105" fill="#00b2b2" stroke="none">
 <path d="M4645 9745 c-44 -7 -125 -20 -180 -29 -314 -51 -536 -98 -665 -142 -58 -19 -134 -42 -170 -51 -36 -8 -96 -28 -134 -44 -38 -16 -73 -29 -78 -29 -5 0 -26 -11 -46 -25 -22 -15 -51 -25 -73 -25 -23 0 -42 -7 -54 -20 -10 -11 -24 -20 -30 -20 -7 0 -52 -20 -101 -44 -49 -24 -123 -60 -164 -79 -42 -19 -100 -51 -128 -71 -29 -20 -67 -39 -85 -43 -18 -3 -43 -15 -57 -27 -47 -41 -106 -76 -128 -76 -14 0 -27 -9 -33 -23 -5 -12 -43 -40 -84 -62 -41 -22 -77 -45 -79 -52 -3 -7 -20 -22 -39 -35 -19 -13 -58 -42 -87 -65 -29 -24 -62 -43 -76 -43 -16 0 -24 -6 -24 -18 0 -16 -120 -130 -209 -197 -21 -16 -44 -40 -50 -53 -6 -12 -21 -26 -35 -31 -25 -10 -76 -54 -76 -66 0 -4 -28 -35 -63 -69 -34 -34 -71 -74 -82 -90 -32 -46 -118 -126 -142 -132 -13 -3 -23 -13 -23 -21 0 -7 -11 -25 -24 -38 -14 -13 -27 -34 -31 -45 -3 -11 -15 -25 -26 -30 -10 -6 -19 -17 -19 -25 0 -8 -31 -46 -68 -83 -38 -38 -71 -76 -75 -85 -4 -10 -13 -17 -22 -17 -8 0 -15 -8 -15 -18 0 -10 -4 -22 -9 -28 -5 -5 -11 -18 -13 -29 -2 -10 -14 -22 -28 -25 -19 -4 -24 -12 -25 -35 0 -23 -5 -31 -22 -33 -17 -2 -23 -10 -23 -27 0 -13 -6 -25 -12 -28 -10 -3 -10 -7 -1 -18 9 -11 8 -20 -2 -39 -8 -14 -14 -32 -15 -41 0 -27 -33 -59 -62 -61 -19 -2 -28 -8 -28 -20 0 -10 5 -18 10 -18 14 0 12 -46 -3 -58 -6 -6 -24 -13 -38 -17 -24 -6 -26 -10 -22 -44 4 -30 1 -39 -12 -45 -10 -3 -24 -1 -31 5 -8 6 -14 10 -15 8 0 -2 -2 -17 -4 -34 -2 -16 -9 -31 -15 -33 -5 -2 -10 -8 -10 -13 0 -6 5 -7 11 -3 7 4 4 -7 -7 -25 -21 -35 -30 -39 -37 -13 -3 9 -5 -18 -6 -61 -1 -73 -3 -78 -26 -87 -24 -9 -43 -50 -32 -68 3 -4 -5 -21 -19 -38 -16 -18 -24 -37 -21 -52 2 -12 0 -25 -4 -28 -12 -7 -12 -61 0 -66 4 -1 11 -13 15 -24 8 -26 -16 -54 -45 -54 -15 0 -19 -7 -19 -31 0 -22 -9 -41 -30 -61 -27 -26 -30 -34 -30 -93 0 -49 -4 -67 -15 -71 -31 -12 -45 -64 -45 -172 0 -103 0 -105 -30 -134 -30 -28 -30 -30 -30 -133 0 -70 -4 -105 -11 -105 -6 0 -9 -7 -5 -15 3 -9 0 -15 -9 -15 -10 0 -15 -10 -15 -29 0 -17 -5 -33 -10 -36 -6 -4 -10 -207 -10 -575 0 -368 4 -571 10 -575 5 -3 10 -24 10 -46 0 -26 7 -46 20 -59 17 -17 20 -33 20 -115 0 -57 4 -95 10 -95 6 0 10 -8 10 -18 0 -9 9 -23 20 -30 18 -11 20 -23 20 -111 0 -103 14 -153 47 -166 15 -5 15 -7 3 -15 -10 -7 -11 -10 -2 -10 8 0 12 -18 12 -56 0 -49 4 -59 30 -84 26 -24 30 -35 30 -82 0 -42 4 -57 20 -68 14 -10 20 -26 20 -56 0 -22 3 -44 7 -48 4 -4 8 -15 8 -24 4 -58 6 -62 24 -62 14 0 17 -6 14 -23 -5 -27 29 -93 46 -89 7 1 11 -18 11 -52 0 -30 5 -58 10 -61 6 -3 10 -14 10 -23 0 -10 9 -23 20 -30 13 -8 20 -23 20 -45 0 -24 9 -41 30 -62 16 -16 30 -39 30 -51 0 -12 13 -33 30 -47 22 -19 30 -34 30 -57 0 -23 9 -40 30 -60 17 -15 30 -33 30 -40 0 -7 14 -25 30 -40 21 -20 30 -37 30 -59 0 -25 12 -43 56 -86 46 -44 57 -61 59 -90 1 -24 10 -41 28 -56 15 -11 27 -29 27 -39 0 -10 7 -21 16 -24 8 -3 13 -10 10 -14 -3 -5 13 -26 34 -47 22 -22 40 -47 40 -56 0 -10 14 -23 30 -31 17 -7 30 -20 30 -28 0 -8 14 -26 30 -39 17 -13 30 -32 30 -42 0 -11 5 -19 10 -19 6 0 10 -7 10 -15 0 -8 35 -49 78 -92 43 -43 84 -90 91 -105 8 -16 23 -28 33 -28 11 0 18 -7 18 -20 0 -13 7 -20 19 -20 19 0 45 -23 36 -32 -3 -3 1 -11 10 -18 8 -7 15 -9 15 -5 0 4 7 2 15 -5 8 -7 15 -21 15 -31 0 -12 7 -19 20 -19 13 0 20 -7 20 -18 0 -11 15 -26 37 -38 24 -12 39 -28 41 -42 2 -12 11 -22 20 -22 8 0 37 -22 64 -50 26 -27 55 -50 63 -50 8 0 15 -4 15 -10 0 -5 8 -10 19 -10 10 0 29 -13 42 -30 13 -16 29 -30 34 -30 6 0 19 -14 30 -30 11 -16 27 -30 35 -30 9 0 38 -23 65 -50 30 -30 58 -50 71 -50 13 0 32 -12 43 -27 15 -18 32 -27 56 -28 29 -2 46 -13 90 -59 43 -44 61 -56 85 -56 24 0 42 -11 80 -50 27 -27 56 -50 64 -50 9 0 16 -4 16 -10 0 -5 16 -10 36 -10 27 0 41 -7 61 -30 14 -17 35 -30 47 -30 12 0 35 -14 51 -30 21 -21 38 -30 62 -30 22 0 37 -7 45 -20 7 -11 20 -20 30 -20 9 0 20 -4 23 -10 3 -5 24 -10 47 -10 31 0 49 -7 75 -30 23 -21 41 -29 54 -25 12 4 19 2 19 -6 0 -7 3 -9 7 -6 3 4 14 0 24 -9 10 -9 32 -17 49 -19 17 -1 33 -5 37 -9 3 -3 21 -6 40 -6 22 0 37 -7 45 -20 9 -14 24 -20 50 -20 20 0 40 -5 43 -10 3 -5 16 -10 28 -10 13 0 29 -9 37 -20 11 -16 26 -20 68 -20 39 0 58 -5 74 -20 12 -11 30 -20 39 -20 10 0 21 -4 24 -10 3 -6 48 -10 101 -10 56 0 94 -4 94 -10 0 -5 9 -10 20 -10 11 0 20 -4 20 -10 0 -5 9 -10 20 -10 11 0 20 -4 20 -10 0 -6 40 -10 100 -10 55 0 100 -3 100 -7 0 -12 51 -33 77 -33 13 0 23 -4 23 -10 0 -7 210 -10 610 -10 400 0 610 3 610 10 0 6 10 10 23 10 26 0 77 21 77 33 0 4 45 7 100 7 60 0 100 4 100 10 0 6 9 10 20 10 11 0 20 5 20 10 0 6 9 10 20 10 11 0 20 5 20 10 0 6 38 10 94 10 53 0 98 4 101 10 3 6 14 10 24 10 9 0 27 9 39 20 16 15 35 20 74 20 42 0 57 4 68 20 8 11 24 20 37 20 12 0 25 4 28 10 3 5 23 10 43 10 26 0 41 6 50 20 8 13 23 20 45 20 19 0 37 3 40 6 4 4 25 8 49 10 23 3 50 12 60 21 10 9 28 17 39 18 11 1 32 14 47 28 21 20 38 27 69 27 23 0 45 5 48 10 3 6 14 10 23 10 10 0 23 9 30 20 8 13 23 20 45 20 24 0 41 9 62 30 16 16 38 30 48 30 11 0 33 14 49 30 21 22 37 30 63 30 19 0 35 5 35 10 0 6 7 10 16 10 8 0 37 23 64 50 38 39 56 50 80 50 24 0 42 12 85 56 44 46 61 57 90 59 24 1 41 10 56 28 11 15 30 27 43 27 13 0 41 20 71 50 27 28 57 50 65 50 9 0 23 11 30 25 7 14 17 25 22 25 4 0 23 15 41 34 17 19 43 36 57 38 14 2 48 27 81 60 30 32 63 58 71 58 9 0 18 10 20 22 2 14 17 30 41 42 22 12 37 27 37 38 0 11 7 18 20 18 13 0 20 7 20 19 0 10 7 24 15 31 8 7 15 9 15 5 0 -4 7 -2 15 5 9 7 13 15 10 18 -9 9 17 32 36 32 12 0 19 7 19 20 0 14 7 20 21 20 11 0 18 4 15 9 -3 5 1 11 9 15 8 3 15 12 15 20 0 17 39 48 52 40 4 -3 8 4 8 15 0 11 9 26 20 34 11 8 17 17 13 20 -3 4 -2 7 4 7 19 0 78 66 81 91 2 13 17 36 33 50 16 15 29 33 29 40 0 8 13 20 30 27 16 8 29 17 29 20 -3 18 3 30 21 50 12 12 17 22 13 23 -4 0 1 4 12 9 17 7 17 9 3 9 -10 1 -18 7 -18 14 0 31 54 68 64 44 2 -7 5 -5 5 5 1 9 13 26 28 37 18 15 27 32 28 57 2 28 14 48 59 94 39 42 56 67 56 86 0 17 11 38 29 55 22 21 31 39 33 71 3 36 7 43 28 48 23 6 25 10 22 56 -3 56 16 81 49 63 16 -8 19 -6 18 13 0 13 -4 32 -8 43 -12 28 5 55 33 55 17 0 26 7 30 24 3 14 15 28 26 31 11 3 20 11 20 17 0 7 -5 6 -14 -1 -10 -8 -16 -9 -21 -1 -3 5 3 14 14 18 11 4 21 12 23 17 2 6 6 9 10 8 4 -2 5 31 3 72 -4 73 -4 74 25 95 24 17 30 18 30 6 0 -8 -5 -18 -10 -21 -5 -3 -10 -14 -10 -23 0 -11 6 -6 15 12 12 23 13 36 5 56 -18 45 24 109 44 68 4 -7 4 -3 2 9 -2 13 0 26 5 29 15 9 10 76 -7 95 -24 26 -6 73 29 77 25 3 26 6 21 50 -6 55 12 97 41 97 14 0 21 8 23 28 2 15 -1 27 -7 27 -19 0 -22 40 -8 83 8 23 20 61 26 84 9 32 16 41 30 38 15 -3 18 4 19 37 1 23 -3 47 -9 54 -16 19 -15 106 1 145 16 38 35 61 44 52 5 -6 26 39 26 57 0 5 -7 7 -15 4 -24 -10 -29 44 -12 130 36 175 42 201 50 196 10 -6 31 29 23 37 -3 4 -6 1 -6 -5 0 -22 -18 -12 -24 14 -9 34 1 64 22 64 14 0 15 2 2 9 -8 6 -17 8 -21 5 -11 -6 -9 80 2 97 6 10 9 8 9 -11 l0 -25 15 29 c11 21 15 63 15 162 0 123 -10 174 -23 122 -4 -12 -1 -25 4 -29 8 -5 8 -9 0 -13 -21 -13 -32 48 -36 197 -3 81 -7 153 -10 158 -13 20 -43 225 -38 252 3 16 1 38 -6 50 -40 79 -52 167 -26 201 8 11 15 33 15 49 0 25 -2 28 -15 17 -24 -20 -41 3 -54 73 -27 138 -34 164 -52 203 -10 22 -19 57 -19 78 0 26 -9 48 -29 74 -46 59 -51 125 -10 135 22 6 27 61 7 73 -7 4 -8 3 -4 -5 12 -19 -13 -42 -34 -31 -20 11 -50 69 -50 99 0 11 -11 31 -25 45 -31 31 -35 85 -6 93 12 3 17 11 14 20 -4 9 -14 13 -28 9 -28 -7 -47 14 -68 77 -9 26 -28 62 -42 78 -14 17 -25 35 -25 41 0 17 -67 148 -110 212 -22 34 -43 77 -46 96 -4 19 -15 40 -24 47 -26 19 -80 107 -80 131 0 12 -8 23 -19 27 -11 3 -34 27 -50 53 -51 79 -104 150 -178 238 -24 28 -43 59 -43 68 0 9 -10 21 -22 27 -13 6 -61 56 -108 110 -100 117 -312 329 -425 426 -44 37 -93 83 -111 101 -17 17 -35 32 -41 32 -6 0 -43 26 -82 58 -39 31 -89 71 -111 87 -22 17 -54 40 -69 53 -16 12 -33 22 -39 22 -5 0 -24 13 -41 29 -18 17 -42 33 -53 37 -21 6 -110 66 -136 91 -7 7 -21 13 -31 13 -10 0 -45 17 -78 39 -46 30 -318 168 -403 205 -8 4 -26 13 -40 21 -14 8 -36 15 -50 15 -14 0 -40 9 -59 21 -51 31 -188 84 -256 98 -33 7 -71 19 -85 26 -67 33 -252 81 -485 125 -462 87 -497 90 -911 89 -254 -1 -394 -5 -449 -14z m-1415 -2022 c12 -16 72 -80 133 -144 62 -64 148 -155 192 -203 44 -48 128 -138 186 -199 254 -270 302 -320 434 -462 77 -82 167 -177 200 -211 33 -34 107 -112 165 -174 58 -62 114 -120 124 -129 10 -9 26 -25 35 -35 42 -51 400 -435 616 -660 47 -49 162 -172 255 -272 70 -75 441 -469 553 -588 37 -39 116 -122 175 -185 59 -62 123 -130 142 -150 19 -20 123 -131 230 -246 207 -222 327 -350 425 -450 65 -67 86 -89 281 -300 71 -77 136 -147 144 -156 360 -379 476 -502 483 -514 5 -9 1 -21 -13 -35 -20 -20 -29 -20 -817 -20 -925 0 -805 -17 -962 133 -53 51 -161 152 -241 225 -80 74 -177 163 -215 200 -187 178 -383 361 -505 472 -129 118 -374 346 -450 420 -20 19 -121 114 -225 210 -104 96 -215 200 -246 230 -115 112 -212 195 -228 195 -15 0 -16 -92 -21 -1030 -3 -566 -6 -1031 -8 -1032 -32 -20 -128 -23 -786 -23 -548 0 -725 3 -734 12 -9 9 -12 91 -12 309 0 248 2 299 15 309 10 9 86 11 284 10 177 0 278 3 291 10 20 11 20 17 20 2248 0 1727 3 2241 12 2250 20 20 45 14 68 -15z m6590 -2625 c0 -45 -3 -59 -10 -48 -13 20 -13 110 0 110 6 0 10 -27 10 -62z m4 -86 c-7 -4 -14 -16 -17 -27 -4 -15 -5 -14 -6 8 -1 20 4 27 17 27 11 0 13 -3 6 -8z m-1097 -2969 c-9 -9 -19 -14 -23 -11 -10 10 6 28 24 28 15 0 15 -1 -1 -17z"/>
 <path d="M9833 5560 c0 -25 2 -35 4 -22 2 12 2 32 0 45 -2 12 -4 2 -4 -23z"/>
 <path d="M9833 4620 c0 -25 2 -35 4 -22 2 12 2 32 0 45 -2 12 -4 2 -4 -23z"/>
 </g>
<g id="layer106" fill="#00dcdc" stroke="none">
 <path d="M4805 9720 c-33 -4 -128 -15 -212 -24 -188 -19 -284 -34 -348 -52 -27 -7 -84 -19 -125 -25 -41 -6 -87 -17 -101 -25 -15 -7 -46 -16 -70 -20 -73 -10 -380 -106 -474 -148 -16 -8 -41 -17 -55 -21 -37 -10 -263 -110 -340 -150 -25 -12 -56 -26 -70 -30 -14 -4 -37 -16 -52 -26 -14 -11 -66 -40 -115 -65 -48 -26 -122 -69 -163 -95 -41 -27 -79 -49 -85 -49 -7 0 -20 -8 -29 -19 -9 -10 -57 -45 -107 -77 -50 -33 -118 -82 -152 -110 -34 -28 -75 -57 -90 -65 -15 -9 -51 -36 -80 -62 -237 -214 -311 -282 -372 -342 -111 -110 -271 -286 -300 -330 -15 -22 -40 -53 -55 -70 -28 -30 -87 -108 -132 -174 -13 -19 -38 -49 -56 -67 -17 -18 -32 -39 -32 -47 0 -16 -43 -78 -81 -116 -14 -14 -29 -39 -33 -56 -4 -16 -25 -55 -45 -85 -21 -31 -41 -65 -45 -77 -4 -12 -17 -34 -29 -49 -12 -15 -33 -51 -47 -78 -14 -28 -35 -55 -48 -61 -12 -5 -20 -16 -17 -23 2 -7 -3 -30 -11 -52 -13 -31 -22 -40 -40 -40 -13 0 -25 -6 -26 -12 0 -7 -4 10 -8 37 l-7 50 -1 -67 c-1 -38 2 -68 7 -68 16 0 23 -40 11 -55 -7 -8 -23 -15 -36 -15 -13 0 -24 -6 -25 -12 0 -7 -4 -4 -9 7 -9 20 -9 20 -9 0 -1 -11 5 -29 13 -40 18 -26 4 -65 -23 -65 -11 0 -22 6 -25 13 -3 6 -4 -1 -2 -17 2 -16 -1 -38 -7 -47 -9 -15 -7 -23 11 -42 40 -43 20 -107 -34 -107 -20 0 -24 -5 -24 -31 0 -16 -4 -28 -8 -25 -4 2 -8 -8 -7 -22 0 -19 -7 -30 -24 -37 -22 -9 -23 -14 -17 -70 7 -68 -11 -109 -41 -98 -11 4 -14 3 -9 -5 4 -7 2 -12 -3 -12 -6 0 -11 -12 -11 -27 0 -21 3 -24 9 -13 6 8 8 17 6 20 -2 4 2 7 10 7 8 0 15 -4 15 -9 0 -4 -5 -8 -11 -8 -6 0 -9 -6 -6 -13 3 -7 -1 -21 -9 -32 -9 -13 -14 -47 -14 -106 0 -107 -4 -121 -36 -113 -24 6 -24 6 -24 -78 0 -49 5 -89 11 -95 16 -16 4 -52 -29 -88 -15 -17 -24 -26 -19 -21 4 6 7 19 6 31 0 13 -2 15 -6 5 -2 -8 -7 -22 -11 -30 -9 -23 -10 -1150 0 -1156 4 -3 8 -16 8 -28 0 -15 7 -26 19 -29 13 -3 19 -13 18 -26 -1 -15 -6 -20 -17 -16 -12 4 -11 2 2 -8 14 -11 17 -33 19 -110 1 -73 5 -97 15 -97 8 0 11 -8 9 -21 -3 -12 -2 -19 2 -16 3 4 12 -1 19 -11 9 -11 14 -50 14 -112 0 -103 2 -107 43 -133 27 -18 27 -18 21 -97 -6 -71 -5 -80 10 -80 10 0 15 -4 12 -8 -3 -5 4 -15 15 -22 15 -12 19 -26 19 -73 0 -50 2 -58 16 -53 12 4 15 2 10 -9 -3 -8 -1 -15 4 -15 6 0 10 -19 10 -43 0 -24 3 -47 7 -51 4 -4 8 -15 8 -24 4 -58 6 -62 24 -62 14 0 17 -6 14 -23 -5 -27 29 -93 46 -89 7 1 11 -18 11 -52 0 -30 5 -58 10 -61 6 -3 10 -14 10 -23 0 -10 9 -23 20 -30 14 -8 20 -23 20 -46 0 -26 8 -41 34 -64 24 -21 33 -36 30 -50 -4 -13 4 -27 24 -44 20 -17 31 -36 33 -59 4 -35 19 -59 39 -59 6 0 8 -5 5 -10 -3 -5 -1 -10 4 -10 6 0 11 -7 11 -16 0 -9 14 -29 30 -44 21 -20 30 -37 30 -60 0 -31 22 -65 34 -53 3 4 6 2 6 -4 0 -6 17 -28 38 -49 20 -20 36 -42 34 -47 -5 -17 9 -67 18 -62 9 6 40 -38 40 -57 0 -7 10 -18 23 -23 12 -6 22 -17 22 -26 0 -8 13 -28 28 -43 15 -15 27 -36 27 -47 0 -11 4 -18 9 -15 5 3 11 -1 15 -9 3 -8 12 -15 21 -15 8 0 15 -9 15 -20 0 -12 7 -20 17 -20 9 0 14 -3 11 -6 -3 -3 5 -16 19 -30 13 -13 21 -29 17 -36 -4 -6 -3 -8 3 -5 12 8 26 -20 18 -34 -4 -5 1 -6 9 -3 11 4 16 0 16 -10 0 -9 5 -16 11 -16 5 0 7 -4 4 -10 -3 -5 1 -10 10 -10 8 0 23 -13 34 -30 10 -16 21 -27 24 -23 4 3 7 -1 7 -9 0 -9 7 -18 15 -22 8 -3 23 -22 32 -41 13 -26 22 -35 35 -32 14 4 18 -1 18 -20 0 -19 4 -24 18 -21 19 5 46 -17 38 -31 -7 -10 18 -33 27 -25 11 11 34 -20 29 -39 -2 -10 -1 -17 4 -16 28 5 42 -2 37 -19 -3 -13 6 -23 34 -38 23 -12 39 -28 41 -42 2 -12 10 -22 18 -22 22 0 64 -30 64 -47 0 -8 4 -12 9 -9 11 7 43 -29 34 -38 -5 -4 -3 -7 2 -6 25 5 46 -1 39 -12 -4 -7 -3 -8 4 -4 7 4 23 -4 36 -17 14 -14 27 -22 30 -19 3 3 6 -2 6 -11 0 -10 3 -16 8 -15 10 4 61 -49 54 -56 -3 -3 4 -6 16 -6 12 0 32 -11 46 -25 14 -14 32 -25 40 -25 10 0 13 -6 10 -15 -4 -10 0 -15 11 -15 9 0 13 -5 10 -10 -3 -6 4 -10 17 -10 26 -1 58 -22 58 -38 0 -11 49 -25 67 -20 6 2 36 -23 67 -55 44 -45 62 -57 87 -57 21 0 39 -9 57 -28 15 -16 35 -31 44 -35 10 -3 18 -14 18 -22 0 -9 4 -14 9 -10 5 3 15 -1 23 -8 7 -7 28 -14 47 -16 23 -2 42 -13 59 -32 17 -21 30 -28 43 -24 13 4 28 -4 50 -29 23 -27 39 -36 63 -36 32 -1 71 -22 59 -33 -3 -4 3 -7 15 -7 11 0 24 -4 27 -10 8 -13 85 -13 85 0 0 7 7 7 21 -1 15 -7 18 -14 10 -18 -8 -5 -6 -12 6 -23 31 -26 42 -29 63 -16 18 11 23 10 35 -6 8 -10 16 -23 17 -28 2 -6 18 -11 36 -13 18 -1 35 -5 39 -9 3 -3 24 -6 46 -6 30 0 40 -4 44 -20 4 -15 14 -20 36 -20 41 0 98 -21 118 -42 12 -13 31 -18 67 -18 58 0 106 -15 97 -30 -3 -5 3 -10 14 -10 11 0 23 -5 26 -10 3 -6 48 -10 101 -10 59 0 94 -4 94 -11 0 -5 4 -8 9 -4 5 3 15 0 23 -7 7 -7 20 -14 28 -16 8 -2 17 -8 18 -13 2 -5 48 -9 103 -9 72 0 99 -3 99 -12 0 -10 2 -10 8 -1 6 9 12 7 25 -7 9 -11 28 -20 42 -20 14 0 25 -4 25 -9 0 -6 241 -10 610 -10 369 0 610 4 610 10 0 5 11 9 25 9 14 0 33 9 42 20 13 14 19 16 25 7 6 -9 8 -9 8 1 0 9 27 12 99 12 55 0 101 4 103 9 2 5 10 11 18 13 8 2 21 9 28 16 8 7 18 10 23 7 5 -4 9 -1 9 4 0 7 35 11 94 11 53 0 98 4 101 10 3 6 15 10 26 10 11 0 17 5 14 10 -9 15 39 30 97 30 36 0 55 5 67 18 20 21 77 42 118 42 22 0 32 5 36 20 4 16 14 20 45 20 23 0 44 5 47 10 4 6 10 8 15 5 16 -10 89 17 83 30 -2 7 0 16 6 20 6 3 11 2 11 -4 0 -15 49 -5 70 14 14 13 17 21 9 26 -8 4 -5 11 10 18 14 8 21 8 21 1 0 -13 77 -13 85 0 3 6 16 10 27 10 12 0 18 3 15 7 -12 11 27 32 59 33 24 0 40 9 63 36 21 23 37 34 48 30 10 -4 26 5 44 23 17 18 40 31 61 33 18 1 39 8 46 15 8 7 18 11 23 8 5 -4 9 1 9 10 0 8 8 19 18 22 9 4 29 19 44 35 18 19 36 28 57 28 25 0 43 12 86 56 44 46 61 57 90 59 24 1 41 10 56 28 12 16 30 27 45 27 14 0 22 4 19 10 -3 5 -2 10 4 10 6 0 29 18 51 40 22 22 50 40 60 40 11 0 20 7 20 15 0 8 5 15 11 15 6 0 9 7 5 15 -5 15 31 48 45 39 5 -2 21 9 37 26 16 16 32 27 36 23 4 -4 4 0 1 8 -8 21 19 42 54 43 16 1 27 4 24 8 -2 5 4 8 14 9 10 0 13 3 6 6 -8 3 -2 14 18 30 25 22 32 24 40 12 8 -12 10 -12 8 1 -4 28 13 49 48 61 26 8 34 16 30 29 -6 22 19 60 39 60 8 0 14 5 14 11 0 6 6 9 14 6 18 -7 36 11 29 29 -3 8 0 14 7 14 8 0 10 9 6 25 -7 27 -4 28 54 27 27 -1 31 1 18 8 -15 9 -15 51 1 48 8 -2 61 20 61 26 0 2 -10 2 -22 -2 -17 -4 -20 -2 -15 12 4 10 7 21 7 26 0 5 9 11 19 15 10 3 31 30 47 61 33 66 44 76 92 83 33 6 37 9 34 33 -4 31 18 77 53 112 14 14 25 32 25 40 0 26 63 106 87 112 16 4 23 14 23 30 0 28 32 64 58 64 27 0 32 9 20 35 -8 19 -5 34 18 82 16 32 39 62 52 68 17 7 22 18 22 46 0 21 8 47 20 61 18 23 104 198 181 368 17 36 38 83 49 105 28 61 81 206 89 245 4 19 15 46 23 60 9 14 19 41 23 60 4 19 23 82 41 140 19 58 34 117 34 131 0 15 7 44 16 65 9 22 21 73 26 114 5 41 15 93 23 115 7 22 23 110 35 195 11 85 28 196 35 246 21 129 21 784 0 887 -8 40 -19 113 -24 162 -17 143 -31 230 -47 287 -8 29 -19 84 -25 122 -6 38 -19 91 -30 118 -10 27 -19 56 -19 66 1 21 -65 240 -92 307 -11 28 -26 70 -33 95 -7 25 -23 63 -34 85 -12 21 -21 45 -21 51 0 12 -21 60 -121 272 -27 57 -49 107 -49 110 0 4 -8 18 -17 32 -10 13 -43 70 -73 125 -30 56 -70 123 -88 149 -18 26 -41 64 -53 84 -11 20 -33 55 -49 77 -17 22 -51 72 -77 110 -26 39 -73 101 -105 139 -32 38 -58 75 -58 82 0 7 -10 21 -23 31 -13 10 -52 52 -87 93 -35 41 -73 84 -85 96 -11 12 -63 66 -117 120 -53 54 -147 144 -209 199 -62 55 -127 114 -144 131 -17 17 -42 37 -55 44 -14 7 -49 34 -79 59 -30 25 -69 55 -86 66 -18 11 -68 45 -110 75 -43 30 -91 64 -109 74 -17 11 -60 38 -96 61 -36 23 -105 63 -153 89 -49 25 -100 55 -114 66 -14 11 -30 20 -36 20 -5 0 -48 19 -96 41 -47 23 -108 52 -136 64 -27 13 -76 35 -107 49 -31 14 -61 26 -67 26 -6 0 -36 11 -67 25 -31 14 -64 25 -74 25 -9 0 -37 11 -62 24 -25 13 -60 27 -79 31 -19 3 -74 19 -124 35 -49 16 -110 32 -135 36 -25 3 -57 13 -72 20 -15 8 -62 19 -105 25 -43 6 -108 19 -145 29 -37 10 -139 26 -225 35 -87 8 -185 20 -218 26 -73 14 -606 21 -690 9z m-1576 -1971 c14 -17 53 -58 86 -92 33 -34 119 -125 190 -202 118 -126 177 -189 315 -335 25 -26 97 -103 161 -171 165 -176 479 -510 504 -535 11 -12 70 -75 130 -139 61 -65 131 -140 157 -167 26 -26 94 -99 151 -161 57 -63 126 -136 153 -163 27 -27 110 -114 184 -194 74 -79 162 -174 195 -209 33 -35 87 -92 120 -126 69 -71 238 -252 475 -505 90 -96 236 -251 324 -344 89 -93 172 -181 186 -196 131 -142 280 -301 521 -555 57 -61 124 -132 149 -160 25 -27 72 -77 105 -110 33 -34 78 -81 100 -106 59 -66 534 -570 567 -601 31 -29 37 -68 13 -88 -11 -9 -207 -12 -840 -11 -454 0 -831 4 -839 8 -14 8 -324 293 -437 403 -32 30 -97 91 -144 135 -48 44 -111 103 -140 130 -108 103 -194 183 -289 270 -54 50 -120 110 -147 135 -125 117 -244 229 -349 328 -63 60 -140 131 -170 157 -30 25 -78 70 -106 98 -28 29 -91 89 -140 134 -50 45 -108 99 -130 120 -94 89 -167 153 -175 153 -5 0 -9 -451 -9 -1018 0 -985 -1 -1019 -19 -1036 -17 -16 -77 -17 -771 -17 -562 0 -755 3 -766 12 -12 9 -14 66 -14 325 0 304 1 314 20 324 13 7 113 10 291 9 148 -1 272 1 275 4 3 2 4 1017 4 2255 l0 2250 27 10 c44 16 54 14 82 -19z"/>
 <path d="M9437 3246 c-4 -10 -5 -21 -2 -24 9 -9 17 6 13 25 -3 17 -4 17 -11 -1z"/>
 </g>

</svg>